<svg id="Capa_1" enable-background="new 0 0 512 512" height="512" viewBox="0 0 512 512" width="512" xmlns="http://www.w3.org/2000/svg"><g><g><path d="m198.427 426.075v49.639c0 15.898 12.888 28.786 28.786 28.786 15.898 0 28.786-12.888 28.786-28.786v-49.639z" fill="#b9ebc2"/><path d="m256 426.075v49.639c0 15.898 12.888 28.786 28.786 28.786 15.898 0 28.786-12.888 28.786-28.786v-49.639z" fill="#8bdf9e"/><path d="m366.302 402.073-12.68-51.902-97.622-29.767-97.621 29.767-12.68 51.902c-5.435 22.246 11.411 43.703 34.312 43.703h151.98c22.9 0 39.746-21.457 34.311-43.703z" fill="#6a647f"/><path d="m95.462 187.52-12.069 39.08c-6.622 21.444-2.93 44.746 9.997 63.092 13.568 19.256 35.653 30.711 59.209 30.711h45.187v-160.551z" fill="#ff995d"/><path d="m416.538 187.52 12.069 39.08c6.622 21.444 2.93 44.746-9.997 63.092-13.568 19.256-35.653 30.711-59.209 30.711h-45.187v-160.551z" fill="#ffa875"/><circle cx="256" cy="232.248" fill="#8bdf9e" r="128.239"/><path d="m348.4 82.888-92.4 21.121-92.4-21.122 50.738-56.744c10.601-11.865 25.75-18.643 41.662-18.643s31.061 6.778 41.662 18.644z" fill="#bc9bdd"/><path d="m270.459 9.405c-4.671-1.251-9.528-1.905-14.459-1.905-15.912 0-31.061 6.778-41.662 18.644l-50.738 56.744 37.525 8.578c13.532-34.362 38.099-63.168 69.334-82.061z" fill="#b08bd7"/><path d="m392.476 132.187-136.476 31.157-136.476-31.157 44.076-49.299h184.8z" fill="#ffa875"/><path d="m204.793 82.888h-41.193l-44.076 49.299 70.075 15.998c.631-23.261 6.01-45.335 15.194-65.297z" fill="#ff995d"/><path d="m437.83 157.539c-5.298-15.184-19.621-25.355-35.702-25.355h-292.256c-16.081 0-30.404 10.171-35.702 25.355-5.115 14.659 5.766 29.981 21.292 29.981h321.077c15.525 0 26.407-15.322 21.291-29.981z" fill="#bc9bdd"/><g fill="#fff"><ellipse cx="174.681" cy="255.565" rx="30.005" ry="23.895"/><ellipse cx="337.319" cy="255.565" rx="30.005" ry="23.895"/></g><path d="m207.761 395.837c0-24.395 6.919-47.17 18.891-66.484l-68.274 20.818-12.68 51.902c-5.435 22.246 11.411 43.704 34.312 43.704h38.01c-6.597-15.32-10.259-32.202-10.259-49.94z" fill="#5c586f"/><path d="m318.543 293.142-3.332-2.384c-7.104-5.083-16.622-5.014-23.745.043-7.076 5.024-16.562 5.009-23.624-.043-7.082-5.067-16.603-5.067-23.685 0-7.062 5.052-16.549 5.067-23.624.043-7.123-5.057-16.64-5.126-23.745-.043l-3.332 2.384c-5.341 3.821-8.51 9.985-8.51 16.553v71.309c0 17.882 14.496 32.378 32.378 32.378h77.351c17.882 0 32.378-14.496 32.378-32.378v-71.309c.001-6.568-3.168-12.732-8.51-16.553z" fill="#bc9bdd"/><path d="m223.871 335.641c0-14.623 3.09-28.522 8.643-41.089-4.193.041-8.396-1.206-11.98-3.751-7.123-5.057-16.64-5.125-23.745-.042l-3.332 2.384c-5.341 3.821-8.51 9.985-8.51 16.553v71.309c0 17.882 14.496 32.378 32.378 32.378h42.647c-22.078-18.669-36.101-46.565-36.101-77.742z" fill="#b08bd7"/><path d="m186.138 309.68h-20.657c-13.763 0-24.92 11.157-24.92 24.92 0 13.763 11.157 24.92 24.92 24.92h20.657c13.763 0 24.92-11.157 24.92-24.92 0-13.762-11.157-24.92-24.92-24.92z" fill="#b9ebc2"/><path d="m325.862 309.68h20.657c13.763 0 24.92 11.157 24.92 24.92 0 13.763-11.157 24.92-24.92 24.92h-20.657c-13.763 0-24.92-11.157-24.92-24.92 0-13.762 11.157-24.92 24.92-24.92z" fill="#b9ebc2"/><path d="m189.533 152.808c0-6.984.435-13.865 1.265-20.625h-80.926c-16.081 0-30.404 10.171-35.702 25.355-5.115 14.659 5.766 29.981 21.292 29.981h97.683c-2.361-11.199-3.612-22.808-3.612-34.711z" fill="#b08bd7"/></g><g><path d="m192.168 212.797c-4.143 0-7.5 3.358-7.5 7.5v12.266c0 4.142 3.357 7.5 7.5 7.5 4.142 0 7.5-3.358 7.5-7.5v-12.266c0-4.142-3.358-7.5-7.5-7.5z"/><path d="m319.832 212.797c-4.142 0-7.5 3.358-7.5 7.5v12.266c0 4.142 3.358 7.5 7.5 7.5s7.5-3.358 7.5-7.5v-12.266c0-4.142-3.358-7.5-7.5-7.5z"/><path d="m277.756 226.544c-3.122-2.722-7.86-2.396-10.581.727-2.822 3.237-6.895 5.094-11.175 5.094s-8.353-1.857-11.174-5.094c-2.722-3.123-7.459-3.448-10.582-.727-3.123 2.722-3.448 7.459-.727 10.582 5.671 6.507 13.865 10.239 22.483 10.239s16.812-3.732 22.483-10.239c2.721-3.123 2.396-7.861-.727-10.582z"/><path d="m85.784 193.443-9.557 30.944c-7.256 23.495-3.132 49.523 11.032 69.625 11.336 16.088 28.109 27.311 47.035 31.758-.796 2.81-1.232 5.769-1.232 8.831 0 11.367 5.885 21.379 14.764 27.169l-9.412 38.523c-6.585 26.954 13.808 52.983 41.598 52.983h10.917v22.438c0 20.008 16.278 36.286 36.286 36.286 11.717 0 22.148-5.587 28.787-14.231 6.639 8.644 17.07 14.231 28.787 14.231 20.008 0 36.286-16.278 36.286-36.286v-22.438h10.917c27.747 0 48.193-25.988 41.597-52.983l-9.412-38.523c8.878-5.79 14.763-15.802 14.763-27.169 0-3.061-.436-6.021-1.232-8.83 18.926-4.447 35.699-15.67 47.035-31.758 14.164-20.101 18.288-46.129 11.032-69.625l-9.556-30.944c14.971-5.032 24.478-21.802 18.694-38.375-6.342-18.173-23.535-30.384-42.783-30.384h-6.3c-.099-.111-90.289-100.982-92.573-103.537-12.009-13.44-29.233-21.148-47.257-21.148s-35.248 7.708-47.253 21.145l-92.575 103.539h-6.3c-19.249 0-36.442 12.21-42.784 30.384-5.783 16.572 3.724 33.344 18.696 38.375zm56.407 118.615c-17.188-2.787-32.58-12.366-42.67-26.686-11.505-16.33-14.856-37.473-8.961-56.56l10.436-33.792h24.441c-.043.151-.079.305-.121.457-3.448 12.259-5.053 24.631-5.053 36.771 0 28.021 8.378 54.758 24.333 77.565-.691.583-1.352 1.202-1.993 1.841-.016.016-.033.032-.049.048-.121.12-.246.235-.363.356zm23.29 5.123h19.465c.603.081 5.67-.573 10.924 2.979 4.635 3.134 7.687 8.438 7.687 14.441 0 9.605-7.814 17.42-17.42 17.42-2.42 0-15.511 0-20.657 0-9.435 0-17.42-7.697-17.42-17.42.001-9.595 7.829-17.42 17.421-17.42zm35.671-20.323c4.385-3.137 10.449-3.199 15.04.059 3.998 2.839 8.563 4.482 13.223 4.969 6.623.691 13.439-.972 19.107-5.027 4.473-3.199 10.483-3.2 14.957 0 5.154 3.688 11.571 5.617 18.279 5.121 12.234-.91 13.665-7.464 21.602-7.496 5.726-.025 8.618 3.47 10.82 4.758 1.289.921 2.618 2.315 3.586 3.963-14.005 3.614-24.323 16.391-24.323 31.395v.001c0 15.903 11.595 29.082 26.112 31.804v14.6c0 13.718-11.16 24.878-24.878 24.878h-77.351c-13.718 0-24.878-11.161-24.878-24.878v-14.6c15.029-3.006 26.112-16.226 26.112-31.804 0-14.313-9.488-27.44-24.323-31.396 2.035-3.472 4.425-4.382 6.915-6.347zm162.787 37.743c0 9.769-8.033 17.42-17.42 17.42-3.276 0-16.05 0-20.657 0-9.605 0-17.42-7.815-17.42-17.42s7.815-17.42 17.42-17.42h20.657c9.655 0 17.42 7.864 17.42 17.42zm-136.726 162.399c-11.737 0-21.286-9.549-21.286-21.286v-22.438h42.573v22.438c0 11.737-9.549 21.286-21.287 21.286zm78.86-21.286c0 11.737-9.549 21.286-21.286 21.286s-21.287-9.549-21.287-21.286v-22.438h42.573zm43.9-108.876 9.043 37.015c4.279 17.512-8.969 34.423-27.026 34.423-43.242 0-108.686 0-151.98 0-18.027 0-31.311-16.884-27.026-34.423l9.043-37.015c3.256.362 7.751.093 15.419.183v13.983c0 21.992 17.873 39.878 39.878 39.878h77.351c21.939 0 39.878-17.831 39.878-39.878v-13.983c10.704-.013 12.765.092 15.352-.178.024-.002.046-.003.068-.005zm62.507-81.465c-10.09 14.32-25.483 23.899-42.67 26.686-.11-.113-1.477-1.464-2.41-2.249 5.938-8.518 11.082-18.066 15.013-28.05 1.512-3.856-.388-8.208-4.245-9.72-3.757-1.472-8.179.311-9.722 4.244-3.7 9.439-8.603 18.41-14.629 26.725-5.281-1.217-20.402-.829-20.302-.828-3.475-12.309-15.411-18.575-13.94-17.522-9.711-6.953-22.763-6.852-32.451.027-4.467 3.172-10.462 3.161-14.918-.027-9.647-6.902-22.674-6.968-32.413 0-4.459 3.189-10.451 3.198-14.918.027-7.792-5.534-17.872-6.748-26.706-3.184-3.315 1.337-6.211 3.489-9.083 5.545-5.202 3.725-8.954 9.225-10.602 15.133-13.548.017-15.718-.244-20.315.831-15.465-21.296-22.621-44.432-22.907-70.763 0-12.658 1.976-25.247 5.832-37.16.007-.022.015-.045.022-.067h229.768c.007.022.015.045.022.067 3.911 12.083 5.832 24.656 5.832 37.16 0 5.176-.44 12.206-1.422 18.568-.632 4.094 2.174 7.925 6.269 8.557 4.895.421 7.997-2.646 8.556-6.268 1.081-7.006 1.598-14.071 1.598-20.856 0-12.122-1.601-24.48-5.053-36.771-.043-.152-.079-.305-.122-.457h24.441l10.436 33.792c5.895 19.087 2.545 40.23-8.961 56.56zm-192.549-254.232c9.164-10.258 22.311-16.141 36.069-16.141s26.905 5.883 36.072 16.144l39.562 44.244h-151.267zm-138.68 128.869c4.242-12.158 15.744-20.326 28.621-20.326h67.956c4.143 0 7.5-3.358 7.5-7.5s-3.358-7.5-7.5-7.5h-41.536l30.663-34.296h178.09l30.663 34.296h-169c-4.142 0-7.5 3.358-7.5 7.5 0 4.143 3.357 7.5 7.5 7.5h195.421c12.877 0 24.378 8.168 28.621 20.326 3.411 9.776-3.818 20.01-14.211 20.01h-40.323-240.431-40.323c-10.354.001-17.635-10.197-14.211-20.01z"/></g></g></svg>