<svg id="Capa_1" enable-background="new 0 0 512 512" height="512" viewBox="0 0 512 512" width="512" xmlns="http://www.w3.org/2000/svg"><g><g><path d="m494.335 74.556-56.891-56.891c-14.902-14.903-39.54-13.19-52.237 3.632l-34.6 45.84 22.942 71.313 71.313 22.942 45.84-34.6c16.822-12.696 18.536-37.333 3.633-52.236z" fill="#f9d888"/><path d="m389.03 204.457-15.48-66.006-66.006-15.48c-62.352 62.351-97.937-73.681-272.004 119.644-14.107 15.667-23.382 35.09-26.688 55.911-5.479 34.504 5.899 69.544 30.603 94.247l79.773 79.773c24.703 24.703 59.744 36.081 94.247 30.602 20.822-3.306 40.244-12.581 55.912-26.688 193.324-174.066 57.292-209.652 119.643-272.003z" fill="#ff748f"/><path d="m306.856 156.88c25.304 0 49.775 2.762 72.943 8.219l-6.25-26.649-66.006-15.48c-62.352 62.352-97.937-73.681-272.004 119.645-14.107 15.667-23.382 35.09-26.688 55.912-5.479 34.503 5.899 69.544 30.603 94.247l4.383 4.383c12.046-134.693 125.192-240.277 263.019-240.277z" fill="#fd5f7e"/><path d="m470.485 50.706-33.041-33.041c-14.902-14.903-39.54-13.19-52.237 3.632l-34.6 45.84 13.871 43.117c23.888-33.787 62.221-56.628 106.007-59.548z" fill="#f5c956"/><path d="m439.556 153.931-81.486-81.487c-10.747-10.746-28.17-10.746-38.917 0l-11.609 11.609c-10.747 10.746-10.747 28.17 0 38.916l81.486 81.487c10.747 10.746 28.17 10.746 38.917 0l11.609-11.609c10.746-10.746 10.746-28.17 0-38.916z" fill="#ff9db0"/><circle cx="188.739" cy="323.261" fill="#e8e8e8" r="89.031"/><path d="m168.109 289.946c-2.516 1.561-4.897 3.422-7.081 5.605-15.304 15.304-15.304 40.117 0 55.421s40.117 15.304 55.421 0 15.304-40.117 0-55.421c-3.605-3.605-7.741-6.349-12.153-8.256z" fill="#4f4c5f"/><circle cx="185.879" cy="284.188" fill="#fff" r="18.692"/><g fill="#ff9db0"><circle cx="166.108" cy="421.829" r="32.329"/><circle cx="312.719" cy="223.062" r="24.999"/><circle cx="244.131" cy="202.119" r="18.439"/></g><path d="m378.744 93.119-20.674-20.674c-10.747-10.747-28.17-10.747-38.917 0l-11.609 11.609c-10.747 10.746-10.747 28.17 0 38.916l35.896 35.897c6.089-24.895 17.988-47.979 35.304-65.748z" fill="#ff748f"/></g><g><path d="m113.902 477.873c43.722 43.722 114.295 45.776 160.49 4.185 126.084-113.524 115.239-171.335 107.32-213.547-4.023-21.446-6.781-36.221 8.128-53.869 13.502 8.494 31.61 6.922 43.406-4.874l11.61-11.61c9.142-9.142 12.288-22.179 8.983-34.141l41.382-31.234c20.459-15.443 22.523-45.425 4.417-63.53l-56.895-56.895c-18.125-18.126-48.103-16.02-63.53 4.417l-31.248 41.4c-11.763-3.244-24.899-.262-34.127 8.965l-11.61 11.61c-12 11.999-13.266 30.141-4.881 43.412-17.646 14.903-32.422 12.147-53.867 8.125-17.436-3.27-39.136-7.339-66.442-.671-4.024.982-6.49 5.042-5.508 9.066.983 4.024 5.04 6.49 9.066 5.507 24.162-5.9 43.265-2.318 60.118.842 22.235 4.17 43.326 8.124 66.608-11.659 6.272 6.272 61.528 61.528 71.3 71.3-19.783 23.282-15.828 44.372-11.656 66.605 3.741 19.946 7.982 42.552-3.158 73.287-13.323 36.757-45.855 78.085-99.456 126.346-39.932 35.953-101.417 34.784-139.845-3.644l-79.778-79.778c-38.409-38.412-39.621-99.887-3.643-139.846 42.633-47.351 79.621-78.065 113.074-93.897 3.744-1.772 5.343-6.244 3.571-9.988-1.773-3.744-6.246-5.342-9.988-3.571-35.283 16.699-73.817 48.564-117.805 97.419-42.116 46.776-38.944 117.361 4.185 160.49zm247.479-412.572 29.807-39.49c9.976-13.217 29.302-14.495 40.95-2.847l56.895 56.895c11.684 11.684 10.326 31.007-2.847 40.95l-39.491 29.807c-.33-.384-1.223-1.37-1.838-1.984-7.195-7.195-70.253-70.253-81.491-81.492-.001-.001-.002-.001-.002-.002-.713-.714-1.882-1.751-1.983-1.837zm-48.544 24.055 11.61-11.61c7.865-7.865 20.569-7.738 28.312 0 18.256 18.256 65.925 65.926 81.492 81.492.006.006.01.012.016.018 7.673 7.686 7.924 20.352-.017 28.293l-11.61 11.61c-7.806 7.805-20.506 7.806-28.312 0l-81.491-81.491c-7.824-7.825-7.824-20.487 0-28.312z"/><path d="m155.705 356.29c18.204 18.204 47.826 18.205 66.032 0 18.205-18.205 18.205-47.827 0-66.031-2.921-2.921-6.185-5.406-9.733-7.444-.327-6.239-2.866-12.383-7.621-17.137-10.213-10.213-26.831-10.213-37.043 0-5.724 5.724-8.238 13.46-7.546 20.953-1.436 1.132-2.803 2.343-4.089 3.629-18.204 18.204-18.204 47.825 0 66.03zm22.242-80.006c4.364-4.364 11.464-4.365 15.829 0 5.283 5.283 3.988 14.311-2.707 17.824-3.249 1.705-7.165 1.705-10.414 0-6.625-3.476-8.039-12.492-2.708-17.824zm-11.99 24.944c11.527 13.439 32.686 11.796 42.079-3.08 15.212 11.698 16.544 34.085 3.094 47.536-12.356 12.356-32.46 12.356-44.818 0-12.236-12.237-12.354-32.073-.355-44.456z"/><path d="m335.69 246.051c12.672-12.672 12.672-33.291 0-45.963s-33.291-12.672-45.963 0-12.672 33.291 0 45.963c12.671 12.671 33.291 12.673 45.963 0zm-35.355-35.356c6.823-6.822 17.925-6.823 24.749 0 6.823 6.824 6.823 17.926 0 24.749-6.824 6.823-17.925 6.823-24.749 0s-6.824-17.926 0-24.749z"/><path d="m262.46 220.467c10.114-10.114 10.114-26.571 0-36.685s-26.571-10.114-36.685 0-10.114 26.571 0 36.685c10.113 10.113 26.571 10.114 36.685 0zm-26.078-26.078c4.265-4.265 11.206-4.265 15.471 0s4.265 11.205 0 15.471c-4.265 4.265-11.206 4.265-15.471 0-4.265-4.266-4.265-11.206 0-15.471z"/><path d="m120.459 255.013c-37.639 37.639-37.639 98.884 0 136.524 3.556 3.556 7.398 6.83 11.473 9.796-3.697 6.131-5.674 13.171-5.674 20.515 0 22.013 17.815 39.832 39.832 39.832 22.013 0 39.832-17.815 39.832-39.832 0-1.196-.06-2.382-.164-3.559 19.314-3.465 37.263-12.79 51.226-26.752 12.133-12.133 20.824-27.305 25.136-43.877 1.043-4.009-1.361-8.104-5.37-9.147-4.004-1.043-8.104 1.361-9.147 5.37-3.64 13.99-10.979 26.8-21.225 37.046-12.158 12.157-27.892 20.154-44.778 22.853-6.629-12.996-20.031-21.766-35.508-21.766-9.111 0-17.529 3.089-24.076 8.09-3.913-2.737-7.581-5.811-10.948-9.177-31.791-31.791-31.791-83.519 0-115.31 31.863-31.863 83.441-31.869 115.31 0 13.706 13.706 22.089 31.902 23.606 51.236.324 4.13 3.942 7.215 8.064 6.891 4.13-.324 7.215-3.934 6.891-8.064-1.796-22.893-11.723-44.439-27.954-60.67-37.728-37.726-98.794-37.731-136.526.001zm70.461 166.835c0 13.723-11.106 24.831-24.831 24.831-13.723 0-24.831-11.106-24.831-24.831 0-13.546 10.957-24.831 24.831-24.831 13.852.001 24.831 11.245 24.831 24.831z"/></g></g></svg>