<svg id="Capa_1" enable-background="new 0 0 512 512" height="512" viewBox="0 0 512 512" width="512" xmlns="http://www.w3.org/2000/svg"><g><g><path d="m385.341 439.904c-5.162-19.459-9.953-42.902-9.953-62.879l-44.913-19.671h-37.041v122.558h61.194c20.901.001 36.072-19.806 30.713-40.008z" fill="#4f4c5f"/><path d="m126.659 439.904c5.162-19.459 9.953-42.902 9.953-62.879l44.913-19.671h37.041v122.558h-61.194c-20.9.001-36.072-19.806-30.713-40.008z" fill="#4f4c5f"/><path d="m414.189 274.973c-21.172-17.396-42.005-24.617-42.005-24.617h-232.367s-20.833 7.221-42.005 24.617c-12.268 10.08-8.949 29.793 6.048 35.008 14.537 5.055 31.01 13.595 42.284 27.899h219.713c11.275-14.304 27.747-22.844 42.284-27.899 14.997-5.214 18.316-24.928 6.048-35.008z" fill="#ff748f"/><path d="m256 404.272-11.136 27.995 11.136 23.059 30.524 24.587 30.524-24.587v-51.054l-30.524-27.246z" fill="#5c586f"/><path d="m256 404.272v51.054l-30.524 24.587-30.524-24.587v-51.054l30.524-27.246z" fill="#6a647f"/><path d="m168.488 381.927-18.512 9.394c-12.121 6.144-27.007 1.353-33.201-10.846-6.164-12.17-1.314-27.027 10.856-33.201l18.512-9.394 22.345 15.706z" fill="#ffdcce"/><path d="m343.512 381.927 18.512 9.394c12.121 6.144 27.007 1.353 33.201-10.846 6.164-12.17 1.314-27.027-10.856-33.201l-18.512-9.394-25.927 15.706z" fill="#ffdcce"/><path d="m213.882 387.375-18.929 16.896v51.054l30.524 24.587 4.254-3.426c-8.465-22.205-14.254-51.338-15.849-89.111z" fill="#5c586f"/><path d="m215.094 302.901-68.95 34.979 22.344 44.047 26.467-13.427v35.771h122.09v-35.771l26.467 13.427 22.344-44.047-68.95-34.979z" fill="#e8e8e8"/><path d="m256 455.326v18.65c0 16.846-13.652 30.524-30.524 30.524-16.852 0-30.524-13.662-30.524-30.524v-18.65z" fill="#4f4c5f"/><path d="m256 455.326v18.65c0 16.846 13.652 30.524 30.524 30.524 16.852 0 30.524-13.662 30.524-30.524v-18.65z" fill="#423e4f"/><path d="m439.798 191.298c0-101.347-82.452-183.798-183.798-183.798-101.347 0-183.798 82.451-183.798 183.798z" fill="#5c586f"/><path d="m142.978 176.07c0-78.762 51.524-145.479 122.701-168.315-3.206-.167-6.433-.255-9.679-.255-101.347 0-183.798 82.452-183.798 183.798h71.436c-.429-5.02-.66-10.097-.66-15.228z" fill="#4f4c5f"/><circle cx="408.188" cy="190.31" fill="#ffcabd" r="36.004"/><path d="m399.313 140.692c-13.659-47.013-65.507-72.249-110.149-52.151-6.326 2.848-12.446 6.588-18.185 11.408-8.653 7.268-21.304 7.268-29.958 0-5.085-4.271-10.469-7.694-16.031-10.4-45.272-22.026-98.91 3.736-112.602 52.184-3.654 12.929-5.61 26.572-5.61 40.671-.001 82.367 66.71 139.266 149.077 139.344 82.481.078 149.366-56.88 149.366-139.343 0-14.478-2.062-28.475-5.908-41.713z" fill="#ffdcce"/><path d="m211.719 315.973c-41.811-32.324-68.742-82.965-68.742-139.903 0-33.37 9.252-64.576 25.324-91.202-25.916 7.663-47.847 28.325-55.914 56.866-1.203 4.256-2.202 8.597-3.028 12.999-1.809-.279-3.661-.426-5.548-.426-19.885 0-36.004 16.12-36.004 36.004s16.12 36.004 36.004 36.004c3.261 0 6.418-.441 9.423-1.254 14.36 45.288 51.429 78.202 98.485 90.912z" fill="#ffcabd"/><g fill="#ff9db0"><ellipse cx="166.638" cy="224.098" rx="32.973" ry="26.258"/><ellipse cx="345.362" cy="224.098" rx="32.973" ry="26.258"/></g><path d="m214.912 404.271c-.966-11.891-1.484-24.73-1.484-38.606 0-22.671 5.617-44.026 15.523-62.765h-13.857l-68.951 34.979 22.345 44.047 26.467-13.427v35.771h19.957z" fill="#e0e0e0"/><path d="m238.043 326.043s-49.229 45.39-49.229-13.185 49.229-13.185 49.229-13.185z" fill="#fd5f7e"/><path d="m273.958 326.043s49.229 45.39 49.229-13.185-49.229-13.185-49.229-13.185z" fill="#fd5f7e"/><path d="m263.636 291.718h-15.561c-11.675 0-21.14 9.465-21.14 21.14 0 11.675 9.465 21.14 21.14 21.14h15.561c11.675 0 21.14-9.465 21.14-21.14 0-11.675-9.465-21.14-21.14-21.14z" fill="#ff748f"/><path d="m223.064 455.326h-28.112v18.65c0 16.862 13.672 30.523 30.524 30.523 5.752 0 11.128-1.592 15.718-4.354-7.208-11.736-13.418-26.492-18.13-44.819z" fill="#423e4f"/></g><g><path d="m256 214.345c9.255 0 18.057-4.008 24.148-10.998 2.721-3.123 2.396-7.86-.727-10.582-3.122-2.721-7.86-2.396-10.582.727-3.241 3.719-7.921 5.852-12.839 5.852s-9.598-2.133-12.84-5.853c-2.722-3.123-7.459-3.448-10.582-.727-3.123 2.722-3.448 7.459-.726 10.582 6.091 6.99 14.893 10.999 24.148 10.999z"/><path d="m170.161 180.555 8.966 2.402c-.49.998-.774 2.115-.774 3.302v11.644c0 4.142 3.358 7.5 7.5 7.5s7.5-3.358 7.5-7.5v-11.133l3.839 1.029c.65.174 1.303.257 1.946.257 3.311 0 6.342-2.21 7.24-5.561 1.072-4.001-1.303-8.113-5.304-9.186l-27.031-7.243c-3.997-1.072-8.113 1.302-9.186 5.303-1.071 4.002 1.303 8.114 5.304 9.186z"/><path d="m312.861 188.056c.643 0 1.296-.083 1.946-.257l3.839-1.029v11.134c0 4.142 3.358 7.5 7.5 7.5s7.5-3.358 7.5-7.5v-11.644c0-1.187-.283-2.305-.774-3.302l8.966-2.402c4.001-1.072 6.375-5.185 5.304-9.186-1.072-4.001-5.187-6.375-9.186-5.303l-27.031 7.243c-4.001 1.072-6.375 5.185-5.304 9.186.898 3.35 3.929 5.56 7.24 5.56z"/><path d="m108.191 233.569c2.456 6.68 5.391 13.126 8.804 19.293-6.954 3.912-15.418 9.31-23.945 16.316-16.868 13.859-12.12 40.77 8.346 47.887 13.4 4.659 24.291 10.904 32.524 18.607l-9.682 4.913c-15.825 8.028-22.175 27.443-14.151 43.285 3.774 7.434 10.065 12.759 17.311 15.5-1.588 11.602-4.258 24.544-7.99 38.61-6.623 24.969 12.132 49.432 37.963 49.432h32.539c5.443 14.354 19.329 24.588 35.566 24.588 12.488 0 23.588-6.053 30.524-15.378 6.936 9.325 18.036 15.378 30.524 15.378 16.237 0 30.123-10.234 35.564-24.587h32.54c25.823 0 44.59-24.448 37.962-49.432-3.731-14.066-6.401-27.009-7.989-38.611 7.247-2.743 13.539-8.07 17.314-15.506 8.021-15.835 1.671-35.25-14.153-43.278l-9.683-4.914c8.234-7.703 19.124-13.947 32.525-18.607 20.49-7.126 25.192-34.047 8.346-47.887-8.554-7.028-17.044-12.438-24.011-16.354 3.441-6.181 6.399-12.609 8.856-19.257 25.837 2.627 47.897-17.744 47.897-43.257 0-7.84-2.095-15.195-5.739-21.554-11.313-95.878-93.047-168.756-189.953-168.756-36.481 0-71.99 10.364-102.687 29.973-3.491 2.229-4.513 6.867-2.284 10.357 2.23 3.491 6.868 4.513 10.358 2.283 28.282-18.064 60.998-27.613 94.613-27.613 82.322 0 153.342 57.229 171.734 136.414-6.019-3.025-12.751-4.538-19.085-4.605-7.431-32.238-26.365-53.428-50.622-64.626-30.418-14.041-66.194-9.54-91.872 12.023-5.884 4.942-14.426 4.942-20.311 0-24.627-20.684-59.666-26.362-90.789-12.421-27.683 12.406-45.006 35.934-51.703 65.024-6.384.067-13.112 1.603-19.087 4.605 8.124-34.972 26.862-66.814 54.001-91.215 3.08-2.77 3.332-7.512.563-10.592s-7.511-3.332-10.592-.563c-34.723 31.221-56.759 73.681-62.19 119.713-3.643 6.359-5.738 13.714-5.738 21.553-.001 25.359 21.903 45.892 47.882 43.259zm-32.883-43.259c0-14.357 10.789-26.668 25.306-28.316-1.011 7.773-1.276 13.7-1.336 20.411 0 12.442 1.545 24.976 4.385 36.409-15.649-.082-28.355-12.837-28.355-28.504zm148.315 107.636c-5.589 9.141-5.559 20.72 0 29.824-4.933 3.352-15.579 9.441-20.966 6.98-6.374-2.915-6.59-19.448-6.223-26.433.381-2.273.661-16.174 7.284-17.708 5.641-1.316 14.957 4.004 19.905 7.337zm24.451 1.272h15.562c7.471 0 13.64 6.131 13.64 13.639v.001c0 7.151-5.034 13.137-13.64 13.64h-15.561c-.006 0-.012-.001-.019-.001-7.593-.008-13.622-6.25-13.622-13.639.001-7.375 6.017-13.64 13.64-13.64zm60.296-8.584c5.986 1.5 7.121 13.72 7.285 19.907.175 6.599-.345 21.485-6.318 24.21-5.492 2.51-16.154-3.738-21.172-7.124 5.414-8.859 5.512-20.422 0-29.539 4.95-3.34 14.39-8.862 20.205-7.454zm-105.918 121.138h46.048v36.054h-46.047v-36.054zm61.048 0h46.048v36.054h-46.048zm46.045-43.272v28.271h-107.09v-28.271c0-5.584-5.907-9.219-10.893-6.688l-19.779 10.034c-4.497-8.864-12.631-24.899-15.559-30.67l26.397-13.391c4.472 22.306 22.551 32.078 52.212 10.462 4.065 2.121 8.666 3.251 13.24 3.251h15.562c4.69 0 9.341-1.178 13.401-3.339 29.1 21.402 47.77 12.431 52.342-10.375l26.396 13.391c-6.177 12.177-11.409 22.491-15.559 30.67l-19.778-10.034c-4.978-2.525-10.892 1.096-10.892 6.689zm-206.972-87.732c8.002-6.576 15.961-11.603 22.404-15.187 13.28 18.812 31.382 34.413 53.481 45.614.617.313 1.226.638 1.849.944l-32.311 16.392c-10.197-10.944-24.184-19.552-41.673-25.633-9.413-3.274-11.548-15.724-3.75-22.13zm20.893 96.318c-4.286-8.461-.895-18.834 7.56-23.124l11.823-6 15.559 30.67c-11.099 5.633-14.119 7.936-19.842 7.846-.121-.001-.242-.001-.363-.006-6.051-.222-11.811-3.623-14.737-9.386zm10.442 64.741c3.896-14.685 6.705-28.278 8.377-40.519 8.887-.96 9.247-2.791 45.17-20.593-.005 52.404-.003 39.436-.003 91.698h-30.08c-15.963 0-27.566-15.117-23.464-30.586zm91.568 55.173c-12.714 0-23.023-10.357-23.023-23.024v-11.15h46.047v11.15c0 12.695-10.329 23.024-23.024 23.024zm61.048 0c-12.695 0-23.024-10.329-23.024-23.024v-11.15h46.048v11.15c0 12.625-10.27 23.024-23.024 23.024zm68.104-24.587h-30.08l-.003-91.698c31.992 16.232 30.084 15.264 30.685 15.569 2.037.895 6.965 4.242 14.485 5.024 1.672 12.241 4.481 25.834 8.376 40.519 4.109 15.488-7.521 30.586-23.463 30.586zm33.909-95.333c-4.308 8.486-14.704 11.802-23.098 7.563-.631-.319-11.846-6.01-11.846-6.01l15.559-30.67 11.824 6c8.452 4.288 11.844 14.662 7.561 23.117zm19.808-158.267c2.169-8.708 3.536-17.724 4.09-26.984.008-.131.014-.263.021-.395.565-9.886.175-19.932-1.068-29.439 14.854 1.692 25.303 14.29 25.303 28.316.001 15.663-12.701 28.416-28.346 28.502zm-247.155-123.34c25.421-11.391 54.421-7.071 75.008 10.219 11.5 9.652 28.147 9.622 39.605 0 20.937-17.585 50.468-21.649 75.938-9.891 36.783 16.981 48.673 56.817 45.579 97.206-2.235 29.443-13.5 54.894-31.738 75.208-2.964 3.302-2.433 8.449 1.169 11.076 3.072 2.255 7.411 1.856 10.011-1.037 3.663-4.077 7.056-8.322 10.175-12.722 6.458 3.588 14.453 8.632 22.491 15.236 7.794 6.403 5.666 18.855-3.75 22.129-17.489 6.081-31.476 14.689-41.673 25.633l-32.306-16.389c7.951-3.926 15.521-8.531 21.977-13.189 3.394-2.447 4.092-7.145 1.698-10.47 0 0 0 0-.001-.001-.002-.002-.003-.005-.005-.008-2.424-3.358-7.111-4.118-10.471-1.693-4.718 3.405-10.269 6.894-15.793 9.828-4.846-21.326-22.99-30.459-52.067-9.051-3.932-2.092-8.553-3.334-13.368-3.338-.011 0-.022-.001-.033-.001h-15.561c-.011 0-.022.001-.034.001-4.421.004-9.058 1.074-13.204 3.249-29.35-21.484-47.161-11.899-51.941 9.144-42.581-22.676-68.618-64.367-68.618-114.208.001-37.624 12.727-71.612 46.912-86.931z"/></g></g></svg>