<svg id="Capa_1" enable-background="new 0 0 512 512" height="512" viewBox="0 0 512 512" width="512" xmlns="http://www.w3.org/2000/svg"><g><g><path d="m314.125 402.501v72.937c0 16.051-13.012 29.063-29.063 29.063-16.051 0-29.063-13.012-29.063-29.063l-15.954-29.327 15.955-43.61z" fill="#8bdf9e"/><path d="m197.875 402.501v72.937c0 16.051 13.012 29.063 29.063 29.063 16.051 0 29.063-13.012 29.063-29.063v-72.937z" fill="#b9ebc2"/><path d="m425.087 349.162c-23.799-17.205-48.844-29.115-74.439-35.4-19.529-4.795-32.454-4.508-34.846-4.402-15.197.681-26.982 13.551-26.308 28.755.676 15.204 13.55 26.983 28.755 26.308.319-.014 33.739-.094 74.547 29.407 12.367 8.94 29.585 6.113 38.479-6.189 8.918-12.335 6.147-29.563-6.188-38.479z" fill="#fed2a4"/><path d="m86.913 349.162c23.799-17.205 48.844-29.115 74.439-35.4 19.529-4.795 32.454-4.508 34.846-4.402 15.197.681 26.982 13.551 26.308 28.755-.676 15.204-13.55 26.983-28.755 26.308-.319-.014-33.739-.094-74.547 29.407-12.367 8.94-29.585 6.113-38.479-6.189-8.918-12.335-6.147-29.563 6.188-38.479z" fill="#fed2a4"/><path d="m80.399 183.099c0-46.861 18.652-89.546 52.519-120.191 32.346-29.269 76.057-45.388 123.082-45.388s90.736 16.119 123.082 45.388c33.868 30.645 52.519 73.33 52.519 120.191z" fill="#5c586f"/><circle cx="401.537" cy="193.12" fill="#ffbd86" r="39.558"/><path d="m401.537 183.099c0 80.378-65.159 125.495-145.537 125.495s-145.537-45.117-145.537-125.495 65.159-135.516 145.537-135.516 145.537 55.138 145.537 135.516z" fill="#fed2a4"/><path d="m193.461 298.302c-29.863-31.597-48.179-74.223-48.179-121.131 0-43.899 16.042-84.048 42.577-114.917-37.589 17.544-65.383 49.836-74.321 91.444-.995-.082-2.013-.136-3.074-.136-21.847 0-39.558 17.711-39.558 39.558s17.711 39.558 39.558 39.558c3.385 0 6.428-.427 9.158-1.227 13.242 32.005 39.915 54.699 73.839 66.851z" fill="#ffbd86"/><path d="m386.278 55.911c-.157-.143-.315-.287-.473-.429-34.193-30.946-80.29-47.982-129.805-47.982s-95.612 17.036-129.805 47.982c-.158.143-.316.286-.473.429-19.034 17.349-6.553 49.085 19.201 49.085h222.153c25.754 0 38.235-31.736 19.202-49.085z" fill="#ffa875"/><path d="m315.802 309.36c-15.197.682-26.982 13.551-26.308 28.755.676 15.205 13.55 26.983 28.755 26.308.319-.014 33.739-.094 74.547 29.407 1.018.736 2.071 1.384 3.148 1.962 9.407-19.453 11.681-40.754 6.971-60.916-17.003-9.672-34.503-16.751-52.268-21.113-19.528-4.797-32.453-4.509-34.845-4.403z" fill="#ffbd86"/><path d="m222.505 338.115c.675-15.205-11.111-28.074-26.307-28.755-2.392-.106-15.317-.393-34.846 4.402-17.765 4.362-35.265 11.441-52.268 21.113-4.71 20.162-2.435 41.464 6.971 60.916 1.076-.578 2.13-1.226 3.148-1.962 40.808-29.5 74.229-29.421 74.547-29.407 15.205.676 28.08-11.102 28.755-26.307z" fill="#ffbd86"/><path d="m369.385 319.037-12.036-18.65c-12.364-19.158-33.607-30.732-56.408-30.732h-89.882c-22.802 0-44.045 11.573-56.409 30.732l-12.036 18.65c-28.136 43.598 1.686 102.006 53.554 103.478.679.019 1.361.029 2.046.029h115.569c.685 0 1.367-.01 2.046-.029 51.87-1.472 81.692-59.88 53.556-103.478z" fill="#ffa875"/><g fill="#423e4f"><path d="m212.279 330.983-10.562-15.261c-3.506-5.066-10.994-5.066-14.5 0l-10.562 15.261c-4.047 5.848.138 13.835 7.25 13.835h21.123c7.112-.001 11.298-7.988 7.251-13.835z"/><path d="m299.721 330.983 10.562-15.261c3.506-5.066 10.994-5.066 14.5 0l10.562 15.261c4.047 5.848-.138 13.835-7.25 13.835h-21.123c-7.112-.001-11.298-7.988-7.251-13.835z"/><path d="m270.652 350.562-8.688-12.554c-2.884-4.167-9.044-4.167-11.928 0l-8.688 12.554c-3.329 4.811.114 11.381 5.964 11.381h17.376c5.851-.001 9.294-6.571 5.964-11.381z"/></g><path d="m197.875 422.543h58.125v30.957h-58.125z" fill="#8bdf9e"/><path d="m256 422.543h58.125v30.957h-58.125z" fill="#73d98b"/><path d="m271.397 8.066c-5.09-.369-10.223-.566-15.397-.566-49.515 0-95.612 17.036-129.805 47.981-.158.143-.315.286-.473.429-19.034 17.35-6.553 49.085 19.201 49.085h15.758c20.863-46.462 61.25-82.246 110.716-96.929z" fill="#ff995d"/><g><g><g><ellipse cx="163.887" cy="216.411" fill="#ff9db0" rx="33.988" ry="27.066"/></g><g><ellipse cx="348.113" cy="216.411" fill="#ff9db0" rx="33.988" ry="27.066"/></g></g></g><path d="m164.084 335.111c0-20.479 5.034-39.78 13.92-56.746-9.309 5.267-17.372 12.753-23.354 22.021l-12.036 18.65c-28.136 43.598 1.686 102.006 53.554 103.478.522.015 1.048.019 1.573.022-20.857-21.063-33.657-50.881-33.657-87.425z" fill="#ff995d"/></g><g><path d="m176.196 176.462v13.894c0 4.142 3.357 7.5 7.5 7.5 4.142 0 7.5-3.358 7.5-7.5v-13.894c0-4.142-3.358-7.5-7.5-7.5-4.143 0-7.5 3.358-7.5 7.5z"/><path d="m335.804 190.356v-13.894c0-4.142-3.358-7.5-7.5-7.5s-7.5 3.358-7.5 7.5v13.894c0 4.142 3.358 7.5 7.5 7.5s7.5-3.358 7.5-7.5z"/><path d="m256 206.126c9.474 0 18.482-4.103 24.717-11.257 2.721-3.123 2.396-7.86-.727-10.582s-7.86-2.396-10.582.727c-3.385 3.884-8.272 6.112-13.409 6.112s-10.023-2.228-13.408-6.112c-2.721-3.123-7.459-3.448-10.582-.727s-3.448 7.459-.727 10.582c6.236 7.154 15.245 11.257 24.718 11.257z"/><path d="m307.307 382.887c-8.28-5.137-18.569-5.137-26.849 0-3.403 2.111-7.63 2.111-11.034 0-8.28-5.137-18.568-5.137-26.849 0-3.403 2.111-7.631 2.111-11.033 0-8.281-5.137-18.569-5.137-26.849 0-3.52 2.184-4.603 6.807-2.419 10.327s6.808 4.603 10.327 2.419c3.402-2.111 7.63-2.111 11.033 0 4.141 2.569 8.782 3.853 13.425 3.853 4.642 0 9.284-1.284 13.424-3.853 3.403-2.111 7.63-2.111 11.034 0 8.28 5.137 18.568 5.137 26.849 0 3.403-2.111 7.631-2.111 11.033 0 3.52 2.184 8.143 1.101 10.327-2.419 2.183-3.52 1.1-8.143-2.419-10.327z"/><path d="m218.446 326.714-10.562-15.26c-3.047-4.403-8.063-7.032-13.417-7.032-5.354 0-10.37 2.629-13.417 7.032l-10.562 15.26c-7.48 10.809.265 25.603 13.417 25.603h21.123c13.146 0 20.902-14.788 13.418-25.603zm-35.623 8.536 10.562-15.26c.528-.763 1.638-.764 2.166 0l10.562 15.26c.61.883-.006 2.067-1.083 2.067h-21.123c-1.076 0-1.697-1.183-1.084-2.067z"/><path d="m330.95 311.454c-6.483-9.368-20.353-9.366-26.834 0l-10.562 15.26c-7.48 10.808.265 25.603 13.417 25.603h21.123c13.144 0 20.903-14.788 13.417-25.603zm-2.856 25.863h-21.123c-1.073 0-1.694-1.179-1.083-2.067l10.562-15.261c.521-.753 1.645-.753 2.166 0l10.562 15.26c.612.887-.011 2.068-1.084 2.068z"/><path d="m247.312 369.442h17.376c11.884 0 18.898-13.371 12.131-23.149l-8.688-12.554c-5.862-8.469-18.401-8.468-24.263 0l-8.688 12.554c-6.763 9.772.24 23.149 12.132 23.149zm8.688-26.873 8.217 11.874h-16.435z"/><path d="m396.774 239.918c27.992 2.862 51.821-19.253 51.821-46.798 0-11.262-3.98-21.608-10.603-29.717-3.502-31.781-15.562-61.353-35.008-85.876.344-10.128-3.691-19.901-11.649-27.155-2.844-2.216-18.326-17.684-46.314-30.894-3.746-1.768-8.216-.164-9.984 3.582s-.164 8.216 3.582 9.984c25.441 12.007 39.209 25.763 42.608 28.41 13.908 12.677 4.845 36.042-14.149 36.042h-158.03c-4.142 0-7.5 3.358-7.5 7.5s3.358 7.5 7.5 7.5c165.809-.139 158.455.35 163.517-.405 13.717 19.852 21.474 44.29 21.474 71.008 0 39.034-16.394 72.094-48.779 93.606-13.33-9.853-28.997-14.55-44.318-14.55h-89.882c-15.878 0-31.423 5.018-44.318 14.55-31.826-21.14-48.778-53.851-48.778-93.606 0-25.355 7.016-50.052 21.474-71.008 4.719.704 5.109.281 39.61.405 4.142 0 7.5-3.358 7.5-7.5s-3.358-7.5-7.5-7.5h-34.123c-19.42 0-27.82-23.581-14.144-36.046 1.341-.804 45.725-46.45 125.219-46.45 18.142 0 35.963 2.38 52.967 7.075 3.995 1.103 8.124-1.241 9.226-5.233 1.103-3.993-1.241-8.123-5.233-9.226-18.305-5.053-37.469-7.616-56.96-7.616-85.914 0-133.681 49.379-135.33 50.368-7.961 7.256-11.997 17.03-11.653 27.159-19.446 24.523-31.505 54.095-35.008 85.875-6.623 8.109-10.604 18.456-10.604 29.718 0 27.592 23.878 49.654 51.821 46.798 8.864 18.654 22.4 34.647 40.147 47.164-2.55 2.866-4.902 5.949-7.024 9.238l-10.987 17.024c-18.78 7.007-37.219 16.998-54.843 29.739-15.702 11.351-19.226 33.247-7.873 48.951 11.29 15.616 33.238 19.232 48.951 7.873 3.48-2.516 7.042-4.88 10.639-7.106 11.917 20.982 32.482 34.417 56.139 36.839v45.797c0 20.161 16.402 36.563 36.563 36.563 11.839 0 22.376-5.66 29.063-14.412 6.685 8.752 17.223 14.412 29.062 14.412 20.161 0 36.563-16.402 36.563-36.563v-45.797c23.656-2.422 44.223-15.857 56.139-36.84 3.596 2.227 7.159 4.591 10.639 7.107 15.764 11.396 37.699 7.692 48.951-7.873 11.351-15.702 7.833-37.598-7.874-48.951-17.625-12.741-36.063-22.732-54.843-29.739l-10.987-17.024c-2.122-3.289-4.474-6.372-7.024-9.238 17.747-12.517 31.283-28.51 40.147-47.164zm5.901-14.76c4.335-13.437 6.362-28.163 6.362-42.059 0-7.267-.605-14.993-1.547-21.464 15.084 2.867 26.104 16.025 26.104 31.486.001 17.296-13.767 31.436-30.919 32.037zm1.684-79.01c-3.696-14.161-9.876-27.951-17.425-39.574 4.33-2.892 8.038-6.831 10.662-11.129 11.209 16.427 19.05 34.969 23.157 54.732-4.901-2.208-10.568-3.676-16.394-4.029zm-289.955-50.703c2.616 4.277 6.309 8.222 10.663 11.129-7.59 11.684-13.698 25.313-17.426 39.574-5.526.335-11.251 1.711-16.394 4.028 4.108-19.762 11.949-38.304 23.157-54.731zm-5.079 129.713c-17.152-.601-30.92-14.742-30.92-32.038 0-15.398 10.959-28.607 26.104-31.486-2.988 20.519-1.754 43.159 4.816 63.524zm5.484 162.593c-8.963 6.479-21.526 4.459-28.007-4.505-6.494-8.983-4.481-21.511 4.505-28.006 11.762-8.502 23.885-15.695 36.209-21.491-4.474 14.428-4.443 30.23.55 45.22-4.492 2.715-8.931 5.655-13.257 8.782zm112.128 109.249c-11.89 0-21.563-9.673-21.563-21.563v-45.395h43.126v45.395c0 11.89-9.673 21.563-21.563 21.563zm58.126 0c-11.89 0-21.563-9.673-21.563-21.563v-45.395h43.125v45.395c0 11.89-9.673 21.563-21.562 21.563zm80.622-113.369c-10.131 19.24-29.261 31.279-51.589 31.408-.745.004-115.776.004-115.88.004-.354-.103-34.328 1.96-51.901-31.411-10.022-19.036-9.513-41.705 2.602-60.528 10.719-15.776 13.214-22.84 23.235-31.505 11.142-9.59 25.071-14.443 38.907-14.443h89.881c19.662 0 38.814 9.799 50.106 27.298l12.036 18.65c11.697 18.093 12.995 40.795 2.603 60.527zm55.009-28.391c8.983 6.494 11 19.022 4.504 28.006-6.48 8.964-19.043 10.984-28.007 4.505-4.326-3.127-8.765-6.067-13.256-8.782 5.01-15.04 5.003-30.832.55-45.22 12.324 5.796 24.446 12.988 36.209 21.491z"/></g></g></svg>