<svg id="Capa_1" enable-background="new 0 0 512 512" height="512" viewBox="0 0 512 512" width="512" xmlns="http://www.w3.org/2000/svg"><g><g><path d="m504.5 442.355v61.74h-497v-61.74l248.5-37.872z" fill="#edb798"/><path d="m256 7.905c-102.583 0-185.743 83.16-185.743 185.743v239.143h371.486v-239.143c0-102.583-83.16-185.743-185.743-185.743z" fill="#b2b0bc"/><path d="m159.947 261.976c-9.792-6.93-23.347-4.611-30.278 5.181-6.93 9.792-4.611 23.347 5.181 30.278l38.441 27.208 25.097-35.458z" fill="#8bdf9e"/><path d="m170.009 225.476c0-11.996 9.725-21.721 21.721-21.721 11.996 0 21.721 9.725 21.721 21.721 0-11.996 9.725-21.721 21.721-21.721 11.996 0 21.721 9.725 21.721 21.721 0-11.996 9.725-21.721 21.721-21.721 11.996 0 21.721 9.725 21.721 21.721 0-11.996 9.725-21.721 21.721-21.721 11.996 0 21.721 9.725 21.721 21.721v179.007h-173.768z" fill="#b9ebc2"/><path d="m103.719 239.473c0-98.726 29.882-184.442 113.703-227.545-84.067 17.759-147.164 92.366-147.164 181.72v239.144h79.374c-28.944-37.781-45.913-97.848-45.913-193.319z" fill="#a19dae"/><path d="m111.527 440.529c0-4.738.17-9.437.471-14.099l-104.498 15.925v61.74h113.548c-6.185-20.096-9.521-41.441-9.521-63.566z" fill="#e8a882"/><path d="m504.5 415.145v27.21h-497v-27.21c0-9.81 3.12-19.08 8.57-26.68 5.44-7.61 13.21-13.55 22.49-16.71 10.07-3.43 20.57-5.14 31.06-5.14 10.5 0 21 1.71 31.07 5.14s20.57 5.14 31.06 5.14 20.99-1.71 31.06-5.14 20.57-5.14 31.07-5.14c10.49 0 20.99 1.71 31.06 5.14s20.56 5.14 31.06 5.14 20.99-1.71 31.06-5.14 20.57-5.14 31.06-5.14c10.5 0 21 1.71 31.07 5.14s20.57 5.14 31.06 5.14 20.99-1.71 31.06-5.14c20.14-6.86 41.99-6.86 62.13 0 18.57 6.32 31.06 23.77 31.06 43.39z" fill="#8bdf9e"/><path d="m111.527 440.529c0-22.366 3.403-43.938 9.718-64.225-6.955-.762-13.851-2.266-20.555-4.549-10.07-3.43-20.57-5.14-31.07-5.14-10.49 0-20.99 1.71-31.06 5.14-9.28 3.16-17.05 9.1-22.49 16.71-5.45 7.6-8.57 16.87-8.57 26.68v27.21h104.05c-.005-.609-.023-1.215-.023-1.826z" fill="#73d98b"/></g><g><path d="m227.719 93.078c0-13.602-11.502-24.668-25.64-24.668h-17.554c-.004 0-.007 0-.011 0s-.007 0-.011 0c-4.142 0-7.5 3.358-7.5 7.5v66.06c0 4.142 3.358 7.5 7.5 7.5s7.5-3.358 7.5-7.5v-20.706l22.585 25.661c2.74 3.114 7.48 3.408 10.585.675 3.109-2.737 3.412-7.476.675-10.585l-17.598-19.995c11.166-2.665 19.469-12.386 19.469-23.942zm-25.64 9.669c-2.315 0-6.359.017-9.975.035-.049-9.345-.023-7.417-.056-19.371h10.031c5.767 0 10.64 4.428 10.64 9.668s-4.873 9.668-10.64 9.668z"/><path d="m296.095 68.41c-4.119 0-7.5 3.355-7.5 7.5v66.06c0 4.142 3.358 7.5 7.5 7.5s7.5-3.358 7.5-7.5v-21.235c3.89-.021 8.375-.041 10.894-.041 14.616 0 26.507-11.728 26.507-26.142s-11.891-26.142-26.507-26.142zm29.901 26.142c0 6.04-5.27 11.142-11.507 11.142-2.502 0-6.931.02-10.808.04-.058-11.261-.025-8.401-.064-22.324h10.872c6.238 0 11.507 5.103 11.507 11.142z"/><path d="m249.776 75.91v66.06c0 4.142 3.358 7.5 7.5 7.5s7.5-3.358 7.5-7.5v-66.06c0-4.142-3.358-7.5-7.5-7.5s-7.5 3.358-7.5 7.5z"/><path d="m7.5 511.595h497c4.142 0 7.5-3.358 7.5-7.5 0-10.806 0-78.847 0-88.95 0-22.842-14.525-43.132-36.142-50.49-8.615-2.935-17.58-4.678-26.615-5.271v-165.736c0-48.931-18.336-95.621-51.63-131.468-2.819-3.035-7.564-3.21-10.6-.392s-3.21 7.564-.392 10.6c30.709 33.064 47.621 76.128 47.621 121.26v165.79c-24.46 1.905-29.614 9.958-53.993 9.958-10.024 0-19.544-1.639-28.975-4.846v-139.074c0-16.112-13.108-29.221-29.221-29.221-8.613 0-16.368 3.747-21.721 9.694-5.353-5.948-13.108-9.694-21.721-9.694s-16.368 3.747-21.721 9.694c-5.353-5.948-13.108-9.694-21.721-9.694s-16.368 3.747-21.721 9.694c-5.353-5.948-13.108-9.694-21.721-9.694-16.112 0-29.221 13.108-29.221 29.221v29.229c-12.977-7.855-30.064-4.453-38.962 8.119-9.331 13.183-6.214 31.401 6.969 40.732l31.993 22.644v37.782c-10.48 3.319-18.621 5.413-30.759 5.413-24.433 0-29.751-8.058-53.993-9.956v-165.791c0-98.284 79.959-178.243 178.243-178.243 40.032 0 77.854 12.969 109.377 37.505 3.269 2.544 7.981 1.957 10.525-1.312s1.957-7.981-1.312-10.525c-34.178-26.606-75.187-40.668-118.587-40.668-106.554 0-193.243 86.688-193.243 193.243v165.714c-9.064.597-17.991 2.357-26.614 5.294-21.614 7.359-36.143 27.625-36.143 50.489v88.95c0 4.143 3.358 7.5 7.5 7.5zm131.683-220.282c-6.4-4.531-7.922-13.423-3.392-19.823 4.523-6.389 13.412-7.93 19.823-3.392l6.896 4.881v34.845zm38.326 69.104c0-27.137 0-105.127 0-134.941 0-7.841 6.379-14.221 14.221-14.221 7.84 0 14.218 6.377 14.22 14.216v.005 20.617c0 4.142 3.358 7.5 7.5 7.5s7.5-3.358 7.5-7.5v-20.607c0-.003 0-.006 0-.01 0-7.841 6.379-14.221 14.221-14.221s14.221 6.379 14.221 14.221v20.617c0 4.142 3.358 7.5 7.5 7.5s7.5-3.358 7.5-7.5v-20.617c0-7.841 6.379-14.221 14.221-14.221s14.221 6.379 14.221 14.221v20.617c0 4.142 3.358 7.5 7.5 7.5s7.5-3.358 7.5-7.5v-20.617c0-7.841 6.379-14.221 14.221-14.221s14.221 6.379 14.221 14.221v135.25c-5.383-.898-10.668-1.61-18.155-1.61-29.849 0-35.171 10.28-62.12 10.28-22.959 0-28.59-6.931-49.354-9.496-10.018-1.238-20.029-.961-29.138.517zm-162.509 54.728c0-16.409 10.423-30.994 25.978-36.291 15.971-5.439 29.629-4.724 29.229-4.727 26.211.173 32.343 10.267 61.542 10.267 11.421 0 22.685-1.864 33.478-5.541 13.776-4.693 28.744-5.937 43.175-3.549 14.929 2.47 24.328 9.089 47.597 9.089 29.178 0 35.812-10.28 62.12-10.28 27.164 0 32.32 10.28 62.13 10.28 18.406 0 29.711-4.542 37.107-6.686 17.485-5.117 36.394-4.737 53.666 1.146 15.538 5.288 25.977 19.872 25.977 36.29v19.71h-360.98c-4.142 0-7.5 3.358-7.5 7.5s3.358 7.5 7.5 7.5h360.981v46.74h-482v-46.74h91.019c4.142 0 7.5-3.358 7.5-7.5s-3.358-7.5-7.5-7.5h-91.019z"/></g></g></svg>