<svg id="Capa_1" enable-background="new 0 0 512 512" height="512" viewBox="0 0 512 512" width="512" xmlns="http://www.w3.org/2000/svg"><g><g><path d="m405.324 294.753h-137.7v-103.45h183.94c.3 16.05 1.91 30.31 4.2 42.73 5.81 31.58-18.33 60.72-50.44 60.72z" fill="#edb798"/><path d="m267.763 435.326-7.463 28.289 7.463 10.361c0 16.846 13.652 30.524 30.524 30.524 16.852 0 30.524-13.662 30.524-30.524v-38.65z" fill="#ffbe9c"/><path d="m148.7 381.559-2.625-1.878c-5.596-4.004-13.094-3.95-18.704.034-5.574 3.957-13.047 3.946-18.609-.034-5.579-3.991-13.078-3.991-18.657 0-5.563 3.98-13.036 3.991-18.609.034-5.611-3.984-13.108-4.038-18.704-.034l-2.625 1.878c-4.207 3.01-6.704 7.866-6.704 13.039v56.172c0 14.086 11.419 25.505 25.505 25.505h60.931c14.086 0 25.505-11.419 25.505-25.505v-56.172c0-5.173-2.497-10.028-6.704-13.039z" fill="#bc9bdd"/><path d="m226.857 302.901-68.95 34.979-4.849 28.057 27.194 15.99 26.467-13.427v28.771l60.904 29.027 61.185-29.027v-28.771l26.467 13.427 28.672-15.99-6.327-28.057-68.951-34.979z" fill="#ff748f"/><path d="m468.264 32.53c-.328-6.508-3.972-12.4-9.621-15.648l-.161-.092c-8.538-4.909-19.349-2.534-25.175 5.407-9.428 12.854-26.629 30.709-53.36 38.884l47.372 61.581s45.129-7.149 40.945-90.132z" fill="#f9d888"/><path d="m67.263 32.53c.328-6.508 3.972-12.4 9.621-15.648l.161-.092c8.538-4.909 19.349-2.534 25.175 5.407 9.428 12.854 26.629 30.709 53.36 38.884l-47.372 61.581s-45.129-7.149-40.945-90.132z" fill="#f9d888"/><path d="m108.208 122.662 47.372-61.581c-15.926-4.87-28.444-13.179-37.976-21.816-16.344 16.144-30.107 34.893-40.606 55.57 12.2 24.806 31.21 27.827 31.21 27.827z" fill="#f5c956"/><path d="m417.922 39.265c-9.532 8.638-22.05 16.946-37.975 21.816l47.372 61.581s19.009-3.021 31.209-27.826c-10.498-20.678-24.262-39.426-40.606-55.571z" fill="#f5c956"/><path d="m451.561 191.298c0-101.347-82.452-183.798-183.798-183.798-101.347 0-183.798 82.451-183.798 183.798z" fill="#ff748f"/><path d="m121.183 154.74v-.01c13.1-67.17 73.66-111.6 146.44-111.67 72.89-.07 133.6 44.41 146.73 111.67l-.01.01z" fill="#edb798"/><path d="m267.624 191.303v103.45h-137.42c-32.11 0-56.25-29.14-50.44-60.72 2.29-12.42 3.9-26.68 4.2-42.73z" fill="#e8a882"/><path d="m178.725 68.986c-29.384 19.604-50.439 49.33-57.541 85.744v.01h26.66c3.065-31.563 14.021-60.816 30.881-85.754z" fill="#e8a882"/><circle cx="419.951" cy="190.31" fill="#ffbe9c" r="36.004"/><path d="m225.99 406.456c-.404-4.15-.616-8.357-.616-12.614 0-35.517 14.401-67.671 37.682-90.941h-36.198l-68.951 34.979-4.849 28.058 27.194 15.99 26.467-13.427v28.771z" fill="#fd5f7e"/><path d="m416.983 182.41c0 82.46-66.88 139.42-149.36 139.34-82.37-.08-149.07-56.98-149.08-139.34 0-9.59.9-18.82 2.64-27.67 0 0 72.76 1.24 128.03-45.17 10.72-8.99 26.38-8.99 37.1 0 55.27 46.41 128.03 45.17 128.03 45.17l.01-.01c1.73 8.85 2.63 18.09 2.63 27.68z" fill="#ffd3bc"/><path d="m208.606 311.151c-37.843-34.015-61.65-83.338-61.65-138.227 0-6.888.387-13.685 1.117-20.378-16.239 2.373-26.89 2.195-26.89 2.195-.002.01-.004.021-.006.031-1.773-.302-3.638-.465-5.602-.465-19.885 0-36.004 16.12-36.004 36.004 0 19.885 16.12 36.004 36.004 36.004 3.423 0 6.55-.488 9.392-1.381 12.788 40.455 43.681 71.052 83.639 86.217z" fill="#ffbe9c"/><g><g><g><ellipse cx="178.401" cy="224.098" fill="#ff9db0" rx="32.973" ry="26.258"/></g><g><ellipse cx="357.126" cy="224.098" fill="#ff9db0" rx="32.973" ry="26.258"/></g></g></g><g fill="#ffd3bc"><path d="m180.252 381.927-18.512 9.394c-12.121 6.144-27.007 1.353-33.201-10.846-6.164-12.17-1.314-27.027 10.856-33.201l18.512-9.394z"/><path d="m355.275 381.927 18.512 9.394c12.121 6.144 27.007 1.353 33.201-10.846 6.164-12.17 1.314-27.027-10.856-33.201l-18.512-9.394z"/><path d="m267.763 435.326v38.65c0 16.846-13.652 30.524-30.524 30.524-16.852 0-30.524-13.662-30.524-30.524v-38.65z"/></g><path d="m349.235 430.995-20.427-33.724h-122.37l-20.427 33.724c-6.47 10.682 1.221 24.331 13.709 24.331h135.807c12.488 0 20.179-13.65 13.708-24.331z" fill="#ff889e"/><path d="m225.42 397.271h-18.981l-20.427 33.724c-6.47 10.682 1.221 24.332 13.709 24.332h41.281c-9.451-17.326-15.032-37.064-15.582-58.056z" fill="#ff748f"/><path d="m71.497 404.427c0-7.975.972-15.721 2.793-23.135-.968-.429-1.907-.946-2.795-1.577-5.611-3.983-13.108-4.038-18.704-.034l-2.625 1.878c-4.208 3.01-6.704 7.866-6.704 13.039v56.172c0 14.086 11.419 25.505 25.505 25.505h23.895c-16.619-17.695-21.365-43.328-21.365-71.848z" fill="#b08bd7"/></g><g><path d="m291.186 192.766c-3.123-2.721-7.86-2.396-10.582.727-3.241 3.719-7.921 5.853-12.839 5.853s-9.598-2.133-12.84-5.853c-2.721-3.123-7.459-3.448-10.582-.727-3.123 2.722-3.448 7.459-.727 10.582 6.091 6.989 14.892 10.998 24.148 10.998 9.255 0 18.057-4.008 24.147-10.998 2.722-3.123 2.397-7.861-.725-10.582z"/><path d="m212.839 173.31-27.031-7.243c-4.003-1.072-8.114 1.303-9.186 5.304s1.302 8.113 5.303 9.186l8.966 2.402c-.491.997-.774 2.115-.774 3.302v11.644c0 4.142 3.358 7.5 7.5 7.5 4.143 0 7.5-3.358 7.5-7.5v-11.135l3.839 1.028c4.018 1.077 8.118-1.321 9.186-5.303 1.072-4.001-1.302-8.113-5.303-9.185z"/><path d="m353.603 180.556c4.001-1.072 6.375-5.185 5.304-9.186-1.072-4.001-5.183-6.376-9.186-5.304l-27.031 7.243c-4.001 1.072-6.375 5.185-5.303 9.186 1.073 4.003 5.188 6.375 9.186 5.303l3.838-1.028v11.134c0 4.142 3.358 7.5 7.5 7.5s7.5-3.358 7.5-7.5v-11.644c0-1.187-.283-2.305-.773-3.302z"/><path d="m68.968 483.776h60.932c18.199 0 33.005-14.806 33.005-33.005v-51.746c2.346-.975 36.315-18.31 36.315-18.31v13.999l-19.622 32.395c-9.401 15.519 1.533 35.331 19.619 35.701v11.167c0 20.966 17.057 38.023 38.023 38.023 12.488 0 23.588-6.053 30.524-15.377 6.936 9.324 18.036 15.377 30.524 15.377 20.967 0 38.024-17.057 38.024-38.023v-11.176c17.934-.573 28.685-20.261 19.339-35.692l-19.342-31.932v-14.461c3.495 1.773-12.641-6.414 34.087 17.296 15.934 8.077 35.298 1.579 43.283-14.147 8.021-15.836 1.671-35.25-14.153-43.278l-18.509-9.393c-.001 0-.002-.001-.004-.002l-37.538-19.043c5.977-2.941 11.736-6.24 17.236-9.896h44.611c36.827 0 64.473-33.421 57.816-69.577-1.48-8.041-2.56-16.495-3.248-25.14 5.269-12.169 4.824-26.566-2.175-38.78-1.907-16.162-5.864-31.885-11.7-46.838 14.333-10.585 32.504-34.914 29.738-89.765-.458-9.081-5.457-17.22-13.375-21.773l-.158-.091c-11.819-6.796-26.851-3.584-34.961 7.474-6.566 8.951-17.587 20.994-33.697 29.551-34.891-30.529-79.438-47.314-125.798-47.314-20.096 0-39.925 3.129-58.936 9.301-3.94 1.279-6.097 5.509-4.818 9.449 1.279 3.939 5.509 6.097 9.449 4.817 17.513-5.684 35.784-8.567 54.305-8.567 71.651 0 134.704 43.259 162.07 106.964 0 0 0 .001.001.002 4.071 9.486 7.313 19.335 9.663 29.447-6.093-3.06-12.866-4.564-19.207-4.605-5.762-23.607-17.878-46.251-35.838-64.624-2.895-2.962-7.644-3.017-10.606-.122s-3.017 7.644-.122 10.606c14.739 15.077 25.476 33.777 31.082 54.205-39.734-2.785-82.52-16.891-113.673-43.049-13.656-11.453-33.326-11.26-46.742.003-30.635 25.725-73.272 40.177-113.669 43.033 16.364-60.384 73.643-96.236 136.909-96.299 31.17-.007 60.413 8.388 84.541 24.343 3.455 2.285 8.108 1.336 10.393-2.119 2.303-3.485 1.286-8.142-2.119-10.393-26.594-17.586-58.68-26.899-92.829-26.832-72.168.07-135.62 42.126-152.376 111.248-6.462.042-13.209 1.593-19.198 4.6 12.231-52.469 47.332-94.619 92.136-117.389 3.693-1.876 5.165-6.391 3.288-10.084-1.876-3.692-6.391-5.165-10.084-3.288-14.187 7.21-27.431 16.207-39.401 26.676-16.121-8.559-27.146-20.606-33.714-29.561-8.111-11.057-23.142-14.27-34.958-7.475l-.164.094c-7.916 4.552-12.915 12.69-13.373 21.771-2.768 54.887 15.43 79.212 29.766 89.786-5.862 15.021-9.823 30.761-11.719 46.803-3.649 6.362-5.748 13.723-5.748 21.569 0 6.117 1.275 11.939 3.563 17.225-.687 8.644-1.767 17.098-3.247 25.14-6.667 36.213 21.054 69.577 57.816 69.577h44.632c5.498 3.652 11.253 6.95 17.228 9.89-2.515 1.276 13.772-6.987-56.062 28.444-12.995 6.592-19.592 20.862-17.097 34.527-2.006.192-4.064-.303-5.78-1.53-8.189-5.859-19.195-5.86-27.384 0-2.959 2.116-6.939 2.124-9.904.019-8.236-5.848-19.252-5.855-27.409-.019-.705.76-12.465 6.668-12.465 21.017v56.172c-.001 18.198 14.806 33.004 33.004 33.004zm168.272 13.224c-12.695 0-23.023-10.328-23.023-23.023v-11.15h46.047v11.15c0 12.695-10.328 23.023-23.024 23.023zm84.072-23.023c0 12.695-10.329 23.023-23.024 23.023s-23.024-10.328-23.024-23.023v-11.15h46.048zm21.509-39.097c3.442 5.683-.638 12.946-7.294 12.946-27.786 0-107.999 0-135.807 0-6.643 0-10.742-7.253-7.293-12.946l18.238-30.109h113.918zm57.48-57.8c-4.292 8.452-14.664 11.84-23.12 7.554l-11.825-6.001c3.153-6.215 9.772-19.262 15.559-30.67l11.823 6c8.455 4.288 11.846 14.662 7.563 23.117zm-77.107-72.52c-34.14 12.653-75.208 13.202-110.845-.008-.031-.011-.063-.018-.093-.029-61.668-22.89-94.01-81.053-84.729-142.408 43.88-1.873 92.052-17.867 126.507-46.797 8.074-6.771 19.665-6.539 27.458-.003 34.052 28.599 81.661 44.888 126.516 46.8 9.088 61.092-22.616 119.367-84.732 142.42-.028.008-.055.014-.082.025zm-236.121-114.249c0-14.677 11.168-26.765 25.318-28.318-2.521 18.985-1.46 38.736 3.055 56.817-15.814-.081-28.373-12.986-28.373-28.499zm361.383 0c0 15.679-12.749 28.432-28.37 28.499 4.602-18.435 5.525-38.278 3.056-56.816 14.309 1.589 25.314 13.777 25.314 28.317zm-43.133 96.941h-25.617c16.051-14.97 28.264-33.212 35.823-53.664 10.804 1.094 22.089-1.842 31.134-8.888.505 3.624 1.08 7.191 1.725 10.69 4.965 26.973-15.644 51.862-43.065 51.862zm34.032-260.619c3.585-4.888 10.201-6.325 15.392-3.34l.158.09c3.475 1.999 5.669 5.559 5.87 9.524 2.249 44.603-10.108 65.28-20.978 74.79-8.798-18.054-20.442-34.754-34.832-49.571 16.232-9.62 27.475-22.064 34.39-31.493zm-364.6 6.275c.2-3.965 2.394-7.526 5.866-9.522l.163-.094c5.21-2.996 11.819-1.526 15.389 3.341 6.915 9.429 18.159 21.873 34.393 31.495-14.248 14.648-25.922 31.259-34.833 49.57-10.87-9.509-23.227-30.186-20.978-74.79zm55.451 254.344c-27.426 0-48.029-24.893-43.064-51.861.644-3.499 1.22-7.067 1.725-10.69 9.054 7.053 20.385 9.986 31.137 8.887 7.73 20.908 20.205 39.13 35.829 53.664zm80.042 32.486c35.749 12.429 77.695 12.993 115.046.006l42.245 21.431-15.559 30.67-19.778-10.034c-4.979-2.526-10.893 1.096-10.893 6.688v21.271h-107.089v-21.27c0-5.583-5.905-9.219-10.893-6.688l-19.779 10.034-15.559-30.67zm-67.458 34.224 11.823-6 15.559 30.67-11.822 5.999c-8.376 4.248-18.769.915-23.078-7.473-.014-.027-.031-.052-.044-.079 0-.001 0-.001-.001-.002-4.28-8.459-.889-18.827 7.563-23.115zm-91.827 40.637c0-2.747 1.333-5.341 3.567-6.938 1.873-1.111 3.702-3.452 7.558-3.452 1.767 0 3.543.542 5.066 1.623 8.179 5.807 19.156 5.787 27.315-.049 2.969-2.125 6.959-2.125 9.929 0 6.131 4.387 13.854 5.488 20.775 3.307 5.33 6.828 13.559 11.508 22.731 12.282v49.4c0 9.928-8.077 18.005-18.005 18.005h-60.931c-9.928 0-18.005-8.077-18.005-18.005z"/></g></g></svg>