<svg id="Capa_1" enable-background="new 0 0 512 512" height="512" viewBox="0 0 512 512" width="512" xmlns="http://www.w3.org/2000/svg"><g><g><path d="m135.768 408.491v32.138c0 14.869 12.054 26.923 26.923 26.923 14.869 0 26.923-12.054 26.923-26.923v-19.275c0-10.898 8.834-19.732 19.732-19.732 10.898 0 19.732 8.834 19.732 19.732v56.224c0 14.869 12.054 26.923 26.923 26.923 14.869 0 26.923-12.054 26.923-26.923v-43.608c0-10.898 8.834-19.732 19.732-19.732 10.898 0 19.732 8.834 19.732 19.732v14.374c0 14.869 12.054 26.923 26.923 26.923 14.869 0 26.923-12.054 26.923-26.923v-124.956h-240.466z" fill="#ff748f"/><path d="m135.768 372.229c7.234 4.876 14.746 9.325 22.502 13.273 14.43 7.347 29.733 13.01 45.496 16.932 1.771-.521 3.64-.813 5.58-.813 4.771 0 9.146 1.693 12.557 4.511 11.261 1.803 22.671 2.742 34.097 2.742 43.292 0 85.031-12.971 120.232-36.619v-48.868h-240.464z" fill="#fd5f7e"/><path d="m401.756 300.58 7.513-2.555c20.447-29.835 32.418-65.936 32.418-104.837 0-102.553-83.135-185.688-185.687-185.688s-185.687 83.135-185.687 185.687c0 36.432 10.5 70.407 28.627 99.081l7.599 2.966 1.222 9.782c33.896 44.861 87.678 73.858 148.239 73.858 56.311 0 106.762-25.07 140.816-64.652z" fill="#e8e8e8"/><circle cx="256" cy="164.11" fill="#8bdf9e" r="101.249"/><path d="m256 100.462c-.028 0-.056 0-.084 0-3.385.006-5.428 3.699-3.785 6.659 2.759 4.97 4.124 10.82 3.561 17.026-1.272 14.021-12.598 25.348-26.619 26.62-6.206.563-12.056-.802-17.026-3.561-2.96-1.643-6.653.401-6.659 3.785v.084c0 28.608 23.734 51.672 52.586 50.576 26.233-.996 47.608-22.371 48.604-48.604 1.094-28.851-21.97-52.585-50.578-52.585z" fill="#4f4c5f"/><path d="m102.53 219.558c0-102.007 69.914-187.679 164.436-211.727-3.629-.211-7.284-.331-10.966-.331-102.552 0-185.687 83.135-185.687 185.687 0 36.432 10.5 70.407 28.627 99.081l7.599 2.966 1.222 9.782c7.955 10.528 17.017 20.169 26.994 28.78-20.433-33.239-32.225-72.359-32.225-114.238z" fill="#e0e0e0"/></g><g><path d="m340.663 220.151c3.612 2.028 8.184.744 10.212-2.867 9.076-16.163 13.874-34.549 13.874-53.173 0-59.964-48.785-108.749-108.749-108.749s-108.749 48.784-108.749 108.748 48.785 108.749 108.749 108.749c28.263 0 55.042-10.793 75.403-30.393 2.984-2.872 3.075-7.62.202-10.604s-7.621-3.075-10.604-.202c-17.552 16.895-40.637 26.199-65 26.199-51.693 0-93.749-42.056-93.749-93.749s42.056-93.749 93.749-93.749 93.749 42.056 93.749 93.749c0 16.057-4.133 31.904-11.953 45.829-2.029 3.611-.746 8.184 2.866 10.212z"/><path d="m228.394 143.297c-4.465.404-8.858-.511-12.709-2.649-7.806-4.332-17.782 1.043-17.798 10.428 0 33.288 27.65 59.307 60.37 58.071 30.152-1.145 54.669-25.662 55.814-55.814.606-15.962-5.147-31.076-16.201-42.558-11.059-11.487-25.929-17.813-41.87-17.813-.004 0-.093 0-.097 0-9.179.016-14.699 9.929-10.331 17.798 2.138 3.852 3.054 8.247 2.649 12.709-.94 10.364-9.464 18.888-19.827 19.828zm34.766-18.472c.517-5.701-.261-11.349-2.26-16.591 9.951 1.113 19.104 5.611 26.164 12.944 8.2 8.518 12.468 19.734 12.018 31.585-.849 22.362-19.032 40.545-41.394 41.394-23.042.876-42.057-16.235-44.523-38.179 5.239 1.997 10.888 2.774 16.585 2.258 17.749-1.611 31.8-15.662 33.41-33.411z"/><path d="m256 0c-48.621 0-95.087 18.135-130.839 51.065-3.047 2.806-3.242 7.551-.436 10.598s7.551 3.242 10.598.436c32.975-30.372 75.832-47.099 120.677-47.099 98.253 0 178.188 79.935 178.188 178.188 0 35.361-10.355 68.349-28.19 96.092-2.878-5.963-6.393-10.215-9.658-14.145-6.681-8.042-12.451-14.987-12.607-37.846-.028-4.125-3.38-7.449-7.499-7.449-.017 0-.035 0-.052 0-4.142.028-7.477 3.409-7.449 7.551.069 10.179 1.215 17.998 2.996 24.267-9.841-1.476-23.192-1.232-38.482 5.015-3.834 1.566-5.673 5.945-4.106 9.779 1.562 3.822 5.935 5.678 9.779 4.106 21.152-8.642 37.114-3.055 41.725-1.021 1.381 1.838 2.787 3.531 4.159 5.182 4.477 5.389 8.398 10.132 10.55 19.382-33.306 41.759-83.99 67.272-139.352 67.272-56.519 0-109.492-26.751-143.274-72.372 3.729-5.099 6.645-10.479 8.912-15.926 2.269-2.608 11.655-12.047 30.204-14.186 4.115-.475 7.066-4.195 6.592-8.31s-4.195-7.065-8.31-6.592c-9.003 1.038-16.407 3.498-22.339 6.377 2.956-20.162-.367-36.925-.609-38.096-.838-4.057-4.807-6.666-8.862-5.828-4.056.838-6.666 4.806-5.827 8.863.078.375 6.761 34.046-8.828 60.228-16.396-26.947-25.846-58.564-25.846-92.347 0-40.296 13.121-78.31 37.945-109.932 2.558-3.258 1.99-7.973-1.268-10.531s-7.973-1.99-10.531 1.268c-26.918 34.29-41.146 75.507-41.146 119.195 0 56.364 24.417 108.558 65.455 144.8v102.641c0 18.98 15.442 34.422 34.423 34.422 18.98 0 34.422-15.442 34.422-34.422v-19.275c0-6.745 5.487-12.232 12.232-12.232s12.232 5.487 12.232 12.232v56.224c0 18.98 15.442 34.422 34.423 34.422 18.98 0 34.422-15.442 34.422-34.422v-43.607c0-6.745 5.487-12.232 12.232-12.232s12.232 5.487 12.232 12.232v14.374c0 18.981 15.442 34.423 34.423 34.423 18.98 0 34.422-15.442 34.422-34.423v-110.353c41.12-36.314 65.456-88.523 65.456-144.801-.001-106.523-86.665-193.187-193.189-193.187zm112.732 350.067v98.277c0 10.71-8.713 19.423-19.422 19.423-10.71 0-19.423-8.713-19.423-19.423v-14.374c0-15.016-12.216-27.232-27.232-27.232s-27.232 12.216-27.232 27.232v43.607c0 10.709-8.713 19.422-19.422 19.422-10.71 0-19.423-8.713-19.423-19.422v-56.224c0-15.016-12.216-27.232-27.232-27.232s-27.232 12.216-27.232 27.232v19.275c0 10.709-8.713 19.422-19.422 19.422-10.71 0-19.423-8.713-19.423-19.422v-90.562c33.169 23.84 72.69 36.309 112.732 36.309 41.333 0 80.6-13.214 112.731-36.308z"/></g></g></svg>