<svg id="Capa_1" enable-background="new 0 0 512 512" height="512" viewBox="0 0 512 512" width="512" xmlns="http://www.w3.org/2000/svg"><g><g><path d="m145.407 53.504c-14.861-2.64-25.407-9.333-32.404-15.434-8.12-7.08-19.193-9.718-29.651-7.128-20.276 5.021-30.841 27.302-22.011 46.232 10.783 23.115 31.962 51.782 73.842 70.986l26.76-93.815c-5.605.282-11.087.03-16.536-.841z" fill="#f9d888"/><path d="m366.593 53.504c14.861-2.64 25.407-9.333 32.404-15.434 8.12-7.08 19.193-9.718 29.651-7.128 20.276 5.021 30.841 27.302 22.011 46.232-10.783 23.115-31.962 51.782-73.842 70.986l-26.76-93.815c5.605.282 11.087.03 16.536-.841z" fill="#f9d888"/><path d="m256 458.727v14.625c0 17.201-13.953 31.148-31.148 31.148-17.214 0-31.158-13.945-31.158-31.148v-14.625l31.153-16.098z" fill="#5c586f"/><path d="m256 458.727v14.625c0 17.201 13.953 31.148 31.148 31.148 17.214 0 31.158-13.945 31.158-31.148v-14.625l-31.153-16.098z" fill="#4f4c5f"/><path d="m193.693 401.219h62.307v57.508h-62.307z" fill="#9ae0eb"/><path d="m256 401.219h62.307v57.508h-62.307z" fill="#64d1e1"/><path d="m392.361 43.161c-6.526 4.396-15.01 8.432-25.767 10.343-5.45.871-10.932 1.123-16.536.841l26.76 93.814c21.459-9.84 37.472-22.166 49.447-34.955-5.952-26.031-17.74-49.86-33.904-70.043z" fill="#f5c956"/><path d="m85.735 113.205c11.975 12.789 27.989 25.115 49.448 34.955l26.76-93.814c-5.604.281-11.086.029-16.536-.841-10.757-1.911-19.242-5.947-25.767-10.344-16.165 20.183-27.954 44.012-33.905 70.044z" fill="#f5c956"/><path d="m111.354 194.048v-41.903c0-79.757 64.888-144.645 144.646-144.645s144.646 64.888 144.646 144.646v41.903h-289.292z" fill="#5c586f"/><path d="m163.167 187.815c0-72.184 16.005-136.405 64.336-177.49-66.158 13.271-116.15 71.815-116.15 141.82v41.903h51.903c-.055-2.071-.089-4.148-.089-6.233z" fill="#4f4c5f"/><path d="m361.582 162.566c-.225-40.778-42.191-68.2-79.706-52.213-5.661 2.413-10.508 5.139-14.424 7.672-6.974 4.51-15.93 4.51-22.904 0-3.916-2.532-8.763-5.259-14.424-7.672-37.514-15.987-79.48 11.435-79.706 52.213-.001.199-.002.397-.002.596v100.996h211.167v-100.996c0-.199 0-.398-.001-.596z" fill="#73d98b"/><path d="m176.487 264.158c-8.615-23.833-13.32-49.538-13.32-76.343 0-23.226 1.656-45.627 5.512-66.701-11.006 10.163-18.168 24.675-18.261 41.452-.001.199-.002.397-.002.596v12.965c-7.072-6.437-16.471-10.361-26.788-10.361-11.451 0-20.734 9.283-20.734 20.734v19.123c0 33.438 27.107 60.545 60.545 60.545v-2.011h13.048z" fill="#55d47b"/><path d="m388.371 165.766c11.451 0 20.734 9.283 20.734 20.734v19.123c0 33.438-27.107 60.545-60.545 60.545v-60.592c0-21.986 17.824-39.81 39.811-39.81z" fill="#55d47b"/><path d="m179.186 209.477h-22.993c-8.723 0-15.794 7.071-15.794 15.795v33.348h54.582v-33.348c0-8.723-7.072-15.795-15.795-15.795z" fill="#e8e8e8"/><path d="m332.814 209.477h22.993c8.723 0 15.795 7.071 15.795 15.795v33.348h-54.582v-33.348c-.001-8.723 7.071-15.795 15.794-15.795z" fill="#e8e8e8"/><path d="m333.791 329.123h41.427v79.458c0 13.541-10.977 24.518-24.518 24.518h-20.632c-10.295 0-18.64-8.346-18.64-18.64v-41.209z" fill="#e8a882"/><path d="m178.209 329.123h-41.427v79.458c0 13.541 10.977 24.518 24.518 24.518h20.632c10.295 0 18.64-8.346 18.64-18.64v-41.209z" fill="#e8a882"/><path d="m164.211 209.478h-8.018c-8.723 0-15.794 7.071-15.794 15.794v33.348h34.171c-5.208-15.685-8.731-32.136-10.359-49.142z" fill="#e0e0e0"/><path d="m360.584 242.794h-209.168c-11.329 0-19.973 10.199-18.042 21.362 10.129 58.555 61.177 103.09 122.626 103.09s112.497-44.536 122.626-103.09c1.931-11.162-6.713-21.362-18.042-21.362z" fill="#8bdf9e"/><path d="m169.958 242.794h-18.542c-11.329 0-19.973 10.199-18.042 21.362 9.943 57.477 59.313 101.441 119.246 103.041-40.27-30.382-69.98-74.007-82.662-124.403z" fill="#73d98b"/><path d="m330.634 282.562-3.976-2.845c-8.478-6.065-19.835-5.984-28.335.051-8.443 5.995-19.764 5.978-28.191-.051-8.451-6.046-19.812-6.046-28.263 0-8.427 6.029-19.748 6.046-28.191.051-8.5-6.035-19.857-6.117-28.335-.051l-3.976 2.845c-6.374 4.56-10.155 11.915-10.155 19.752v76.097c0 21.339 17.298 38.637 38.637 38.637h92.304c21.339 0 38.637-17.299 38.637-38.637v-76.097c-.001-7.836-3.783-15.192-10.156-19.752z" fill="#bc9bdd"/><path d="m339.367 302.297h24.65c16.423 0 29.737 13.314 29.737 29.737 0 16.423-13.314 29.737-29.737 29.737h-24.65c-16.424 0-29.737-13.314-29.737-29.737-.001-16.423 13.313-29.737 29.737-29.737z" fill="#b9ebc2"/><path d="m211.226 333.187c0-17.799 4.622-34.516 12.723-49.027-3.625-.568-7.149-1.958-10.277-4.179-8.487-6.025-19.826-6.107-28.291-.051l-3.97 2.84c-6.364 4.553-10.14 11.897-10.14 19.722v75.979c0 21.306 17.272 38.578 38.577 38.578h46.291c-27.074-18.058-44.913-48.875-44.913-83.862z" fill="#b08bd7"/><path d="m172.633 302.297h-24.65c-16.423 0-29.737 13.314-29.737 29.737 0 16.423 13.314 29.737 29.737 29.737h24.65c16.424 0 29.737-13.314 29.737-29.737.001-16.423-13.313-29.737-29.737-29.737z" fill="#b9ebc2"/></g><g><path d="m182.006 178.227 6.56 1.758c-.198.672-.309 1.382-.309 2.119v10c0 4.142 3.358 7.5 7.5 7.5s7.5-3.358 7.5-7.5v-8.182l1.964.526c3.998 1.069 8.112-1.298 9.186-5.304 1.072-4.001-1.303-8.113-5.304-9.186l-23.215-6.22c-3.997-1.072-8.113 1.302-9.186 5.303-1.071 4.001 1.303 8.114 5.304 9.186z"/><path d="m306.779 184.448 1.964-.526v8.182c0 4.142 3.358 7.5 7.5 7.5s7.5-3.358 7.5-7.5v-10c0-.736-.111-1.446-.309-2.119l6.56-1.758c4.001-1.072 6.375-5.185 5.304-9.186-1.072-4.001-5.186-6.375-9.186-5.303l-23.215 6.22c-4.001 1.072-6.375 5.185-5.304 9.186 1.073 4.003 5.184 6.374 9.186 5.304z"/><path d="m226.32 220.255c4.142 0 7.5-3.358 7.5-7.5 0-4.047 3.293-7.34 7.34-7.34s7.34 3.292 7.34 7.34c0 4.142 3.358 7.5 7.5 7.5s7.5-3.358 7.5-7.5c0-4.047 3.292-7.34 7.34-7.34s7.34 3.292 7.34 7.34c0 4.142 3.358 7.5 7.5 7.5s7.5-3.358 7.5-7.5c0-12.318-10.021-22.34-22.34-22.34-5.692 0-10.891 2.143-14.84 5.661-3.949-3.518-9.148-5.661-14.84-5.661-12.318 0-22.34 10.021-22.34 22.34 0 4.142 3.357 7.5 7.5 7.5z"/><path d="m457.307 45.549c-11.646-24.372-43.232-30.579-63.239-13.132-8.193 7.143-17.856 11.749-28.724 13.691-.1.016-.207.028-.308.044-27.661-28.447-66.317-46.152-109.036-46.152-18.73 0-37.048 3.391-54.444 10.079-3.866 1.486-5.795 5.826-4.309 9.692s5.826 5.795 9.692 4.309c15.672-6.025 32.178-9.08 49.061-9.08 39.75 0 75.599 17.005 100.67 44.115.012.014.022.03.034.043 19.83 21.458 32.211 48.366 35.528 77.214v.003c1.263 10.975.837 18.229.912 22.294-7.408-1.297-17.029.549-24.065 3.699-.371-46.185-47.915-76.909-90.145-58.917-5.377 2.292-10.611 5.075-15.557 8.273-4.482 2.898-10.275 2.898-14.759 0-5.98-3.868-12.393-7.076-17.437-9.04-42.118-16.418-87.928 14.504-88.264 59.684-7.162-3.183-16.694-4.996-24.065-3.699v-6.525c0-45.857 22.926-88.729 61.51-114.341 3.451-2.291 4.392-6.945 2.101-10.396s-6.946-4.391-10.396-2.101c-9.207 6.111-17.609 13.113-25.133 20.841-.092-.014-.189-.026-.281-.04-10.867-1.942-20.531-6.549-28.723-13.691-19.995-17.436-51.585-11.251-63.237 13.133-5.268 11.023-5.322 23.706-.148 34.796 11.022 23.626 27.793 43.403 49.873 58.856-.854 10.046-.46 15.348-.563 27.171-5.217 5.126-8.46 12.254-8.46 20.128v19.123c0 22.731 11.48 43.995 30.245 56.563.048 1.082.157 2.166.344 3.248 1.884 10.889 5.129 21.434 9.654 31.475-14.482 5.105-24.892 18.918-24.892 35.125 0 13.718 7.462 25.719 18.536 32.18v44.366c0 17.655 14.363 32.018 32.018 32.018h20.632c1.449 0 2.871-.128 4.261-.36v18.489 14.625c0 21.311 17.342 38.648 38.659 38.648 12.769 0 24.107-6.229 31.148-15.803 7.041 9.575 18.379 15.803 31.148 15.803 21.316 0 38.658-17.337 38.658-38.648v-14.625-18.489c1.39.232 2.813.36 4.262.36h20.632c17.655 0 32.018-14.363 32.018-32.018v-44.366c11.073-6.46 18.536-18.461 18.536-32.18 0-16.207-10.41-30.02-24.892-35.125 4.525-10.042 7.771-20.587 9.654-31.475.187-1.082.296-2.166.344-3.247 18.765-12.569 30.245-33.833 30.245-56.564v-19.123c0-7.874-3.243-15.002-8.46-20.128-.1-11.701.288-17.202-.556-27.171 7.753-5.434 14.932-11.47 21.38-17.993 2.912-2.946 2.884-7.694-.062-10.606-2.947-2.913-7.695-2.884-10.606.062-4.056 4.104-8.438 7.999-13.098 11.649-4.293-22.003-14.089-44.214-29.015-63.364 10.283-3.016 19.583-8.117 27.737-15.226 12.629-11.013 32.531-7.015 39.847 8.294 3.327 6.962 3.359 14.976.088 21.987-2.444 5.239-5.269 10.369-8.398 15.246-2.237 3.486-1.224 8.125 2.262 10.362 3.487 2.237 8.126 1.224 10.363-2.263 3.49-5.439 6.642-11.16 9.367-17.004 5.175-11.09 5.121-23.772-.147-34.796zm-350.513 76.772c-16.847-13.172-29.823-29.382-38.656-48.317-3.271-7.011-3.238-15.024.088-21.986 7.347-15.373 27.275-19.258 39.848-8.294 8.152 7.108 17.452 12.209 27.732 15.225-14.735 18.962-24.501 40.62-29.012 63.372zm264.442 140.557c-1.922 11.113-5.435 21.83-10.455 31.919h-13.398c-.13-.292-2.126-10.988-12.385-18.335-2.462-1.249-7.143-6.78-17.602-8.382-8.031-1.226-16.455.632-23.415 5.574-5.726 4.063-13.587 4.184-19.485-.036-11.063-7.915-25.929-7.914-36.991 0-5.781 4.135-13.633 4.189-19.485.036-11.135-7.906-26.021-7.92-37.041-.036-1.714 1.6-12.83 6.835-16.346 21.123-.004.015-.008.029-.012.044-.001.004-.002.008-.003.012h-13.398c-5.021-10.088-8.532-20.805-10.455-31.919-1.126-6.514 3.963-12.584 10.652-12.584h209.168c6.643 0 11.786 6.016 10.651 12.584zm-69.107 69.157c0 18.012 13.054 33.731 31.16 36.742v9.635c0 17.253-14.035 31.137-31.137 31.137-11.169 0-81.061 0-92.304 0-17.149 0-31.137-13.942-31.137-31.137v-9.635c17.95-2.973 31.159-18.574 31.159-36.742 0-17.621-12.461-32.924-29.733-36.478.002-.003.003-.007.005-.011 2.568-5.821 6.852-7.499 9.564-9.729 5.803-4.152 13.689-4.15 19.629.067 11.048 7.845 25.876 7.817 36.896-.067 5.843-4.18 13.693-4.179 19.536 0 11.021 7.884 25.848 7.911 36.896.066 5.921-4.203 13.812-4.229 19.629-.067 3.626 2.608 7.312 4.613 9.564 9.729.002.004.003.008.005.011-17.214 3.545-29.732 18.807-29.732 36.479zm8.677 100.055v19.137h-47.306v-26.678h38.652c1.196 0 2.724-.069 3.768-.155 1.185 2.844 2.995 5.622 4.886 7.696zm-109.613 0c2.011-2.206 3.751-4.959 4.887-7.696 3.562.292 4.35.092 42.42.155v26.678h-47.307zm-43.274-269.483c.091-16.517 8.105-31.719 22.406-41.113 10.499-6.896 22.977-9.512 35.033-7.631 8.907 1.392 17.518 5.544 25.118 10.458 9.483 6.132 21.675 6.062 31.049 0 14.666-9.483 26.266-11.842 37.226-10.849 8.047.729 15.926 3.424 22.925 8.021 14.146 9.292 22.313 24.277 22.405 41.127l.002 39.356h-21.27c-12.845 0-23.295 10.45-23.295 23.294v10.022h-107.037v-10.022c0-12.845-10.45-23.294-23.294-23.294h-21.27v-25.85zm202.665 72.687h-36.065v-10.022c0-4.573 3.721-8.294 8.295-8.294h22.993c1.042 0 2.099.218 3.029.584h.001c3.265 1.29 5.264 4.423 5.264 7.71v10.258c-1.024-.138-2.396-.236-3.517-.236zm-209.168 0c-1.23 0-2.839.144-3.517.235v-10.258c0-4.53 3.702-8.294 8.294-8.294h22.993c4.574 0 8.294 3.721 8.294 8.294v10.022h-36.064zm-41.022-29.67v-19.123c0-4.211 2.002-8.135 5.41-10.646 7.325-5.399 19.953-1.537 27.112 3.802v26.473c-6.461 4.45-10.018 11.692-10.018 19.142v17.848c-1.067 1.091-2.224 2.557-2.942 3.624-12.233-9.99-19.562-25.089-19.562-41.12zm36.618 104.2c.71-.031 25.521-.026 25.621-.026 12.262 0 22.237 9.976 22.237 22.238s-9.976 22.237-22.237 22.237c-2.888 0-18.51 0-24.65 0-12.116 0-22.237-9.855-22.237-22.237 0-12.008 9.551-21.738 21.266-22.212zm14.288 115.775c-9.384 0-17.018-7.634-17.018-17.018v-39.49c1.422.141 2.725.182 3.702.182h15.728c.25 5.671-.607 10.922.963 18.531 3.004 14.555 12.863 26.811 26.511 32.818-1.865 2.789-5.279 4.978-9.254 4.978h-20.632zm63.552 71.401c-13.045 0-23.659-10.608-23.659-23.648v-7.125h47.307v7.125c0 13.04-10.609 23.648-23.648 23.648zm85.954-23.648c0 13.04-10.613 23.648-23.658 23.648-13.04 0-23.648-10.608-23.648-23.648v-7.125h47.307v7.125zm56.912-104.262v39.49c0 9.384-7.634 17.018-17.018 17.018h-20.632c-3.996 0-7.397-2.2-9.254-4.978 16.409-7.224 27.475-23.585 27.475-42.209v-9.14h15.728c1.167.001 2.43-.056 3.701-.181zm18.536-37.055c0 12.422-10.163 22.237-22.237 22.237-3.909 0-19.159 0-24.649 0-12.3 0-22.238-10.012-22.238-22.237 0-12.231 9.945-22.238 22.238-22.238.189 0 27.512.019 25.644.025 11.801.523 21.242 10.285 21.242 22.213zm15.352-126.411c0 16.031-7.329 31.13-19.563 41.12-.738-1.093-1.892-2.543-2.942-3.624v-17.848c0-7.456-3.559-14.694-10.018-19.142v-26.472c5.629-4.214 13.409-6.587 19.299-6.391 7.318.009 13.223 6.094 13.223 13.234v19.123z"/></g></g></svg>