<svg id="Capa_1" enable-background="new 0 0 512 512" height="512" viewBox="0 0 512 512" width="512" xmlns="http://www.w3.org/2000/svg"><g><g><g><path d="m79.978 247.981c-6.649 0-13.274-2.685-18.115-7.976-20.497-22.401-31.912-43.716-34.896-65.162-2.746-19.734 2.049-35.994 5.902-49.059 2.942-9.977 5.266-17.857 4.003-25.256-1.519-8.903-8.802-19.544-21.646-31.627-9.873-9.289-10.347-24.823-1.058-34.696s24.823-10.347 34.696-1.058c48.928 46.033 38.618 80.995 31.09 106.523-3.157 10.707-5.652 19.164-4.365 28.408 1.568 11.275 8.925 23.964 22.491 38.789 9.151 10.001 8.462 25.527-1.539 34.678-4.71 4.309-10.646 6.436-16.563 6.436z" fill="#4f4c5f"/></g><path d="m259.984 134.461c.816-1.214 1.633-2.376 2.438-3.485 9.125-12.579 25.849-16.901 40.008-10.486 41.41 18.764 52.827 61.199 52.827 61.199l-59.87 47.574z" fill="#4f4c5f"/><path d="m97.191 262.05v186.96c0 20.165 16.347 36.512 36.511 36.512 20.165 0 36.511-16.347 36.511-36.512v-109.15z" fill="#423e4f"/><g><path d="m348.84 485.521c-8.957 0-17.931-3.264-24.993-9.861-27.57-25.751-48.428-47.08-60.321-81.481-9.148-26.464-10.028-45.986-10.099-48.125l73.215-2.404-.015-.39c.107 1.947 3.128 37.679 47.222 78.865 14.784 13.809 15.574 36.986 1.766 51.77-7.212 7.721-16.983 11.626-26.775 11.626z" fill="#423e4f"/></g><path d="m307.825 422.126c-33.187-30.999-43.106-54.369-46.029-70.041 22.794-23.178 36.866-54.958 36.866-90.035 0-70.94-57.508-107.519-128.449-107.519s-128.448 36.579-128.448 107.519v186.96c0 20.165 16.347 36.512 36.511 36.512 20.165 0 36.511-16.347 36.511-36.512v-70.454h77.986c1.26 4.841 2.81 10.077 4.727 15.624 11.893 34.401 32.751 55.73 60.321 81.481 7.062 6.597 16.037 9.861 24.993 9.861 9.793 0 19.564-3.905 26.776-11.625 13.809-14.785 13.019-37.962-1.765-51.771z" fill="#4f4c5f"/><path d="m481.904 134.461c-.816-1.214-1.633-2.376-2.438-3.485-9.125-12.579-25.849-16.901-40.008-10.486-41.41 18.764-52.827 61.199-52.827 61.199l59.87 47.574z" fill="#4f4c5f"/><path d="m400.559 153.488c-10.363 14.96-13.928 28.202-13.928 28.202l59.87 47.574 18.102-48.474c-18.766-13.422-40.516-22.92-64.044-27.302z" fill="#423e4f"/><path d="m295.387 229.264 59.87-47.574s-3.566-13.242-13.928-28.202c-23.528 4.382-45.278 13.88-64.044 27.302z" fill="#423e4f"/><path d="m443.226 205.811c0 8.142 1.141 16.001 3.276 23.452l47.992 38.145c21.725-64.328 3.673-108.857-12.589-132.947-23.285 15.195-38.679 41.473-38.679 71.35z" fill="#bc9bdd"/><path d="m298.662 205.811c0 8.142-1.141 16.001-3.276 23.452l-47.992 38.145c-21.725-64.328-3.673-108.857 12.589-132.947 23.285 15.195 38.679 41.473 38.679 71.35z" fill="#bc9bdd"/><path d="m237.777 221.092c.99 14.083 3.946 29.523 9.617 46.316l47.992-38.145c2.135-7.451 3.276-15.311 3.276-23.452 0-12.137-2.541-23.68-7.118-34.128-21.458 12.181-39.864 29.134-53.767 49.409z" fill="#b08bd7"/><path d="m504.111 221.092c-13.903-20.275-32.309-37.229-53.767-49.408-4.578 10.448-7.118 21.991-7.118 34.128 0 8.142 1.141 16.001 3.276 23.452l47.992 38.145c5.671-16.794 8.627-32.234 9.617-46.317z" fill="#b08bd7"/><path d="m502.31 312.119c0 72.551-58.814 88.492-131.366 88.492s-131.366-15.94-131.366-88.492 58.814-131.366 131.366-131.366 131.366 58.815 131.366 131.366z" fill="#5c586f"/><path d="m73.469 373.723c0-93.846 52.943-175.312 130.581-216.204-10.782-1.984-22.124-2.987-33.837-2.987-70.94 0-128.449 36.578-128.449 107.519v186.959c0 20.165 16.347 36.511 36.511 36.511 4.043 0 7.928-.667 11.563-1.88-11.545-33.039-16.369-70.378-16.369-109.918z" fill="#423e4f"/></g><g><path d="m316.146 273.064-22.927-4.043c-4.075-.718-7.97 2.004-8.689 6.084-.719 4.079 2.004 7.97 6.084 8.689l22.927 4.043c4.123.722 7.976-2.043 8.689-6.084.72-4.08-2.005-7.97-6.084-8.689z"/><path d="m428.347 287.837 22.927-4.043c4.08-.719 6.804-4.61 6.084-8.689-.719-4.079-4.607-6.803-8.689-6.084l-22.927 4.043c-4.079.719-6.804 4.61-6.084 8.689.713 4.044 4.57 6.805 8.689 6.084z"/><path d="m355.255 320.101c-4.516 0-8.189-3.674-8.189-8.189 0-4.142-3.358-7.5-7.5-7.5s-7.5 3.358-7.5 7.5c0 12.787 10.403 23.19 23.19 23.19 6.046 0 11.557-2.328 15.69-6.132 4.132 3.804 9.643 6.132 15.689 6.132 12.787 0 23.19-10.403 23.19-23.19 0-4.142-3.358-7.5-7.5-7.5s-7.5 3.358-7.5 7.5c0 4.515-3.673 8.189-8.189 8.189-4.515 0-8.189-3.674-8.189-8.189 0-4.142-3.358-7.5-7.5-7.5s-7.5 3.358-7.5 7.5c-.003 4.515-3.676 8.189-8.192 8.189z"/><path d="m302.099 289.362c-4.142 0-7.5 3.358-7.5 7.5v13.024c0 4.142 3.358 7.5 7.5 7.5s7.5-3.358 7.5-7.5v-13.024c0-4.142-3.358-7.5-7.5-7.5z"/><path d="m439.789 289.362c-4.142 0-7.5 3.358-7.5 7.5v13.024c0 4.142 3.358 7.5 7.5 7.5s7.5-3.358 7.5-7.5v-13.024c.001-4.142-3.357-7.5-7.5-7.5z"/><path d="m10.072 74.36c14.485 13.628 18.541 22.437 19.392 27.428 3.429 20.085-32.533 61.2 10.493 122.997-3.776 11.48-5.707 23.956-5.707 37.269v23.794c0 4.142 3.358 7.5 7.5 7.5s7.5-3.358 7.5-7.5v-23.794c0-66.558 54.129-100.023 120.954-100.023 23.67 0 45.638 4.279 63.966 12.419-7.666 30.879-4.507 62.744 5.291 92.882-4.885 14.337-7.389 29.5-7.389 44.792v.001c0 30.773 10.018 56.516 35.357 73.757 9.246 15.188 22.08 29.377 35.015 41.49 12.492 11.667 12.247 30.078 1.662 41.414-11.123 11.906-29.545 12.263-41.171 1.403-32.569-30.421-51.898-51.192-62.912-93.517-.86-3.304-3.844-5.611-7.259-5.611-24.831 0-55.069 0-77.989 0-4.142 0-7.5 3.358-7.5 7.5v70.457c0 15.901-12.93 29.013-29.013 29.013-15.998 0-29.012-13.015-29.012-29.013v-133.168c0-4.142-3.358-7.5-7.5-7.5s-7.5 3.358-7.5 7.5v133.172c0 24.269 19.744 44.014 44.014 44.014 10.495 0 20.139-3.697 27.711-9.852 7.784 6.322 17.535 9.852 27.716 9.852 24.269 0 44.014-19.744 44.014-44.014v-62.956h9.345c12.213 42.2 33.219 64.8 65.647 95.089 18.217 17.016 46.653 15.461 63.002-2.836.972.914 1.97 1.851 3.025 2.836 17.977 16.792 45.906 15.5 62.372-2.126 16.61-17.783 15.655-45.764-2.128-62.373-2.997-2.8-5.869-5.652-8.617-8.537.199 0 .393.002.592.002 43.518 0 74.182-5.709 96.504-17.966 28.113-15.438 42.368-41.691 42.368-78.03 0-15.659-2.608-30.72-7.408-44.774 7.299-22.467 10.465-44.385 9.387-65.183-.214-4.137-3.742-7.314-7.878-7.102-4.137.214-7.317 3.741-7.102 7.878.71 13.704-.616 28.005-3.946 42.702-10.145-18.506-24.504-34.696-41.801-46.949 1.874-20.441 11.975-40.005 28.763-53.47 5.454 9.309 9.669 19.34 12.562 29.912 1.093 3.996 5.222 6.348 9.214 5.255 3.995-1.093 6.348-5.218 5.255-9.214-4.196-15.336-11.285-30.789-21.319-44.611-11.134-15.348-31.816-20.779-49.176-12.914-34.931 15.828-49.943 46.825-54.934 59.991-3.462-.26-6.959-.394-10.487-.394s-7.024.134-10.487.394c-4.992-13.167-20.004-44.163-54.935-59.991-17.36-7.866-38.042-2.434-49.173 12.911-7.031 9.68-13.239 21.034-17.773 33.448-19.89-8.511-43.327-12.985-68.37-12.985-33.785 0-63.511 7.788-86.716 22.607-2.115-9.112.63-17.622 3.646-27.847 7.623-25.848 19.143-64.914-33.147-114.11-12.927-12.163-33.186-11.495-45.3 1.381-12.107 12.871-11.487 33.192 1.382 45.3zm152.634 374.662c0 15.998-13.015 29.013-29.013 29.013-6.518 0-12.776-2.191-17.834-6.139 4.245-6.998 6.419-14.935 6.419-22.874v-62.956h40.427v62.956zm99.349-303.796c16.288 13.08 26.816 32.316 28.766 53.473-17.298 12.253-31.659 28.446-41.803 46.953-7.909-34.729-4.922-69.849 13.037-100.426zm87.801 262.394c5.631 6.832 11.968 13.547 18.874 19.998 11.738 10.964 12.368 29.433 1.405 41.171-11.123 11.906-29.545 12.263-41.171 1.403-1.855-1.733-3.571-3.345-5.175-4.863 6.385-15.815 3.195-34.296-9.374-47.226-2.223-2.274-9.693-8.854-18.526-18.978 14.839 4.619 32.491 7.4 53.655 8.477.105.006.207.013.312.018zm46.949-231.945c5.29-12.359 18.512-36.011 45.751-48.354 9.878-4.476 21.46-2.111 28.735 5.527-18.766 14.83-30.418 35.258-34.201 57.164-13.265-7.183-26.637-11.697-40.285-14.337zm98.01 136.451c0 56.772-37.046 80.995-123.871 80.995-29.877 0-68.643-2.633-93.903-18.868h-.001c-20.165-12.962-29.967-33.284-29.967-62.126 0-68.021 55.291-123.871 123.871-123.871 68.211-.001 123.871 55.481 123.871 123.87zm-195.484-184.805c27.091 12.275 40.385 35.983 45.722 48.36-14.103 2.69-27.709 7.535-40.256 14.331-3.835-22.111-15.899-42.851-34.201-57.164 7.274-7.639 18.857-10.004 28.735-5.527zm-279.714-87.981c6.461-6.868 17.246-7.179 24.095-.735 45.572 42.875 36.404 73.964 29.037 98.944-4.523 15.338-7.569 26.447-2.053 41.542-9.402 7.987-17.576 17.873-23.618 29.094-6.929-11.624-11.106-22.957-12.695-34.374-2.523-18.131 1.829-32.886 5.668-45.905 6.418-21.76 10.829-35.75-19.698-64.47-6.847-6.441-7.177-17.25-.736-24.096z"/></g></g></svg>