<svg id="Capa_1" enable-background="new 0 0 512 512" height="512" viewBox="0 0 512 512" width="512" xmlns="http://www.w3.org/2000/svg"><g><g><path d="m494.158 139.994v82.762l-238.158 33.244-238.158-33.244v-82.762c0-45.023 36.493-81.526 81.516-81.526h313.284c45.023 0 81.516 36.503 81.516 81.526z" fill="#ffa875"/><path d="m494.158 222.756v200.217c0 45.023-36.493 81.526-81.516 81.526h-313.284c-45.023 0-81.516-36.504-81.516-81.526v-200.217z" fill="#bc9bdd"/><path d="m117.631 58.468h-18.273c-45.023 0-81.516 36.503-81.516 81.526v82.762l49.004 6.84c2.997-68.67 20.328-126.115 50.785-171.128z" fill="#ff995d"/><g fill="#f9d888"><path d="m99.358 7.5c-16.071 0-29.098 13.028-29.098 29.098v31.158c0 16.071 13.028 29.098 29.098 29.098s29.098-13.028 29.098-29.098v-31.158c0-16.07-13.027-29.098-29.098-29.098z"/><path d="m412.642 7.5c16.071 0 29.098 13.028 29.098 29.098v31.158c0 16.071-13.028 29.098-29.098 29.098s-29.098-13.028-29.098-29.098v-31.158c0-16.07 13.028-29.098 29.098-29.098z"/><path d="m203.786 7.5c-16.071 0-29.098 13.028-29.098 29.098v31.158c0 16.071 13.028 29.098 29.098 29.098s29.098-13.028 29.098-29.098v-31.158c0-16.07-13.027-29.098-29.098-29.098z"/><path d="m308.214 7.5c-16.071 0-29.098 13.028-29.098 29.098v31.158c0 16.071 13.028 29.098 29.098 29.098s29.098-13.028 29.098-29.098v-31.158c0-16.07-13.027-29.098-29.098-29.098z"/></g><path d="m186.915 138.411-16.688-24.114c-5.54-8.005-17.372-8.005-22.912 0l-16.688 24.114c-6.395 9.24.219 21.861 11.456 21.861h33.377c11.237 0 17.85-12.621 11.455-21.861z" fill="#423e4f"/><path d="m325.085 138.411 16.688-24.114c5.54-8.005 17.372-8.005 22.912 0l16.688 24.114c6.395 9.24-.219 21.861-11.456 21.861h-33.377c-11.237 0-17.85-12.621-11.455-21.861z" fill="#423e4f"/><path d="m274.98 142.736-11.254-16.261c-3.736-5.398-11.715-5.398-15.451 0l-11.254 16.261c-4.313 6.231.147 14.742 7.726 14.742h22.508c7.577 0 12.037-8.51 7.725-14.742z" fill="#423e4f"/><path d="m66.358 251.387c0-9.757.284-19.296.828-28.631h-49.344v200.217c0 45.023 36.493 81.526 81.516 81.526h65.099c-63.922-47.939-98.099-129.245-98.099-253.112z" fill="#b08bd7"/></g><g><path d="m353.64 453.491c4.143 0 7.5-3.358 7.5-7.5v-175.126c0-4.143-3.357-7.5-7.5-7.5h-37.432c-4.142 0-7.5 3.357-7.5 7.5 0 4.142 3.358 7.5 7.5 7.5h29.932v167.626c0 4.142 3.359 7.5 7.5 7.5z"/><path d="m203.171 442.251c-20.132 0-37.312-16.367-37.312-37.312 0-4.142-3.357-7.5-7.5-7.5-4.142 0-7.5 3.358-7.5 7.5 0 29.184 23.929 52.312 52.312 52.312 28.845 0 52.312-23.467 52.312-52.312 0-18.989-10.172-35.645-25.353-44.812 15.18-9.167 25.353-25.822 25.353-44.812 0-28.845-23.467-52.312-52.312-52.312-24.942 0-46.529 17.739-51.33 42.181-.798 4.064 1.849 8.006 5.914 8.805 4.064.798 8.007-1.85 8.805-5.914 3.422-17.424 18.82-30.071 36.611-30.071 20.574 0 37.312 16.738 37.312 37.312s-16.737 37.312-37.312 37.312c-4.142 0-7.5 3.358-7.5 7.5s3.358 7.5 7.5 7.5c20.574 0 37.312 16.738 37.312 37.312s-16.738 37.311-37.312 37.311z"/><path d="m207.74 195.87c4.002-2.484 8.976-2.483 12.978 0 8.88 5.509 19.913 5.509 28.793 0 4.002-2.484 8.975-2.483 12.978 0 4.44 2.755 9.418 4.132 14.396 4.132s9.957-1.378 14.396-4.132c4.003-2.483 8.976-2.483 12.979 0 3.52 2.183 8.143 1.1 10.327-2.42s1.1-8.143-2.42-10.327c-8.88-5.509-19.913-5.509-28.793 0-4.002 2.484-8.975 2.483-12.978 0-8.88-5.509-19.914-5.509-28.793 0-4.003 2.484-8.976 2.483-12.978 0-8.881-5.509-19.913-5.509-28.794 0-3.52 2.184-4.603 6.808-2.419 10.327 2.184 3.52 6.808 4.604 10.328 2.42z"/><path d="m193.082 134.143-16.688-24.114c-8.516-12.303-26.733-12.301-35.247 0l-16.688 24.113c-9.825 14.197.349 33.629 17.624 33.629h33.376c17.265 0 27.454-19.423 17.623-33.628.001 0 .001 0 0 0zm-17.623 18.628h-33.376c-5.194 0-8.247-5.819-5.289-10.093l16.688-24.113c2.567-3.708 8.022-3.693 10.579 0l16.688 24.113c2.955 4.272-.093 10.093-5.29 10.093z"/><path d="m336.541 167.771h33.377c17.265 0 27.454-19.424 17.623-33.629l-16.688-24.113c-8.514-12.304-26.734-12.301-35.246 0l-16.688 24.113c-9.827 14.198.347 33.629 17.622 33.629zm-5.289-25.092 16.688-24.113c2.556-3.694 8.012-3.707 10.578 0l16.688 24.113c2.956 4.272-.092 10.093-5.289 10.093h-33.377c-5.194-.001-8.246-5.819-5.288-10.093z"/><path d="m244.746 164.978h22.508c13.61 0 21.642-15.312 13.893-26.51l-11.255-16.262c-6.712-9.699-21.074-9.697-27.785 0l-11.254 16.261c-7.745 11.191.274 26.511 13.893 26.511zm-1.559-17.974 11.254-16.261c.757-1.094 2.359-1.096 3.117 0l11.254 16.261c.876 1.267-.018 2.974-1.559 2.974h-22.508c-1.542 0-2.432-1.71-1.558-2.974z"/><path d="m99.358 512h52.421c4.142 0 7.5-3.358 7.5-7.5s-3.358-7.5-7.5-7.5h-52.421c-40.813 0-74.016-33.208-74.016-74.026v-192.718h371.796c4.142 0 7.5-3.358 7.5-7.5s-3.358-7.5-7.5-7.5h-371.796v-75.262c0-26.979 14.992-51.855 38.185-64.761 3.516 16.803 18.419 29.122 35.831 29.122 20.181 0 36.598-16.418 36.598-36.599v-1.789h31.231v1.789c0 20.202 16.453 36.599 36.599 36.599 20.181 0 36.599-16.418 36.599-36.599v-1.789h31.231v1.789c0 20.138 16.403 36.599 36.598 36.599 20.18 0 36.598-16.418 36.598-36.599v-1.789h31.231v1.789c0 20.181 16.418 36.599 36.599 36.599 17.272 0 32.306-12.204 35.83-29.122 23.193 12.905 38.186 37.781 38.186 64.761v75.262h-59.52c-4.142 0-7.5 3.358-7.5 7.5s3.358 7.5 7.5 7.5h59.52v192.718c0 40.818-33.203 74.026-74.016 74.026h-230.863c-4.142 0-7.5 3.358-7.5 7.5s3.358 7.5 7.5 7.5h230.863c49.083 0 89.016-39.937 89.016-89.026 0-16.577 0-265.777 0-282.979 0-18.381-5.559-36.025-16.075-51.026-9.265-13.217-21.76-23.54-36.342-30.113v-22.258c-.001-20.18-16.418-36.598-36.599-36.598s-36.599 16.418-36.599 36.598v14.37h-31.231v-14.37c0-20.18-16.418-36.598-36.598-36.598s-36.598 16.418-36.598 36.598v14.37h-31.231v-14.37c0-20.18-16.418-36.598-36.599-36.598s-36.599 16.418-36.599 36.598v14.37h-31.231v-14.37c0-20.18-16.418-36.598-36.598-36.598-20.181 0-36.598 16.418-36.598 36.598v22.256c-14.582 6.574-27.077 16.896-36.343 30.113-10.516 15.001-16.075 32.646-16.075 51.026v282.979c0 49.091 39.932 89.028 89.016 89.028zm291.686-475.402c0-11.909 9.689-21.598 21.599-21.598 11.909 0 21.598 9.689 21.598 21.598v31.158c0 11.909-9.688 21.598-21.598 21.598-11.925 0-21.599-9.722-21.599-21.598 0-7.937 0-28.713 0-31.158zm-82.83-21.598c11.909 0 21.598 9.689 21.598 21.598v31.158c0 11.909-9.688 21.598-21.598 21.598-11.953 0-21.598-9.74-21.598-21.598 0-8.865 0-25.963 0-31.158 0-11.909 9.688-21.598 21.598-21.598zm-104.428 0c11.909 0 21.599 9.689 21.599 21.598v31.158c0 11.91-9.689 21.598-21.599 21.598-11.856 0-21.598-9.65-21.598-21.598 0-.104 0-31.158 0-31.158-.001-11.909 9.689-21.598 21.598-21.598zm-126.026 21.598c0-11.909 9.688-21.598 21.598-21.598 11.909 0 21.598 9.689 21.598 21.598v31.158c0 11.91-9.688 21.598-21.598 21.598-11.86 0-21.599-9.638-21.599-21.598.001-7.772.001-22.972.001-31.158z"/></g></g></svg>