<svg id="Capa_1" enable-background="new 0 0 512 512" height="512" viewBox="0 0 512 512" width="512" xmlns="http://www.w3.org/2000/svg"><g><g><path d="m256 453.014v16.45c0 19.348 15.695 35.036 35.036 35.036 19.362 0 35.047-15.685 35.047-35.036v-16.45l-35.042-18.108z" fill="#4f4c5f"/><path d="m256 388.328-11.357 32.343 11.357 32.343h70.083v-64.686z" fill="#e3986d"/><path d="m256 453.014v16.45c0 19.348-15.695 35.036-35.036 35.036-19.362 0-35.047-15.685-35.047-35.036v-16.45l35.042-18.108z" fill="#5c586f"/><path d="m211.711 439.685-25.794 13.33v16.45c0 19.351 15.685 35.036 35.047 35.036 6.839 0 13.217-1.969 18.612-5.36-16.757-14.448-27.471-35.69-27.865-59.456z" fill="#4f4c5f"/><path d="m185.917 388.328h70.083v64.686h-70.083z" fill="#e8a882"/><path d="m343.501 307.233h46.597v89.375c0 15.231-12.347 27.578-27.578 27.578h-23.207c-11.58 0-20.967-9.387-20.967-20.967v-46.351z" fill="#5c586f"/><path d="m211.677 438.333c0-18.913 6.556-36.285 17.499-50.005h-43.259v64.687h27.124c-.881-4.763-1.364-9.665-1.364-14.682z" fill="#e3986d"/><path d="m168.499 307.233h-46.597v89.375c0 15.231 12.347 27.578 27.578 27.578h23.207c11.58 0 20.967-9.387 20.967-20.967v-46.351z" fill="#5c586f"/><circle cx="412.894" cy="174.737" fill="#64d1e1" r="37.156"/><path d="m401.665 137.157-.055-.073c-5.576-7.401-7.724-16.831-5.904-25.917l.006-.032c2.851-14.23-4.087-28.624-16.996-35.258l-.007-.003c-8.258-4.244-14.304-11.819-16.61-20.812l-.012-.045c-3.601-14.039-16.07-23.992-30.558-24.39l-.076-.002c-9.261-.255-17.973-4.454-23.941-11.54l-.026-.03c-9.349-11.099-24.927-14.648-38.161-8.691-8.475 3.815-18.178 3.815-26.653 0-13.233-5.956-28.812-2.408-38.161 8.691l-.025.029c-5.969 7.086-14.68 11.286-23.942 11.54l-.075.002c-14.488.398-26.958 10.351-30.559 24.39l-.012.046c-2.307 8.993-8.353 16.569-16.61 20.812l-.007.004c-12.908 6.633-19.847 21.027-16.996 35.257l.007.034c1.82 9.085-.328 18.516-5.904 25.916l-.055.073h291.332z" fill="#ffb2c1"/><path d="m251.646 12.92c-3.068-.416-6.092-1.26-8.973-2.557-13.233-5.957-28.812-2.408-38.161 8.691l-.025.029c-5.969 7.086-14.68 11.286-23.942 11.541l-.076.002c-14.488.398-26.958 10.351-30.559 24.39l-.012.045c-2.307 8.993-8.353 16.569-16.61 20.812l-.007.004c-12.908 6.633-19.847 21.027-16.996 35.257l.007.034c1.82 9.085-.328 18.516-5.904 25.916l-.055.073h40.568c13.204-54.958 50.82-100.409 100.745-124.237z" fill="#ff9db0"/><path d="m404.943 126.291c-3.671-11.06-14.126-18.442-25.779-18.442h-246.32c-11.745 0-22.182 7.522-25.864 18.675-5.011 15.178-7.768 31.381-7.874 48.213-.547 86.997 68.845 157.33 155.841 157.901 87.135.572 157.949-69.891 157.949-156.893.001-17.28-2.793-33.907-7.953-49.454z" fill="#9ae0eb"/><path d="m218.482 328.168c-44.218-33.972-72.728-87.375-72.728-147.446 0-25.867 5.29-50.496 14.839-72.874h-27.749c-11.745 0-22.182 7.522-25.864 18.675-1.229 3.724-2.321 7.51-3.273 11.351-1.509-.187-3.042-.293-4.601-.293-20.521 0-37.156 16.635-37.156 37.156s16.635 37.156 37.156 37.156c1.381 0 2.743-.082 4.085-.229 13.325 57.435 57.978 102.581 115.291 116.504z" fill="#64d1e1"/><ellipse cx="171.936" cy="203.512" fill="#ff9db0" rx="31.018" ry="24.701"/><ellipse cx="340.064" cy="203.512" fill="#ff9db0" rx="31.018" ry="24.701"/><ellipse cx="256" cy="184.533" fill="#423e4f" rx="16.465" ry="18.425"/><path d="m334.628 260.395-4.189-2.997c-8.932-6.39-20.897-6.304-29.851.054-8.895 6.316-20.822 6.298-29.7-.054-8.903-6.37-20.872-6.37-29.776 0-8.878 6.352-20.805 6.37-29.7.054-8.955-6.358-20.92-6.444-29.851-.054l-4.189 2.997c-6.715 4.804-10.699 12.553-10.699 20.81v80.17c0 22.481 18.224 40.705 40.705 40.705h97.244c22.481 0 40.705-18.224 40.705-40.705v-80.17c0-8.257-3.984-16.006-10.699-20.81z" fill="#bc9bdd"/><path d="m349.772 277.06h27.726c18.473 0 33.449 14.976 33.449 33.449 0 18.473-14.976 33.449-33.449 33.449h-27.726c-18.473 0-33.449-14.976-33.449-33.449 0-18.474 14.976-33.449 33.449-33.449z" fill="#b3e8f0"/><path d="m208.532 319.267c0-20.749 5.255-40.271 14.506-57.307-4.099-.514-8.101-2.005-11.626-4.508-8.955-6.358-20.92-6.444-29.851-.054l-4.189 2.997c-6.715 4.804-10.699 12.553-10.699 20.81v80.17c0 22.481 18.224 40.705 40.705 40.705h34.214c-20.487-21.565-33.06-50.72-33.06-82.813z" fill="#b08bd7"/><path d="m162.228 277.06h-27.726c-18.473 0-33.449 14.976-33.449 33.449 0 18.473 14.976 33.449 33.449 33.449h27.726c18.473 0 33.449-14.976 33.449-33.449 0-18.474-14.976-33.449-33.449-33.449z" fill="#b3e8f0"/></g><g><path d="m177.116 154.152c-4.142 0-7.5 3.358-7.5 7.5v12.032c0 4.142 3.358 7.5 7.5 7.5s7.5-3.358 7.5-7.5v-12.032c.001-4.142-3.357-7.5-7.5-7.5z"/><path d="m256 210.44c13.215 0 23.967-11.631 23.967-25.926s-10.752-25.926-23.967-25.926-23.966 11.63-23.966 25.926 10.75 25.926 23.966 25.926zm0-36.851c4.944 0 8.966 4.901 8.966 10.925 0 6.025-4.022 10.925-8.966 10.925s-8.965-4.901-8.965-10.925c-.001-6.024 4.021-10.925 8.965-10.925z"/><path d="m334.883 181.185c4.142 0 7.5-3.358 7.5-7.5v-12.032c0-4.142-3.358-7.5-7.5-7.5s-7.5 3.358-7.5 7.5v12.032c0 4.142 3.358 7.5 7.5 7.5z"/><path d="m457.561 174.717c0-24.262-19.451-44.052-43.576-44.631-.597-2.071-1.235-4.132-1.915-6.181-1.768-5.326-4.756-9.989-8.596-13.735 2.276-16.643-6.24-33.24-21.327-40.993-6.346-3.261-11.002-9.095-12.786-16.052-4.409-17.19-19.878-29.538-37.695-30.028-7.116-.196-13.827-3.43-18.438-8.905-11.45-13.596-30.768-17.995-46.978-10.699-6.514 2.931-13.986 2.932-20.498 0-16.209-7.296-35.527-2.896-47.003 10.729-4.586 5.445-11.297 8.68-18.488 8.877-17.741.488-33.211 12.835-37.631 30.071-1.768 6.894-6.406 12.717-12.729 15.982-.018.009-.035.018-.053.026-15.088 7.754-23.604 24.362-21.312 41.039-3.878 3.794-6.9 8.523-8.686 13.932-.65 1.968-1.26 3.947-1.833 5.936-24.125.578-43.577 20.369-43.577 44.631 0 24.07 19.144 43.741 43.003 44.616 5.09 18.656 13.427 36.32 24.697 52.121-16.561 5.252-28.596 20.767-28.596 39.043 0 15.279 8.417 28.621 20.851 35.658v50.446c0 19.343 15.737 35.08 35.08 35.08h23.208c1.962 0 3.878-.2 5.73-.579v38.359c0 23.456 19.088 42.539 42.55 42.539 14.52 0 27.359-7.317 35.038-18.454 7.677 11.138 20.516 18.455 35.037 18.455 23.462 0 42.55-19.082 42.55-42.539 0-27.771 0 3.82 0-38.359 1.852.38 3.768.58 5.73.58h23.208c19.343 0 35.08-15.737 35.08-35.08v-50.446c12.434-7.038 20.85-20.38 20.85-35.658 0-18.34-12.119-33.903-28.77-39.101 11.31-15.802 19.69-33.449 24.814-52.061 23.887-.847 43.061-20.531 43.061-44.619zm-39.944-29.284c14.12 2.265 24.944 14.534 24.944 29.284 0 14.62-10.633 26.802-24.571 29.221 1.546-8.937 2.417-18.447 2.417-28.213 0-9.91-.901-20.105-2.768-30.167-.008-.041-.015-.083-.022-.125zm-294.267-43.798c1.02-7.997 5.889-15.258 13.307-19.089.018-.009.035-.018.053-.027 10.158-5.22 17.611-14.558 20.46-25.667 2.754-10.739 12.418-18.452 23.576-18.759 11.391-.313 22.134-5.491 29.499-14.236 7.154-8.493 19.221-11.242 29.348-6.684 10.425 4.693 22.386 4.693 32.812 0 10.127-4.557 22.195-1.809 29.374 6.714 7.34 8.715 18.083 13.893 29.55 14.208 11.083.305 20.746 8.019 23.513 18.803 2.837 11.063 10.291 20.401 20.455 25.625 7.436 3.822 12.321 11.085 13.346 19.103-2.825-.797-6.282-1.301-9.472-1.301h-159.561c-4.142 0-7.5 3.358-7.5 7.5s3.358 7.5 7.5 7.5h159.561c8.3 0 15.977 5.217 18.662 13.305 5.005 15.083 7.573 31.052 7.573 47.094 0 33.286-11.212 66.669-33.139 93.821h-21.57c-4.545-12.078-13.955-16.53-15.889-18.262-11.471-8.208-26.967-8.192-38.559.038-6.288 4.463-14.725 4.448-20.996-.038-11.47-8.206-26.945-8.274-38.505 0-6.271 4.486-14.708 4.502-20.996.038-11.592-8.23-27.088-8.245-38.559-.038-2.025 1.844-11.326 6.114-15.889 18.262h-21.81c-20.727-25.772-33.121-59.058-32.896-94.782.096-15.279 2.532-30.874 7.496-45.912 2.703-8.185 10.363-13.527 18.743-13.527h56.772c4.142 0 7.5-3.358 7.5-7.5s-3.358-7.5-7.5-7.5h-56.772c-3.269 0-6.753.538-9.487 1.311zm214.482 248.032c-.251 8.572.601 13.008-.891 19.312-.008.036-.016.071-.024.106-3.577 14.89-16.929 25.488-32.292 25.488-26.427 0-81.799 0-97.25 0-9.866 0-19.27-4.418-25.582-12.058-.021-.025-.041-.05-.062-.075-10.397-12.665-6.878-25.854-7.563-32.773 17.124-5.234 29.006-21.15 29.006-39.169 0-16.975-10.581-32.313-26.556-38.331 3.051-5.309 7.453-6.962 9.303-8.682 6.276-4.489 14.774-4.456 21.147.069 11.502 8.167 26.937 8.138 38.408-.069 6.306-4.511 14.768-4.493 21.049 0 11.472 8.208 26.907 8.235 38.408.069 6.377-4.529 14.875-4.555 21.147-.069 2.965 2.362 6.467 3.783 9.303 8.681-15.956 6.012-26.557 21.343-26.557 38.333 0 17.977 11.874 33.948 29.006 39.168zm-19.245 73.053v22.79h-55.087v-35.936h41.125c2.081 0 4.654-.171 6.832-.483 1.091 5.196 3.699 9.987 7.13 13.629zm-125.174 0c3.641-3.866 6.101-8.728 7.13-13.63 2.189.313 4.767.483 6.832.483h41.125v35.936h-55.087zm-99.424-218.786c-13.927-2.428-24.55-14.605-24.55-29.217 0-14.749 10.823-27.019 24.943-29.284-1.637 8.511-2.722 18.994-2.786 29.236-.061 9.825.742 19.631 2.393 29.265zm40.505 80.612h27.728c14.269 0 25.951 11.683 25.951 25.951 0 14.083-11.447 25.95-25.951 25.95h-27.728c-.056 0-.112-.004-.168-.004-14.325-.093-25.782-11.793-25.782-25.947-.001-14.308 11.641-25.95 25.95-25.95zm14.98 132.135c-11.072 0-20.079-9.007-20.079-20.079v-45.469c4.583.578 8.453.196 29.773.315.411 9.712-2.615 27.184 14.123 43.977.007.007.014.015.021.021 3.681 3.689 7.973 6.808 12.76 9.169-.632 6.483-6.237 12.066-13.389 12.066zm71.488 80.318c-15.19 0-27.549-12.353-27.549-27.538v-8.95h55.086v8.95c0 15.185-12.353 27.538-27.537 27.538zm97.625-27.538c0 15.185-12.359 27.538-27.549 27.538-15.185 0-27.538-12.353-27.538-27.538v-8.95h55.087zm64.019-118.328v45.469c0 11.072-9.007 20.079-20.079 20.079h-23.208c-7.124 0-12.755-5.555-13.39-12.066 11.9-5.87 21.166-16.678 24.985-29.811.006-.022.012-.043.019-.065 2.674-9.241 1.699-15.411 1.901-23.29 20.21-.117 25.129.266 29.772-.316zm20.85-40.636c0 14.188-11.503 25.873-25.794 25.946-.052 0-.104.004-.156.004h-27.728c-14.294 0-25.951-11.658-25.951-25.95 0-14.227 11.641-25.951 25.951-25.951h27.728c14.309 0 25.95 11.642 25.95 25.951z"/></g></g></svg>