<svg id="Capa_1" enable-background="new 0 0 512 512" height="512" viewBox="0 0 512 512" width="512" xmlns="http://www.w3.org/2000/svg"><g><g><path d="m451.282 419.362-17.914-190.397c-2.574-27.353-25.537-48.258-53.011-48.258h-248.715c-27.474 0-50.437 20.904-53.011 48.258l-17.913 190.397c-4.297 45.672 31.63 85.138 77.503 85.138h235.558c45.873 0 81.8-39.466 77.503-85.138z" fill="#ffa875"/><path d="m116.513 321.459c0-53.216 18.397-102.13 49.164-140.751h-34.035c-27.474 0-50.437 20.904-53.011 48.257l-17.913 190.397c-4.297 45.672 31.63 85.138 77.503 85.138h48.589c-52.874-41.091-70.297-107.763-70.297-183.041z" fill="#ff995d"/><g><path d="m367.014 253.07c-14.164 0-25.648-11.483-25.648-25.648v-83.261c0-47.071-38.295-85.366-85.366-85.366s-85.366 38.295-85.366 85.366v83.261c0 14.165-11.483 25.648-25.648 25.648s-25.648-11.483-25.648-25.648v-83.261c.001-75.355 61.307-136.661 136.662-136.661 75.356 0 136.661 61.306 136.661 136.661v83.261c0 14.165-11.482 25.648-25.647 25.648z" fill="#8bdf9e"/></g><g fill="#423e4f"><path d="m196.768 324.891-17.51-25.3c-5.813-8.399-18.227-8.399-24.04 0l-17.51 25.3c-6.71 9.695.229 22.936 12.02 22.936h35.019c11.792 0 18.731-13.241 12.021-22.936z"/><path d="m278.279 344.811-13.21-19.088c-4.385-6.336-13.752-6.336-18.137 0l-13.21 19.088c-5.062 7.314.173 17.304 9.068 17.304h26.42c8.896.001 14.131-9.989 9.069-17.304z"/><path d="m315.232 324.891 17.51-25.3c5.813-8.399 18.227-8.399 24.04 0l17.51 25.3c6.71 9.695-.229 22.936-12.02 22.936h-35.019c-11.792 0-18.731-13.241-12.021-22.936z"/><path d="m323.288 392.136-.318-.183c-8.293-4.767-18.495-4.767-26.788 0s-18.495 4.767-26.788 0-18.495-4.767-26.788 0-18.495 4.767-26.788 0-18.495-4.767-26.788 0l-.318.183c-8.089 4.65-13.075 13.269-13.075 22.599s4.987 17.949 13.075 22.599l.318.183c8.293 4.767 18.495 4.767 26.788 0s18.495-4.767 26.788 0 18.495 4.767 26.788 0 18.495-4.767 26.788 0 18.495 4.767 26.788 0l.318-.183c8.089-4.65 13.075-13.269 13.075-22.599s-4.987-17.949-13.075-22.599z"/></g><path d="m230.047 9.983c-62.985 12.159-110.708 67.696-110.708 134.178v83.261c0 14.165 11.483 25.647 25.648 25.647s25.648-11.482 25.648-25.647v-83.261c0-23.162 9.286-44.187 24.314-59.582 5.146-28.056 17.511-53.584 35.098-74.596z" fill="#73d98b"/></g><g><path d="m202.939 320.623-17.51-25.3c-8.788-12.698-27.589-12.695-36.374 0l-17.51 25.301c-10.139 14.651.361 34.704 18.188 34.704h35.02c17.816-.001 28.331-20.046 18.186-34.705zm-18.187 19.704h-35.02c-5.747 0-9.126-6.439-5.853-11.168l17.51-25.3c2.823-4.079 8.861-4.11 11.706 0l17.51 25.3c3.271 4.726-.101 11.168-5.853 11.168z"/><path d="m242.794 369.616h26.42c14.926 0 23.735-16.792 15.235-29.073l-13.21-19.088c-7.359-10.632-23.096-10.654-30.471 0l-13.21 19.088c-8.494 12.275.302 29.073 15.236 29.073zm-2.902-20.537 13.21-19.087c1.406-2.031 4.395-2.034 5.803 0l13.21 19.088c1.621 2.343-.05 5.536-2.901 5.536h-26.42c-2.849 0-4.524-3.192-2.902-5.537z"/><path d="m327.256 355.327h35.019c17.817 0 28.332-20.045 18.187-34.705l-17.51-25.3c-8.788-12.699-27.588-12.694-36.374 0l-17.51 25.3c-10.138 14.652.36 34.705 18.188 34.705zm-5.853-26.168 17.51-25.3c2.825-4.082 8.863-4.107 11.706 0l17.51 25.3c3.27 4.727-.101 11.169-5.853 11.169h-35.019c-5.749-.001-9.127-6.44-5.854-11.169z"/><path d="m185.3 385.45-.321.184c-10.386 5.971-16.838 17.122-16.838 29.102 0 11.979 6.452 23.13 16.84 29.103l.315.181c10.567 6.076 23.696 6.075 34.264 0 5.957-3.424 13.355-3.425 19.312 0 10.567 6.075 23.696 6.075 34.263 0 5.957-3.424 13.356-3.425 19.312 0 5.285 3.038 11.209 4.557 17.134 4.557 5.922 0 11.844-1.518 17.123-4.553l.326-.187c10.385-5.971 16.837-17.121 16.837-29.101s-6.452-23.131-16.837-29.102c-.002-.001-.005-.002-.007-.004l-.312-.179c-10.567-6.075-23.697-6.075-34.264 0-5.956 3.424-13.356 3.424-19.312 0-10.567-6.075-23.696-6.075-34.263 0-5.957 3.424-13.355 3.424-19.312 0-10.566-6.075-23.696-6.076-34.26-.001zm61.048 13.005c5.957-3.424 13.356-3.424 19.312 0 10.566 6.075 23.696 6.075 34.263 0 5.957-3.424 13.356-3.424 19.318.004l.318.183c5.741 3.304 9.307 9.47 9.307 16.094 0 6.626-3.569 12.794-9.307 16.093l-.326.187c-5.955 3.424-13.355 3.424-19.311 0-5.284-3.038-11.207-4.556-17.132-4.556-5.923 0-11.849 1.519-17.132 4.556-5.957 3.425-13.356 3.424-19.312 0-10.568-6.075-23.696-6.074-34.263 0-5.957 3.425-13.356 3.424-19.314-.001l-.316-.182c-5.745-3.303-9.313-9.471-9.313-16.097 0-6.627 3.569-12.795 9.311-16.096l.321-.185c5.955-3.424 13.355-3.424 19.312 0 10.569 6.075 23.697 6.075 34.264 0z"/><path d="m63.367 467.662c1.995 3.63 6.555 4.956 10.185 2.962s4.957-6.554 2.962-10.185c-6.771-12.326-9.65-26.288-8.325-40.374l17.914-190.397c1.527-16.229 11.481-30.132 25.741-36.966v34.72c0 18.235 14.829 33.147 33.147 33.147 18.334 0 33.147-14.927 33.147-33.147v-39.214h155.732v39.214c0 18.278 14.87 33.147 33.147 33.147 18.269 0 33.147-14.858 33.147-33.147v-34.72c14.26 6.834 24.213 20.736 25.741 36.966l17.913 190.397c1.851 19.671-4.715 39.333-18.016 53.943-13.3 14.612-32.26 22.992-52.018 22.992h-235.559c-16.323 0-31.625-5.414-44.253-15.655-3.216-2.608-7.939-2.116-10.549 1.101-2.609 3.217-2.116 7.94 1.101 10.55 15.33 12.433 33.9 19.005 53.702 19.005h235.559c23.972 0 46.975-10.167 63.112-27.894 16.137-17.726 24.104-41.581 21.858-65.446l-17.915-190.398c-2.252-23.933-18.312-44.043-40.674-51.733v-32.368c0-33.469-11.778-66.104-33.166-91.895-2.644-3.188-7.372-3.63-10.561-.985-3.188 2.644-3.629 7.372-.985 10.561 19.16 23.104 29.711 52.339 29.711 82.319v83.261c0 10.006-8.141 18.147-18.147 18.147s-18.147-8.141-18.147-18.147c0-17.161 0-65.235 0-83.261 0-51.207-41.66-92.866-92.866-92.866s-92.866 41.66-92.866 92.866v83.261c0 10.006-8.141 18.147-18.147 18.147s-18.147-8.141-18.147-18.147c0-16.995 0-66.194 0-83.261-.002-71.221 57.94-129.162 129.159-129.162 28.893 0 56.233 9.373 79.067 27.106 3.271 2.541 7.983 1.949 10.523-1.323 2.541-3.271 1.948-7.983-1.323-10.523-25.488-19.796-56.011-30.26-88.267-30.26-79.491 0-144.161 64.67-144.161 144.161v32.368c-22.363 7.691-38.423 27.801-40.674 51.734l-17.914 190.397c-1.608 17.088 1.889 34.032 10.112 49.002zm192.637-401.367c42.936 0 77.866 34.931 77.866 77.866v29.047h-155.732v-29.047c0-42.935 34.931-77.866 77.866-77.866z"/></g></g></svg>