<svg id="Capa_1" enable-background="new 0 0 512 512" height="512" viewBox="0 0 512 512" width="512" xmlns="http://www.w3.org/2000/svg"><g><g><path d="m256 378.376v70.122l-35.902 28.001-35.902-28.001v-70.122z" fill="#9ae0eb"/><path d="m256 378.376v70.122l35.902 28.001 35.902-28.001v-70.122z" fill="#64d1e1"/><path d="m184.196 428.568c6.158-1.147 12.16-3.034 17.94-5.7 3.465-1.599 7.156-2.409 10.973-2.409s7.508.811 10.972 2.409c10.08 4.651 20.819 7.009 31.92 7.009v-51.5h-71.804v50.191z" fill="#64d1e1"/><path d="m256 429.876c11.101 0 21.84-2.358 31.919-7.009 3.465-1.599 7.156-2.409 10.973-2.409s7.508.811 10.972 2.409c5.78 2.667 11.783 4.554 17.941 5.701v-50.191h-71.805z" fill="#3ccadd"/><path d="m256 7.5c-94.755 0-171.568 76.814-171.568 171.568v207.376c0 11.029 11.431 18.344 21.446 13.724 13.608-6.279 29.284-6.279 42.892 0 13.608 6.279 29.284 6.279 42.892 0 13.608-6.279 29.284-6.279 42.892 0 13.608 6.279 29.284 6.279 42.892 0 13.608-6.279 29.284-6.279 42.892 0 13.608 6.279 29.284 6.279 42.892 0 13.608-6.279 29.284-6.279 42.892 0 10.015 4.621 21.446-2.694 21.446-13.724v-207.376c0-94.754-76.813-171.568-171.568-171.568z" fill="#e8e8e8"/><path d="m129.484 213.664c0-74.362 9.675-141.374 50.547-188.457-56.643 28.021-95.599 86.387-95.599 153.861v207.375c0 11.029 11.431 18.345 21.446 13.724 13.608-6.279 29.284-6.279 42.892 0 11.186 5.161 23.767 6.07 35.45 2.746-36.213-40.979-54.736-102.295-54.736-189.249z" fill="#e0e0e0"/><ellipse cx="151.634" cy="164.153" fill="#ff9db0" rx="38.509" ry="30.667"/><ellipse cx="360.366" cy="164.153" fill="#ff9db0" rx="38.509" ry="30.667"/><ellipse cx="256" cy="140.591" fill="#423e4f" rx="20.441" ry="22.874"/><path d="m330.662 211.208-3.978-2.846c-8.481-6.068-19.843-5.986-28.346.051-8.447 5.997-19.771 5.98-28.202-.051-8.454-6.048-19.819-6.048-28.274 0-8.43 6.031-19.755 6.048-28.202.051-8.503-6.037-19.865-6.119-28.346-.051l-3.978 2.846c-6.376 4.562-10.159 11.92-10.159 19.76v85.126c0 21.347 17.305 38.652 38.652 38.652h92.338c21.347 0 38.652-17.305 38.652-38.652v-85.126c.002-7.84-3.781-15.199-10.157-19.76z" fill="#e8a882"/><path d="m339.398 230.95h24.659c16.43 0 29.749 13.319 29.749 29.749 0 16.43-13.319 29.749-29.749 29.749h-24.659c-16.43 0-29.749-13.319-29.749-29.749 0-16.43 13.319-29.749 29.749-29.749z" fill="#fed2a4"/><path d="m220.143 259.574c0-16.661 3.536-32.493 9.889-46.798-5.676.54-11.501-.906-16.371-4.363-8.503-6.037-19.865-6.119-28.346-.051l-3.977 2.846c-6.376 4.562-10.159 11.92-10.159 19.76v85.126c0 21.347 17.305 38.652 38.652 38.652h60.424c-30.263-20.808-50.112-55.669-50.112-95.172z" fill="#e3986d"/><path d="m172.602 230.95h-24.659c-16.43 0-29.749 13.319-29.749 29.749 0 16.43 13.319 29.749 29.749 29.749h24.659c16.43 0 29.749-13.319 29.749-29.749-.001-16.43-13.32-29.749-29.749-29.749z" fill="#fed2a4"/><path d="m256 448.498v20.105c0 9.906-4.021 18.886-10.511 25.386-6.5 6.49-15.479 10.511-25.386 10.511-19.833 0-35.907-16.074-35.907-35.897v-20.105z" fill="#5c586f"/><path d="m256 448.498v20.105c0 9.906 4.021 18.886 10.511 25.386 6.5 6.49 15.48 10.511 25.386 10.511 19.833 0 35.907-16.074 35.907-35.897v-20.105z" fill="#4f4c5f"/></g><g><path d="m283.942 140.591c0-16.749-12.535-30.374-27.942-30.374s-27.941 13.625-27.941 30.374c0 16.748 12.535 30.374 27.941 30.374 15.407 0 27.942-13.626 27.942-30.374zm-40.884 0c0-8.478 5.806-15.374 12.941-15.374 7.136 0 12.942 6.896 12.942 15.374 0 8.477-5.806 15.374-12.942 15.374-7.135 0-12.941-6.897-12.941-15.374z"/><path d="m169.05 126.905c0-5.312 4.321-9.633 9.633-9.633s9.634 4.321 9.634 9.633c0 4.142 3.358 7.5 7.5 7.5s7.5-3.358 7.5-7.5c0-13.583-11.051-24.633-24.634-24.633s-24.633 11.05-24.633 24.633c0 4.142 3.358 7.5 7.5 7.5s7.5-3.358 7.5-7.5z"/><path d="m322.207 126.905c0-5.312 4.321-9.633 9.633-9.633s9.634 4.321 9.634 9.633c0 4.142 3.358 7.5 7.5 7.5s7.5-3.358 7.5-7.5c0-13.583-11.051-24.633-24.634-24.633s-24.633 11.05-24.633 24.633c0 4.142 3.358 7.5 7.5 7.5s7.5-3.358 7.5-7.5z"/><path d="m335.304 468.603c0-6.792 0-49.87 0-56.583 10.692 1.193 21.395-.579 31.068-5.042 11.633-5.367 24.976-5.367 36.608 0 14.995 6.919 32.088-4.049 32.088-20.534v-68.316c0-4.142-3.358-7.5-7.5-7.5s-7.5 3.358-7.5 7.5v68.316c0 5.522-5.714 9.262-10.804 6.914-15.625-7.209-33.55-7.21-49.176 0-12.059 5.564-25.444 5.152-36.604.001-.001 0-.003-.001-.004-.002-15.626-7.21-33.551-7.21-49.176 0-20.646 9.526-36.862-.454-42.566-2.366-14.113-4.732-29.545-3.943-43.218 2.366-11.484 5.295-24.846 5.427-36.608 0-15.626-7.21-33.55-7.21-49.176 0-5.053 2.33-10.804-1.34-10.804-6.914v-207.375c0-41.576 15.589-81.239 43.896-111.683 2.82-3.034 2.648-7.779-.386-10.6-3.033-2.82-7.778-2.649-10.6.386-30.896 33.228-47.91 76.518-47.91 121.896v207.375c0 16.511 17.118 27.44 32.088 20.534 11.633-5.367 24.977-5.367 36.608 0 9.828 4.535 20.564 6.212 31.067 5.042v56.583c0 23.929 19.472 43.397 43.407 43.397 14.647 0 27.866-7.229 35.898-19.003 8.03 11.771 21.24 19.003 35.897 19.003 23.935.002 43.407-19.466 43.407-43.395zm-18.108-61.626s0 .001 0 0c.004.002.008.003.012.005 1.021.471 2.053.907 3.093 1.316.001 0 .002.001.004.002v32.696h-56.805v-29.096c5.994-.76 11.915-2.538 17.088-4.924 11.633-5.366 24.976-5.366 36.608.001zm-85.784 0c5.455 2.518 11.377 4.199 17.088 4.924v29.096h-56.805v-32.696c1.903-.453 18.826-10.963 39.717-1.324zm-11.309 90.023c-15.664 0-28.407-12.739-28.407-28.397v-12.605h56.804v12.605c0 15.581-12.591 28.397-28.397 28.397zm43.397-28.397v-12.605h56.804v12.605c0 15.658-12.744 28.397-28.407 28.397-15.581 0-28.397-12.591-28.397-28.397z"/><path d="m435.068 179.068c0-98.738-80.329-179.068-179.068-179.068-39.307 0-76.618 12.503-107.9 36.158-3.304 2.498-3.957 7.202-1.459 10.506 2.499 3.303 7.202 3.957 10.506 1.458 28.655-21.668 62.839-33.122 98.853-33.122 90.467 0 164.068 73.601 164.068 164.068v109.06c0 4.142 3.358 7.5 7.5 7.5s7.5-3.358 7.5-7.5z"/><path d="m110.694 260.699c0 20.539 16.709 37.249 37.249 37.249h15.737v18.146c0 25.448 20.704 46.151 46.151 46.151h92.338c25.448 0 46.152-20.704 46.152-46.151v-18.146h15.736c20.539 0 37.249-16.71 37.249-37.249s-16.709-37.248-37.249-37.248h-16.643c-1.788-7.319-6.144-13.875-12.388-18.342l-3.978-2.846c-11.022-7.886-25.913-7.873-37.051.036-5.837 4.145-13.672 4.13-19.496-.036-11.065-7.917-25.936-7.917-37.001 0-5.823 4.166-13.658 4.181-19.496.036-11.138-7.908-26.028-7.923-37.051-.036-1.647 1.566-12.849 6.788-16.366 21.188h-16.644c-20.539-.001-37.249 16.709-37.249 37.248zm15-.001c0-12.268 9.98-22.248 22.249-22.248h24.659c12.217 0 22.249 9.929 22.249 22.249 0 12.268-9.98 22.249-22.249 22.249-2.889 0-18.517 0-24.659 0-12.268-.001-22.249-9.981-22.249-22.25zm260.611.001c0 12.268-9.98 22.249-22.249 22.249-3.911 0-19.159 0-24.659 0-12.24 0-22.249-9.952-22.249-22.249 0-12.268 9.98-22.249 22.249-22.249h24.659c12.269 0 22.249 9.981 22.249 22.249zm-196.625-46.238c5.823-4.166 13.716-4.139 19.64.067 11.05 7.847 25.883 7.82 36.907-.067 5.845-4.181 13.7-4.182 19.546 0 11.024 7.886 25.856 7.913 36.907.066 5.925-4.206 13.816-4.233 19.64-.067 2.361 1.979 6.977 3.842 9.576 9.748-17.543 3.759-29.673 18.811-29.743 36.335 0 .052-.004.103-.004.154 0 .064.004.127.005.19.091 18.383 13.61 33.681 31.167 36.563v18.642c0 17.177-13.975 31.151-31.152 31.151h-92.338c-17.177 0-31.151-13.974-31.151-31.151v-18.642c17.908-2.937 31.171-18.575 31.171-36.753-.028-.102.946-20.346-17.948-31.849-3.687-2.241-7.495-3.702-11.798-4.641 2.611-5.935 7.219-7.77 9.575-9.746z"/></g></g></svg>