<svg id="Capa_1" enable-background="new 0 0 512.011 512.011" height="512" viewBox="0 0 512.011 512.011" width="512" xmlns="http://www.w3.org/2000/svg"><g><g><path d="m275.354 15.798c-10.578-11.057-28.119-11.057-38.697 0-10.613 11.094-17.134 26.132-17.134 42.699 0 .897.019 1.79.057 2.678 1.974 46.268 70.878 46.268 72.851 0 .038-.888.057-1.781.057-2.678 0-16.567-6.521-31.605-17.134-42.699z" fill="#f9d888"/><path d="m256.005 80.956c-8.493-10.551-13.577-23.962-13.577-38.561 0-12.89 3.969-24.849 10.741-34.736-6.056.644-11.936 3.354-16.513 8.138-10.613 11.094-17.134 26.132-17.134 42.699 0 .897.019 1.79.057 2.678.987 23.135 18.706 34.685 36.425 34.682v-14.9z" fill="#f5c956"/><path d="m320.531 223.817c72.791 3.844 131.698 63.075 132.956 136.759.02 1.136.03 2.282.03 3.418 0 26.116-5.071 51.046-14.28 73.866-16.319 40.427-55.975 66.534-99.557 66.645z" fill="#ffa875"/><path d="m172.331 504.505c-44.342-.122-84.191-27.303-100.348-68.633-8.712-22.273-13.489-46.513-13.489-71.879 0-1.136.01-2.282.03-3.418 1.258-73.684 60.164-132.915 132.956-136.759z" fill="#ffa875"/><path d="m343.716 418.204c0 30.072-1.41 59.059-4.037 86.301h-167.348c-2.627-27.242-4.037-56.229-4.037-86.301 0-74.992 8.793-143.26 23.185-194.387 2.495-.122 5-.193 7.526-.193h114c2.525 0 5.031.071 7.526.193 14.392 51.127 23.185 119.395 23.185 194.387z" fill="#ff995d"/><path d="m97.333 406.607c0-74.629 35.784-140.895 91.124-182.594-71.392 5.3-128.692 63.902-129.933 136.563-.02 1.136-.03 2.282-.03 3.417 0 25.366 4.777 49.606 13.489 71.879 8.033 20.55 21.927 37.597 39.315 49.564-9.031-24.571-13.965-51.124-13.965-78.829z" fill="#ff995d"/><path d="m339.32 210.032c-9.328-12.569-20.132-31.962-27.982-60.576-3.436-12.522-14.737-21.258-27.721-21.258h-55.221c-12.985 0-24.286 8.736-27.722 21.258-7.851 28.614-18.655 48.007-27.982 60.576-12.847 17.312-19.588 38.399-19.588 59.957v17.651c0 12.116 9.822 21.937 21.937 21.937 12.116 0 21.937-9.822 21.937-21.938v-17.475c0-10.242 8.303-18.545 18.545-18.545 10.242 0 18.545 8.303 18.545 18.545v57.671c0 12.116 9.822 21.937 21.937 21.937 12.116 0 21.937-9.822 21.937-21.937v-37.573c0-10.242 8.303-18.545 18.545-18.545 10.242 0 18.545 8.303 18.545 18.545v27.524c0 12.116 9.822 21.937 21.937 21.937 12.116 0 21.937-9.822 21.937-21.937v-47.798c.002-21.557-6.739-42.645-19.586-59.956z" fill="#e8e8e8"/><path d="m208.672 242.207c0-43.261 15.257-82.956 40.676-114.01h-20.953c-12.985 0-24.286 8.736-27.722 21.258-7.851 28.614-18.655 48.006-27.982 60.576-12.847 17.312-19.588 38.399-19.588 59.957v17.651c0 12.116 9.822 21.938 21.938 21.938 12.116 0 21.938-9.822 21.938-21.938v-17.475c0-7.864 4.902-14.568 11.811-17.265-.077-3.538-.118-7.101-.118-10.692z" fill="#e0e0e0"/></g><g><path d="m138.232 389.765v-17.987c0-4.142-3.358-7.5-7.5-7.5s-7.5 3.358-7.5 7.5v17.987c0 4.142 3.358 7.5 7.5 7.5s7.5-3.358 7.5-7.5z"/><path d="m373.777 371.778v17.987c0 4.142 3.358 7.5 7.5 7.5s7.5-3.358 7.5-7.5v-17.987c0-4.142-3.358-7.5-7.5-7.5s-7.5 3.358-7.5 7.5z"/><path d="m288.535 387.672c-3.123-2.722-7.86-2.396-10.582.727-5.54 6.356-13.54 10.002-21.949 10.002s-16.409-3.646-21.948-10.002c-2.721-3.122-7.458-3.448-10.582-.727-3.123 2.721-3.448 7.459-.727 10.582 8.389 9.626 20.511 15.147 33.257 15.147s24.868-5.521 33.257-15.147c2.721-3.123 2.396-7.86-.726-10.582z"/><path d="m446.19 440.672c10.625-26.33 15.271-53.579 14.794-80.219-.384-22.506-5.772-44.028-16.014-63.965-1.893-3.685-6.414-5.138-10.099-3.245-3.684 1.893-5.137 6.414-3.244 10.098 9.183 17.877 14.014 37.178 14.358 57.375.456 24.859-3.942 50.149-13.706 74.342-14.331 35.504-47.688 58.538-84.354 61.598 4.258-49.135 4.299-103.462.425-151.689 11.303-4.679 18.056-15.653 18.056-27.155 0-.007.001-.013.001-.02v-47.797c0-9.22-1.219-19.487-4.002-29.439 20.633 8.183 38.833 21.355 53.229 38.636 2.651 3.182 7.38 3.613 10.563.962s3.613-7.381.962-10.563c-18.857-22.635-43.598-38.911-71.705-47.271-2.856-5.89-6.225-11.513-10.113-16.752-11.406-15.369-20.414-34.913-26.772-58.09-4.325-15.765-18.699-26.774-34.954-26.774h-20.111v-17.918c20.865-3.31 36.482-18.932 36.482-44.283 0-17.926-6.824-34.931-19.214-47.883-13.52-14.132-35.967-14.184-49.536 0-12.391 12.952-19.214 29.958-19.214 47.883 0 25.296 15.562 40.964 36.482 44.283v17.918h-20.111c-16.255 0-30.629 11.01-34.954 26.774-6.359 23.177-15.366 42.721-26.772 58.09-3.882 5.232-7.248 10.847-10.101 16.728-28.877 8.616-54.972 26.208-73.776 49.819-20.229 25.398-31.212 55.945-31.766 88.335-.379 21.82 2.689 43.484 9.094 64.189 1.224 3.957 5.423 6.173 9.381 4.948 3.957-1.224 6.173-5.424 4.949-9.382-6.09-19.684-8.776-39.853-8.426-59.496.496-29.058 10.352-56.462 28.501-79.25 14.426-18.113 33.622-32.289 55.071-40.87-5.009 17.941-3.823 29.831-3.993 47.057 0 13.08 8.668 24.454 20.896 28.169-6.402 55.264-7.657 119.964-2.416 180.833-33.022-2.818-62.851-21.833-79.185-50.996-2.024-3.614-6.595-4.903-10.208-2.878-3.614 2.024-4.903 6.594-2.878 10.208 20.329 36.296 58.838 58.915 100.499 59.03h.021 167.348.02c46.828-.122 89.087-28.221 106.492-71.34zm-219.168-382.17c0-14.044 5.346-27.367 15.053-37.514 7.618-7.962 20.212-7.992 27.858 0 9.707 10.147 15.053 23.47 15.053 37.514 0 16.155-8.678 26.029-21.482 29.019v-25.756c0-4.142-3.358-7.5-7.5-7.5s-7.5 3.358-7.5 7.5v25.756c-12.721-2.971-21.482-12.78-21.482-29.019zm105.801 438.509h-153.637c-5.22-59.416-4.403-123.016 2.378-180.657 13.51-3.09 22.913-15.114 22.913-28.708v-17.476c0-6.09 4.955-11.045 11.045-11.045 6.097 0 11.045 4.961 11.045 11.045v57.67c0 16.232 13.206 29.438 29.438 29.438s29.438-13.205 29.438-29.438v-37.573c0-6.074 4.939-11.045 11.045-11.045 6.042 0 11.045 4.949 11.045 11.045v27.524c0 .046.003.09.003.136.083 14.997 11.418 27.382 25.92 29.093 3.889 49.245 3.632 101.864-.633 149.991zm-124.918-345.565c2.543-9.27 10.968-15.743 20.489-15.743h55.222c9.521 0 17.945 6.474 20.488 15.743 6.853 24.977 16.675 46.193 29.193 63.061 11.26 15.173 18.111 34.757 18.111 55.488v47.797c0 7.823-6.429 14.428-14.418 14.437-.007 0-.013.001-.02.001-7.961 0-14.438-6.477-14.438-14.438v-27.524c0-14.396-11.746-26.045-26.045-26.045-14.185 0-26.045 11.522-26.045 26.045v37.573c0 7.961-6.477 14.438-14.438 14.438s-14.438-6.477-14.438-14.438v-57.67c0-14.301-11.624-26.045-26.045-26.045-14.361 0-26.045 11.684-26.045 26.045v17.475c0 8.582-7.493 15.294-16.036 14.344-.052-.006-.103-.018-.155-.023-7.125-.873-12.684-6.986-12.684-14.32.023-16.98-.061-18.093.09-21.662.797-18.648 7.122-36.792 18.02-51.477 12.519-16.869 22.341-38.086 29.194-63.062z"/></g></g></svg>