<svg id="Capa_1" enable-background="new 0 0 512 512" height="512" viewBox="0 0 512 512" width="512" xmlns="http://www.w3.org/2000/svg"><g><g><path d="m93.347 318.842c-14.623 0-26.83 1.554-37.004 4.048-28.974 7.102-49.13 33.389-48.839 63.22.118 12.082 8.708 22.419 20.565 24.746 11.856 2.327 20.446 12.664 20.564 24.746l.024 2.519c.136 13.873 11.349 25.087 25.222 25.222l2.519.024c12.083.118 22.419 8.708 24.747 20.565 2.327 11.856 12.664 20.447 24.746 20.565 29.831.291 56.118-19.865 63.22-48.839 2.494-10.174 4.048-22.381 4.048-37.004z" fill="#bc9bdd"/><path d="m483.932 101.144c-11.856-2.327-20.446-12.664-20.564-24.746l-.024-2.519c-.136-13.873-11.349-25.086-25.222-25.222l-2.519-.025c-12.083-.118-22.419-8.708-24.747-20.564-2.327-11.856-12.664-20.447-24.746-20.565-29.831-.291-56.118 19.865-63.22 48.84-2.494 10.174-4.048 22.381-4.048 37.004l99.812 99.812c14.623 0 26.83-1.554 37.004-4.048 28.974-7.102 49.13-33.389 48.839-63.22-.118-12.083-8.708-22.42-20.565-24.747z" fill="#bc9bdd"/><path d="m316.191 93.016c-23.334-2.407-47.481 5.04-65.708 22.349l43.442 248.863 69.281-69.281 13.549-121.239z" fill="#ffa875"/><path d="m250.994 250.994-53.589-82.596-54.914 54.913 8.207 176.453c19.032 16.143 43.63 22.342 66.927 18.573l40.344-64.875z" fill="#ffa875"/><path d="m337.442 121.331-21.251-28.314c-23.334-2.407-47.481 5.04-65.708 22.349l9.72 55.68c22.93-21.764 49.135-38.851 77.239-49.715z" fill="#ff995d"/><path d="m170.756 380.811c0-62.716 20.808-122.157 54.518-169.458l-27.87-42.955-54.914 54.914 8.207 176.453c6.667 5.655 14.019 10.085 21.757 13.298-1.114-10.571-1.698-21.332-1.698-32.252z" fill="#ff995d"/><path d="m278.089 195.088c-8.124-31.549-18.144-58.374-27.607-79.722-.527.497-1.053 1.008-1.572 1.527l-51.506 51.506c4.822 13.066 9.546 27.75 13.713 43.938 10.283 39.891 15.233 81.219 14.729 122.841-.339 27.66-3.092 55.448-8.222 83.16 16.64-2.678 32.625-10.434 45.443-23.252l30.857-30.857c.594-9.411.955-18.813 1.068-28.209.58-47.715-5.115-95.129-16.903-140.932z" fill="#f9d888"/><path d="m395.085 145.613-28.72-28.72c-14.029-14.029-31.85-21.995-50.174-23.876 10.08 23.47 20.386 51.919 28.863 84.83 9.847 38.251 15.925 77.488 18.151 117.101l31.88-31.88c32.429-32.43 32.429-85.026 0-117.455z" fill="#f9d888"/><g fill="#f5c956"><path d="m142.491 223.312-25.599 25.599c-32.429 32.429-32.429 85.026 0 117.455l28.721 28.72c1.647 1.647 3.34 3.205 5.085 4.679 12.149-70.959 4.183-131.447-8.207-176.453z"/><path d="m362.643 113.414c-13.394-11.863-29.708-18.68-46.452-20.398 4.198 9.774 8.433 20.425 12.561 31.889 11.003-4.823 22.33-8.68 33.891-11.491z"/><path d="m214.703 227.273c15.051-24.362 33.385-46.057 54.096-64.04-5.901-18.089-12.223-34.12-18.317-47.868-.527.497-1.053 1.008-1.572 1.527l-51.506 51.506c4.822 13.066 9.546 27.75 13.713 43.938 1.279 4.958 2.473 9.937 3.586 14.937z"/></g></g><g><path d="m26.623 418.215c8.324 1.634 14.427 8.978 14.51 17.46l.024 2.52c.175 17.828 14.821 32.474 32.649 32.648l2.518.025c8.483.083 15.826 6.185 17.46 14.509 2.998 15.272 16.469 26.468 32.032 26.62.244.002.483.004.727.004 33.291 0 61.955-22.345 69.851-54.558 2.276-9.287 3.633-19.563 4.083-30.614 9.263.387 14.923-.676 18.343-1.087h.002.001c18.867-3.038 35.999-11.804 49.547-25.352 12.315-12.315 119.703-119.703 132.018-132.018 17.411-17.41 27.528-41.41 26.425-67.892 11.056-.449 21.339-1.807 30.631-4.083 32.448-7.954 54.881-36.977 54.553-70.578-.152-15.563-11.348-29.035-26.62-32.032-8.324-1.634-14.426-8.978-14.509-17.46l-.024-2.52c-.174-17.828-14.82-32.474-32.649-32.648l-2.518-.024c-8.483-.083-15.826-6.185-17.46-14.509-2.998-15.272-16.469-26.468-32.032-26.62-33.571-.304-62.624 22.105-70.578 54.554-2.276 9.285-3.633 19.559-4.083 30.606-25.969-1.119-50.402 8.897-67.916 26.425-12.695 12.695-108.645 108.645-132.019 132.018-18.639 18.639-27.428 43.449-26.387 67.915-11.061.448-21.348 1.806-30.644 4.083-32.448 7.954-54.881 36.977-54.553 70.578.151 15.561 11.346 29.032 26.618 32.03zm303.551-360.087c6.242-25.467 28.927-43.129 55.287-43.129.191 0 .384.001.576.003 8.483.083 15.826 6.186 17.46 14.51 2.998 15.272 16.469 26.468 32.033 26.62l2.518.024c9.717.095 17.701 8.078 17.796 17.795l.024 2.519c.152 15.564 11.347 29.036 26.62 32.033 8.324 1.634 14.427 8.977 14.51 17.46.259 26.604-17.474 49.575-43.125 55.862-8.675 2.126-18.381 3.376-28.924 3.729-1.284-6.118-3.287-12.253-5.591-17.477 15.604-7.334 29.242-17.351 29.902-17.838 3.331-2.46 4.036-7.154 1.576-10.485-2.46-3.332-7.155-4.039-10.487-1.581-.151.112-13.581 9.963-28.132 16.683-7.787-11.914-15.962-18.172-20.873-23.592l23.267-23.267c2.929-2.929 2.929-7.678 0-10.606-2.929-2.929-7.678-2.929-10.606 0l-23.267 23.267c-5.498-5.052-11.713-13.098-23.59-20.878 6.72-14.549 16.569-27.975 16.68-28.126 2.459-3.332 1.754-8.026-1.577-10.487-3.332-2.461-8.028-1.757-10.489 1.575-.486.658-10.499 14.291-17.834 29.892-5.541-2.416-11.536-4.336-17.481-5.585.351-10.544 1.601-20.248 3.727-28.921zm-19.122 42.025c9.135 21.768 16.934 44.322 23.093 66.095 1.127 3.986 5.273 6.303 9.258 5.175 3.986-1.127 6.303-5.273 5.175-9.258-5.757-20.355-12.813-40.913-20.128-59.166 25.541 7.024 38.315 26.165 46.981 33.567 0 0 .001.001.001.001s.001.001.001.001c15.432 15.731 31.338 27.399 35.784 57.63 3.146 23.596-4.663 46.794-21.436 63.566l-20.242 20.241c-2.407-28.927-6.976-58.323-13.454-86.527-.927-4.038-4.957-6.558-8.988-5.631-3.532.811-5.904 3.994-5.821 7.481.077 3.199 10.649 40.966 14.234 98.706l-53.207 53.207c2.293-80.194-13.025-158.71-42.769-227.884 14.424-11.924 32.763-18.05 51.518-17.204zm-116.754 81.958c14.837 43.824 22.917 90.01 23.961 136.856.091 4.12 3.467 7.379 7.603 7.329.021 0 .042.002.063.002 4.14-.092 7.423-3.524 7.331-7.665-1.133-50.83-10.291-100.952-27.173-148.307l41.859-41.859c29.532 70.933 43.396 150.892 38.658 232.479l-28.835 28.835c-8.728 8.728-19.238 15.077-30.817 18.684 3.065-18.973 5.209-39.681 6.011-59.451.168-4.139-3.051-7.63-7.189-7.798-4.129-.164-7.63 3.051-7.798 7.19-.832 20.491-3.113 42.111-6.775 63.188-18.037 1.65-36.809-3.197-52.378-14.945 9.326-57.846 6.656-115.723-7.956-171.102zm-72.103 72.102 16.303-16.303c11.687 48.787 13.623 97.702 6.978 146.431-16.192-16.841-24.328-23.17-30.822-32.069-21.654-29.538-19.141-71.377 7.541-98.059zm-64.067 75.961c8.674-2.126 18.377-3.376 28.917-3.729 1.271 6.053 3.151 11.896 5.587 17.482-15.6 7.334-29.231 17.346-29.891 17.833-3.331 2.46-4.035 7.154-1.576 10.485 2.467 3.342 7.163 4.032 10.487 1.581.151-.112 13.577-9.96 28.126-16.681 7.02 10.716 13.527 16 20.879 23.589l-23.267 23.269c-2.929 2.929-2.929 7.678 0 10.606 2.927 2.928 7.678 2.93 10.606 0l23.267-23.268c6.752 6.411 12.372 13.532 23.594 20.869-6.697 14.504-16.507 27.895-16.684 28.134-2.461 3.332-1.756 8.028 1.575 10.489s8.027 1.756 10.489-1.575c.487-.66 10.509-14.304 17.844-29.914 5.868 2.556 12.055 4.477 17.472 5.601-.352 10.545-1.602 20.251-3.729 28.926-6.288 25.651-29.295 43.395-55.863 43.125-8.483-.083-15.826-6.186-17.46-14.51-2.998-15.272-16.469-26.468-32.033-26.62l-2.518-.024c-9.718-.095-17.701-8.078-17.796-17.795l-.024-2.519c-.152-15.563-11.347-29.035-26.62-32.033-8.325-1.634-14.427-8.977-14.51-17.46-.257-26.602 17.477-49.574 43.128-55.861z"/></g></g></svg>