<svg id="Capa_1" enable-background="new 0 0 512 512" height="512" viewBox="0 0 512 512" width="512" xmlns="http://www.w3.org/2000/svg"><g><g><path d="m239.066 465.718-79.502-259.597c-3.683-12.027-2.256-25.039 3.947-35.981l63.574-112.147c8.129-14.34 23.341-23.203 39.825-23.203h128.237c16.484 0 31.695 8.862 39.825 23.203l63.574 112.147c6.203 10.942 7.63 23.954 3.947 35.981l-79.502 259.597c-5.891 19.237-23.653 32.373-43.772 32.373h-96.382c-20.118.001-37.879-13.135-43.771-32.373z" fill="#e8a882"/><path d="m227.086 57.993-63.574 112.147c-6.203 10.942-7.63 23.954-3.947 35.981l79.502 259.597c5.891 19.237 23.653 32.374 43.772 32.374h16.834l27.357-9.216c31.767-10.702 52.486-40.406 51.557-73.917l-7.537-271.392c-.574-20.72-9.762-40.532-25.207-54.358l-60.79-54.418h-18.14c-16.487 0-31.698 8.862-39.827 23.202z" fill="#e3986d"/><path d="m281.818 421.844-65.867-215.077c-2.562-8.367-1.569-17.42 2.746-25.032l43.693-77.077c5.656-9.977 16.238-16.143 27.707-16.143h81.866c11.468 0 22.051 6.166 27.707 16.143l43.693 77.077c4.315 7.613 5.308 16.665 2.746 25.032l-65.867 215.077c-4.099 13.384-16.455 22.523-30.453 22.523h-37.517c-13.999 0-26.355-9.139-30.454-22.523z" fill="#5c586f"/><path d="m371.048 143.567c-.574-20.72-9.762-40.532-25.207-54.358l-.775-.694h-54.97c-11.468 0-22.051 6.166-27.707 16.143l-43.693 77.077c-4.315 7.613-5.308 16.666-2.746 25.032l65.867 215.077c4.099 13.384 16.455 22.522 30.453 22.522h37.517c11.961 0 22.705-6.686 28.141-16.978.547-4.063.773-8.216.656-12.43z" fill="#4f4c5f"/><path d="m348.596 415.792-7.537-271.393c-.349-12.573-5.856-24.449-15.228-32.838l-96.051-85.982c-12.282-10.995-29.527-14.537-45.148-9.274l-121.525 40.94c-15.621 5.262-27.207 18.517-30.333 34.702l-24.443 126.576c-2.385 12.35.417 25.137 7.747 35.358l158.219 220.63c11.725 16.35 32.75 23.128 51.817 16.705l91.338-30.77c19.065-6.423 31.703-24.543 31.144-44.654z" fill="#e8a882"/><path d="m96.698 234.052c0-89.335 24.272-168.506 87.363-217.555l-120.954 40.748c-15.621 5.262-27.207 18.517-30.333 34.702l-24.443 126.576c-2.385 12.35.417 25.137 7.747 35.358l158.219 220.63c11.725 16.35 32.75 23.128 51.817 16.705l4.888-1.646c-80.306-55.567-134.304-155.942-134.304-255.518z" fill="#e3986d"/><path d="m287.831 163.012c-.243-8.747-4.074-17.009-10.594-22.846l-66.014-59.094c-8.545-7.649-20.542-10.113-31.41-6.452l-77.581 26.136c-10.868 3.662-18.929 12.883-21.103 24.144l-16.799 86.993c-1.659 8.592.29 17.488 5.389 24.599l131.085 182.793c8.157 11.375 22.785 16.091 36.05 11.622l35.554-11.978c13.265-4.469 22.057-17.074 21.669-31.066z" fill="#edb798"/><path d="m243.662 192.44-4.059-12.048c-2.754-8.176-11.615-12.571-19.792-9.817l-24.853 8.373-9.479-28.137c-2.754-8.176-11.615-12.571-19.792-9.817l-12.048 4.059c-8.176 2.754-12.571 11.615-9.817 19.792l9.479 28.137-24.853 8.373c-8.176 2.754-12.571 11.616-9.817 19.792l4.059 12.048c2.754 8.176 11.615 12.571 19.792 9.817l24.853-8.373 24.448 72.572c2.754 8.176 11.615 12.571 19.792 9.817l12.048-4.059c8.176-2.754 12.571-11.615 9.817-19.792l-24.448-72.571 24.853-8.373c8.176-2.756 12.571-11.617 9.817-19.793z" fill="#f9d888"/><path d="m96.698 234.052c0-51.488 8.064-99.599 26.968-140.517l-21.435 7.221c-10.868 3.662-18.929 12.883-21.103 24.144l-16.799 86.993c-1.659 8.592.29 17.488 5.389 24.599l30.618 42.696c-2.38-14.959-3.638-30.056-3.638-45.136z" fill="#e8a882"/></g><g><path d="m295.333 162.794c-.299-10.76-5.07-21.048-13.09-28.227l-66.017-59.097c-10.536-9.433-25.407-12.487-38.809-7.973l-77.585 26.138c-13.401 4.514-23.392 15.945-26.074 29.83l-16.8 86.998c-2.041 10.568.386 21.646 6.659 30.393l36.387 50.74c2.414 3.366 7.1 4.139 10.466 1.724 3.366-2.414 4.138-7.099 1.724-10.466l-36.387-50.74c-3.881-5.413-5.383-12.268-4.12-18.807l16.8-86.997c1.66-8.593 7.842-15.665 16.135-18.459l77.586-26.138c8.292-2.794 17.495-.903 24.014 4.934l66.018 59.097c4.963 4.443 7.915 10.809 8.1 17.467l6.244 224.861c.299 10.768-6.359 20.313-16.567 23.752l-35.556 11.978c-10.207 3.438-21.284-.132-27.562-8.885l-77.345-107.856c-2.414-3.366-7.1-4.138-10.466-1.724s-4.138 7.1-1.724 10.466l77.345 107.855c10.112 14.1 27.991 19.934 44.541 14.359l35.556-11.978c16.497-5.558 27.256-20.983 26.772-38.384z"/><path d="m111.519 223.534 4.059 12.048c4.07 12.083 17.21 18.602 29.295 14.531l17.747-5.978 22.055 65.467c4.061 12.057 17.128 18.63 29.295 14.531l12.048-4.059c12.11-4.079 18.612-17.183 14.531-29.295l-22.055-65.467 17.747-5.978c12.111-4.08 18.611-17.183 14.531-29.295l-4.059-12.048c-4.08-12.11-17.18-18.611-29.295-14.531l-17.747 5.979-7.085-21.03c-4.079-12.11-17.182-18.612-29.295-14.531l-12.048 4.059c-12.111 4.08-18.611 17.183-14.531 29.294l7.085 21.031-17.747 5.979c-12.111 4.078-18.611 17.18-14.531 29.293zm19.321-15.08 24.854-8.373c3.926-1.322 6.035-5.576 4.713-9.502l-9.479-28.138c-1.433-4.256.851-8.858 5.105-10.291l12.049-4.059c4.253-1.433 8.856.849 10.29 5.104l9.479 28.139c1.321 3.923 5.577 6.035 9.502 4.713l24.855-8.373c4.244-1.43 8.86.86 10.29 5.105l4.059 12.048c1.433 4.254-.85 8.857-5.105 10.29l-24.855 8.373c-3.922 1.321-6.036 5.577-4.713 9.502l24.449 72.575c1.433 4.253-.849 8.858-5.104 10.291l-12.048 4.059c-4.251 1.433-8.856-.849-10.29-5.104l-24.449-72.575c-1.319-3.916-5.566-6.038-9.502-4.714l-24.855 8.373c-4.252 1.433-8.856-.849-10.29-5.104l-4.059-12.048c-1.431-4.244.859-8.861 5.104-10.291z"/><path d="m444.137 371.103c-1.213 3.961 1.015 8.155 4.975 9.368 3.964 1.213 8.155-1.015 9.368-4.975l51.2-167.185c4.268-13.936 2.593-29.199-4.594-41.878l-63.577-112.154c-9.443-16.658-27.204-27.005-46.352-27.005h-128.242c-6.722 0-13.437 1.324-19.705 3.821l-12.423-11.121c-14.267-12.771-34.402-16.908-52.549-10.795l-121.532 40.943c-18.146 6.113-31.674 21.59-35.304 40.39l-24.445 126.581c-2.763 14.31.523 29.31 9.016 41.153l158.227 220.642c13.689 19.089 37.895 26.993 60.309 19.443l18.803-6.334c9.722 8.69 22.412 13.603 35.531 13.603h96.387c23.57 0 44.044-15.142 50.946-37.679l19.549-63.834c1.213-3.961-1.015-8.155-4.975-9.368-3.964-1.214-8.156 1.015-9.368 4.975l-19.549 63.834c-4.959 16.192-19.668 27.071-36.602 27.071h-96.387c-6.318 0-12.501-1.584-17.995-4.51l55.004-18.53c9.346-3.149 17.325-8.643 23.405-15.687h6.54c17.408 0 32.529-11.183 37.626-27.828l65.871-215.088c3.152-10.292 1.915-21.565-3.393-30.929l-43.695-77.081c-6.974-12.303-20.091-19.945-34.233-19.945h-69.014l-42.616-38.149c2.171-.383 4.371-.578 6.571-.578h128.243c13.757 0 26.517 7.434 33.302 19.402l63.577 112.153c5.164 9.109 6.367 20.076 3.3 30.087zm-129.075 82.24c-6.927 2.334-78.95 26.597-91.343 30.772-16.046 5.406-33.46-.207-43.329-13.969l-158.227-220.642c-6.102-8.508-8.463-19.285-6.478-29.567l24.445-126.58c2.609-13.508 12.328-24.627 25.365-29.019l121.532-40.943c13.038-4.391 27.504-1.42 37.753 7.755l70.31 62.94 25.746 23.047c7.802 6.984 12.443 16.992 12.734 27.459l7.537 271.407v.001c.44 15.899-9.229 31.675-26.045 37.339zm56.909-357.341c8.751 0 16.868 4.729 21.183 12.342l43.696 77.081c3.284 5.794 4.05 12.77 2.099 19.138l-65.871 215.088c-2.895 9.455-11.018 16.059-20.664 17.079 2.718-6.899 3.881-14.176 3.687-21.144l-7.537-271.408c-.406-14.559-6.854-28.49-17.723-38.219l-11.124-9.959h52.254z"/></g></g></svg>