<svg id="Capa_1" enable-background="new 0 0 512 512" height="512" viewBox="0 0 512 512" width="512" xmlns="http://www.w3.org/2000/svg"><g><g><path d="m236.262 30.77h39.477v219.632h-39.477z" fill="#e8e8e8"/><g><path d="m193.28 275.088c-10.489 7.523-25.069 5.102-32.569-5.349l-12.574-17.512c-7.701-10.735-17.531-19.696-28.751-26.38l-8.225-28.127 33.858-10.892c15.972 9.82 29.974 22.777 41.035 38.179l12.574 17.512c7.515 10.474 5.116 25.055-5.348 32.569z" fill="#bc9bdd"/></g><path d="m157.691 279.709-18.733-10.67c-16.479-9.383-34.609-15.317-53.221-17.579l-26.227 24.025 19.209 22.131c12.985 1.393 25.657 5.437 37.135 11.98l18.733 10.67c11.176 6.369 25.436 2.487 31.831-8.726 6.374-11.195 2.472-25.447-8.727-31.831z" fill="#bc9bdd"/><path d="m137.301 333.815-20.982-4.953c-18.456-4.354-37.524-4.933-56.019-1.854l-18.386 30.446 24.671 15.814c12.851-2.326 26.149-2.02 39.006 1.02l20.982 4.953c12.519 2.958 25.105-4.788 28.077-17.35 2.959-12.537-4.805-25.11-17.349-28.076z" fill="#bc9bdd"/><path d="m165.077 400.606c-3.293-12.455-16.062-19.892-28.525-16.602l-20.843 5.509c-18.333 4.848-35.428 13.314-50.294 24.739l-1.886 35.517 29.211 2.336c10.243-8.102 22.118-14.094 34.893-17.465l20.843-5.509c12.436-3.283 19.893-16.043 16.601-28.525z" fill="#bc9bdd"/><g><path d="m318.72 275.088c10.489 7.523 25.069 5.102 32.569-5.349l12.574-17.512c7.701-10.735 17.531-19.696 28.751-26.38l8.225-28.127-33.858-10.892c-15.972 9.82-29.974 22.777-41.035 38.179l-12.574 17.512c-7.515 10.474-5.116 25.055 5.348 32.569z" fill="#bc9bdd"/></g><path d="m354.309 279.709 18.733-10.67c16.479-9.383 34.609-15.317 53.221-17.579l26.227 24.024-19.209 22.131c-12.986 1.393-25.657 5.437-37.135 11.98l-18.733 10.67c-11.176 6.369-25.436 2.487-31.831-8.726-6.374-11.194-2.472-25.446 8.727-31.83z" fill="#bc9bdd"/><path d="m374.699 333.815 20.982-4.953c18.456-4.354 37.524-4.933 56.019-1.854l18.386 30.446-24.671 15.814c-12.851-2.326-26.149-2.02-39.006 1.02l-20.982 4.953c-12.519 2.958-25.105-4.788-28.077-17.35-2.959-12.537 4.805-25.11 17.349-28.076z" fill="#bc9bdd"/><path d="m346.923 400.606c3.293-12.455 16.062-19.892 28.525-16.602l20.843 5.509c18.333 4.848 35.428 13.314 50.294 24.739l1.886 35.517-29.211 2.336c-10.243-8.102-22.118-14.094-34.893-17.465l-20.843-5.509c-12.436-3.283-19.893-16.043-16.601-28.525z" fill="#bc9bdd"/><path d="m275.738 190.659c-6.477-.637-13.06-.968-19.739-.968-6.678 0-13.261.332-19.738.968v59.742h39.477z" fill="#e0e0e0"/><g fill="#b08bd7"><path d="m351.289 269.74 12.574-17.512c3.666-5.11 7.827-9.803 12.378-14.055-11.974-10.266-25.411-18.98-40.013-25.85-3.654 4.017-7.094 8.245-10.282 12.685l-12.574 17.512c-7.514 10.474-5.115 25.054 5.349 32.569 10.488 7.523 25.067 5.102 32.568-5.349z"/><path d="m396.309 258.453c-8.021 2.812-15.814 6.343-23.267 10.586l-18.733 10.67c-11.199 6.383-15.101 20.636-8.726 31.831 6.395 11.213 20.655 15.095 31.831 8.726l18.733-10.67c8.076-4.604 16.744-7.964 25.695-10.041-6.557-14.938-15.175-28.744-25.533-41.102z"/><path d="m395.681 328.862-20.982 4.953c-12.544 2.966-20.309 15.539-17.35 28.077 2.972 12.562 15.558 20.308 28.077 17.35l20.982-4.953c9.847-2.329 19.951-3.047 29.916-2.214.013-.874.028-1.747.028-2.632 0-15.378-1.953-30.232-5.634-44.35-11.725-.199-23.501 1.047-35.037 3.769z"/><path d="m396.291 389.513-20.843-5.509c-12.464-3.29-25.233 4.147-28.525 16.602-3.292 12.482 4.165 25.242 16.602 28.525l20.843 5.509c8.142 2.148 15.917 5.366 23.139 9.512 11.761-9.901 19.954-23.179 24.525-39.721-11.114-6.54-23.135-11.585-35.741-14.918z"/><path d="m136.552 384.004-20.843 5.509c-12.607 3.333-24.628 8.378-35.742 14.919 4.57 16.542 12.762 29.821 24.523 39.722 7.223-4.147 14.999-7.365 23.143-9.514l20.843-5.509c12.437-3.284 19.894-16.043 16.602-28.525-3.293-12.454-16.062-19.891-28.526-16.602z"/><path d="m137.301 333.815-20.982-4.953c-11.537-2.722-23.313-3.968-35.039-3.769-3.68 14.118-5.633 28.972-5.633 44.35 0 .885.014 1.758.028 2.632 9.965-.833 20.07-.115 29.917 2.213l20.982 4.953c12.519 2.958 25.105-4.789 28.077-17.35 2.958-12.537-4.806-25.11-17.35-28.076z"/><path d="m157.691 279.709-18.733-10.67c-7.453-4.244-15.247-7.774-23.268-10.586-10.359 12.358-18.977 26.165-25.533 41.102 8.952 2.077 17.62 5.437 25.696 10.041l18.733 10.67c11.176 6.369 25.436 2.487 31.831-8.726 6.376-11.195 2.473-25.447-8.726-31.831z"/><path d="m148.138 252.228 12.574 17.512c7.5 10.451 22.079 12.872 32.569 5.349 10.464-7.515 12.863-22.095 5.349-32.569l-12.574-17.512c-3.188-4.44-6.629-8.669-10.282-12.686-14.602 6.87-28.039 15.583-40.013 25.85 4.55 4.252 8.711 8.946 12.377 14.056z"/></g><path d="m411.353 369.443c0 85.799-69.554 71.34-155.353 71.34s-155.353 14.458-155.353-71.34 69.554-149.752 155.353-149.752 155.353 63.953 155.353 149.752z" fill="#6a647f"/><ellipse cx="339.197" cy="376.114" fill="#ff9db0" rx="30.698" ry="24.446"/><path d="m145.02 186.829-25.633 39.019c-7.645-4.555-15.944-8.056-24.653-10.333-12.471-3.267-19.93-16.018-16.662-28.489 3.267-12.471 16.018-19.93 28.489-16.662 13.638 3.574 26.595 9.147 38.459 16.465z" fill="#b9ebc2"/><path d="m43.915 252.54c-12.697 2.234-21.174 14.332-18.941 27.029 2.234 12.697 14.331 21.174 27.028 18.941 8.865-1.563 17.868-1.844 26.716-.894l7.018-46.155c-13.835-1.702-27.935-1.361-41.821 1.079z" fill="#b9ebc2"/><path d="m60.3 327.009c-13.754 2.27-27.185 6.574-39.819 12.832-11.552 5.724-16.272 19.722-10.548 31.273s19.722 16.272 31.273 10.548c8.064-4 16.622-6.809 25.379-8.393z" fill="#b9ebc2"/><path d="m65.415 414.252c-11.065 8.478-20.889 18.599-29.089 30.068-7.496 10.489-5.071 25.06 5.418 32.557 10.489 7.496 25.06 5.071 32.557-5.418 5.231-7.326 11.459-13.833 18.439-19.353z" fill="#b9ebc2"/><path d="m366.98 186.829 25.633 39.019c7.645-4.555 15.944-8.056 24.653-10.333 12.471-3.267 19.93-16.018 16.662-28.489-3.267-12.471-16.018-19.93-28.489-16.662-13.638 3.574-26.594 9.147-38.459 16.465z" fill="#b9ebc2"/><path d="m468.085 252.54c12.697 2.234 21.174 14.332 18.941 27.029-2.234 12.697-14.331 21.174-27.029 18.941-8.865-1.563-17.868-1.844-26.716-.894l-7.018-46.155c13.836-1.702 27.936-1.361 41.822 1.079z" fill="#b9ebc2"/><path d="m451.7 327.009c13.754 2.27 27.185 6.574 39.819 12.832 11.552 5.724 16.272 19.722 10.548 31.273s-19.722 16.272-31.273 10.548c-8.064-4-16.622-6.809-25.379-8.393z" fill="#b9ebc2"/><path d="m446.585 414.252c11.065 8.478 20.889 18.599 29.089 30.068 7.496 10.489 5.071 25.06-5.418 32.557-10.489 7.496-25.06 5.071-32.557-5.418-5.231-7.326-11.459-13.833-18.439-19.353z" fill="#b9ebc2"/><path d="m147.74 386.626c0-70.433 35.438-132.077 90.183-165.964-77.28 8.269-137.275 69.098-137.275 148.781 0 47.973 21.749 64.598 55.919 69.937-5.655-16.772-8.827-34.467-8.827-52.754z" fill="#5c586f"/><ellipse cx="172.803" cy="376.114" fill="#ff9db0" rx="30.698" ry="24.446"/></g><g><path d="m204.087 317.181-21.748-3.835c-4.074-.721-7.969 2.004-8.688 6.083s2.005 7.969 6.084 8.688l21.748 3.835c.44.078.878.115 1.311.115 3.571 0 6.736-2.56 7.377-6.199.719-4.078-2.005-7.968-6.084-8.687z"/><path d="m329.661 313.346-21.748 3.835c-4.079.719-6.803 4.609-6.084 8.688.642 3.639 3.806 6.199 7.377 6.199.432 0 .871-.038 1.311-.115l21.748-3.835c4.079-.719 6.803-4.609 6.084-8.688s-4.605-6.802-8.688-6.084z"/><path d="m190.696 332.635c-4.142 0-7.5 3.358-7.5 7.5v12.355c0 4.142 3.358 7.5 7.5 7.5s7.5-3.358 7.5-7.5v-12.355c0-4.142-3.358-7.5-7.5-7.5z"/><path d="m321.304 332.635c-4.142 0-7.5 3.358-7.5 7.5v12.355c0 4.142 3.358 7.5 7.5 7.5s7.5-3.358 7.5-7.5v-12.355c0-4.142-3.358-7.5-7.5-7.5z"/><path d="m277.878 347.307c-3.123-2.722-7.861-2.396-10.582.727-2.852 3.272-6.97 5.15-11.297 5.15s-8.444-1.877-11.296-5.15c-2.723-3.123-7.459-3.448-10.582-.727-3.122 2.722-3.448 7.459-.727 10.581 5.702 6.542 13.941 10.295 22.604 10.295 8.664 0 16.903-3.752 22.605-10.295 2.723-3.122 2.398-7.859-.725-10.581z"/><path d="m494.842 333.125c-25.526-12.644-54.865-18.002-84.279-14.485-.76-2.238-1.572-4.454-2.433-6.65 15.592-6.837 33.188-9.152 50.564-6.088 16.789 2.951 32.76-8.237 35.713-25.028 2.946-16.747-8.282-32.768-25.027-35.713h-.001c-31.748-5.578-65.466-.82-95.307 14.791-2.473-2.482-3.729-3.612-3.838-3.714 7.042-9.71 15.854-17.767 26.215-23.939.002-.001.003-.002.005-.003 7.105-4.233 14.745-7.435 22.71-9.518 16.448-4.309 26.325-21.196 22.016-37.644-4.309-16.449-21.196-26.326-37.646-22.016-14.294 3.747-27.918 9.58-40.494 17.337-.003.001-.006.004-.009.006-29.065 17.875-44.163 41.802-45.221 43.023-11.048-4.241-22.629-7.323-34.573-9.183v-109.973c0-4.142-3.358-7.5-7.5-7.5s-7.5 3.358-7.5 7.5v108.289c-7.519-.515-16.259-.563-24.476 0v-31.212c0-4.142-3.358-7.5-7.5-7.5s-7.5 3.358-7.5 7.5v32.897c-11.944 1.86-23.524 4.942-34.572 9.182-1.112-1.078-28.075-45.255-85.725-60.367-16.448-4.309-33.335 5.567-37.645 22.017-4.308 16.448 5.568 33.335 22.019 37.645 7.963 2.083 15.603 5.286 22.71 9.52.001 0 .001.001.002.001 10.361 6.172 19.173 14.229 26.215 23.939-.115.108-1.305 1.171-3.838 3.714-29.84-15.61-63.561-20.371-95.307-14.791h-.001c-16.746 2.945-27.973 18.966-25.027 35.713 2.957 16.81 18.956 27.981 35.716 25.027 16.73-2.95 34.37-1.011 50.561 6.089-.861 2.196-1.674 4.413-2.433 6.65-14.1-1.686-28.321-1.363-42.364.976-.005.001-.01.003-.015.003-14.57 2.407-28.667 6.951-41.901 13.506-15.273 7.568-21.506 26.046-13.937 41.322 7.572 15.281 26.128 21.466 41.326 13.936 7.373-3.658 15.239-6.259 23.38-7.731h.001c8.498-1.538 17.079-1.803 25.588-.84.221 3.123.548 6.127.977 9.018-19.498 8.128-30.991 17.704-33.641 19.477-11.725 8.985-22.026 19.634-30.62 31.653-9.886 13.833-6.675 33.131 7.159 43.018 13.777 9.846 33.091 6.732 43.02-7.161 4.784-6.699 10.499-12.697 16.988-17.829h.001c17.094-13.523 33.722-16.314 35.728-17.04 23.439 9.327 55.102 8.614 90.378 7.818 10.509-.237 21.376-.482 32.497-.482s21.988.245 32.497.482c28.057.632 65.417 2.115 90.379-7.818 1.711.77 31.601 5.299 52.717 34.871 9.935 13.901 29.246 17.001 43.019 7.159 13.833-9.887 17.044-29.185 7.158-43.019-8.593-12.018-18.895-22.667-30.619-31.652-1.754-1.174-13.83-11.218-33.641-19.477.43-2.891.756-5.895.977-9.018 8.509-.962 17.09-.698 25.588.84h.001c21.044 3.805 24.043 10.936 37.026 10.936 11.358 0 22.305-6.295 27.68-17.141 7.566-15.274 1.336-33.753-13.941-41.323zm-28.061-73.191c8.6 1.514 14.366 9.741 12.853 18.342-1.516 8.619-9.714 14.37-18.339 12.854-5.877-1.037-11.831-1.556-17.798-1.556-1.282 0-2.564.024-3.847.072l-4.783-31.457c10.661-.692 21.365-.108 31.914 1.745zm-46.813.048c1.383 9.096 3.289 21.632 4.76 31.309-7.857 1.445-15.474 3.787-22.772 7.001-4.845-9.477-10.685-18.456-17.482-26.804 11.248-5.479 23.134-9.333 35.494-11.506zm-12.632-82.355c8.445-2.213 17.12 2.86 19.333 11.307 2.213 8.448-2.859 17.12-11.304 19.333-7.014 1.834-13.812 4.41-20.29 7.681l-17.47-26.593c9.4-5.077 19.371-9.012 29.731-11.728zm-42.525 19.573c6 9.133 11.365 17.3 17.388 26.468-8.995 6.313-16.847 13.957-23.418 22.807-8.399-6.495-17.417-12.119-26.926-16.832 2.021-2.364 12.004-17.974 32.956-32.443zm-279.48-8.266c2.214-8.451 10.89-13.52 19.332-11.307 10.362 2.716 20.332 6.651 29.733 11.728l-17.47 26.593c-6.477-3.271-13.276-5.847-20.287-7.68-8.469-2.218-13.528-10.862-11.308-19.334zm44.471 34.733 17.387-26.467c12.722 8.785 23.726 19.589 32.776 32.19l.181.252c-9.509 4.712-18.527 10.337-26.926 16.832-6.572-8.85-14.423-16.494-23.418-22.807zm-79.094 67.462c-8.624 1.516-16.825-4.228-18.342-12.853-1.513-8.601 4.253-16.829 12.853-18.342 10.55-1.853 21.254-2.435 31.914-1.744l-4.783 31.457c-7.253-.272-14.505.224-21.642 1.482zm36.564.162 4.761-31.309c12.36 2.173 24.244 6.026 35.493 11.506-6.796 8.348-12.636 17.327-17.482 26.804-7.298-3.214-14.915-5.556-22.772-7.001zm-49.39 83.655c-7.825 3.876-17.346.666-21.223-7.158-3.887-7.844-.69-17.335 7.157-21.222 9.598-4.755 19.703-8.333 30.127-10.676 1.434 10.552 2.714 19.975 4.284 31.529-7.035 1.785-13.853 4.307-20.345 7.527zm35.124-10.157c-.996-7.333-3.227-23.753-4.263-31.379 9.482-1.06 19.025-1.107 28.517-.145-2.314 9.928-3.729 20.703-4.039 31.415-6.725-.629-13.482-.593-20.215.109zm-4.803 102.31c-5.078 7.105-14.988 8.755-22.093 3.677s-8.755-14.989-3.678-22.092c6.23-8.714 13.46-16.628 21.553-23.602l18.623 25.799c-5.365 4.887-10.193 10.321-14.405 16.218zm47.373-36.465c-7.457 2.815-14.535 6.481-21.167 10.966-1.784-2.471-17.023-23.582-18.533-25.674 6.953-4.77 14.33-8.872 22.054-12.263 3.43 10.377 9.163 19.802 17.646 26.971zm173.259 3.139c-10.593-.239-21.545-.486-32.835-.486s-22.243.247-32.835.486c-69.266 1.561-115.014 2.953-115.014-64.325 0-75.399 56.456-132.688 128.976-141.153h.007c12.082-1.413 25.096-1.478 37.732 0h.007c72.996 8.521 128.976 66.157 128.976 141.153 0 21.776-4.366 42.711-22.959 53.86-20.373 12.081-53.94 11.324-92.055 10.465zm180.732 14.91c5.078 7.104 3.428 17.016-3.677 22.094-7.104 5.077-17.015 3.429-22.092-3.675-4.213-5.9-9.042-11.334-14.407-16.221l18.623-25.799c8.094 6.974 15.323 14.888 21.553 23.601zm-55.496-45.02c7.724 3.391 15.101 7.493 22.054 12.263l-18.533 25.674c-6.634-4.485-13.71-8.151-21.167-10.966 13.172-11.12 17.239-26.12 17.646-26.971zm4.709-38.982c-.289-10.043-1.625-21.094-4.039-31.415 9.492-.963 19.034-.915 28.517.144l-4.263 31.38c-6.613-.69-13.383-.749-20.215-.109zm76.561 3.107c-3.877 7.824-13.398 11.035-21.22 7.159-6.494-3.222-13.313-5.743-20.348-7.528l4.284-31.529c10.424 2.343 20.528 5.921 30.125 10.675 7.847 3.888 11.047 13.376 7.159 21.223z"/><path d="m275.738 81.831c4.142 0 7.5-3.358 7.5-7.5v-43.548c0-4.142-3.358-7.5-7.5-7.5h-39.476c-4.142 0-7.5 3.358-7.5 7.5v120.922c0 4.142 3.358 7.5 7.5 7.5s7.5-3.358 7.5-7.5v-113.422h24.476v36.049c0 4.142 3.358 7.499 7.5 7.499z"/></g></g></svg>