<svg id="Capa_1" enable-background="new 0 0 512 512" height="512" viewBox="0 0 512 512" width="512" xmlns="http://www.w3.org/2000/svg"><g><g><path d="m474.372 7.634c-8.839.996-16.02 7.531-17.926 16.219-6.285 28.647-39.568 45.617-39.956 45.811l9.16 18.536 9.09 18.588c1.798-.879 18.023-9.042 33.753-24.661 15.092-14.986 24.703-31.836 28.503-49.697 2.933-13.789-8.614-26.375-22.624-24.796z" fill="#b9ebc2"/><path d="m194.275 266.882-178.4 178.4c-10.914 10.914-10.914 28.61 0 39.524l11.507 11.507c10.914 10.914 28.61 10.914 39.525 0l178.4-178.4z" fill="#edb798"/><path d="m121.968 339.19c7.15 9.539 15.055 18.682 23.702 27.329 8.668 8.668 17.796 16.584 27.302 23.73l72.335-72.335-51.032-51.032z" fill="#e8a882"/><path d="m204.025 93.326-47.218-13.496c-74.367 76.234-65.446 189.955 10.076 265.477s189.243 84.443 265.477 10.076l.764-32.958z" fill="#8bdf9e"/><path d="m461.189 51c-3.769-3.769-7.653-7.382-11.629-10.858-11.818 18.678-32.763 29.369-33.07 29.523l9.16 18.537 9.09 18.588c1.798-.879 18.023-9.042 33.752-24.661 3.749-3.722 7.157-7.56 10.225-11.499-5.444-6.834-11.288-13.391-17.528-19.63z" fill="#8bdf9e"/><path d="m133.16 256.045c0-61.239 28.026-119.679 71.423-162.161l-.559-.559-47.218-13.497c-64.826 66.453-66.356 161.387-15.66 234.678-5.198-18.598-7.986-38.203-7.986-58.461z" fill="#73d98b"/><path d="m439.976 72.213c-74.062-74.063-190.648-78.312-269.567-15.834-12.028 9.522-16.945 25.473-12.253 40.079 2.808 8.742 7.63 16.539 13.949 22.857 6.31 6.31 14.107 11.132 22.849 13.94s16.539 7.63 22.849 13.94c6.318 6.318 11.14 14.116 13.949 22.858 2.8 8.733 7.63 16.539 13.94 22.849s14.116 11.141 22.858 13.949 16.539 7.63 22.849 13.94 11.132 14.107 13.94 22.849 7.639 16.548 13.949 22.858 14.116 11.14 22.849 13.94c8.742 2.808 16.539 7.63 22.858 13.949 6.348 6.348 11.19 14.202 13.991 23.008 5.547 17.442 19.321 31.042 36.747 36.639 14.606 4.691 30.557-.225 40.079-12.253 62.475-78.918 58.228-195.504-15.836-269.568z" fill="#e8a882"/><path d="m158.156 96.458c2.808 8.742 7.63 16.539 13.948 22.857 1.854 1.854 3.849 3.561 5.946 5.144 42.286-57.59 109.756-97.133 181.83-97.133 4.009 0 7.981-.027 11.915-.071-66.458-26.476-143.91-16.378-201.386 29.123-12.028 9.523-16.945 25.474-12.253 40.08z" fill="#e3986d"/><g fill="#fff"><ellipse cx="250.254" cy="105.001" rx="32.607" ry="40.945" transform="matrix(.707 -.707 .707 .707 -.949 207.712)"/><ellipse cx="407.188" cy="261.935" rx="32.607" ry="40.945" transform="matrix(.707 -.707 .707 .707 -65.954 364.642)"/></g><circle cx="393.969" cy="118.22" fill="#8bdf9e" r="20.413"/><circle cx="351.965" cy="28.291" fill="#ff748f" r="20.413"/><circle cx="227.269" cy="36.991" fill="#f9d888" r="20.413"/><circle cx="483.898" cy="160.224" fill="#9ae0eb" r="20.413"/><circle cx="475.198" cy="284.92" fill="#f9d888" r="20.413"/></g><g><path d="m295.856 82.541-11.836 11.835c-2.929 2.929-2.929 7.678 0 10.606 2.928 2.929 7.677 2.93 10.606 0l11.836-11.835c2.929-2.929 2.929-7.678 0-10.606-2.929-2.929-7.678-2.928-10.606 0z"/><path d="m407.204 217.56c-2.929 2.929-2.929 7.678 0 10.606 2.927 2.928 7.677 2.93 10.606 0l11.835-11.836c2.929-2.929 2.929-7.678 0-10.606-2.929-2.929-7.678-2.929-10.606 0z"/><path d="m366.992 169.675c-6.641.457-13.131-1.973-17.819-6.662-4.689-4.689-7.118-11.183-6.661-17.819.284-4.132-2.836-7.712-6.968-7.996-4.136-.284-7.712 2.836-7.996 6.968-.753 10.962 3.264 21.697 11.019 29.453 7.704 7.704 18.406 11.775 29.453 11.02 4.132-.284 7.252-3.863 6.969-7.996-.285-4.132-3.87-7.251-7.997-6.968z"/><path d="m413.704 137.956c10.883-10.883 10.883-28.591 0-39.474-10.907-10.908-28.565-10.91-39.474 0-10.883 10.883-10.883 28.591 0 39.474 10.907 10.908 28.565 10.911 39.474 0zm-28.868-28.867c5.047-5.047 13.215-5.047 18.262 0 5.035 5.035 5.035 13.227 0 18.261-5.045 5.046-13.215 5.048-18.262 0-5.034-5.034-5.034-13.227 0-18.261z"/><path d="m72.215 501.609 32.241-32.241c2.929-2.929 2.929-7.678 0-10.606-2.929-2.929-7.678-2.929-10.606 0l-32.241 32.241c-7.991 7.991-20.925 7.992-28.917 0l-11.507-11.508c-7.991-7.989-7.992-20.925 0-28.917l121.427-121.427c11.743 15.041 25.419 28.718 40.428 40.421l-68.868 68.868c-2.929 2.929-2.929 7.678 0 10.606 2.929 2.929 7.678 2.929 10.606 0l70.541-70.542c76.716 51.914 173.375 47.976 240.663-16.222 9.947-2.099 19.146-7.565 25.707-15.853 8.599-10.862 16.117-22.649 22.411-35.066 11.986-4.036 20.111-15.911 18.888-29.038-.376-4.042-1.609-7.801-3.491-11.123 8.006-29.673 9.475-61.093 4.27-91.385 10.779-10.927 10.724-28.476-.135-39.333-3.806-3.807-8.521-6.37-13.653-7.506-6.011-14.107-13.497-27.395-22.375-39.772 18.173-16.011 31.743-35.805 36.724-59.214 3.996-18.783-11.639-35.967-30.798-33.81-12.002 1.353-21.813 10.219-24.412 22.064-2.754 12.552-11.76 22.746-20.232 29.892-15.093-12.248-31.723-22.267-49.675-29.916-1.134-5.138-3.699-9.858-7.509-13.667-5.272-5.272-12.282-8.175-19.738-8.175-7.398 0-14.354 2.862-19.612 8.056-30.333-5.212-61.755-3.752-91.386 4.245-3.319-1.876-7.071-3.105-11.106-3.481-13.135-1.225-25.005 6.901-29.039 18.888-12.42 6.297-24.207 13.816-35.065 22.411-8.29 6.563-13.765 15.764-15.862 25.715-16.362 17.145-29.129 36.485-37.945 57.531-1.6 3.82.2 8.215 4.02 9.815 3.819 1.599 8.214-.2 9.815-4.02 6.221-14.851 14.592-28.798 24.972-41.632 5.687 19.078 20.965 35.76 41.905 42.487 15.18 4.876 27.07 16.759 31.949 31.946 6.258 19.521 21.599 35.209 41.645 41.648 15.36 4.932 27.124 16.943 31.942 31.942 6.157 19.168 21.273 35.114 41.644 41.644 7.457 2.395 14.32 6.583 19.848 12.111 14.175 14.175 9.711 23.458 22.83 40.058 8.29 10.491 19.681 18.065 31.745 21.682-66.16 53.365-153.356 47.888-218.929-1.331-17.756-13.327-33.398-29.476-45.817-46.746-.002-.002-.004-.004-.006-.007-32.052-44.527-44.016-97.915-32.086-148.164.957-4.03-1.534-8.073-5.564-9.03-4.031-.958-8.073 1.535-9.03 5.564-12.485 52.582-.976 108.189 30.848 155.158l-123.102 123.102c-13.853 13.853-13.855 36.276 0 50.13l11.507 11.507c13.852 13.854 36.275 13.855 50.13 0zm405.462-204.021c-8.061 1.393-14.67-4.293-15.339-11.473-.661-7.089 4.57-13.395 11.659-14.055 7.006-.659 13.392 4.541 14.055 11.659.62 6.653-3.95 12.615-10.375 13.869zm15.348-128.235c-4.963 4.962-13.156 5.082-18.244.016-.006-.006-.012-.01-.017-.016-5.05-5.05-5.004-13.289 0-18.261 5.008-5.01 13.243-5.019 18.261 0 5.047 5.045 5.047 13.213 0 18.261zm-52.719-107.252c9.872-8.716 20.041-21.047 23.462-36.639 1.223-5.571 5.82-9.74 11.441-10.373 8.948-1.012 16.314 7.007 14.446 15.783-4.227 19.865-15.917 36.741-31.24 50.444-5.511-6.63-11.637-13.156-18.109-19.215zm-79.211-42.939c5.706 5.705 4.847 15.377-2.021 19.912-.008.005-.017.01-.026.016-4.932 3.237-11.696 2.784-16.15-1.608-.021-.021-.044-.038-.064-.058-4.434-4.433-5.036-11.408-1.427-16.534.021-.03.037-.063.057-.094 4.75-6.625 14.083-7.184 19.631-1.634zm-133.834 4.917c7.617 0 13.563 6.62 12.866 14.112-.758 8.139-8.795 13.538-16.616 11.156-.01-.002-.019-.007-.028-.01-5.27-1.615-9.003-6.482-9.117-12.076-.136-7.373 5.81-13.182 12.895-13.182zm117.164 249.213c-14.946-4.791-26.996-16.539-31.946-31.949-6.361-19.801-21.863-35.284-41.635-41.635-15.642-5.025-27.236-17.247-31.95-31.951-6.48-20.173-22.255-35.416-41.644-41.644-15.5-4.977-27.172-17.076-31.951-31.95-3.704-11.537.23-24.354 9.768-31.904 8.005-6.337 16.55-12.053 25.507-17.066 2.877 9.365 10.761 17.089 21.203 19.165.03.006.058.013.088.019 15.887 3.112 30.803-7.759 33.035-23.413.788-5.539-.135-11.08-2.309-15.74 23.551-5.333 48.127-6.304 72.089-2.837.007.138-3.816 14.275 7.547 25.642 10.223 10.223 26.365 10.856 37.314 1.946.015-.013.031-.024.047-.037 3.789-3.101 6.752-7.14 8.509-11.82 16.65 7.625 32.015 17.507 45.9 29.492 9.715 8.377 19.09 18.147 27.433 28.978.027.035.058.066.086.101 8.915 11.581 16.461 24.079 22.56 37.394-19.02 7.134-24.224 31.582-9.921 45.875 7.03 7.03 17.061 9.537 25.659 7.544 3.456 23.933 2.477 48.505-2.867 72.087-19.57-9.121-41.526 6.675-39.547 27.915 1.034 11.102 8.637 20.675 19.599 24.094-5.013 8.959-10.732 17.509-17.074 25.521-18.826 23.782-54.781 6.343-63.797-22.003-6.339-19.94-21.927-35.47-41.703-41.824z"/></g></g></svg>