<svg id="Capa_1" enable-background="new 0 0 512 512" height="512" viewBox="0 0 512 512" width="512" xmlns="http://www.w3.org/2000/svg"><g><g><path d="m321.978 408.198v63.313c0 18.219-14.77 32.989-32.989 32.989-18.219 0-32.989-14.77-32.989-32.989l-13.02-26.137 13.02-37.176z" fill="#b2b0bc"/><path d="m321.978 460.46v-52.262h-65.978l-13.02 37.176 8.967 18.002h50.253c6.875 0 13.511-1.027 19.778-2.916z" fill="#a19dae"/><path d="m190.022 408.198v63.313c0 18.219 14.77 32.989 32.989 32.989 18.219 0 32.989-14.77 32.989-32.989v-63.313z" fill="#c7c5cb"/><path d="m412.189 163.689c0 86.261-69.928 186.209-156.189 186.209s-156.189-99.949-156.189-186.209 69.929-156.189 156.189-156.189 156.189 69.928 156.189 156.189z" fill="#b2b0bc"/><path d="m150.982 178.288c0-71.959 37.901-135.055 94.821-170.448-81.506 5.255-145.992 73.016-145.992 155.849 0 83.263 65.155 179.267 147.26 185.839-57.627-35.239-96.089-98.746-96.089-171.24z" fill="#a19dae"/><path d="m136.221 155.248c.437-14.264 11.946-25.773 26.21-26.21 18.107-.554 36.39 6.072 50.212 19.894s20.448 32.105 19.894 50.212c-.437 14.264-11.946 25.773-26.21 26.21-18.107.554-36.39-6.072-50.212-19.894s-20.449-32.105-19.894-50.212z" fill="#423e4f"/><path d="m375.78 155.248c-.437-14.264-11.946-25.773-26.21-26.21-18.107-.554-36.39 6.072-50.212 19.894s-20.448 32.105-19.894 50.212c.437 14.264 11.946 25.773 26.21 26.21 18.107.554 36.39-6.072 50.212-19.894 13.821-13.822 20.448-32.105 19.894-50.212z" fill="#423e4f"/><path d="m190.022 460.46c6.267 1.889 12.904 2.916 19.778 2.916h46.2v-55.178h-65.978z" fill="#b2b0bc"/><path d="m330.712 293.746-3.98-2.848c-8.487-6.072-19.856-5.99-28.364.051-8.452 6.001-19.785 5.984-28.22-.051-8.46-6.052-19.833-6.052-28.292 0-8.436 6.035-19.768 6.052-28.22.051-8.508-6.041-19.878-6.123-28.364-.051l-3.98 2.848c-6.38 4.565-10.166 11.928-10.166 19.773v81.18c0 21.361 17.316 38.677 38.677 38.677h92.4c21.361 0 38.677-17.317 38.677-38.677v-81.18c-.002-7.845-3.788-15.209-10.168-19.773z" fill="#b9ebc2"/><path d="m339.454 313.502h24.675c16.441 0 29.768 13.328 29.768 29.768 0 16.441-13.328 29.768-29.768 29.768h-24.675c-16.441 0-29.768-13.328-29.768-29.768-.001-16.441 13.327-29.768 29.768-29.768z" fill="#c7c5cb"/><path d="m218.988 345.071c0-17.638 3.61-34.431 10.125-49.688-5.392.312-10.865-1.157-15.479-4.434-8.508-6.041-19.878-6.123-28.364-.051l-3.98 2.848c-6.38 4.565-10.166 11.928-10.166 19.773v81.18c0 21.361 17.317 38.678 38.677 38.678h45.068c-22.201-22.813-35.881-53.96-35.881-88.306z" fill="#8bdf9e"/><path d="m172.546 313.502h-24.675c-16.441 0-29.768 13.328-29.768 29.768 0 16.441 13.328 29.768 29.768 29.768h24.675c16.441 0 29.768-13.328 29.768-29.768.001-16.441-13.327-29.768-29.768-29.768z" fill="#c7c5cb"/></g><g><path d="m240.033 199.374c.635-20.755-7.416-41.073-22.087-55.745-14.672-14.672-34.998-22.717-55.745-22.087-18.214.558-32.919 15.263-33.477 33.477-.636 20.754 7.415 41.072 22.087 55.745 14.133 14.133 33.505 22.122 53.458 22.122.762 0 1.523-.012 2.286-.035 18.215-.558 32.92-15.262 33.478-33.477zm-14.993-.459c-.315 10.307-8.636 18.627-18.943 18.942-16.883.518-32.748-5.769-44.679-17.7-11.932-11.932-18.218-27.799-17.701-44.68.315-10.307 8.636-18.627 18.942-18.942.644-.02 1.284-.03 1.925-.03 16.158 0 31.278 6.254 42.755 17.731 11.931 11.931 18.218 27.798 17.701 44.679z"/><path d="m307.729 232.886c19.954 0 39.326-7.989 53.459-22.122 14.672-14.672 22.723-34.99 22.087-55.745-.558-18.214-15.263-32.919-33.477-33.477-20.754-.634-41.073 7.415-55.745 22.087s-22.723 34.99-22.087 55.745c.558 18.215 15.262 32.919 33.477 33.477.763.023 1.525.035 2.286.035zm-20.769-33.971c-.517-16.881 5.769-32.748 17.701-44.679 11.477-11.477 26.595-17.73 42.754-17.73.64 0 1.281.01 1.925.03 10.307.315 18.627 8.636 18.942 18.942.517 16.881-5.77 32.748-17.701 44.68-11.931 11.931-27.791 18.221-44.679 17.7-10.306-.316-18.626-8.636-18.942-18.943z"/><path d="m256 269.794c10.882 0 21.231-4.713 28.393-12.932 2.722-3.122 2.396-7.86-.727-10.581-3.122-2.722-7.86-2.396-10.581.727-4.313 4.948-10.54 7.786-17.085 7.786s-12.773-2.838-17.085-7.786c-2.721-3.123-7.459-3.448-10.582-.727s-3.448 7.459-.727 10.582c7.162 8.218 17.512 12.931 28.394 12.931z"/><path d="m356.945 34.825c-29.045-22.783-63.951-34.825-100.945-34.825-90.258 0-163.689 73.431-163.689 163.689 0 26.13 6.164 54.032 17.824 80.688 1.232 2.817 3.985 4.497 6.875 4.497 1.003 0 2.023-.203 3.002-.63 3.795-1.66 5.525-6.082 3.865-9.877-10.837-24.776-16.566-50.6-16.566-74.677 0-81.988 66.702-148.69 148.689-148.69 33.604 0 65.309 10.937 91.687 31.628 3.259 2.556 7.973 1.987 10.53-1.272 2.556-3.259 1.986-7.974-1.272-10.531z"/><path d="m379.718 56.504c-2.713-3.129-7.45-3.466-10.58-.753-3.13 2.714-3.467 7.45-.753 10.58 23.411 27 36.304 61.575 36.304 97.358 0 48.651-22.854 101.5-58.857 137.38-4.567-10.657-12.639-14.449-14.736-16.271-11.029-7.891-25.926-7.876-37.07.035-5.844 4.149-13.686 4.135-19.515-.035-11.071-7.921-25.949-7.921-37.02 0-6.008 4.292-13.88 4.04-19.515.035-11.144-7.911-26.041-7.926-37.071-.035-6.735 4.864-11.241 7.923-14.734 16.268-10.837-10.813-20.598-23.321-29.094-37.296-2.152-3.54-6.766-4.665-10.305-2.513-3.54 2.152-4.664 6.765-2.513 10.305 7.675 12.625 16.331 24.152 25.847 34.439h-2.235c-20.55 0-37.268 16.718-37.268 37.268s16.718 37.268 37.268 37.268h15.752v14.161c0 15.264 7.45 28.816 18.899 37.228v39.584c0 22.326 18.163 40.489 40.489 40.489 13.598 0 25.643-6.745 32.989-17.058 7.346 10.314 19.391 17.059 32.989 17.059 22.326 0 40.489-18.163 40.489-40.489v-39.584c11.449-8.412 18.899-21.964 18.899-37.228v-14.161h15.752c20.55 0 37.268-16.718 37.268-37.268s-16.718-37.268-37.268-37.268h-2.257c35.538-38.388 57.817-92.368 57.817-142.313 0-39.392-14.195-77.458-39.971-107.185zm-254.116 286.766c0-12.279 9.99-22.268 22.268-22.268h24.676c12.279 0 22.269 9.989 22.269 22.268s-9.99 22.268-22.269 22.268h-24.676c-12.278 0-22.268-9.989-22.268-22.268zm97.409 153.73c-14.054 0-25.489-11.434-25.489-25.489v-32.296c3.655 1.015 8.096 1.661 12.278 1.661h38.7v30.635c0 14.055-11.434 25.489-25.489 25.489zm91.467-57.785v32.296c0 14.055-11.434 25.489-25.489 25.489s-25.489-11.434-25.489-25.489v-30.635h38.7c4.001 0 8.44-.594 12.278-1.661zm18.899-44.516c0 17.169-13.967 31.177-31.177 31.177-11.214 0-81.148 0-92.4 0-17.233 0-31.177-14.047-31.177-31.177v-14.655c17.827-2.93 31.192-18.474 31.192-36.773 0-17.872-12.721-33.005-29.767-36.51.002-.005.004-.011.007-.017 2.735-6.199 7.691-7.975 9.579-9.745 5.829-4.17 13.729-4.143 19.659.067 11.182 7.935 26.056 7.71 36.926-.067 5.851-4.186 13.714-4.186 19.565 0 11.029 7.891 25.869 7.917 36.927.067 5.93-4.209 13.83-4.237 19.658-.067 2.754 2.332 6.747 3.592 9.586 9.762-16.797 3.443-29.72 18.371-29.766 36.433 0 .026-.002.051-.002.077 0 .032.002.063.003.095.031 18.14 13.296 33.733 31.189 36.678v14.655zm53.02-51.429c0 12.279-9.99 22.268-22.268 22.268h-24.676c-12.213 0-22.268-9.918-22.268-22.268 0-12.3 10.009-22.268 22.268-22.268h24.676c12.279 0 22.268 9.989 22.268 22.268z"/></g></g></svg>