<svg id="Capa_1" enable-background="new 0 0 512 512" height="512" viewBox="0 0 512 512" width="512" xmlns="http://www.w3.org/2000/svg"><g><g><path d="m25.427 225.753v185.118c0 38.279 31.032 69.311 69.311 69.311h322.525c38.279 0 69.311-31.032 69.311-69.311v-185.118z" fill="#ff748f"/><path d="m66.153 346.163c0-46.508 17.944-88.819 47.275-120.41h-88.001v185.118c0 38.28 31.032 69.311 69.311 69.311h32.781c-37.581-32.462-61.366-80.462-61.366-134.019z" fill="#fd5f7e"/><path d="m504.5 247.284c0-15.817-4.382-31.438-13.24-44.542-6.226-9.21-9.337-20.378-8.522-31.819l.009-.122c1.877-26.195-16.679-49.439-42.639-53.411l-.064-.01c-17.731-2.713-32.681-14.654-39.246-31.347-9.611-24.44-36.408-37.372-61.521-29.69l-.084.026c-17.122 5.238-35.737 1.004-48.91-11.124l-.107-.099c-9.656-8.892-21.917-13.334-34.176-13.328-12.259-.006-24.52 4.436-34.177 13.327l-.107.099c-13.172 12.127-31.788 16.361-48.91 11.124l-.084-.026c-25.113-7.682-51.91 5.25-61.521 29.69-6.565 16.693-21.514 28.634-39.245 31.347l-.064.01c-25.96 3.972-44.516 27.216-42.639 53.411l.009.122c.815 11.441-2.296 22.609-8.522 31.819-8.858 13.104-13.24 28.725-13.24 44.543v20.589c0 24.953 20.228 45.182 45.182 45.182 24.953 0 45.182-20.229 45.182-45.182v-8.18c0-12.477 10.114-22.591 22.591-22.591s22.591 10.114 22.591 22.591v62.021c0 24.953 20.229 45.182 45.182 45.182 24.953 0 45.182-20.229 45.182-45.182v-31.208c0-12.477 10.114-22.591 22.591-22.591s22.591 10.114 22.591 22.591v47.642c0 24.953 20.229 45.182 45.182 45.182 24.953 0 45.182-20.229 45.182-45.182v-88.727c0-12.477 10.114-22.591 22.591-22.591s22.591 10.114 22.591 22.591v28.722c0 24.953 20.229 45.182 45.182 45.182 24.953 0 45.182-20.229 45.182-45.182z" fill="#8bdf9e"/><circle cx="256" cy="135.237" fill="#fff" r="60.864"/><circle cx="256" cy="126.246" fill="#ff748f" r="22.998"/><path d="m110.487 209.733c0-59.912 24.722-114.042 64.509-152.774-.731-.188-1.463-.369-2.189-.591l-.084-.026c-25.113-7.682-51.91 5.25-61.521 29.69-6.565 16.693-21.514 28.634-39.245 31.347l-.064.01c-25.96 3.972-44.516 27.216-42.639 53.411l.009.123c.815 11.441-2.296 22.609-8.522 31.819-8.859 13.104-13.241 28.724-13.241 44.542v20.589c0 24.953 20.228 45.182 45.182 45.182 24.953 0 45.182-20.229 45.182-45.182v-8.179c0-9.652 6.055-17.886 14.572-21.121-1.276-9.433-1.949-19.058-1.949-28.84z" fill="#73d98b"/></g><g><path d="m256 203.601c37.696 0 68.364-30.668 68.364-68.364s-30.668-68.363-68.364-68.363-68.364 30.668-68.364 68.364 30.668 68.363 68.364 68.363zm0-121.727c29.425 0 53.364 23.938 53.364 53.364s-23.939 53.363-53.364 53.363-53.364-23.938-53.364-53.364 23.939-53.363 53.364-53.363z"/><path d="m256 156.744c16.816 0 30.498-13.682 30.498-30.498s-13.682-30.497-30.498-30.497-30.498 13.681-30.498 30.497 13.681 30.498 30.498 30.498zm0-45.995c8.545 0 15.498 6.952 15.498 15.497 0 8.546-6.952 15.498-15.498 15.498s-15.498-6.952-15.498-15.498c0-8.545 6.952-15.497 15.498-15.497z"/><path d="m282.861 215.357c-3.123-2.721-7.861-2.396-10.582.727-4.11 4.715-10.044 7.42-16.28 7.42-6.237 0-12.17-2.705-16.279-7.42-2.721-3.123-7.459-3.448-10.582-.727s-3.448 7.459-.727 10.582c6.958 7.985 17.014 12.565 27.588 12.565 10.573 0 20.629-4.58 27.588-12.564 2.722-3.124 2.397-7.861-.726-10.583z"/><path d="m17.927 410.871v.01c.005 42.35 34.46 76.801 76.811 76.801h322.524c42.354 0 76.811-34.458 76.811-76.811v-93.185c10.979-9.662 17.927-23.802 17.927-39.542v-30.86c0-17.829-5.023-34.683-14.527-48.743-5.357-7.926-7.934-17.545-7.255-27.081l.009-.125c1.043-14.555-3.396-28.851-12.5-40.254-9.104-11.404-22.061-18.899-36.549-21.117-15.035-2.3-27.833-12.522-33.4-26.678-5.341-13.583-15.522-24.557-28.667-30.9-13.145-6.344-28.07-7.485-42.111-3.19-14.515 4.44-30.469.812-41.644-9.477l-.1-.092c-10.725-9.874-24.656-15.31-39.228-15.31-.018 0-.036 0-.051 0-14.577 0-28.51 5.437-39.227 15.303l-.115.105c-11.167 10.281-27.12 13.909-41.621 9.474-.005-.001-.094-.029-.099-.03-13.957-4.269-28.883-3.127-42.028 3.216-13.145 6.344-23.326 17.317-28.667 30.9-5.566 14.155-18.365 24.378-33.464 26.688-14.424 2.208-27.381 9.703-36.485 21.107s-13.543 25.7-12.5 40.257l.009.117c.679 9.541-1.897 19.16-7.255 27.086-9.502 14.06-14.525 30.915-14.525 48.743v20.589c0 15.74 6.948 29.88 17.927 39.542v103.452zm134.598-50.462c9.394 8.674 21.938 13.987 35.702 13.987s26.308-5.313 35.702-13.987h52.111c8.406 17.951 26.635 30.421 47.732 30.421s39.326-12.47 47.732-30.421h29.306v42.961h-289.622v-42.961zm88.384-38.694v-31.208c0-8.321 6.77-15.091 15.091-15.091s15.091 6.77 15.091 15.091v47.642c0 2.464.183 4.885.512 7.261h-36.346c3.607-7.129 5.652-15.175 5.652-23.695zm238.164 38.694v42.961h-63.262v-42.961zm-230.573 57.962v54.311h-88.656v-54.311zm15 0h88.657v54.311h-88.657zm-167.312-15h-63.261v-42.961h63.262v42.961zm-62.79 15h111.445v54.311h-50.105c-31.543 0-57.625-23.755-61.34-54.311zm383.864 54.311h-50.106v-54.311h111.446c-3.715 30.556-29.797 54.311-61.34 54.311zm-402.262-204.809v-20.589c0-14.823 4.134-28.773 11.954-40.342 7.23-10.696 10.707-23.677 9.789-36.558l-.009-.12c-1.586-22.136 14.355-42.104 36.356-45.471 20.298-3.106 37.576-16.906 45.091-36.017 8.125-20.66 31.119-31.757 52.333-25.267.005.001.094.029.099.03 19.587 5.992 41.114 1.095 56.176-12.771l.114-.105c7.948-7.316 18.272-11.345 29.082-11.345h.038c10.802 0 21.127 4.029 29.081 11.352l.1.092c15.068 13.874 36.596 18.77 56.268 12.752 21.229-6.495 44.223 4.603 52.348 25.263 7.515 19.109 24.793 32.91 45.154 36.025 21.937 3.357 37.879 23.326 36.292 45.459l-.009.127c-.917 12.876 2.56 25.857 9.79 36.553 7.82 11.569 11.954 25.52 11.954 40.342v30.86c0 20.776-16.896 37.682-37.682 37.682-20.778 0-37.682-16.904-37.682-37.682v-28.722c0-16.592-13.499-30.091-30.091-30.091s-30.091 13.499-30.091 30.091v26.923c0 4.142 3.358 7.5 7.5 7.5s7.5-3.358 7.5-7.5v-26.923c0-8.321 6.77-15.091 15.091-15.091s15.091 6.77 15.091 15.091v28.722c0 29.049 23.633 52.682 52.682 52.682 6.53 0 13.33-1.215 19.755-3.82v18.404h-103.132c.329-2.375.512-4.796.512-7.261v-31.804c0-4.142-3.358-7.5-7.5-7.5s-7.5 3.358-7.5 7.5v31.804c0 20.778-16.904 37.682-37.682 37.682s-37.682-16.904-37.682-37.682v-47.642c0-16.702-13.6-30.091-30.091-30.091-16.495 0-30.091 13.398-30.091 30.091v31.208c0 20.778-16.904 37.682-37.682 37.682s-37.682-16.904-37.682-37.682v-62.021c0-16.591-13.488-30.091-30.091-30.091-15.964 0-29.238 12.545-30.052 28.545-.068 1.335-.028 1.739-.039 9.726 0 20.621-16.804 37.682-37.682 37.682-20.953-.001-37.68-17.072-37.68-37.682zm37.682 52.681c29.049 0 52.682-23.633 52.682-52.682v-8.18c0-8.321 6.77-15.091 15.091-15.091s15.091 6.77 15.091 15.091v62.021c0 8.52 2.046 16.566 5.652 23.695h-108.271v-28.675c6.242 2.532 13.037 3.821 19.755 3.821z"/></g></g></svg>