<svg id="Capa_1" enable-background="new 0 0 512 512" height="512" viewBox="0 0 512 512" width="512" xmlns="http://www.w3.org/2000/svg"><g><g><path d="m341.058 299.866h32.015c17.681 0 32.015 14.334 32.015 32.015 0 17.681-14.334 32.015-32.015 32.015h-32.015l-17.452-32.015z" fill="#e8e8e8"/><path d="m371.439 363.896v-64.031h-30.381l-17.453 32.016 17.453 32.015z" fill="#e0e0e0"/><path d="m174.327 109.423c-92.083 0-166.731 74.648-166.731 166.731v180.253c0 15.43 7.854 29.799 20.841 38.13 12.7 8.147 28.983 8.147 41.683 0 12.7-8.147 28.983-8.147 41.683 0 12.7 8.147 28.983 8.147 41.683 0 12.7-8.147 28.983-8.147 41.683 0 12.7 8.147 28.983 8.147 41.683 0 12.7-8.147 28.983-8.147 41.683 0 12.7 8.147 28.983 8.147 41.683 0 12.988-8.331 20.841-22.7 20.841-38.13v-180.253c-.001-92.083-74.649-166.731-166.732-166.731z" fill="#e8e8e8"/><g><ellipse cx="214.336" cy="249.875" fill="#423e4f" rx="15.75" ry="17.625"/></g><path d="m56.58 328.811c0-99.892 30.347-185.189 128.342-219.043-3.505-.22-7.035-.345-10.595-.345-92.083 0-166.731 74.648-166.731 166.731v180.253c0 15.43 7.854 29.799 20.841 38.13 12.7 8.147 28.983 8.147 41.683 0 12.7-8.147 28.983-8.147 41.683 0 5.993 3.845 12.785 5.851 19.62 6.067-46.036-42.84-74.843-103.947-74.843-171.793z" fill="#e0e0e0"/></g><g><path d="m0 276.154v96.578c0 4.195 3.401 7.595 7.595 7.595s7.595-3.401 7.595-7.595v-96.578c0-87.748 71.388-159.136 159.136-159.136 32.243 0 63.298 9.598 89.807 27.755 3.461 2.371 8.188 1.486 10.558-1.974 2.371-3.461 1.487-8.188-1.974-10.558-29.048-19.897-63.071-30.413-98.392-30.413-96.123-.001-174.325 78.202-174.325 174.326z"/><path d="m0 456.406c0 18.104 9.097 34.748 24.336 44.523 15.152 9.72 34.733 9.719 49.884 0 10.169-6.523 23.312-6.523 33.481 0 15.152 9.72 34.733 9.719 49.884 0 10.17-6.523 23.312-6.524 33.481 0 7.577 4.86 16.258 7.29 24.942 7.29 8.682-.001 17.367-2.431 24.942-7.29 10.17-6.523 23.313-6.524 33.481 0 15.152 9.72 34.733 9.72 49.884 0 15.239-9.775 24.336-26.419 24.336-44.523v-84.915h24.42c21.841 0 39.61-17.77 39.61-39.611s-17.769-39.61-39.61-39.61h-24.42v-16.117c0-46.722-18.242-90.606-51.367-123.569-2.972-2.958-7.781-2.947-10.741.026-2.959 2.974-2.947 7.783.026 10.741 30.239 30.091 46.892 70.152 46.892 112.801v180.253c0 12.905-6.485 24.769-17.347 31.738-10.169 6.523-23.312 6.523-33.481 0-15.151-9.719-34.732-9.72-49.884 0-10.169 6.523-23.312 6.524-33.481 0-15.151-9.719-34.732-9.719-49.884 0-10.169 6.523-23.312 6.524-33.482 0-15.152-9.719-34.732-9.719-49.884 0-10.169 6.523-23.311 6.524-33.482 0-10.862-6.968-17.347-18.832-17.347-31.738v-53.294c0-4.195-3.401-7.595-7.595-7.595s-7.594 3.402-7.594 7.597zm373.073-148.945c13.465 0 24.42 10.955 24.42 24.42 0 13.466-10.955 24.42-24.42 24.42h-24.42v-48.84z"/><path d="m161.776 356.301h-32.016c-4.195 0-7.595 3.4-7.595 7.595 0 4.194 3.401 7.595 7.595 7.595h32.015c21.841 0 39.61-17.77 39.61-39.611s-17.769-39.61-39.61-39.61h-32.015c-4.195 0-7.595 3.401-7.595 7.595 0 4.195 3.401 7.595 7.595 7.595h32.015c13.465 0 24.42 10.955 24.42 24.42.001 13.466-10.954 24.421-24.419 24.421z"/><path d="m146.477 239.516v-14.61c0-4.195-3.401-7.595-7.595-7.595-4.195 0-7.595 3.401-7.595 7.595v14.61c0 4.195 3.401 7.595 7.595 7.595 4.195 0 7.595-3.4 7.595-7.595z"/><path d="m237.682 249.874c0-13.906-10.473-25.219-23.346-25.219s-23.345 11.314-23.345 25.219c0 13.907 10.473 25.22 23.345 25.22 12.873.001 23.346-11.313 23.346-25.22zm-31.501 0c0-5.53 3.658-10.029 8.155-10.029s8.155 4.499 8.155 10.029-3.659 10.03-8.155 10.03-8.155-4.5-8.155-10.03z"/><path d="m289.79 247.111c4.195 0 7.595-3.4 7.595-7.595v-14.61c0-4.195-3.401-7.595-7.595-7.595s-7.595 3.401-7.595 7.595v14.61c0 4.195 3.4 7.595 7.595 7.595z"/><path d="m261.569 3.78h-21.442c-4.195 0-7.595 3.4-7.595 7.595v33.99.055 39.771c0 4.117 3.314 7.595 7.629 7.595.001 0 19.718-.088 25.153-.088 15.144 0 27.464-12.32 27.464-27.464 0-9.167-4.519-17.294-11.441-22.285 3.022-4.083 4.813-9.131 4.813-14.589-.001-13.553-11.028-24.58-24.581-24.58zm0 15.191c5.178 0 9.39 4.212 9.39 9.39 0 5.177-4.212 9.39-9.39 9.39-.234 0 2.06-.006-13.847.02v-18.8zm3.744 58.538c-3.214 0-11.409.031-17.592.055v-24.58c10.739-.044 6.519-.012 17.592-.023 6.768 0 12.274 5.506 12.274 12.274s-5.506 12.274-12.274 12.274z"/><path d="m387.87 48.283c0-24.539-19.964-44.503-44.504-44.503-24.539 0-44.503 19.964-44.503 44.503s19.964 44.504 44.503 44.504c24.54 0 44.504-19.965 44.504-44.504zm-73.817 0c0-16.164 13.15-29.313 29.313-29.313 16.164 0 29.313 13.149 29.313 29.313s-13.15 29.313-29.313 29.313c-16.163.001-29.313-13.149-29.313-29.313z"/><path d="m440.976 3.78c-24.539 0-44.504 19.964-44.504 44.503s19.964 44.504 44.504 44.504c24.539 0 44.503-19.965 44.503-44.504s-19.964-44.503-44.503-44.503zm0 73.817c-16.164 0-29.313-13.15-29.313-29.313s13.15-29.313 29.313-29.313 29.313 13.149 29.313 29.313-13.15 29.313-29.313 29.313z"/><circle cx="504.333" cy="94.173" r="6.57"/><path d="m504.405 3.78c-4.195 0-7.595 3.4-7.595 7.595v62.867c0 4.195 3.401 7.595 7.595 7.595s7.595-3.4 7.595-7.594v-62.867c0-4.196-3.401-7.596-7.595-7.596z"/></g></g></svg>