<svg id="Capa_1" enable-background="new 0 0 512 512" height="512" viewBox="0 0 512 512" width="512" xmlns="http://www.w3.org/2000/svg"><g><g><path d="m45.28 391.91-12.174 9.687c-13.042 10.378-12.986 30.181.086 40.522 31.733 25.106 99.594 62.381 222.808 62.381s191.075-37.275 222.808-62.381c13.071-10.342 13.128-30.144.086-40.522l-12.174-9.687z" fill="#f9d888"/><path d="m368.52 256-112.52 38.365-112.52-38.365 66.66-214.72c6.244-20.094 24.819-33.78 45.86-33.78 21.04 0 39.63 13.69 45.86 33.78z" fill="#bc9bdd"/><path d="m103.227 468.665c0-27.978 7.521-54.196 20.642-76.755h-78.589l-12.174 9.687c-13.042 10.378-12.986 30.181.086 40.522 14.884 11.775 37.715 26.228 70.478 38.255-.293-3.864-.443-7.769-.443-11.709z" fill="#f5c956"/><path d="m466.72 391.91c-35.59 26.45-101.35 58.59-210.72 58.59s-175.13-32.14-210.72-58.59l74.38-59.18 136.34-38.365 136.34 38.365z" fill="#bc9bdd"/><path d="m187.399 313.669-67.739 19.061-74.38 59.18c15.339 11.4 36.289 23.855 63.913 34.34 11.869-41.186 40.586-75.227 78.206-94.19z" fill="#b08bd7"/><path d="m202.494 155.196c0-46.082 28.78-103.223 73.6-143.288-6.165-2.842-12.988-4.408-20.094-4.408-21.041 0-39.616 13.687-45.86 33.78l-66.66 214.72 100.402 34.233c-29.425-34.782-41.388-82.445-41.388-135.037z" fill="#b08bd7"/><path d="m203.495 255.995v76.731h-83.84l23.82-76.731z" fill="#5c586f"/><path d="m392.335 332.726h-188.84v-76.731h165.02z" fill="#6a647f"/><path d="m287.974 221.827h-63.948c-20.228 0-36.627 16.398-36.627 36.627v74.276h137.201v-74.276c.001-20.228-16.398-36.627-36.626-36.627z" fill="#f9d888"/><path d="m210.747 224.32c-13.661 5.319-23.348 18.591-23.348 34.134v74.276h116.842c-51.574-20.366-80.582-59.611-93.494-108.41z" fill="#f5c956"/><path d="m222.399 332.73v-74.276c0-.897.73-1.627 1.627-1.627h63.947c.897 0 1.627.729 1.627 1.627v74.276z" fill="#6a647f"/><path d="m295.108 168.497c-24.505-4.729-43.369-26.276-43.369-52.59 0-5.498.829-10.803 2.369-15.796 1.997-6.477-4.81-12.138-10.904-9.173-18.356 8.932-30.844 28.043-30.119 49.992.912 27.612 23.157 50.278 50.749 51.671 12.839.648 24.749-3.228 34.28-10.174 5.483-3.994 3.656-12.645-3.006-13.93z" fill="#f9d888"/></g><g><path d="m167.994 403.404c4.142 0 7.5-3.358 7.5-7.5v-16.911c0-4.143-3.358-7.5-7.5-7.5s-7.5 3.357-7.5 7.5v16.911c0 4.142 3.358 7.5 7.5 7.5z"/><path d="m344.005 403.404c4.142 0 7.5-3.358 7.5-7.5v-16.911c0-4.143-3.358-7.5-7.5-7.5s-7.5 3.357-7.5 7.5v16.911c0 4.142 3.358 7.5 7.5 7.5z"/><path d="m255.999 413.471c11.06 0 21.578-4.79 28.857-13.143 2.721-3.123 2.396-7.86-.727-10.582-3.123-2.721-7.86-2.396-10.582.727-4.429 5.083-10.826 7.998-17.548 7.998-6.723 0-13.118-2.915-17.547-7.998-2.721-3.123-7.459-3.448-10.582-.727s-3.448 7.459-.727 10.582c7.279 8.352 17.796 13.143 28.856 13.143z"/><path d="m239.922 84.195c-21.652 10.536-35.129 32.904-34.333 56.984 1.611 48.789 57.595 75.986 96.942 47.311 10.77-7.848 7.108-24.827-6.002-27.357-21.607-4.17-37.29-23.19-37.29-45.226 0-4.634.685-9.205 2.036-13.585 3.967-12.865-9.481-23.904-21.353-18.127zm53.765 91.666c.023.004.087.019.093.021.031.045.074.169.06.293-.007.058-.011.096-.144.193-29.664 21.617-71.9 1.146-73.116-35.684-.601-18.172 9.568-35.051 25.905-43.001.149-.072.184-.058.243-.036.126.048.224.154.235.155-.372 1.637-2.724 8.198-2.724 18.105 0 29.211 20.796 54.425 49.448 59.954z"/><path d="m317.831 92.726c3.956-1.228 6.167-5.431 4.939-9.386l-13.747-44.281c-7.244-23.363-28.553-39.059-53.023-39.059-24.455 0-45.763 15.695-53.022 39.057-5.16 16.622-85.189 274.408-89.795 289.243l-72.572 57.741s0 0-.001 0l-12.174 9.687c-16.825 13.388-16.76 38.932.102 52.272 21.339 16.883 48.768 31.343 79.32 41.818 42.929 14.719 92.771 22.182 148.142 22.182s105.213-7.463 148.142-22.181c30.552-10.475 57.981-24.935 79.32-41.818 16.862-13.341 16.927-38.885.102-52.272l-12.174-9.688c-.001 0-.002-.001-.003-.002l-72.57-57.739c-6.647-21.412-61.112-196.85-67.233-216.567-1.228-3.956-5.429-6.167-9.386-4.939-3.956 1.229-6.167 5.431-4.939 9.387l41.079 132.32h-27.379c-4.518-19.6-22.196-34.173-42.986-34.173h-63.948c-20.659 0-38.441 14.433-42.985 34.173h-27.379l63.641-204.994c5.299-17.051 20.85-28.507 38.698-28.507 17.859 0 33.41 11.454 38.697 28.504l13.748 44.283c1.228 3.956 5.43 6.167 9.386 4.939zm156.324 343.511c-66.823 52.869-165.364 60.763-218.155 60.763s-151.332-7.894-218.155-60.763c-9.275-7.338-9.34-21.394-.069-28.771l7.718-6.142c21.964 15.5 46.815 27.308 71.659 35.761 3.248 1.106 6.825-.14 8.693-3.008 2.701-4.152.727-9.631-3.86-11.192-22.423-7.633-44.53-17.994-64.226-31.32l64.52-51.335h267.44l64.518 51.333c-56.499 38.451-130.178 51.437-198.238 51.437-67.29 0-104.13-12.321-107.991-12.085-3.181.193-6.022 2.421-6.827 5.699-.983 4.003 1.454 8.08 5.495 9.072 35.244 8.656 72.454 12.314 109.323 12.314 73.27 0 150.553-14.51 210.505-56.676l7.719 6.142c9.255 7.364 9.223 21.419-.069 28.771zm-250.129-206.91h63.948c15.985 0 29.127 13.033 29.127 29.127v66.776h-20v-66.776c0-5.032-4.094-9.127-9.127-9.127h-63.947c-5.033 0-9.127 4.095-9.127 9.127v66.776h-20c0-1.95-.001-66.176.002-66.868.048-16.207 13.332-29.035 29.124-29.035zm58.075 95.903h-52.201v-60.903h52.201zm80.894-61.73 19.164 61.73h-50.058v-61.73zm-183.096 0v61.73h-50.058l19.164-61.73z"/></g></g></svg>