<svg id="Capa_1" enable-background="new 0 0 512 512" height="512" viewBox="0 0 512 512" width="512" xmlns="http://www.w3.org/2000/svg"><g><g><path d="m213.866 247.299-46.662 46.663-25.819 76.653 25.827 25.008 97.489-97.489z" fill="#f9d888"/><path d="m115.968 345.198-51.236 51.236-25.355 76.19 25.355 25.355c.541-.464 1.074-.95 1.591-1.468l49.652-49.652 25.409-76.244z" fill="#f9d888"/><path d="m167.204 293.962-3.403 10.104c6.094 8.3 12.892 16.241 20.392 23.742 8.612 8.612 17.857 16.359 27.626 23.208l52.882-52.882-50.834-50.834z" fill="#f5c956"/><circle cx="329.295" cy="182.705" fill="#bc9bdd" r="175.205"/><path d="m177.377 232.407c0-111.51 90.397-201.907 201.907-201.907 15.539 0 30.666 1.76 45.197 5.083-67.889-44.018-159.561-36.28-219.075 23.233-59.768 59.768-67.323 151.971-22.674 219.945-3.497-14.885-5.355-30.402-5.355-46.354z" fill="#b08bd7"/><path d="m473.877 239.294-201.17-201.17c-13.362-13.362-34.45-15.15-49.813-4.146-8.026 5.749-15.688 12.227-22.895 19.433-7.206 7.206-13.684 14.868-19.433 22.895-11.004 15.363-9.216 36.45 4.146 49.813l201.17 201.17c13.362 13.362 34.45 15.15 49.813 4.146 8.026-5.749 15.688-12.227 22.895-19.433s13.684-14.868 19.433-22.895c11.004-15.364 9.216-36.451-4.146-49.813z" fill="#c6ade3"/><path d="m167.204 293.962-51.236 51.236.008 101.661 51.236-51.236z" fill="#ffa875"/><path d="m167.204 293.962-6.197 6.197c1.985 2.842 4.052 5.643 6.198 8.402z" fill="#ff995d"/><path d="m64.732 396.434-49.243 49.243c-10.654 10.654-10.654 27.928.008 38.589l12.237 12.237c10.144 10.144 26.275 10.638 36.998 1.476z" fill="#ffa875"/><path d="m199.339 140.744c19.294-37.801 50.146-68.717 87.9-88.089l-14.532-14.532c-13.362-13.363-34.45-15.15-49.813-4.146-8.026 5.749-15.688 12.227-22.895 19.433-7.206 7.207-13.684 14.869-19.433 22.895-11.004 15.363-9.216 36.45 4.146 49.813z" fill="#bc9bdd"/></g><g><path d="m263.857 123.767 12.968-12.968c2.929-2.929 2.929-7.678 0-10.606-2.929-2.929-7.678-2.929-10.606 0l-12.968 12.968c-2.929 2.929-2.929 7.678 0 10.606 2.929 2.929 7.677 2.929 10.606 0z"/><path d="m398.829 258.738 12.968-12.968c2.929-2.929 2.929-7.678 0-10.606-2.929-2.929-7.678-2.929-10.606 0l-12.968 12.968c-2.929 2.929-2.929 7.678 0 10.606 2.929 2.929 7.677 2.929 10.606 0z"/><path d="m344.732 210.838c4.132-.284 7.252-3.864 6.969-7.996-.284-4.133-3.859-7.26-7.996-6.969-7.477.514-14.797-2.223-20.081-7.508-5.285-5.285-8.021-12.604-7.508-20.081.284-4.132-2.836-7.712-6.969-7.996-4.136-.287-7.712 2.836-7.996 6.969-.81 11.804 3.515 23.364 11.866 31.715 8.355 8.355 19.915 12.676 31.715 11.866z"/><path d="m71.608 501.821c17.408-17.408 147.11-147.11 162.906-162.906 14.826 9.005 30.893 15.901 47.726 20.368 4.005 1.066 8.11-1.322 9.172-5.326 1.062-4.003-1.322-8.11-5.326-9.172-28.489-7.559-54.539-22.629-75.399-43.484-46.804-46.804-61.75-116.86-38.104-178.501 1.965 3.207 4.363 6.189 6.774 8.604.01.01.019.021.029.031l201.17 201.165c2.508 2.508 5.504 4.881 8.621 6.793-23.553 8.999-48.936 12.581-74.37 10.393-4.133-.354-7.76 2.704-8.115 6.83-.354 4.127 2.703 7.76 6.83 8.115 32.776 2.815 66.507-3.098 97.476-18.592 10.152.491 20.37-2.39 29.04-8.599 8.427-6.036 16.445-12.841 23.83-20.227 7.386-7.386 14.191-15.404 20.227-23.831 6.257-8.736 9.072-18.957 8.595-29.002 16.857-33.655 22.845-71.167 17.303-108.642-5.765-38.987-23.584-74.366-51.531-102.312-18.565-18.565-40.347-32.632-64.74-41.808-3.874-1.457-8.202.502-9.66 4.379s.502 8.202 4.379 9.66c22.38 8.419 42.37 21.33 59.415 38.375 25.653 25.652 42.008 58.123 47.299 93.9 4.271 28.886 1.089 57.793-9.196 84.604-1.956-3.192-4.353-6.184-6.805-8.636l-201.166-201.166c-.01-.01-.021-.02-.031-.03-2.432-2.428-5.399-4.807-8.57-6.754 28.577-10.869 60.035-13.819 90.341-8.254 4.072.746 7.983-1.948 8.731-6.022s-1.948-7.983-6.022-8.731c-38.964-7.154-79.679-1.374-114.924 16.257-10.047-.478-20.27 2.337-29.007 8.595-8.428 6.037-16.446 12.842-23.83 20.226-7.386 7.386-14.191 15.404-20.227 23.831-6.258 8.736-9.072 18.958-8.595 29.005-29.063 58.028-24.224 125.021 7.163 176.576-38.011 38.011-123.368 123.367-162.849 162.848-13.561 13.561-13.557 35.63.008 49.195l12.237 12.237c13.462 13.462 35.646 13.562 49.195.008zm115.036-421.135c5.559-7.763 11.83-15.15 18.639-21.958 6.807-6.807 14.194-13.078 21.958-18.639 12.472-8.933 29.386-7.404 40.141 3.352l100.584 100.584 100.583 100.584c10.613 10.599 12.38 27.536 3.352 40.141-5.559 7.763-11.83 15.15-18.638 21.958s-14.196 13.079-21.958 18.639c-12.794 9.163-29.722 7.068-40.141-3.352l-201.169-201.168c-10.43-10.43-12.501-27.368-3.351-40.141zm35.112 249.774-47.066 47.066-.006-80.448 6.834-6.834c11.385 15.574 25.084 29.157 40.238 40.216zm-62.07-18.383.006 80.448-36.236 36.236-.006-80.448zm-87.472 87.471 36.237-36.236.006 80.448-36.243 36.243zm-39.194 91.659-12.237-12.237c-7.717-7.717-7.72-20.27-.008-27.982l36.439-36.439v79.628c-7.628 4.58-17.715 3.508-24.194-2.97z"/></g></g></svg>