<svg id="Capa_1" enable-background="new 0 0 512 512" height="512" viewBox="0 0 512 512" width="512" xmlns="http://www.w3.org/2000/svg"><g><g><path d="m431.652 7.5h-351.304c-40.233 0-72.848 32.615-72.848 72.848v351.305c0 40.233 32.615 72.848 72.848 72.848h351.305c40.233 0 72.848-32.615 72.848-72.848v-351.305c-.001-40.233-32.616-72.848-72.849-72.848z" fill="#bc9bdd"/><path d="m336.136 135.286v-41.359c0-12.256-9.935-22.192-22.192-22.192-12.256 0-22.192 9.936-22.192 22.192v41.358c0 12.256 9.936 22.192 22.192 22.192 12.257 0 22.192-9.935 22.192-22.191z" fill="#8bdf9e"/><path d="m291.753 93.927v41.358c0 12.256 9.936 22.192 22.192 22.192 12.256 0 22.192-9.936 22.192-22.192v-41.358c0-.344-.01-.687-.026-1.027h-44.331c-.017.341-.027.683-.027 1.027z" fill="#73d98b"/><path d="m411.242 117.9h-67.987-33.557-179.482v177.533h196.797l20.679-66.575 20.679-66.575h42.871c12.256 0 22.192-9.936 22.192-22.192 0-12.255-9.936-22.191-22.192-22.191z" fill="#8bdf9e"/><path d="m368.371 206.667-20.679-22.192-20.679 22.192c-12.256 0-22.192 9.935-22.192 22.192 0 12.256 9.936 22.192 22.192 22.192l20.679 22.192 20.679-22.192c12.256 0 22.192-9.936 22.192-22.192 0-12.256-9.936-22.192-22.192-22.192z" fill="#73d98b"/><path d="m198.496 150.894c0-11.266 1.027-22.292 2.979-32.994h-71.258v177.533h139.237c-43.163-33.416-70.958-85.728-70.958-144.539z" fill="#73d98b"/><ellipse cx="130.216" cy="206.667" fill="#ff748f" rx="52.301" ry="88.767"/><path d="m141.425 170.382c-3.513-10.798-18.904-10.798-22.417 0-3.092 9.502-5.383 21.695-5.383 36.285s2.292 26.783 5.383 36.285c3.513 10.798 18.904 10.798 22.417 0 3.092-9.502 5.383-21.695 5.383-36.285s-2.291-26.783-5.383-36.285z" fill="#fff"/><path d="m368.371 251.05h-41.358c-12.256 0-22.192 9.936-22.192 22.192 0 12.256 9.936 22.192 22.192 22.192h41.358c12.256 0 22.192-9.936 22.192-22.192 0-12.256-9.936-22.192-22.192-22.192z" fill="#b9ebc2"/><path d="m368.371 162.284h-41.358c-12.256 0-22.192 9.935-22.192 22.192 0 12.256 9.936 22.192 22.192 22.192h41.358c12.256 0 22.192-9.936 22.192-22.192 0-12.257-9.936-22.192-22.192-22.192z" fill="#b9ebc2"/><path d="m47.039 289.95c0-158.568 16.94-240.342 67.294-282.45h-33.985c-40.233 0-72.848 32.615-72.848 72.848v351.305c0 40.233 32.615 72.847 72.848 72.847h.289c-21.509-48.09-33.598-116.692-33.598-214.55z" fill="#b08bd7"/></g><g><path d="m504.5 171.441c-4.142 0-7.5 3.358-7.5 7.5v252.712c0 36.032-29.315 65.347-65.348 65.347h-351.305c-36.033 0-65.347-29.315-65.347-65.347v-71.774c0-4.142-3.358-7.5-7.5-7.5s-7.5 3.358-7.5 7.5v71.774c0 44.303 36.043 80.347 80.347 80.347h351.305c44.304 0 80.348-36.044 80.348-80.347v-252.712c0-4.142-3.358-7.5-7.5-7.5z"/><path d="m431.652 0h-351.305c-44.304 0-80.347 36.044-80.347 80.348v249.531c0 4.142 3.358 7.5 7.5 7.5s7.5-3.358 7.5-7.5v-249.531c0-36.033 29.314-65.348 65.347-65.348h351.305c36.033 0 65.348 29.315 65.348 65.348v68.593c0 4.142 3.358 7.5 7.5 7.5s7.5-3.358 7.5-7.5v-68.593c0-44.304-36.044-80.348-80.348-80.348z"/><path d="m148.557 245.272c3.816-11.729 5.751-24.717 5.751-38.605 0-13.887-1.935-26.876-5.751-38.605-2.624-8.066-9.823-13.278-18.341-13.278-8.517 0-15.716 5.212-18.34 13.278-3.816 11.731-5.751 24.719-5.751 38.605s1.935 26.875 5.751 38.605c2.624 8.066 9.823 13.278 18.34 13.278s15.717-5.212 18.341-13.278zm-14.264-4.641c-.857 2.635-3.137 2.919-4.077 2.919s-3.219-.284-4.077-2.919c-3.328-10.229-5.015-21.657-5.015-33.964s1.688-23.734 5.015-33.964c.857-2.634 3.137-2.919 4.077-2.919s3.22.285 4.077 2.919c3.281 10.084 5.015 21.829 5.015 33.964 0 12.136-1.734 23.88-5.015 33.964z"/><path d="m132.743 434.209c3.87 1.474 8.204-.469 9.678-4.339l5.873-15.42h39.405l5.811 15.399c1.473 3.901 5.814 5.823 9.665 4.369 3.875-1.463 5.832-5.79 4.369-9.665l-30.688-81.316c-.026-.069-.053-.137-.081-.205-1.451-3.528-4.851-5.806-8.665-5.806-.003 0-.006 0-.009 0-3.817.003-7.218 2.289-8.663 5.822-.023.057-.046.113-.067.17l-30.969 81.313c-1.472 3.871.47 8.204 4.341 9.678zm35.344-71.728 13.951 36.968h-28.031z"/><path d="m407.835 434.701h.019c4.133 0 7.489-3.346 7.5-7.481l.098-39.912 24.919-38.28c2.26-3.472 1.277-8.118-2.194-10.377-3.471-2.26-8.117-1.278-10.377 2.194l-19.852 30.496-20.054-30.714c-2.265-3.469-6.913-4.443-10.38-2.179-3.468 2.265-4.444 6.912-2.179 10.38l25.118 38.469-.098 39.886c-.012 4.141 3.338 7.507 7.48 7.518z"/><path d="m327.272 434.701c4.142 0 7.5-3.358 7.5-7.5v-74.974h15.365c4.142 0 7.5-3.358 7.5-7.5s-3.358-7.5-7.5-7.5h-45.547c-4.142 0-7.5 3.358-7.5 7.5s3.358 7.5 7.5 7.5h15.182v74.974c0 4.142 3.358 7.5 7.5 7.5z"/><path d="m284.188 366.161c0-15.954-13.524-28.934-30.147-28.934h-21.916c-.004 0-.009.001-.014.001-.004 0-.009-.001-.013-.001-4.142 0-7.5 3.358-7.5 7.5v82.474c0 4.142 3.358 7.5 7.5 7.5s7.5-3.358 7.5-7.5v-30.79l31.46 35.745c2.74 3.113 7.48 3.408 10.585.675 3.109-2.736 3.412-7.476.675-10.585l-24.142-27.429c14.673-1.942 26.012-14.049 26.012-28.656zm-30.146 13.934c-3.293 0-9.394.027-14.307.053-.079-14.599-.033-10.219-.086-27.921h14.393c8.21 0 15.147 6.381 15.147 13.934s-6.937 13.934-15.147 13.934z"/><path d="m101.267 337.226h-22.965c-4.131 0-7.5 3.364-7.5 7.5v82.474c0 4.142 3.358 7.5 7.5 7.5s7.5-3.358 7.5-7.5v-28.365c5.223-.028 11.932-.061 15.465-.061 17.22 0 31.23-13.805 31.23-30.774s-14.01-30.774-31.23-30.774zm0 46.549c-3.516 0-10.134.031-15.347.06-.087-16.438-.037-11.365-.095-31.608h15.442c8.797 0 16.23 7.224 16.23 15.774s-7.433 15.774-16.23 15.774z"/><path d="m313.944 64.236c-16.372 0-29.692 13.319-29.692 29.691v16.473h-154.036c-.005 0-.01.001-.016.001-16.728.007-32.151 10.551-43.428 29.692-10.548 17.902-16.357 41.545-16.357 66.575s5.809 48.673 16.357 66.575c11.281 19.147 26.71 29.692 43.444 29.692h238.155c16.372 0 29.691-13.32 29.691-29.692 0-8.82-3.869-16.749-9.995-22.191 6.125-5.443 9.995-13.372 9.995-22.192s-3.869-16.749-9.995-22.191c6.125-5.443 9.995-13.372 9.995-22.192 0-5.343-1.426-10.356-3.906-14.691h17.085c16.372 0 29.691-13.32 29.691-29.692s-13.318-29.694-29.69-29.694h-67.606v-16.472c0-16.372-13.32-29.692-29.692-29.692zm-14.692 29.692c0-8.101 6.591-14.691 14.692-14.691s14.691 6.59 14.691 14.691v16.472h-29.383zm-213.837 112.739c0-44.051 20.517-81.267 44.801-81.267s44.801 37.215 44.801 81.266c0 42.227-19.592 81.267-44.801 81.267-24.284.001-44.801-37.214-44.801-81.266zm297.648 66.575c0 8.101-6.59 14.692-14.691 14.692h-41.358c-8.101 0-14.691-6.591-14.691-14.692s6.59-14.691 14.691-14.691h41.358c8.1 0 14.691 6.59 14.691 14.691zm0-44.383c0 8.101-6.59 14.692-14.691 14.692h-41.358c-8.101 0-14.691-6.591-14.691-14.692 0-8.079 6.568-14.691 14.691-14.691h41.358c8.1-.001 14.691 6.59 14.691 14.691zm0-44.384c0 8.101-6.59 14.692-14.691 14.692h-41.349c-.003 0-.006 0-.01 0-8.109 0-14.691-6.598-14.691-14.691 0-8.101 6.59-14.691 14.691-14.691h41.358c8.101-.001 14.692 6.589 14.692 14.69zm42.871-44.383c0 8.101-6.59 14.692-14.691 14.692-10.431 0-74.37 0-84.229 0-16.372 0-29.691 13.319-29.691 29.691 0 8.209 3.432 16.352 9.985 22.191-6.33 5.626-9.985 13.712-9.985 22.192 0 8.223 3.439 16.356 9.985 22.192-6.172 5.487-9.985 13.495-9.985 22.191 0 5.002 1.291 10.137 3.896 14.692h-138.594c19.394-20.002 27.392-52.811 27.392-81.267 0-28.093-7.923-61.218-27.392-81.267h248.617c8.101.001 14.692 6.592 14.692 14.693z"/></g></g></svg>