<svg id="Capa_1" enable-background="new 0 0 512 512" height="512" viewBox="0 0 512 512" width="512" xmlns="http://www.w3.org/2000/svg"><g><g><path d="m299.965 7.5h-87.929c-22.653 0-39.312 21.233-33.921 43.235l10.983 44.83h133.806l10.983-44.83c5.39-22.002-11.269-43.235-33.922-43.235z" fill="#f9d888"/><path d="m68.074 335.241c-7.17-32.824 9.293-66.245 39.701-80.554l49.429-23.258c24.745-11.649 39.064-38.022 35.342-65.123l-3.863-28.163h134.635l-3.863 28.163c-3.721 27.101 10.598 53.474 35.342 65.123l49.429 23.258c30.408 14.309 46.87 47.73 39.701 80.554l-64.805 96.705h-239.745z" fill="#b9ebc2"/><path d="m110.414 333.638c0-31.251 6.143-61.063 17.262-88.316l-19.901 9.364c-30.408 14.309-46.87 47.73-39.701 80.554l55.079 74.701c-8.249-23.916-12.739-49.584-12.739-76.303z" fill="#8bdf9e"/><path d="m443.926 335.241-21.307 97.462c-9.162 41.915-46.274 71.797-89.18 71.797h-154.879c-42.906 0-80.018-29.882-89.18-71.797l-21.307-97.462c124.361-63.414 252.029 73.142 375.853 0z" fill="#5c586f"/><path d="m256 264.32c-64.409 0-116.623 44.622-116.623 109.03 0 31.388 25.445 56.833 56.833 56.833h2.063c4.403 0 7.973 3.57 7.973 7.973 0 12.229 9.913 22.142 22.142 22.142h3.13l7.5-3.169 7.5 3.169h18.965l7.5-3.351 7.5 3.351h3.129c12.229 0 22.142-9.913 22.142-22.142 0-4.403 3.57-7.973 7.973-7.973h2.063c31.388 0 56.833-25.445 56.833-56.833 0-64.408-52.214-109.03-116.623-109.03z" fill="#fff"/><path d="m198.798 178.259h114.404c1.943 0 3.861-.101 5.758-.279-.194-3.849-.045-7.753.494-11.674l3.863-28.163h-134.634l3.863 28.163c.538 3.921.688 7.825.494 11.674 1.896.177 3.815.279 5.758.279z" fill="#8bdf9e"/><path d="m217.446 75.569c0-25.492 8.33-49.036 22.41-68.069h-27.82c-22.653 0-39.312 21.233-33.921 43.235l10.983 44.83h30.091c-1.144-6.494-1.743-13.175-1.743-19.996z" fill="#f5c956"/><path d="m313.202 85.706h-114.404c-17.273 0-31.276 14.003-31.276 31.276 0 17.274 14.003 31.276 31.276 31.276h114.404c17.273 0 31.276-14.003 31.276-31.276.001-17.273-14.002-31.276-31.276-31.276z" fill="#b9ebc2"/><path d="m110.414 333.638c0-4.328.127-8.627.359-12.897-14.269 2.637-28.505 7.263-42.699 14.5l21.307 97.462c9.162 41.915 46.274 71.797 89.18 71.797h6.017c-45.634-42.693-74.164-103.441-74.164-170.862z" fill="#4f4c5f"/><path d="m172.076 390.566c0-53.865 29.409-100.859 73.045-125.809-59.307 4.719-105.743 47.854-105.743 108.593 0 24.505 15.51 45.387 37.248 53.367-2.971-11.555-4.55-23.669-4.55-36.151z" fill="#e8e8e8"/></g><g><path d="m190.203 402.301c0 4.142 3.358 7.5 7.5 7.5s7.5-3.358 7.5-7.5v-11.201c0-4.142-3.358-7.5-7.5-7.5s-7.5 3.358-7.5 7.5z"/><path d="m314.282 409.801c4.142 0 7.5-3.358 7.5-7.5v-11.201c0-4.142-3.358-7.5-7.5-7.5s-7.5 3.358-7.5 7.5v11.201c0 4.142 3.358 7.5 7.5 7.5z"/><path d="m154.003 224.643-49.429 23.258c-16.236 7.64-29.545 20.711-37.476 36.805-7.929 16.09-10.187 34.605-6.359 52.134v.003l21.307 97.462c9.856 45.09 49.854 77.695 96.507 77.695h154.879c19.501 0 38.397-5.708 54.645-16.505 3.45-2.293 4.388-6.948 2.095-10.398-2.292-3.449-6.947-4.387-10.398-2.095-13.778 9.158-29.803 13.998-46.341 13.998h-154.88c-39.146 0-73.404-27.242-81.853-65.898l-20.045-91.688c19.619-9.083 41.092-13.857 65.32-13.981-6.95 15.261-10.105 31.48-10.105 47.919 0 35.473 28.86 64.333 64.333 64.333h2.063c.261 0 .473.212.473.473 0 16.344 13.297 29.642 29.642 29.642h55.224c16.344 0 29.642-13.297 29.642-29.642 0-.261.212-.473.473-.473h2.063c35.473 0 64.333-28.86 64.333-64.333 0-3.082-.18-7.261-.358-9.361 19.52-1.96 37.267-7.04 53.387-14.58l-17.859 81.692c-2.803 12.822-8.397 24.495-16.628 34.695-2.602 3.223-2.097 7.945 1.126 10.546 3.224 2.602 7.945 2.097 10.546-1.126 9.571-11.859 16.352-26.006 19.61-40.912l21.307-97.462c0-.001 0-.002 0-.004 7.867-36.025-10.104-73.066-43.835-88.938l-49.427-23.258c-21.898-10.309-34.399-33.343-31.107-57.318l2.046-14.912c13.564-6.045 23.048-19.647 23.048-35.43 0-13.956-7.413-26.209-18.506-33.04l7.698-31.422c6.544-26.715-13.664-52.522-41.207-52.522h-87.929c-27.501 0-47.76 25.766-41.207 52.52l7.698 31.422c-11.093 6.831-18.506 19.085-18.506 33.04 0 15.784 9.484 29.386 23.049 35.431l2.045 14.913c3.293 23.974-9.208 47.008-31.104 57.317zm38.674-145.955-7.286-29.737c-4.231-17.269 8.833-33.951 26.637-33.951h87.929c17.778 0 30.874 16.656 26.637 33.951l-7.286 29.737c-1.743-.277-4.043-.482-6.114-.482h-114.404c-1.892 0-4.176.174-6.113.482zm-17.663 38.294c0-13.278 10.858-23.776 23.776-23.776h114.404c13.014 0 23.776 10.589 23.776 23.776 0 13.096-10.665 23.776-23.776 23.776h-114.404c-13.126.001-23.776-10.698-23.776-23.776zm24.955 48.305-1.307-9.528h.128 114.404.129l-1.307 9.526c-4.189 30.504 11.716 59.812 39.579 72.93l49.429 23.258c26.417 12.431 40.958 40.453 36.184 68.966-18.59 10.476-38.096 16.584-59.54 18.667-11.792-56.856-62.898-92.286-121.676-92.286-17.49 0-34.274 3.085-49.885 9.171-3.859 1.504-5.768 5.853-4.264 9.712 1.5 3.846 5.844 5.778 9.719 4.269 13.873-5.409 28.821-8.152 44.43-8.152 60.199 0 109.123 41.127 109.123 101.531 0 27.202-22.131 49.333-49.333 49.333h-2.063c-8.532 0-15.473 6.941-15.473 15.473 0 8.073-6.568 14.642-14.642 14.642h-3.129v-20.853c0-4.142-3.358-7.5-7.5-7.5s-7.5 3.358-7.5 7.5v20.853h-18.965v-20.853c0-4.142-3.358-7.5-7.5-7.5s-7.5 3.358-7.5 7.5v20.853h-3.129c-8.073 0-14.642-6.568-14.642-14.642 0-8.532-6.941-15.473-15.473-15.473h-2.063c-27.202 0-49.333-22.131-49.333-49.333 0-18.324 4.44-35.663 13.778-51.262 7-11.692 16.386-21.727 27.9-29.826 3.411-2.399 4.188-7.091 1.818-10.461-2.383-3.389-7.061-4.203-10.449-1.821-11.419 8.029-21.868 18.564-29.736 30.569-26.535-.911-51.984 3.102-76.149 13.592-1.82-26.266 12.461-51.154 36.929-62.667l49.43-23.259c27.861-13.118 43.766-42.426 39.578-72.929z"/></g></g></svg>