<svg id="Capa_1" enable-background="new 0 0 512 512" height="512" viewBox="0 0 512 512" width="512" xmlns="http://www.w3.org/2000/svg"><g><g><circle cx="412.894" cy="186.484" fill="#8bdf9e" r="37.156"/><path d="m401.665 148.905-.055-.073c-5.576-7.401-7.724-16.831-5.904-25.917l.006-.032c2.851-14.23-4.087-28.624-16.996-35.258l-.007-.003c-8.258-4.244-14.304-11.819-16.61-20.812l-.012-.045c-3.601-14.039-16.07-23.992-30.558-24.39l-.076-.002c-9.261-.255-17.973-4.454-23.941-11.54l-.026-.03c-9.349-11.099-24.927-14.648-38.161-8.691-8.475 3.815-18.178 3.815-26.654 0-13.233-5.956-28.812-2.408-38.161 8.691l-.025.029c-5.969 7.086-14.68 11.286-23.942 11.54l-.075.002c-14.488.398-26.958 10.351-30.559 24.39l-.012.046c-2.307 8.993-8.353 16.569-16.61 20.812l-.007.004c-12.908 6.633-19.847 21.027-16.996 35.257l.007.034c1.82 9.085-.328 18.516-5.904 25.916l-.055.073h291.333z" fill="#ffb2c1"/><path d="m238.051 20.452c-12.095-3.372-25.259.52-33.538 10.35l-.025.029c-5.969 7.086-14.68 11.286-23.942 11.54l-.075.002c-14.488.398-26.958 10.351-30.559 24.39l-.012.046c-2.306 8.993-8.353 16.569-16.61 20.812l-.007.004c-12.908 6.633-19.847 21.027-16.996 35.257l.007.034c1.82 9.085-.328 18.516-5.904 25.916l-.055.073h44.383c13.351-51.404 43.104-96.187 83.333-128.453z" fill="#ff9db0"/><path d="m404.943 138.039c-3.671-11.06-14.126-18.442-25.779-18.442h-246.32c-11.745 0-22.182 7.522-25.864 18.675-5.011 15.178-7.768 31.381-7.874 48.213-.547 86.997 68.845 157.33 155.841 157.901 87.135.572 157.949-69.891 157.949-156.893.001-17.28-2.793-33.907-7.953-49.454z" fill="#b9ebc2"/><path d="m13.358 343.352h485.284v149.401h-485.284z" fill="#e8a882"/><path d="m173.746 321.311c-17.144-33.304-26.826-71.078-26.826-111.115 0-32.026 6.205-62.599 17.458-90.6h-31.533c-11.745 0-22.182 7.522-25.864 18.675-1.229 3.724-2.321 7.51-3.273 11.351-1.509-.187-3.042-.294-4.601-.294-20.521 0-37.156 16.635-37.156 37.156s16.635 37.156 37.156 37.156c1.383 0 2.747-.082 4.092-.229 9.595 41.362 35.429 76.355 70.547 97.9z" fill="#8bdf9e"/><path d="m52.372 361.152c0-6.006.296-11.941.855-17.801h-39.869v149.401h93.89c-33.883-33.572-54.876-80.132-54.876-131.6z" fill="#e3986d"/><path d="m459.124 296.411h-406.248c-25.061 0-45.376 20.316-45.376 45.376 0 17.512 9.519 33.639 24.85 42.102 15.467 8.538 34.233 8.538 49.7 0 15.467-8.538 34.233-8.538 49.7 0 15.467 8.538 34.233 8.538 49.7 0 15.467-8.538 34.233-8.538 49.7 0 15.467 8.538 34.233 8.538 49.7 0 15.467-8.538 34.233-8.538 49.7 0 15.467 8.538 34.233 8.538 49.7 0 15.467-8.538 34.233-8.538 49.7 0 15.467 8.538 34.233 8.538 49.7 0 15.331-8.463 24.85-24.591 24.85-42.102 0-25.061-20.316-45.376-45.376-45.376z" fill="#edb798"/><path d="m54.647 390.213c-7.7-.383-15.333-2.479-22.297-6.324-15.512-8.563-25.074-24.973-24.846-42.724.32-24.931 21.131-44.755 46.064-44.755h10.442 139.576c.265 2.766.395 5.571.351 8.416-.441 28.636-24.061 51.501-52.7 51.501h-47.197-20.48c-17.886 0-31.632 15.911-28.957 33.596.014.099.029.195.044.29z" fill="#e8a882"/><path d="m127.697 257.489c-25.542 0-46.248 20.706-46.248 46.248 0 12.477 10.114 22.591 22.591 22.591h47.315c12.477 0 22.591-10.114 22.591-22.591-.001-25.542-20.707-46.248-46.249-46.248z" fill="#73d98b"/><path d="m308.414 296.411c-.231 2.412-.359 4.854-.359 7.326 0 28.999 23.592 52.591 52.591 52.591h47.314c28.999 0 52.591-23.592 52.591-52.591 0-2.463-.128-4.896-.357-7.299-.357-.008-.711-.027-1.07-.027z" fill="#e8a882"/><path d="m384.303 257.489c25.542 0 46.248 20.706 46.248 46.248 0 12.477-10.114 22.591-22.591 22.591h-47.315c-12.477 0-22.591-10.114-22.591-22.591.001-25.542 20.707-46.248 46.249-46.248z" fill="#8bdf9e"/><path d="m256 227.622c9.342 0 17.661 6.341 22.894-4.477 5.308-10.973-6.58-27.256-22.894-27.256s-28.202 16.283-22.894 27.256c5.233 10.818 13.552 4.477 22.894 4.477z" fill="#423e4f"/><path d="m263.447 222.975c-4.773-1.95-10.121-1.95-14.894 0-3.161 1.291-5.226 4.366-5.226 7.781v13.587c0 6.999 5.674 12.673 12.673 12.673 6.999 0 12.673-5.674 12.673-12.673v-13.587c0-3.414-2.065-6.489-5.226-7.781z" fill="#fd5f7e"/><g fill="#fff"><ellipse cx="171.936" cy="215.26" rx="31.018" ry="24.701"/><ellipse cx="340.064" cy="215.26" rx="31.018" ry="24.701"/></g></g><g><path d="m177.121 165.906c-4.142 0-7.5 3.358-7.5 7.5v12.031c0 4.142 3.358 7.5 7.5 7.5s7.5-3.358 7.5-7.5v-12.031c0-4.142-3.358-7.5-7.5-7.5z"/><path d="m334.878 192.937c4.142 0 7.5-3.358 7.5-7.5v-12.031c0-4.142-3.358-7.5-7.5-7.5s-7.5 3.358-7.5 7.5v12.031c0 4.142 3.358 7.5 7.5 7.5z"/><path d="m459.124 288.896h-23.169c-4.41-15.338-15.474-27.879-29.859-34.287 3.442-7.663 6.275-15.511 8.478-23.526 23.846-.888 42.976-20.553 42.976-44.613 0-24.26-19.45-44.05-43.574-44.628-2.253-7.81-4.211-13.769-10.51-19.914 2.274-16.626-6.223-33.207-21.278-40.966-.016-.009-.032-.017-.048-.025-6.345-3.26-11.001-9.094-12.785-16.05-4.408-17.19-19.877-29.536-37.693-30.026-7.115-.196-13.826-3.43-18.437-8.905-11.451-13.595-30.769-17.994-46.976-10.698-6.513 2.931-13.983 2.932-20.498 0-16.207-7.295-35.524-2.896-47 10.729-4.585 5.444-11.296 8.678-18.487 8.876-17.739.488-33.208 12.833-37.629 30.069-1.773 6.91-6.428 12.744-12.781 16.008-15.087 7.753-23.603 24.36-21.311 41.036-3.878 3.793-6.9 8.522-8.685 13.93-.65 1.968-1.26 3.947-1.833 5.936-24.124.578-43.574 20.368-43.574 44.628 0 24.042 19.101 43.697 42.923 44.612 2.19 8.033 5.006 15.896 8.434 23.571-14.338 6.421-25.362 18.939-29.762 34.243h-23.17c-29.156 0-52.876 23.72-52.876 52.876 0 8.773 2.071 17.246 5.858 24.828v126.137c0 4.142 3.358 7.5 7.5 7.5h485.284c4.142 0 7.5-3.358 7.5-7.5v-126.136c3.787-7.583 5.858-16.056 5.858-24.829 0-29.156-23.72-52.876-52.876-52.876zm-36.073 14.826c0 8.321-6.77 15.091-15.091 15.091h-47.314c-8.319 0-15.091-6.767-15.091-15.091 0-21.618 17.64-38.748 38.744-38.748h.004.002c21.383 0 38.746 17.412 38.746 38.748zm-5.444-146.534c14.12 2.265 24.942 14.533 24.942 29.282 0 14.612-10.622 26.789-24.55 29.215 3.227-18.744 3.259-38.803-.37-58.367-.007-.044-.014-.087-.022-.13zm-348.156 29.281c0-14.749 10.822-27.017 24.942-29.282-3.505 19.625-3.73 39.117-.427 58.491-13.911-2.442-24.515-14.61-24.515-29.209zm58.246 78.505c21.333 0 38.748 17.372 38.748 38.748 0 8.321-6.77 15.091-15.091 15.091h-47.314c-8.321 0-15.091-6.77-15.091-15.091 0-21.344 17.364-38.748 38.748-38.748zm-74.821 38.922h21.073c.102 16.516 13.551 29.917 30.09 29.917h47.314c16.722 0 29.997-13.589 30.09-29.917h28.518c4.142 0 7.5-3.358 7.5-7.5s-3.358-7.5-7.5-7.5h-30.586c-6.63-23.405-27.854-38.921-51.68-38.921-2.183 0-4.96.177-7.326.503-16.018-34.56-17.981-74.396-6.269-109.87 2.668-8.082 10.252-13.526 18.742-13.526h159.319c4.142 0 7.5-3.358 7.5-7.5s-3.358-7.5-7.5-7.5h-159.317c-3.267 0-6.749.534-9.486 1.311 1.023-8.013 5.911-15.288 13.359-19.115 10.157-5.219 17.61-14.557 20.459-25.665 2.755-10.739 12.418-18.451 23.576-18.758 11.39-.313 22.132-5.491 29.497-14.235 7.153-8.493 19.22-11.241 29.347-6.684 10.425 4.693 22.384 4.693 32.811 0 10.126-4.558 22.193-1.809 29.371 6.714 7.34 8.715 18.082 13.892 29.548 14.208 11.082.305 20.745 8.018 23.511 18.802 2.834 11.05 10.273 20.38 20.414 25.602.014.007.027.014.04.021 7.437 3.822 12.321 11.086 13.347 19.103-2.804-.792-6.273-1.302-9.473-1.302h-57c-4.142 0-7.5 3.358-7.5 7.5s3.358 7.5 7.5 7.5h57c8.368 0 15.994 5.27 18.661 13.304 11.785 35.513 9.919 75.289-6.313 110.076-2.373-.323-5.064-.487-7.208-.487-.001 0-.001 0-.002 0-23.76 0-45.032 15.46-51.677 38.921h-92.661c-4.142 0-7.5 3.358-7.5 7.5s3.358 7.5 7.5 7.5h90.593c.093 16.373 13.392 29.855 29.979 29.915.037 0 .074.003.112.003h47.314c16.508 0 29.999-13.387 30.09-29.917h21.073c20.885 0 37.876 16.991 37.876 37.876 0 30.978-34.342 51.589-63.426 35.536-17.829-9.843-39.119-9.843-56.949 0-13.291 7.336-29.16 7.336-42.451 0-17.83-9.843-39.12-9.843-56.949 0-13.291 7.336-29.16 7.336-42.451 0-17.83-9.842-39.119-9.842-56.949 0-13.29 7.336-29.16 7.336-42.451 0-17.83-9.842-39.119-9.842-56.949 0-20.777 11.468-47.257 4.475-58.478-16.169-.006-.01-.013-.019-.019-.029-3.169-5.843-4.93-12.462-4.93-19.341 0-20.885 16.991-37.876 37.876-37.876zm-32.018 181.341v-100.061c17.907 14.326 43.545 17.007 64.816 5.264 13.291-7.336 29.16-7.336 42.451 0 17.782 9.817 39.072 9.869 56.949 0 13.29-7.336 29.16-7.336 42.451 0 17.782 9.817 39.072 9.869 56.949 0 13.005-7.178 28.876-7.492 42.451 0 17.83 9.843 39.119 9.843 56.949 0 13.29-7.336 29.16-7.336 42.451 0 21.397 11.812 47.024 8.979 64.816-5.264v100.061z"/><path d="m235.827 235.826v8.502c0 11.124 9.05 20.173 20.173 20.173s20.173-9.05 20.173-20.173v-8.499c4.009-1.546 7.181-4.697 9.472-9.432 7.711-15.941-7.669-38.021-29.645-38.021-22.16 0-37.304 22.188-29.646 38.021 2.292 4.736 5.464 7.882 9.473 9.429zm25.346 8.502c0 2.853-2.321 5.173-5.174 5.173s-5.173-2.321-5.173-5.173v-13.586c0-.317.202-.69.563-.838 1.52-.621 3.085-.911 4.611-.911 1.562 0 3.124.304 4.61.911h.001c.356.145.563.516.563.837v13.587zm-5.173-40.953c11.152 0 18.811 10.973 16.142 16.49-.03.062-.059.122-.088.18-7.34-8.07-24.734-8.11-32.108 0-.029-.059-.058-.118-.088-.18-2.634-5.446 4.898-16.49 16.142-16.49z"/></g></g></svg>