<svg id="Capa_1" enable-background="new 0 0 512 512" height="512" viewBox="0 0 512 512" width="512" xmlns="http://www.w3.org/2000/svg"><g><g><path d="m372.783 283.305c38.857-1.985 69.753-34.119 69.753-73.47 0-32.578-21.184-60.192-50.522-69.865z" fill="#423e4f"/><path d="m139.217 283.305c-38.857-1.985-69.753-34.119-69.753-73.47 0-32.578 21.184-60.192 50.522-69.865z" fill="#423e4f"/><path d="m256 7.5c-75.145 0-136.061 60.917-136.061 136.061v69.901c0 75.145 60.917 136.061 136.061 136.061 75.145 0 136.061-60.917 136.061-136.061v-69.901c0-75.144-60.916-136.061-136.061-136.061z" fill="#5c586f"/><path d="m198.798 145.19c4.107 23.057 28.155 40.745 57.202 40.745s53.095-17.688 57.202-40.745l-57.202-26.597z" fill="#423e4f"/><path d="m313.832 138.158c0 2.394-.21 4.738-.631 7.031-15.946-.361-33.664-5.539-46.685-.401-6.791 2.674-14.243 2.674-21.034 0-13.021-5.138-30.739.04-46.685.401-.421-2.294-.631-4.637-.631-7.031 0-26.382 25.891-47.767 57.833-47.767s57.833 21.385 57.833 47.767z" fill="#4f4c5f"/><path d="m149.217 164.925c0-45.782 2.548-88.266 16.722-123.342-28.207 24.93-46 61.374-46 101.979v69.9c0 73.498 58.28 133.375 131.146 135.963-61.203-38.599-101.868-106.796-101.868-184.5z" fill="#4f4c5f"/><path d="m256 274.69c-84.481 0-152.966 68.485-152.966 152.966v76.844h305.932v-76.844c0-84.48-68.485-152.966-152.966-152.966z" fill="#b2b0bc"/><path d="m152.094 401.169c0-41.534 13.589-79.891 36.555-110.88-50.708 24.909-85.615 77.058-85.615 137.368v76.843h80.306c-19.734-29.577-31.246-65.108-31.246-103.331z" fill="#a19dae"/></g><g><path d="m256 321.057c-4.142 0-7.5 3.358-7.5 7.5v13.466h-13.705c-4.143 0-7.5 3.358-7.5 7.5s3.357 7.5 7.5 7.5h13.705v37.505c0 4.142 3.358 7.5 7.5 7.5s7.5-3.358 7.5-7.5v-37.505h13.705c4.142 0 7.5-3.358 7.5-7.5s-3.358-7.5-7.5-7.5h-13.705v-13.466c0-4.142-3.358-7.5-7.5-7.5z"/><path d="m328.228 429.372c0-4.142-3.357-7.5-7.5-7.5h-129.457c-4.143 0-7.5 3.358-7.5 7.5s3.357 7.5 7.5 7.5h129.456c4.143 0 7.501-3.358 7.501-7.5z"/><path d="m207.615 453.61c-4.143 0-7.5 3.358-7.5 7.5s3.357 7.5 7.5 7.5h96.769c4.142 0 7.5-3.358 7.5-7.5s-3.358-7.5-7.5-7.5z"/><path d="m200.792 79.595-27.166-7.279c-4.001-1.07-8.114 1.302-9.186 5.303s1.302 8.114 5.303 9.186l9.055 2.426c-.503 1.008-.793 2.14-.793 3.343v11.702c0 4.142 3.357 7.5 7.5 7.5 4.142 0 7.5-3.358 7.5-7.5v-11.238l3.904 1.046c4.008 1.071 8.115-1.307 9.186-5.303 1.072-4.001-1.303-8.114-5.303-9.186z"/><path d="m347.559 77.619c-1.072-4-5.185-6.374-9.186-5.303l-27.165 7.279c-4.001 1.072-6.375 5.185-5.304 9.186 1.076 4.013 5.195 6.371 9.186 5.303l3.905-1.046v11.238c0 4.142 3.358 7.5 7.5 7.5s7.5-3.358 7.5-7.5v-11.702c0-1.203-.29-2.335-.793-3.343l9.055-2.426c4-1.072 6.374-5.185 5.302-9.186z"/><path d="m190.667 138.158c0 30.79 29.434 55.277 65.333 55.277 36.076 0 65.333-24.65 65.333-55.277 0-30.474-29.308-55.267-65.333-55.267-36.025.001-65.333 24.793-65.333 55.267zm65.333 40.277c-21.318 0-40.087-10.898-47.242-26.404 12.196-1.22 25.311-3.683 33.977-.264 8.544 3.365 17.968 3.372 26.53 0 .002-.001.003-.001.005-.002 8.608-3.397 21.371-1.001 33.972.266-7.155 15.506-25.924 26.404-47.242 26.404zm50.32-41.179c-14.091-1.281-29.554-4.575-42.552.555-4.654 1.833-10.253 2.081-15.532.002-13.159-5.19-28.83-1.747-42.556-.557.603-21.788 22.944-39.364 50.32-39.364s49.717 17.576 50.32 39.364z"/><path d="m148.503 73.035c2.276-3.461 1.314-8.111-2.146-10.387-3.461-2.274-8.111-1.314-10.387 2.147-13.763 20.932-21.705 44.922-23.238 69.862-30.568 12.29-50.768 41.864-50.768 75.179 0 41.845 31.686 76.526 72.853 80.656 4.051 6.346 8.624 12.405 13.697 18.123-32.515 29.386-52.98 71.868-52.98 119.042v76.843c0 4.142 3.358 7.5 7.5 7.5h305.932c4.142 0 7.5-3.358 7.5-7.5v-76.844c0-21.834-4.315-43.013-12.826-62.949-1.626-3.809-6.034-5.578-9.842-3.953-3.81 1.626-5.58 6.033-3.953 9.843 7.711 18.063 11.621 37.26 11.621 57.059v69.344h-290.932v-69.344c0-80.862 65.9-145.466 145.466-145.466 46.95 0 91.89 22.863 119.456 62.452 2.367 3.399 7.041 4.236 10.44 1.869s4.236-7.041 1.869-10.44c-7.082-10.17-15.243-19.36-24.253-27.488 5.063-5.709 9.626-11.757 13.67-18.092 41.167-4.13 72.854-38.811 72.854-80.656 0-33.312-20.195-62.883-50.759-75.175-4.613-75.029-67.108-134.66-143.277-134.66-37.658 0-73.249 14.483-100.215 40.78-2.965 2.892-3.025 7.641-.133 10.606 2.892 2.966 7.64 3.024 10.605.133 24.149-23.549 56.02-36.519 89.743-36.519 70.894 0 128.561 57.68 128.561 128.561-.027 75.152.071 70.153-.095 74.685-.802 21.624-7.02 42.689-18.116 61.199-.06.101-.104.209-.159.312-4.106 6.798-8.864 13.251-14.249 19.275-27.604-20.593-61.471-31.842-95.942-31.842-34.467 0-68.281 11.207-95.943 31.841-5.385-6.024-10.143-12.477-14.249-19.275-.055-.103-.099-.21-.159-.311-11.949-19.932-18.211-42.802-18.211-65.984v-69.9c0-25.179 7.285-49.566 21.065-70.526zm286.533 136.8c0 30.354-20.454 56.081-48.605 63.744 7.059-15.291 11.239-31.37 12.66-48.495.982-12.333.191-20.49.47-73.817 21.583 11.236 35.475 33.619 35.475 58.568zm-358.072 0c0-24.949 13.893-47.332 35.475-58.569v62.195c0 20.546 4.338 41.072 13.13 60.117-28.152-7.662-48.605-33.389-48.605-63.743z"/></g></g></svg>