<svg id="Capa_1" enable-background="new 0 0 512 512" height="512" viewBox="0 0 512 512" width="512" xmlns="http://www.w3.org/2000/svg"><g><g><path d="m313.682 458.989c0 18.168 14.728 32.896 32.896 32.896 18.168 0 32.896-14.728 32.896-32.896v-48.024c0-11.737 9.515-21.253 21.253-21.253 11.737 0 21.253 9.515 21.253 21.253v8.765c0 18.168 14.728 32.896 32.896 32.896 18.168 0 32.896-14.728 32.896-32.896v-190.35h-174.09z" fill="#ff748f"/><path d="m313.682 400.489c24.165-1.868 47.99-7.656 71.038-17.283 29.334-12.253 55.841-30.099 78.784-53.042 8.874-8.874 16.964-18.297 24.266-28.154v-72.63h-174.088z" fill="#fd5f7e"/><path d="m503.917 148.314c-1.337-16.848-16.962-28.646-33.585-25.594-56.55 10.382-117.09-6.287-160.828-50.024l-73.811 29.658-29.659 73.811c43.737 43.737 60.406 104.277 50.025 160.827-3.052 16.624 8.746 32.249 25.595 33.585 55.802 4.426 115.422-16.413 160.636-61.626 45.222-45.222 66.055-104.838 61.627-160.637z" fill="#b2b0bc"/><path d="m362.185 203.777c-6.897-6.897-18.744-6.231-26.462 1.486-7.718 7.718-8.383 19.565-1.486 26.462s18.744 6.232 26.462-1.486 8.383-19.566 1.486-26.462z" fill="#423e4f"/><path d="m271.6 216.841c0-51.189 17.734-98.229 47.379-135.337-3.234-2.807-6.4-5.734-9.475-8.809l-73.811 29.658-29.659 73.811c43.737 43.737 60.406 104.277 50.025 160.827-3.052 16.624 8.746 32.249 25.595 33.585 10.296.817 20.723.767 31.165-.131-30.781-38.093-41.219-91.241-41.219-153.604z" fill="#a19dae"/><path d="m309.504 44.367-18.384-18.384c-7.823-7.823-20.506-7.823-28.329 0l-103.47 103.469c-32.856 32.856-36.77 85.447-36.406 112.164.149 10.908-3.89 21.474-11.393 29.395-68.633 72.458-93.902 133.61-103.05 171.923-5.228 21.893 11.257 42.943 33.765 42.943h42.489c19.176 0 34.675-15.541 34.738-34.718.22-67.219 27.13-114.903 48.455-142.166 13.832-17.682 21.733-39.353 22.507-61.789 1.304-37.787 15.608-71.039 15.608-71.039l103.47-103.469c7.823-7.824 7.823-20.507 0-28.329z" fill="#e8a882"/><path d="m87.92 297.448c-51.052 60.85-71.433 111.928-79.446 145.485-5.228 21.893 11.257 42.943 33.765 42.943h42.489c19.176 0 34.675-15.541 34.738-34.718.034-10.335.703-20.204 1.882-29.612-21.068-36.564-33.195-78.924-33.428-124.098z" fill="#e3986d"/></g><g><path d="m300.421 135.287-9.125 9.125c-2.929 2.929-2.929 7.678 0 10.606 2.929 2.929 7.678 2.929 10.606 0l9.125-9.125c2.929-2.929 2.929-7.678 0-10.606-2.928-2.929-7.677-2.929-10.606 0z"/><path d="m366.003 235.545c10.63-10.629 11.296-27.259 1.486-37.069-10.139-10.139-26.739-8.844-37.069 1.486-10.629 10.629-11.296 27.258-1.486 37.068 9.869 9.87 26.502 9.081 37.069-1.485zm-24.976-24.976c4.337-4.337 11.587-5.755 15.855-1.486 4.15 4.151 3.012 11.358-1.486 15.855-4.781 4.781-11.894 5.449-15.855 1.486-3.962-3.961-3.295-11.074 1.486-15.855z"/><path d="m421.553 274.67 9.125-9.125c2.929-2.929 2.929-7.678 0-10.606-2.929-2.929-7.678-2.929-10.606 0l-9.125 9.125c-2.929 2.929-2.929 7.678 0 10.606 2.929 2.929 7.678 2.929 10.606 0z"/><path d="m42.239 493.38h42.489c23.213 0 42.161-18.928 42.237-42.193.211-64.457 25.601-110.388 46.863-137.569 14.715-18.813 23.272-42.306 24.095-66.151.799-23.16 6.77-44.778 10.934-57.27 34.575 39.684 49.421 93.182 39.826 145.445-3.858 21.018 11.157 40.732 32.378 42.416 8.526.676 16.782.765 25.121.345v80.59c0 22.274 18.122 40.396 40.396 40.396s40.396-18.122 40.396-40.396v-48.024c0-7.583 6.169-13.752 13.752-13.752s13.753 6.169 13.753 13.752v8.765c0 22.274 18.122 40.396 40.396 40.396s40.396-18.122 40.396-40.396v-175.935c12.981-30.583 18.703-63.569 16.124-96.075-1.684-21.22-21.394-36.234-42.416-32.377-54.082 9.929-109.489-6.312-149.54-43.508 5.771-10.463 4.232-23.91-4.63-32.772l-18.384-18.384c-10.758-10.759-28.175-10.761-38.935 0l-103.47 103.47c-34.512 34.512-38.999 88.475-38.601 117.57.124 9.075-3.193 17.646-9.339 24.134-22.477 23.73-41.959 48.005-57.905 72.152-2.282 3.456-1.331 8.109 2.125 10.391 3.456 2.283 8.109 1.332 10.391-2.125 15.466-23.419 34.401-47.006 56.279-70.103 8.849-9.342 13.625-21.649 13.447-34.655-.85-62.273 21.069-93.617 34.209-106.758l103.47-103.47c4.886-4.886 12.836-4.886 17.722 0l18.384 18.384c4.898 4.898 4.898 12.824 0 17.722l-103.47 103.47c-.679.679-1.248 1.555-1.586 2.339-.607 1.411-14.877 34.993-16.214 73.744-.714 20.7-8.143 41.094-20.918 57.427-22.708 29.029-49.823 78.056-50.048 146.763-.049 15.021-12.268 27.242-27.237 27.242h-42.49c-8.377 0-16.156-3.769-21.342-10.339-5.224-6.618-7.093-15.133-5.128-23.362 5.653-23.676 15.707-48.499 29.883-73.78 2.026-3.613.739-8.184-2.874-10.21-3.613-2.025-8.184-.739-10.21 2.874-14.853 26.489-25.414 52.608-31.389 77.632-3.038 12.722-.142 25.894 7.944 36.139 8.049 10.198 20.12 16.046 33.116 16.046zm429.448-363.28c12.002-2.204 23.75 6.143 24.754 18.81 4.014 50.575-13.694 104.055-51.261 146.059-2.761 3.087-2.497 7.829.59 10.59 3.103 2.775 7.842 2.494 10.597-.584 8.534-9.54 16.922-20.684 23.903-32.029v146.787c0 14.003-11.393 25.396-25.396 25.396s-25.396-11.393-25.396-25.396v-8.765c0-15.854-12.898-28.752-28.753-28.752-15.854 0-28.752 12.898-28.752 28.752v48.024c0 14.003-11.393 25.396-25.396 25.396s-25.396-11.393-25.396-25.396v-81.879c43.14-5.346 81.982-23.903 113.448-50.864 2.841-2.433 3.406-6.527 1.505-9.615-2.466-4.013-7.824-4.727-11.266-1.78-38.811 33.238-90.471 52.387-142.622 48.25-12.658-1.004-21.016-12.744-18.812-24.755 10.753-58.574-6.746-118.594-46.9-162.075l93.077-93.074c43.687 40.343 103.763 57.604 162.076 46.9z"/></g></g></svg>