<svg id="Capa_1" enable-background="new 0 0 512 512" height="512" viewBox="0 0 512 512" width="512" xmlns="http://www.w3.org/2000/svg"><g><g><path d="m429.07 293.442c-8.261-19.564-31.007-28.492-50.371-19.772l-14.307 5.794-4.949 5.368-8.911.245-5.642 2.285h-165.275l-5.64-2.284h-7.045l-6.867-5.634-14.258-5.774c-19.363-8.72-42.109.208-50.371 19.772-7.991 18.922.583 40.763 19.311 49.198l14.153 6.023 8.758-.494 5.04 6.366 33.978 14.46-17.9 48.064-10.154 36.207c-7.279 19.207 2.102 40.713 21.133 48.443 19.675 7.992 42.072-1.778 49.598-21.636l4.597-12.13-.276-8.733 5.525-5.117 8.607-22.711c3.851-10.161 13.582-16.882 24.447-16.889 10.865.007 20.596 6.728 24.447 16.889l8.602 22.697 6.11 6.093-.858 7.766 4.599 12.135c7.526 19.858 29.923 29.628 49.598 21.636 19.03-7.73 28.412-29.236 21.133-48.443l-5.519-16.579-4.21-7.135-.553-7.17-11.399-34.243c-3.6-10.814 1.705-22.581 12.192-27.044l15.407-6.557-.025-.002 5.683-5.276 8.115-.596-.015.02 14.2-6.043c18.73-8.436 27.303-30.277 19.312-49.199z" fill="#f1c6ad"/><path d="m211.912 353.538c0-24.505 7.433-47.274 20.166-66.177h-52.463l-5.64-2.284h-7.045l-6.867-5.634-14.258-5.774c-19.363-8.72-42.109.208-50.371 19.772-7.991 18.922.583 40.763 19.311 49.198l14.153 6.023 8.758-.494 5.04 6.366 33.978 14.46-17.9 48.064-10.154 36.207c-7.279 19.207 2.102 40.713 21.133 48.443 19.675 7.992 42.072-1.778 49.598-21.636l4.597-12.13-.276-8.733 5.525-5.117 8.607-22.711c.326-.86.708-1.685 1.115-2.493-16.873-20.488-27.007-46.735-27.007-75.35z" fill="#edb798"/><circle cx="262.237" cy="167.769" fill="#f5d5c4" r="145.373"/><path d="m421.565 43.609c-7.004-7.004-18.361-7.004-25.365 0l-71.395 71.395c-7.005 7.005-7.005 18.361 0 25.366s18.361 7.004 25.365 0l71.395-71.395c7.005-7.004 7.005-18.361 0-25.366z" fill="#b2b0bc"/><path d="m198.466 366.75c-5.837-8.004-17.056-9.76-25.06-3.924l-81.58 59.492c-8.005 5.837-9.761 17.057-3.924 25.061s17.056 9.76 25.06 3.924l81.58-59.492c8.005-5.838 9.761-17.057 3.924-25.061z" fill="#b2b0bc"/><path d="m396.2 43.609-59.441 59.441c6.404 10.268 15.097 18.961 25.366 25.365l59.441-59.441c7.005-7.005 7.005-18.361 0-25.366-7.006-7.003-18.362-7.003-25.366.001z" fill="#a19dae"/><circle cx="403.757" cy="61.417" fill="#ff748f" r="53.917"/><path d="m112.962 451.302 67.957-49.557c-2.339-5.491-5.302-10.762-8.906-15.704s-7.717-9.374-12.231-13.28l-67.956 49.557c-8.005 5.837-9.761 17.057-3.924 25.061 5.837 8.003 17.057 9.759 25.06 3.923z" fill="#a19dae"/><ellipse cx="108.25" cy="432.54" fill="#ff748f" rx="53.917" ry="53.917" transform="matrix(.707 -.707 .707 .707 -274.146 203.233)"/><path d="m152.816 194.672c0-68.339 31.386-129.34 80.522-169.399-66.442 13.402-116.474 72.104-116.474 142.496 0 45.39 20.807 85.917 53.398 112.576-11.226-26.307-17.446-55.262-17.446-85.673z" fill="#f1c6ad"/><g><g><g><ellipse cx="179.584" cy="211.979" fill="#ff9db0" rx="30.497" ry="24.287"/></g><g><ellipse cx="344.89" cy="212.121" fill="#ff9db0" rx="30.497" ry="24.287"/></g></g></g><g fill="#fd5f7e"><path d="m377.269 85.334c0-30.897 13.918-58.538 35.821-77.012-3.033-.53-6.148-.822-9.333-.822-29.778 0-53.917 24.139-53.917 53.917 0 21.375 12.439 39.843 30.472 48.565-1.984-7.888-3.043-16.144-3.043-24.648z"/><path d="m89.77 449.028c0-29.711 20.359-54.664 47.887-61.678-6.187-4.031-13.297-6.863-21.066-8.079-29.419-4.606-57.002 15.509-61.608 44.928s15.509 57.002 44.928 61.608c.581.091 1.161.156 1.741.228-7.471-10.43-11.882-23.199-11.882-37.007z"/></g></g><g><path d="m197.394 168.782c-.002 0-.004 0-.006 0-4.139 0-7.497 3.354-7.5 7.494l-.009 12.172c-.003 4.142 3.352 7.503 7.494 7.506h.006c4.139 0 7.497-3.354 7.5-7.494l.009-12.172c.003-4.143-3.352-7.503-7.494-7.506z"/><path d="m327.148 168.909c-.002 0-.004 0-.006 0-4.139 0-7.497 3.354-7.5 7.494l-.009 12.172c-.003 4.142 3.352 7.503 7.494 7.506h.006c4.139 0 7.497-3.354 7.5-7.494l.009-12.172c.003-4.143-3.352-7.503-7.494-7.506z"/><path d="m300.702 203.878-4.32-.004v-3.577c0-4.142-3.358-7.5-7.5-7.5s-7.5 3.358-7.5 7.5v3.564l-11.648-.01v-3.554c0-4.142-3.358-7.5-7.5-7.5s-7.5 3.358-7.5 7.5v3.541l-11.648-.01v-3.531c0-4.142-3.358-7.5-7.5-7.5s-7.5 3.358-7.5 7.5v3.518l-4.276-.004c-.002 0-.004 0-.006 0-4.139 0-7.496 3.353-7.5 7.493-.003 4.142 3.351 7.503 7.493 7.506l4.288.004v3.643c0 4.142 3.358 7.5 7.5 7.5s7.5-3.358 7.5-7.5v-3.63l11.648.01v3.62c0 4.142 3.358 7.5 7.5 7.5s7.5-3.358 7.5-7.5v-3.607l11.648.01v3.597c0 4.142 3.358 7.5 7.5 7.5s7.5-3.358 7.5-7.5v-3.584l4.307.004h.006c4.139 0 7.496-3.353 7.5-7.493.005-4.142-3.35-7.503-7.492-7.506z"/><path d="m448.45 30.367c-3.694 1.874-5.168 6.388-3.294 10.082 3.324 6.551 5.01 13.604 5.01 20.967 0 25.593-20.822 46.415-46.415 46.415-25.571 0-46.415-20.765-46.415-46.415 0-25.578 20.825-46.415 46.415-46.415 8.452 0 16.725 2.295 23.926 6.637 3.548 2.141 8.156.998 10.295-2.549s.998-8.156-2.549-10.295c-9.539-5.754-20.49-8.794-31.672-8.794-26.338 0-48.85 16.668-57.558 40.008-24.928-16.459-53.73-25.112-83.957-25.112-84.291 0-152.867 68.576-152.867 152.867 0 31.633 9.581 61.986 27.706 87.78 2.304 3.278 4.728 6.447 7.256 9.513-21.916-7.202-46.461 3.342-55.801 25.458-9.577 22.68.679 48.837 23.14 58.951.047.021.095.042.143.063 9.499 4.042 36.183 15.399 42.363 18.028l-15.726 11.469c-37.271-21.012-84.251 1.724-90.87 43.999-5.238 33.457 17.719 64.938 51.175 70.176 15.261 2.39 30.511-.955 43.297-9.403 4.547 11.14 13.401 20.179 24.882 24.843 23.599 9.586 50.405-2.111 59.431-25.927l18.452-48.688c2.729-7.201 9.737-12.043 17.429-12.047 7.701.004 14.708 4.846 17.438 12.046l18.452 48.689c8.884 23.44 35.489 35.653 59.431 25.927 22.737-9.235 34.012-34.88 25.38-57.896l-21.634-64.988c-2.349-7.055 1.171-14.862 8.013-17.773l43.362-18.454c.048-.02.095-.041.143-.063 22.449-10.109 32.723-36.258 23.14-58.951-9.417-22.299-34.15-32.662-55.955-25.41 21.904-26.458 35.085-60.388 35.085-97.34 0-15.431-2.278-30.561-6.777-45.122 31.734-2.35 56.841-28.903 56.841-61.226 0-9.743-2.232-19.081-6.634-27.754-1.873-3.696-6.387-5.171-10.081-3.296zm-118.346 89.936 23.474-23.473c4.044 5.714 9.045 10.714 14.758 14.758l-23.475 23.474c-4.077 4.078-10.678 4.079-14.757 0-4.078-4.078-4.08-10.679 0-14.759zm-227.756 176.046c6.63-15.7 24.843-22.847 40.38-15.851.087.04.176.077.265.113l13.99 5.666-4.144 9.202-2.117-.953c-3.778-1.703-8.217-.018-9.918 3.759s-.018 8.217 3.759 9.918l2.117.953-4.609 10.236-1.436-.646c-3.776-1.701-8.217-.019-9.918 3.759-1.701 3.777-.018 8.217 3.759 9.918l1.436.646-3.936 8.74-14.216-6.05c-14.841-6.73-21.754-24.391-15.412-39.41zm48.656 92.083 26.822-19.56c4.936-3.599 11.987-2.217 15.151 3.15 2.681 4.551 1.541 10.508-2.853 13.714l-26.822 19.56c-3.07-6.24-7.446-12.168-12.298-16.864zm-49.929 89.948c-25.285-3.959-42.636-27.751-38.677-53.037 3.58-22.864 23.376-39.24 45.829-39.24 28.741 0 50.24 25.769 45.884 53.6-3.988 25.467-27.804 42.629-53.036 38.677zm111.265-.984c-6.04 15.935-23.975 23.759-39.761 17.346-9.344-3.795-16.098-11.919-18.212-21.649 7.287-8.251 12.34-18.471 14.35-29.846l24.55 11.056-.646 1.435c-1.701 3.777-.018 8.217 3.759 9.918 3.791 1.708 8.224.004 9.918-3.759l.646-1.435 10.092 4.545zm139.584 17.346c-15.789 6.413-33.723-1.412-39.761-17.345l-4.7-12.401 10.066-4.533.646 1.435c1.695 3.765 6.13 5.465 9.918 3.759 3.777-1.701 5.46-6.141 3.759-9.918l-.646-1.435 10.236-4.61.953 2.117c1.695 3.765 6.13 5.465 9.918 3.759 3.777-1.701 5.46-6.141 3.759-9.918l-.953-2.117 8.369-3.769 5.277 15.851c.032.097.067.194.103.289 5.783 15.269-1.816 32.691-16.944 38.836zm70.23-198.394c6.343 15.02-.573 32.683-15.416 39.41l-14.238 6.06-3.941-8.751 1.436-.646c3.777-1.701 5.46-6.141 3.759-9.918-1.7-3.777-6.141-5.46-9.918-3.759l-1.435.646-4.609-10.236 2.117-.953c3.777-1.701 5.46-6.141 3.759-9.918s-6.141-5.46-9.918-3.759l-2.117.953-4.139-9.191 14.017-5.677c18.219-7.406 34.641 1.526 40.643 15.739zm-159.918 9.282c-7.472 0-15.037-.62-22.485-1.842-4.087-.673-7.945 2.099-8.615 6.186-.084.512-.114 1.021-.094 1.521.135 3.487 2.704 6.516 6.282 7.103 8.226 1.349 16.607 2.032 24.912 2.032 31.917 0 61.731-9.871 86.226-26.635l5.118-2.073 4.375 9.716-.661.298c-3.777 1.701-5.46 6.141-3.759 9.918 1.695 3.765 6.13 5.465 9.918 3.759l.661-.298 4.61 10.236-1.342.604c-3.777 1.701-5.46 6.141-3.759 9.918 1.695 3.765 6.13 5.465 9.918 3.759l1.342-.604 3.813 8.466-15.242 6.487c-13.978 5.949-21.17 21.899-16.371 36.313l11.641 34.969-9.766 4.398-.298-.661c-1.7-3.777-6.141-5.46-9.918-3.759s-5.46 6.141-3.759 9.918l.298.661-10.236 4.61-.604-1.342c-1.7-3.777-6.141-5.46-9.918-3.759s-5.46 6.141-3.759 9.918l.604 1.342-9.232 4.158-8.427-22.236c-4.923-12.989-17.564-21.722-31.464-21.73-13.891.008-26.531 8.741-31.454 21.731l-8.432 22.248-9.258-4.17.604-1.342c1.701-3.777.018-8.217-3.759-9.918-3.776-1.702-8.217-.019-9.918 3.759l-.604 1.342-29.974-13.499c-.204-2.358-.554-4.694-1.029-7.002l30.539-22.271c11.263-8.214 13.912-24.094 5.565-35.538-8.275-11.348-24.221-13.818-35.538-5.565l-.698.509-22.511-9.58 3.808-8.456 1.342.604c3.791 1.707 8.223.004 9.918-3.759 1.701-3.777.018-8.217-3.759-9.918l-1.342-.604 4.61-10.236.66.297c3.783 1.705 8.22.01 9.918-3.759 1.701-3.777.018-8.217-3.759-9.918l-.66-.297 4.38-9.727 5.038 2.04c10.161 6.952 21.347 12.697 32.08 16.77 3.392 1.288 7.135-.048 8.999-3 .269-.424.5-.88.685-1.368 1.47-3.872-.478-8.203-4.349-9.673-10.47-3.974-20.407-9.197-29.536-15.523-.029-.02-.061-.036-.09-.055-13.278-9.203-24.911-20.713-34.377-34.183-16.341-23.255-24.979-50.626-24.979-79.156 0-76.02 61.847-137.867 137.867-137.867 29.162 0 56.857 8.922 80.369 25.846-.888 9.391.494 18.914 3.621 27.228l-26.728 26.727c-9.958 9.958-9.922 26.05 0 35.972 9.94 9.94 26.029 9.942 35.97 0l26.731-26.731c3.091 1.16 6.904 2.216 10.034 2.809 5.223 14.745 7.869 30.204 7.869 46.016.005 75.18-60.967 137.866-137.862 137.866z"/></g></g></svg>