<svg id="Capa_1" enable-background="new 0 0 512 512" height="512" viewBox="0 0 512 512" width="512" xmlns="http://www.w3.org/2000/svg"><g><g><path d="m286.396 445.207 30.396 15.707h21.722c12.036 0 21.793 9.757 21.793 21.793 0 12.036-9.757 21.793-21.793 21.793h-60.902c-11.937 0-21.613-9.676-21.613-21.613v-21.973z" fill="#fd5f7e"/><path d="m256 396.986-9.82 34.491 9.82 29.437h60.793v-63.928z" fill="#b08bd7"/><path d="m225.604 445.207-30.396 15.707h-21.722c-12.036 0-21.793 9.757-21.793 21.793 0 12.036 9.757 21.793 21.793 21.793h60.902c11.937 0 21.613-9.676 21.613-21.613v-21.973z" fill="#ff748f"/><path d="m195.207 396.986h60.793v63.929h-60.793z" fill="#bc9bdd"/><path d="m418.601 144.951c-.12-.12-.242-.239-.363-.358l-.069-.068c9.193-32.828-10.434-66.789-43.467-75.214l-.016-.004-.427-1.683c-8.43-33.211-42.086-52.021-74.79-41.801h-.001l-.068-.069c-23.814-24.34-62.985-24.34-86.799 0l-.068.069c-32.479-10.826-65.997 7.452-74.485 40.62l-.733 2.863c-32.382 8.22-52.018 41.081-43.915 73.492l.432 1.726-.069.068c-.122.119-.243.239-.363.358-15.911 15.828-4.452 43.041 17.991 43.041h289.219c22.442.002 33.901-27.212 17.991-43.04z" fill="#bc9bdd"/><circle cx="393.532" cy="203.295" fill="#e0e0e0" r="34.733"/><path d="m147.472 165.236c0-73.223 23.939-116.524 54.168-141.951-28.766-3.995-56.053 13.699-63.592 43.159l-.733 2.863c-32.382 8.22-52.018 41.081-43.915 73.492l.432 1.726-.069.068c-.122.119-.243.238-.363.358-15.911 15.828-4.452 43.041 17.991 43.041h37.545c-.963-7.449-1.464-15.044-1.464-22.756z" fill="#b08bd7"/><path d="m360.309 110.502c-20.678-25.787-57.783-31.83-85.143-13.284-.278.188-.555.379-.833.571-11.032 7.665-25.634 7.665-36.667 0-.279-.194-.557-.385-.836-.573-27.52-18.652-64.752-12.336-85.453 13.678-18.059 22.694-28.886 51.395-29.001 82.629-.27 73.29 59.316 133.576 132.605 134.123 74.267.554 134.643-59.482 134.643-133.62 0-31.609-10.971-60.647-29.315-83.524z" fill="#e8e8e8"/><circle cx="256" cy="191.901" fill="#ff748f" r="29.327"/><path d="m147.472 165.236c0-21.205 2.013-39.892 5.6-56.37-.574.664-1.143 1.336-1.694 2.028-13.254 16.656-22.606 36.55-26.693 58.303-1.894-.412-3.958-.635-6.217-.635-19.182 0-34.733 15.55-34.733 34.732s15.55 34.733 34.733 34.733c4.182 0 7.716-.74 10.686-2.095 17.571 52.785 67.333 91.277 125.827 91.713.292.002.582-.005.874-.005-63.633-26.448-108.383-89.197-108.383-162.404z" fill="#e0e0e0"/><g><g><g><ellipse cx="173.092" cy="214.412" fill="#ff9db0" rx="30.591" ry="24.361"/></g><g><ellipse cx="338.908" cy="214.412" fill="#ff9db0" rx="30.591" ry="24.361"/></g></g></g><path d="m316.793 440.559v-43.574h-60.793l-9.82 34.491 3.655 10.955h51.196c5.427.001 10.701-.659 15.762-1.872z" fill="#a47cd1"/><path d="m195.207 440.559c5.061 1.212 10.335 1.872 15.763 1.872h45.03v-45.446h-60.793z" fill="#b08bd7"/><path d="m328.82 281.212-3.879-2.775c-8.272-5.918-19.353-5.838-27.646.05-8.238 5.849-19.284 5.832-27.506-.05-8.246-5.899-19.331-5.899-27.576 0-8.222 5.882-19.268 5.899-27.506.05-8.293-5.888-19.375-5.968-27.646-.05l-3.879 2.775c-6.219 4.449-9.909 11.626-9.909 19.273v74.248c0 20.82 16.878 37.698 37.698 37.698h90.061c20.82 0 37.698-16.878 37.698-37.698v-74.248c-.001-7.647-3.691-14.824-9.91-19.273z" fill="#ffa875"/><path d="m207.673 330.546c0-17.863 4.993-34.559 13.658-48.771-2.325-.729-4.563-1.825-6.624-3.289-8.293-5.888-19.375-5.968-27.646-.05l-3.879 2.775c-6.219 4.449-9.909 11.626-9.909 19.273v74.248c0 20.82 16.878 37.699 37.698 37.699h44.703c-28.642-16.063-48.001-46.71-48.001-81.885z" fill="#ff995d"/><path d="m173.269 300.463 24.973 29.018-24.973 29.019h-24.616c-15.973 0-29.013-12.954-29.013-29.013 0-16.026 12.987-29.023 29.013-29.023h24.616z" fill="#8bdf9e"/><path d="m336.694 300.463-24.973 29.018 24.973 29.018h24.616c15.973 0 29.013-12.954 29.013-29.013 0-16.026-12.987-29.023-29.013-29.023z" fill="#8bdf9e"/><g fill="#e8e8e8"><path d="m223.214 329.487c0 16.016-12.987 29.013-29.013 29.013h-20.932v-58.037h20.932c16.066 0 29.013 13.027 29.013 29.024z"/><path d="m286.748 329.487c0 16.016 12.987 29.013 29.013 29.013h20.932v-58.037h-20.932c-16.065 0-29.013 13.027-29.013 29.024z"/></g></g><g><path d="m292.827 191.901c0-20.307-16.521-36.828-36.827-36.828s-36.828 16.521-36.828 36.828 16.521 36.827 36.828 36.827 36.827-16.52 36.827-36.827zm-36.827 21.828c-12.036 0-21.828-9.792-21.828-21.827s9.792-21.828 21.828-21.828 21.827 9.792 21.827 21.828-9.791 21.827-21.827 21.827z"/><path d="m183.421 190.109c0 4.142 3.358 7.5 7.5 7.5s7.5-3.358 7.5-7.5v-9.623l2.879.771c3.998 1.069 8.112-1.298 9.186-5.304 1.072-4.001-1.303-8.113-5.304-9.186l-25.079-6.72c-3.995-1.068-8.113 1.302-9.186 5.304-1.072 4.001 1.303 8.113 5.304 9.186l7.709 2.066c-.325.84-.51 1.749-.51 2.703v10.803z"/><path d="m341.082 165.353c-1.072-4.001-5.188-6.373-9.186-5.304l-25.079 6.72c-4.001 1.072-6.375 5.185-5.304 9.186 1.073 4.003 5.184 6.374 9.186 5.304l2.879-.771v9.623c0 4.142 3.358 7.5 7.5 7.5s7.5-3.358 7.5-7.5v-10.803c0-.954-.185-1.863-.51-2.703l7.709-2.066c4.002-1.073 6.377-5.185 5.305-9.186z"/><path d="m267.503 236.476c-2.904 3.333-7.097 5.244-11.503 5.244s-8.599-1.911-11.503-5.244c-2.722-3.122-7.459-3.447-10.582-.727-3.123 2.722-3.448 7.459-.727 10.582 5.754 6.602 14.068 10.389 22.812 10.389s17.058-3.787 22.812-10.389c2.721-3.123 2.396-7.86-.727-10.582-3.123-2.72-7.86-2.395-10.582.727z"/><path d="m173.485 453.415c-16.152 0-29.292 13.141-29.292 29.292 0 16.152 13.141 29.293 29.292 29.293h60.902c8.567 0 16.281-3.722 21.613-9.631 5.332 5.91 13.045 9.631 21.613 9.631h60.902c16.152 0 29.293-13.141 29.293-29.293s-13.141-29.292-29.293-29.292h-14.222v-39.946c13.133-7.916 21.936-22.316 21.936-38.736v-8.733h15.081c20.134 0 36.514-16.38 36.514-36.514 0-20.139-16.38-36.523-36.514-36.523h-4.711c3.275-3.331 6.398-6.815 9.332-10.456 2.599-3.225 2.092-7.946-1.133-10.546-3.225-2.599-7.947-2.092-10.546 1.133-3.612 4.481-7.527 8.715-11.705 12.661-3.91-7.309-8.788-10.209-13.243-13.418-10.849-7.763-25.457-7.702-36.352.034-5.706 4.051-13.265 3.925-18.8-.035-10.883-7.782-25.469-7.752-36.304 0-5.615 4.017-13.17 4.031-18.8.034-10.927-7.759-25.536-7.772-36.352-.034-4.804 3.46-9.345 6.222-13.169 13.293-44.305-41.731-51.809-107.817-20.881-157.832 2.183-3.53 1.082-8.149-2.436-10.325-3.231-1.998-7.868-1.547-10.623 2.942-7.93 12.948-13.537 26.838-16.834 40.648-8.779-.082-17.315 2.704-24.214 7.441-4.12-11.565 4.422-18.391 4.539-18.619 3.788-3.708 1.626-8.273 1.599-8.905-7.082-28.328 10.182-57.22 38.484-64.404 5.606-1.423 5.652-7.184 6.153-8.273 3.583-14.002 12.31-25.396 24.571-32.083 12.26-6.687 26.564-7.853 40.276-3.282 2.713.903 5.705.187 7.712-1.85.007-.007.082-.083.088-.09 10.096-10.315 23.604-15.997 38.039-15.997s27.943 5.682 38.038 16c.019.02.107.108.126.127 1.973 1.973 4.877 2.688 7.54 1.855 13.833-4.322 28.251-2.9 40.603 4.002 21.271 11.889 24.787 33.482 25.108 34.168.676 2.663 2.77 4.747 5.432 5.426 14.003 3.571 25.698 12.429 32.929 24.941 7.23 12.512 9.066 27.066 5.169 40.982-.736 2.628.014 5.448 1.957 7.363 5.708 5.708 6.796 12.353 4.558 18.639-7.041-4.836-15.486-7.485-24.219-7.441-3.362-14.009-9.05-28.061-17.278-41.355-13.327-21.526-29.844-35.975-54.55-39.88-17.62-2.787-35.818 1.003-51.36 11.802-8.451 5.871-19.749 5.809-28.101.005-13.214-9.212-28.437-13.439-44.168-12.541-14.941.852-29.59 6.536-41.247 16.007-3.215 2.612-3.704 7.335-1.092 10.55s7.336 3.704 10.55 1.092c19.257-15.645 46.296-17.494 67.392-2.795 13.186 9.16 31.509 9.53 45.229-.002 24.61-17.141 57.798-11.256 75.842 11.248 30.638 38.209 36.183 90.679 14.894 134.18-1.821 3.72-.281 8.212 3.439 10.033 3.696 1.81 8.201.304 10.033-3.439 1.749-3.574 3.337-7.198 4.767-10.867 25.544 3.627 48.173-16.298 48.173-41.806 0-8.701-2.647-16.795-7.175-23.522 6.474-10.791 7.18-25.753-2.179-37.346 3.573-16.566.91-33.605-7.647-48.413-8.513-14.731-21.852-25.51-37.917-30.727-4.967-16.952-15.978-30.877-31.221-39.396-14.686-8.208-31.588-10.443-48.046-6.435-12.531-11.288-28.553-17.455-45.579-17.455-.001 0 0 0 0 0-16.975 0-32.956 6.133-45.507 17.396-16.346-4.285-33.153-2.326-47.791 5.656-15.577 8.495-26.75 22.75-31.578 40.242-32.978 10.726-52.859 44.981-45.516 79.109-9.378 11.598-8.676 26.572-2.198 37.37-4.528 6.727-7.175 14.821-7.175 23.522 0 25.52 22.651 45.451 48.205 41.801 6.919 17.756 17.456 34.029 31.144 47.868h-6.931c-20.133 0-36.513 16.384-36.513 36.523 0 20.134 16.38 36.514 36.513 36.514h17.119v8.733c0 16.42 8.803 30.82 21.936 38.736v39.946h-14.223zm218.884-222.913c4.721-17.646 5.906-36.331 3.63-54.32 14.006 1.284 24.765 13.044 24.765 27.112.001 15.538-13.013 27.878-28.395 27.208zm-157.982 266.498h-60.902c-7.881 0-14.292-6.412-14.292-14.293s6.412-14.292 14.292-14.292h75.015v14.472c0 7.782-6.331 14.113-14.113 14.113zm118.421-14.293c0 7.881-6.412 14.293-14.293 14.293h-60.902c-7.782 0-14.113-6.331-14.113-14.113v-14.472h75.015c7.881 0 14.293 6.411 14.293 14.292zm-43.515-63.529v34.237h-45.793v-33.483h37.531c2.802-.001 5.817-.301 8.262-.754zm-15.045-89.691c0-11.797 9.588-21.523 21.514-21.523h13.432v43.036h-13.432c-11.863 0-21.514-9.65-21.514-21.513zm88.575-.001c0 11.863-9.651 21.514-21.514 21.514h-17.116v-43.037h17.116c11.863 0 21.514 9.656 21.514 21.523zm-167.109.001c0 11.862-9.651 21.513-21.513 21.513h-13.432v-43.037h13.432c11.917 0 21.513 9.71 21.513 21.524zm-124.479-126.192c0-13.986 10.671-25.813 24.766-27.112-2.247 17.74-1.151 36.333 3.662 54.318-15.54.676-28.428-11.783-28.428-27.206zm35.905 126.191c0-11.868 9.651-21.523 21.513-21.523h17.116v43.037h-17.116c-11.862 0-21.513-9.651-21.513-21.514zm53.631 36.514h13.43c20.065 0 36.513-16.313 36.513-36.513 0-14.812-8.936-27.978-22.314-33.648-9.964-4.223-17.194-2.465-25.759-2.875 2.225-4.233 4.873-5.593 8.782-8.427 5.616-4.016 13.227-3.991 18.941.065 10.843 7.699 25.395 7.673 36.211-.065 5.637-4.032 13.212-4.032 18.849 0 10.702 7.656 25.257 7.844 36.211.065 5.714-4.057 13.325-4.083 18.941-.065 2.564 2.078 6.222 3.564 8.788 8.427-11.232.491-21.579-2.16-34.005 6.246-9.714 6.57-16.113 17.69-16.113 30.277 0 20.186 16.43 36.513 36.514 36.513h15.467v8.733c0 16.552-13.457 30.198-30.198 30.198-10.932 0-79.092 0-90.061 0-16.546 0-30.198-13.471-30.198-30.198v-8.733zm21.937 53.178c2.503.463 5.473.753 8.262.753h37.53v33.483h-45.792z"/></g></g></svg>