<svg id="Capa_1" enable-background="new 0 0 512 512" height="512" viewBox="0 0 512 512" width="512" xmlns="http://www.w3.org/2000/svg"><g><g><path d="m256 416.185-11.322 32.357 11.322 23.542c0 17.903 14.513 32.416 32.416 32.416 17.903 0 32.416-14.513 32.416-32.416v-55.898h-64.832z" fill="#ffcabd"/><path d="m191.168 416.185v55.898c0 17.903 14.513 32.416 32.416 32.416 17.903 0 32.416-14.513 32.416-32.416v-55.898z" fill="#ffdcce"/><path d="m256.51 7.501c-99.592-.278-180.704 80.664-180.704 180.193v101.1c0 37.976 30.786 68.762 68.762 68.762h222.862c37.976 0 68.762-30.786 68.762-68.762v-99.357c.002-99.603-80.078-181.659-179.682-181.936z" fill="#5c586f"/><path d="m217.295 316.614c-42.956-33.785-70.544-86.23-70.544-145.121 0-71.179 40.309-132.936 99.34-163.713-94.768 5.163-170.285 83.88-170.285 179.914v101.1c0 37.976 30.786 68.762 68.762 68.762h72.726v-40.942z" fill="#4f4c5f"/><path d="m380.211 389.157-14.279-68.671-109.932-23.296-109.931 23.296-14.279 68.671c-6.12 25.051 12.85 49.214 38.638 49.214h171.144c25.789.001 44.759-24.162 38.639-49.214z" fill="#e8e8e8"/><path d="m376.853 194.641c-.076-.075-.152-.151-.228-.226-13.281-13.107-30.744-21.89-46.909-30.028-20.909-10.522-40.44-25.369-54.752-44.033-9.594-12.511-28.336-12.511-37.929 0-14.312 18.664-33.843 33.511-54.752 44.033-16.164 8.138-33.627 16.921-46.909 30.028-.076.075-.152.151-.228.226-12.928 12.869-15.907 32.794-7.538 49.002 23.996 46.47 72.486 78.237 128.391 78.237s104.395-31.767 128.391-78.237c8.371-16.208 5.391-36.133-7.537-49.002z" fill="#ffdcce"/><path d="m256 204.597c9.551 0 18.057 6.483 23.407-4.577 5.427-11.219-6.727-27.867-23.407-27.867s-28.834 16.648-23.407 27.867c5.35 11.06 13.856 4.577 23.407 4.577z" fill="#423e4f"/><path d="m263.614 199.846c-4.88-1.994-10.348-1.994-15.228 0-3.232 1.32-5.343 4.464-5.343 7.955v13.891c0 7.156 5.801 12.957 12.957 12.957 7.156 0 12.958-5.801 12.958-12.957v-13.891c0-3.49-2.112-6.634-5.344-7.955z" fill="#ff748f"/><path d="m147.212 184.488c-4.185 3.034-8.174 6.312-11.837 9.927-.076.075-.152.151-.228.226-12.928 12.869-15.907 32.794-7.538 49.002 18.24 35.324 50.641 62.134 89.686 72.972-39.769-31.279-66.355-78.554-70.083-132.127z" fill="#ffcabd"/><path d="m201.989 363.018c0-20.059 3.917-39.201 11.011-56.716l-66.931 14.184-14.279 68.671c-6.12 25.051 12.85 49.214 38.638 49.214h51.654c-12.781-22.182-20.093-47.913-20.093-75.353z" fill="#e0e0e0"/><path d="m326.43 266.491-3.752-2.684c-8-5.724-18.718-5.647-26.739.048-7.968 5.657-18.651 5.641-26.603-.048-7.975-5.705-18.696-5.705-26.671 0-7.952 5.689-18.635 5.705-26.603.048-8.021-5.695-18.739-5.772-26.739-.048l-3.752 2.684c-6.015 4.303-9.583 11.244-9.583 18.64v72.122c0 20.137 16.324 36.461 36.461 36.461h87.105c20.137 0 36.461-16.324 36.461-36.461v-72.122c-.001-7.396-3.57-14.337-9.585-18.64z" fill="#e8a882"/><path d="m217.295 303.779c0-12.773 2.091-25.058 5.946-36.533-2.524-.695-4.959-1.815-7.18-3.391-8.021-5.695-18.739-5.772-26.739-.048l-3.752 2.684c-6.015 4.303-9.583 11.244-9.583 18.64v72.122c0 20.137 16.324 36.461 36.461 36.461h48.387c-26.522-21-43.54-53.479-43.54-89.935z" fill="#e3986d"/><path d="m177.329 274.89h-23.261c-15.498 0-28.063 12.564-28.063 28.063 0 15.498 12.564 28.063 28.063 28.063h23.261c15.499 0 28.063-12.564 28.063-28.063 0-15.499-12.565-28.063-28.063-28.063z" fill="#ffdcce"/><path d="m334.672 274.89h23.261c15.499 0 28.063 12.564 28.063 28.063 0 15.498-12.564 28.063-28.063 28.063h-23.261c-15.499 0-28.063-12.564-28.063-28.063 0-15.499 12.564-28.063 28.063-28.063z" fill="#ffcabd"/></g><g><path d="m235.543 212.885v8.808c0 11.28 9.177 20.458 20.458 20.458s20.457-9.177 20.457-20.458v-8.804c4.111-1.552 7.36-4.762 9.701-9.603 3.354-6.934 2.53-15.581-2.205-23.131-5.996-9.562-16.707-15.501-27.953-15.501s-21.957 5.939-27.953 15.501c-4.735 7.551-5.56 16.198-2.206 23.132 2.341 4.84 5.59 8.045 9.701 9.598zm25.914 8.808c0 3.009-2.448 5.458-5.457 5.458s-5.458-2.448-5.458-5.458v-13.892c0-.381.259-.84.679-1.012 1.541-.629 3.159-.944 4.778-.944 1.618 0 3.237.315 4.777.944.409.167.68.615.68 1.012v13.892zm-20.702-33.569c2.451-3.908 7.914-8.471 15.245-8.471s12.794 4.563 15.245 8.471c1.762 2.81 2.704 6.101 1.205 9.044-1.686-1.912-3.835-3.381-6-4.265-6.738-2.753-14.161-2.753-20.901 0-2.11.862-4.279 2.313-5.999 4.265-1.505-2.933-.552-6.242 1.205-9.044z"/><path d="m75.806 228.032c4.142 0 7.5-3.358 7.5-7.5v-32.839c0-46.142 18.045-89.549 50.812-122.225 32.649-32.557 75.913-50.468 121.878-50.468h.493c40.755.113 80.296 14.902 111.338 41.644 3.138 2.702 7.874 2.351 10.577-.788 2.704-3.138 2.351-7.874-.787-10.578-33.752-29.074-76.754-45.154-121.086-45.278-.181 0-.355 0-.536 0-49.96 0-96.99 19.467-132.469 54.847-35.609 35.51-55.22 82.689-55.22 132.846v32.839c0 4.142 3.358 7.5 7.5 7.5z"/><path d="m423.566 340.406c12.979-14.103 20.128-32.433 20.128-51.612v-99.356c0-44.473-15.686-87.764-44.168-121.899-2.654-3.181-7.384-3.606-10.563-.954-3.181 2.654-3.607 7.383-.954 10.564 26.236 31.443 40.686 71.322 40.686 112.289v99.356c0 15.406-5.741 30.128-16.165 41.455-8.85 9.616-20.4 16.083-33.038 18.605l-3.211-15.441c10.52-6.324 17.216-17.921 17.216-30.46 0-13.403-7.455-25.094-18.434-31.154 6.12-7.712 11.486-15.985 15.994-24.715 9.973-19.314 6.392-42.525-8.899-57.746l-.263-.261c-14.102-13.917-32.497-23.179-48.806-31.39-21.354-10.747-39.394-25.234-52.172-41.898-12.588-16.416-37.229-16.436-49.833 0-12.777 16.663-30.818 31.151-52.249 41.937-16.231 8.172-34.626 17.434-48.729 31.351l-.25.249c-15.303 15.233-18.884 38.445-8.91 57.759 4.508 8.73 9.874 17.002 15.994 24.715-10.979 6.06-18.434 17.751-18.434 31.154 0 12.804 6.86 24.182 17.216 30.46-.057.273-3.188 15.33-3.211 15.441-12.639-2.522-24.188-8.989-33.038-18.605-10.425-11.326-16.166-26.048-16.166-41.455v-38.355c0-4.142-3.358-7.5-7.5-7.5s-7.5 3.358-7.5 7.5v38.355c0 19.18 7.148 37.51 20.128 51.613 10.987 11.938 25.33 19.958 41.025 23.115l-4.988 23.987c-7.174 29.728 15.337 58.362 45.956 58.362h13.24v26.212c0 22.01 17.906 39.917 39.916 39.917 13.34 0 25.165-6.585 32.417-16.668 7.251 10.082 19.075 16.667 32.416 16.667 22.01 0 39.916-17.906 39.916-39.917v-26.212h13.24c30.581 0 53.139-28.598 45.956-58.361l-4.988-23.988c15.694-3.157 30.038-11.178 41.025-23.116zm-65.633-16.891c-3.689 0-18.08 0-23.261 0-11.338 0-20.563-9.224-20.563-20.563 0-.043.006-.085.006-.129.066-11.271 9.256-20.434 20.556-20.434h23.261c11.234 0 20.563 9.151 20.563 20.563 0 11.194-9.155 20.563-20.562 20.563zm-58.381 62.698h-87.104c-15.969 0-28.961-12.992-28.961-28.961v-19.271c16.517-2.901 29.405-17.362 29.405-35.029 0-13.686-7.841-26.32-20.39-32.199l1.185-.848c5.346-3.824 12.593-3.799 18.033.064 10.584 7.515 24.775 7.474 35.31-.064 5.386-3.852 12.599-3.826 17.943 0 10.481 7.497 24.673 7.618 35.309.063 5.444-3.865 12.691-3.886 18.034-.063l1.185.847c-12.423 5.819-20.391 18.368-20.391 32.199 0 .03.002.059.002.089.046 17.453 12.739 32.02 29.402 34.939v19.271c-.001 15.969-12.99 28.963-28.962 28.963zm-145.486-62.698c-11.367 0-20.551-9.307-20.56-20.541 0-.007-.001-.014-.001-.021 0-11.428 9.35-20.563 20.563-20.563h23.261c11.381 0 20.563 9.271 20.563 20.563 0 11.338-9.224 20.563-20.563 20.563-2.725 0-17.467 0-23.261 0-.001-.001-.001-.001-.002-.001zm-1.284-56.101c-7.251-8.313-13.468-17.452-18.509-27.212-6.85-13.264-4.314-29.813 6.177-40.257l.193-.192c12.419-12.257 28.95-20.58 45.012-28.667 23.361-11.757 43.187-27.722 57.332-46.168 6.59-8.593 19.429-8.604 26.026 0 14.146 18.447 33.971 34.412 57.407 46.207 15.986 8.049 32.517 16.372 44.936 28.628l.206.205c10.479 10.431 13.015 26.981 6.166 40.245-5.041 9.761-11.258 18.899-18.509 27.212-.429-.016-.858-.023-1.286-.023h-20.138c-3.328-4.665-6.563-6.647-10.753-9.684-10.546-7.545-24.791-7.532-35.445.033-5.358 3.805-12.551 3.791-17.897-.033-10.587-7.575-24.813-7.574-35.398 0-5.343 3.824-12.547 3.832-17.898.033-10.34-7.341-24.67-7.741-35.445-.033-2.228 1.756-6.762 4.13-10.753 9.684h-20.137c-.19 0-.597-.004-1.287.022zm70.802 229.586c-13.739 0-24.916-11.178-24.916-24.917v-26.212h49.832v26.212c0 13.739-11.177 24.917-24.916 24.917zm89.749-24.917c0 13.739-11.177 24.917-24.917 24.917-13.739 0-24.916-11.178-24.916-24.917v-26.212h49.833zm28.24-41.212c-22.836 0-154.404 0-171.145 0-20.913 0-36.324-19.588-31.353-39.934.021-.084.04-.168.058-.253l10.895-52.396c1.407.156 2.832.228 4.04.228h14.419v18.737c0 24.24 19.721 43.961 43.961 43.961h87.104c24.24 0 43.961-19.721 43.961-43.961v-18.737c13.924-.018 15.609.1 18.459-.228l10.895 52.396c.018.084.037.169.058.253 4.964 20.316-10.407 39.934-31.352 39.934z"/></g></g></svg>