<svg id="Capa_1" enable-background="new 0 0 512 512" height="512" viewBox="0 0 512 512" width="512" xmlns="http://www.w3.org/2000/svg"><g><g><path d="m336.022 363.973v79.717l-40.011 30.405-40.011-30.405-17.337-34.607 17.337-45.11z" fill="#ff995d"/><path d="m336.022 443.69v20.799c0 11.04-4.475 21.051-11.723 28.288-7.238 7.248-17.238 11.723-28.288 11.723-22.101 0-40.011-17.92-40.011-40.011v-20.799z" fill="#4f4c5f"/><path d="m256 363.973v79.717l-40.011 30.405-40.011-30.405v-79.717z" fill="#ffa875"/><path d="m187.466 363.973h-11.488v79.718l40.011 30.405 1.556-1.182c-14.388-26.575-25.224-62.059-30.079-108.941z" fill="#ff995d"/><path d="m409.317 330.615-17.625-72.143-135.692-41.375-135.691 41.375-17.625 72.143c-7.555 30.922 15.861 60.747 47.692 60.747h211.249c31.831-.001 55.246-29.826 47.692-60.747z" fill="#5c586f"/><path d="m184.646 306.022c0-24.888 4.341-48.76 12.287-70.915l-76.624 23.365-17.625 72.143c-7.555 30.922 15.861 60.747 47.692 60.747h40.803c-4.19-24.607-6.533-52.877-6.533-85.34z" fill="#4f4c5f"/><path d="m342.934 179.204-4.631-3.313c-9.875-7.065-23.104-6.97-33.005.06-9.835 6.983-23.021 6.963-32.837-.06-9.844-7.042-23.077-7.042-32.921 0-9.816 7.022-23.002 7.042-32.837.06-9.9-7.029-23.13-7.125-33.005-.06l-4.631 3.313c-7.424 5.312-11.829 13.879-11.829 23.008v99.118c0 24.856 20.149 45.005 45.005 45.005h107.516c24.856 0 45.005-20.149 45.005-45.005v-99.118c-.001-9.129-4.406-17.697-11.83-23.008z" fill="#8bdf9e"/><g fill="#ff748f"><path d="m323.052 68.889c10.808-10.808 28.33-10.808 39.138 0s10.808 28.33 0 39.138-43.186 25.663-53.994 14.855c-10.807-10.807 4.048-43.185 14.856-53.993z"/><path d="m188.948 68.889c-10.808-10.808-28.33-10.808-39.138 0s-10.808 28.33 0 39.138 43.186 25.663 53.994 14.855c10.807-10.807-4.048-43.185-14.856-53.993z"/><path d="m283.675 35.175c0 15.284-12.39 48.684-27.675 48.684s-27.675-33.399-27.675-48.684 12.391-27.675 27.675-27.675 27.675 12.39 27.675 27.675z"/></g><path d="m205.532 239.628c0-21.147 5.127-41.094 14.201-58.674-4.593-.546-9.083-2.201-13.031-5.004-9.901-7.029-23.13-7.125-33.005-.06l-4.631 3.313c-7.424 5.312-11.829 13.879-11.829 23.008v99.118c0 24.856 20.149 45.005 45.005 45.005h60.499c-34.483-22.956-57.209-62.174-57.209-106.706z" fill="#73d98b"/><path d="m353.106 202.192h28.712c19.13 0 34.638 15.508 34.638 34.638 0 19.13-15.508 34.638-34.638 34.638h-28.712c-19.13 0-34.638-15.508-34.638-34.638 0-19.13 15.508-34.638 34.638-34.638z" fill="#ffd3bc"/><path d="m256 443.69v20.799c0 11.04-4.475 21.051-11.723 28.288-7.238 7.248-17.238 11.723-28.288 11.723-22.101 0-40.011-17.92-40.011-40.011v-20.799z" fill="#5c586f"/><path d="m204.568 443.69h-28.59v20.799c0 22.091 17.91 40.011 40.011 40.011 7.029 0 13.63-1.816 19.368-5-11.871-14.305-22.426-32.604-30.789-55.81z" fill="#4f4c5f"/><path d="m158.894 202.192h-28.712c-19.13 0-34.638 15.508-34.638 34.638 0 19.13 15.508 34.638 34.638 34.638h28.712c19.13 0 34.638-15.508 34.638-34.638 0-19.13-15.508-34.638-34.638-34.638z" fill="#ffd3bc"/><path d="m200.204 111.883c-23.73 0-42.967-19.237-42.967-42.967 0-1.866.132-3.701.363-5.505-2.819 1.325-5.461 3.149-7.79 5.479-10.808 10.808-10.808 28.33 0 39.138s43.186 25.663 53.994 14.855c2.733-2.732 3.82-6.846 3.752-11.639-2.39.412-4.844.639-7.352.639z" fill="#fd5f7e"/></g><g><path d="m367.493 113.331c13.715-13.715 13.715-36.03 0-49.745-13.746-13.746-35.997-13.748-49.745 0-12.135 12.135-30.331 49.124-14.855 64.6 14.815 14.817 51.127-1.381 64.6-14.855zm-52.883-15.005c3.576-10.396 9.622-20.009 13.745-24.133 7.865-7.865 20.665-7.866 28.532 0 7.866 7.866 7.866 20.666 0 28.532-4.124 4.123-13.737 10.168-24.133 13.745-10.468 3.6-17.213 3.152-19.254 1.111-2.042-2.042-2.49-8.788 1.11-19.255z"/><path d="m209.107 128.187c15.476-15.476-2.721-52.465-14.855-64.6-13.746-13.746-35.997-13.748-49.745 0-13.715 13.714-13.715 36.03 0 49.745 12.709 12.708 49.379 30.077 64.6 14.855zm-29.86-11.718c-10.396-3.576-20.01-9.622-24.133-13.745-7.866-7.866-7.866-20.666 0-28.532 7.865-7.865 20.665-7.866 28.532 0 4.123 4.124 10.168 13.737 13.745 24.133 3.601 10.467 3.152 17.213 1.111 19.254-2.044 2.042-8.789 2.49-19.255-1.11z"/><path d="m256 91.358c21.886 0 35.175-39.022 35.175-56.184 0-19.395-15.779-35.174-35.175-35.174s-35.175 15.779-35.175 35.175c0 17.161 13.289 56.183 35.175 56.183zm0-76.358c11.125 0 20.175 9.05 20.175 20.175 0 5.832-2.523 16.904-7.346 26.784-4.855 9.947-9.942 14.4-12.829 14.4s-7.974-4.453-12.829-14.4c-4.822-9.88-7.346-20.953-7.346-26.784 0-11.125 9.05-20.175 20.175-20.175z"/><path d="m88.043 236.83c0 15.51 8.429 29.08 20.941 36.396l-13.586 55.609c-8.704 35.623 18.249 70.026 54.978 70.026h18.102v65.628c0 26.198 21.313 47.511 47.511 47.511 16.823 0 31.507-8.655 40.028-21.913 8.456 13.165 23.218 21.913 39.994 21.913 26.233 0 47.511-21.231 47.511-47.511 0-2.451 0 8.196 0-65.628h18.102c10.634 0 20.989-2.96 29.943-8.562 3.512-2.196 4.578-6.824 2.381-10.335-2.196-3.512-6.825-4.578-10.335-2.381-6.567 4.107-14.17 6.278-21.989 6.278-7.577 0-200.548 0-211.249 0-26.952 0-46.814-25.243-40.407-51.467l13.196-54.011c2.069.349 4.682.585 7.017.585h19.556v22.361c0 28.951 23.554 52.505 52.505 52.505h23.285c4.142 0 7.5-3.358 7.5-7.5s-3.358-7.5-7.5-7.5h-23.285c-20.68 0-37.505-16.825-37.505-37.505v-22.765c20.637-2.905 36.295-20.629 36.295-41.735 0-20.531-14.926-38.142-35.1-41.551 3.038-8.567 9.615-11.103 12.13-13.289 7.207-5.157 16.973-5.126 24.299.075 12.44 8.833 29.135 8.803 41.542-.075 7.236-5.176 16.959-5.176 24.194 0 12.407 8.877 29.102 8.908 41.542.075 7.327-5.201 17.091-5.232 24.299-.075 2.513 2.185 9.148 4.881 12.129 13.289-19.887 3.352-35.007 20.693-35.096 41.363 0 .063-.005.125-.005.188 0 .076.005.151.006.228.108 20.869 15.604 38.632 36.29 41.507v22.765c0 20.68-16.825 37.505-37.505 37.505h-54.231c-4.142 0-7.5 3.358-7.5 7.5s3.358 7.5 7.5 7.5h54.231c28.951 0 52.505-23.554 52.505-52.505v-22.361h19.556c2.415 0 5.042-.253 7.017-.585l13.196 54.012c2.149 8.798 1.424 17.819-2.098 26.086-1.624 3.811.15 8.216 3.96 9.839 3.811 1.624 8.216-.15 9.839-3.96 4.802-11.271 5.794-23.556 2.869-35.525l-13.586-55.609c12.511-7.315 20.94-20.886 20.94-36.396 0-23.235-18.903-42.138-42.138-42.138h-20.375c-3.658-16.937-16.865-23.061-18.777-24.901-12.408-8.877-29.169-8.86-41.711.043-7.227 5.13-16.924 5.112-24.132-.043-12.455-8.911-29.193-8.911-41.648 0-7.208 5.156-16.905 5.174-24.131.043-12.54-8.902-29.302-8.921-41.71-.043-1.922 1.85-15.113 7.932-18.777 24.901h-20.375c-23.235 0-42.138 18.903-42.138 42.138zm127.946 260.17c-17.926 0-32.511-14.584-32.511-32.511v-13.299h65.022v13.299c0 17.952-14.532 32.511-32.511 32.511zm112.533-32.511c0 17.952-14.532 32.511-32.511 32.511-17.927 0-32.511-14.584-32.511-32.511v-13.299h65.022zm0-28.299h-65.022v-37.329h65.022zm-80.022-37.329v37.329h-65.022v-37.329zm160.457-162.031c0 14.877-12.088 27.139-27.138 27.139-4.554 0-22.309 0-28.712 0-14.964 0-27.138-12.174-27.138-27.139 0-14.964 12.174-27.138 27.138-27.138h28.712c14.964 0 27.138 12.174 27.138 27.138zm-278.775 27.139c-14.986 0-27.139-12.216-27.139-27.139 0-14.964 12.174-27.138 27.139-27.138h28.712c14.964 0 27.139 12.174 27.139 27.138 0 14.962-12.172 27.139-27.139 27.139-3.364 0-21.56 0-28.712 0z"/></g></g></svg>