<svg id="Capa_1" enable-background="new 0 0 512 512" height="512" viewBox="0 0 512 512" width="512" xmlns="http://www.w3.org/2000/svg"><g><g><path d="m485.107 332.761c-110.079-9.659-197.226-102.214-197.226-215.667 0-24.801 4.176-48.625 11.857-70.813 5.615-16.219-9.255-32.024-25.735-27.227-89.68 26.106-155.319 108.656-155.872 206.633-.667 118.224 94.536 215.715 212.745 217.717 67.561 1.144 128.186-28.67 168.644-76.186 11.058-12.987 2.579-32.966-14.413-34.457z" fill="#f9d888"/><path d="m199.938 195.111c0-68.521 27.692-130.571 72.49-175.58-88.87 26.611-153.746 108.756-154.296 206.157-.667 118.224 94.536 215.715 212.745 217.717 19.942.338 39.272-2.042 57.666-6.758-108.328-26.959-188.605-124.866-188.605-241.536z" fill="#f5c956"/><path d="m349.641 371.632c-7.344-1.282-12.596-7.646-12.464-15.1.043-2.432-.014-4.887-.175-7.364-2.885-44.332-39.181-79.764-83.568-81.608-24.061-.999-46.078 7.728-62.452 22.568-4.063 3.683-9.882 4.726-15.013 2.791-7.706-2.906-16.055-4.498-24.777-4.498-38.903 0-69.527 31.305-70.272 68.755-.143 7.158-5.189 13.255-12.237 14.513-29.163 5.206-50.938 30.914-50.601 61.272.376 33.881 28.625 60.857 62.508 60.857h257.423c34.221 0 62.889-28 62.526-62.22-.321-30.154-22.277-54.971-50.898-59.966z" fill="#bc9bdd"/><path d="m93.397 455.895c0-66.991 32.853-126.301 83.319-162.723-.25-.079-.5-.159-.747-.253-7.706-2.906-16.055-4.498-24.777-4.498-38.903 0-69.527 31.305-70.272 68.755-.143 7.158-5.189 13.255-12.237 14.513-29.163 5.206-50.938 30.914-50.601 61.272.376 33.88 28.625 60.857 62.508 60.857h16.405c-2.352-12.281-3.598-24.956-3.598-37.923z" fill="#b08bd7"/><g fill="#fff"><ellipse cx="120.933" cy="419.319" rx="32.609" ry="25.968"/><ellipse cx="297.685" cy="419.319" rx="32.609" ry="25.968"/></g><path d="m72.634 189.385c-10.707-2.26-18.6-10-20.869-20.97-.792-3.828-4.186-6.56-8.197-6.56h-.526c-3.928 0-7.198 2.823-8.008 6.667-2.258 10.712-9.999 18.609-20.972 20.878-3.829.792-6.56 4.186-6.56 8.182v.441c0 3.923 2.755 7.304 6.595 8.103 10.952 2.279 18.677 10.166 20.935 20.862.812 3.847 4.079 6.677 8.113 6.677h.526c3.909 0 7.304-2.731 8.096-6.559 2.269-10.971 10.162-18.71 20.869-20.971 3.847-.812 6.677-4.079 6.677-8.011v-.727c-.003-3.933-2.832-7.2-6.679-8.012z" fill="#f9d888"/><path d="m390.563 84.822c-10.707-2.26-18.6-10-20.869-20.97-.792-3.828-4.186-6.56-8.197-6.56h-.526c-3.928 0-7.198 2.823-8.008 6.667-2.258 10.712-9.999 18.609-20.972 20.878-3.828.792-6.56 4.186-6.56 8.182v.441c0 3.923 2.755 7.304 6.595 8.103 10.952 2.279 18.677 10.166 20.935 20.862.812 3.847 4.079 6.677 8.113 6.677h.526c3.909 0 7.304-2.731 8.096-6.559 2.269-10.971 10.162-18.71 20.869-20.971 3.847-.812 6.677-4.079 6.677-8.011v-.727c-.003-3.932-2.832-7.199-6.679-8.012z" fill="#f9d888"/><path d="m475.981 182.905c-13.641-2.88-23.696-12.74-26.587-26.716-1.009-4.877-5.333-8.357-10.443-8.357h-.671c-5.005 0-9.17 3.597-10.203 8.494-2.876 13.647-12.738 23.707-26.718 26.599-4.877 1.009-8.357 5.333-8.357 10.423v.562c0 4.998 3.509 9.305 8.402 10.323 13.952 2.903 23.794 12.951 26.671 26.578 1.035 4.901 5.196 8.506 10.335 8.506h.67c4.98 0 9.305-3.48 10.314-8.357 2.891-13.976 12.946-23.837 26.587-26.716 4.901-1.035 8.506-5.197 8.506-10.206v-.927c0-5.009-3.605-9.171-8.506-10.206z" fill="#bc9bdd"/><path d="m27.323 182.584c-3.522 3.349-8.018 5.731-13.263 6.816-3.828.792-6.56 4.186-6.56 8.182v.441c0 3.923 2.755 7.304 6.595 8.103 10.952 2.279 18.677 10.166 20.935 20.862.812 3.847 4.079 6.677 8.113 6.677h.526c3.909 0 7.304-2.731 8.096-6.559.64-3.095 1.742-5.921 3.214-8.451-12.764-8.608-22.575-21.241-27.656-36.071z" fill="#f5c956"/><path d="m346.642 76.594c-3.693 4.105-8.69 7.01-14.653 8.244-3.828.792-6.56 4.186-6.56 8.181v.441c0 3.923 2.755 7.304 6.595 8.103 10.952 2.279 18.677 10.166 20.935 20.862.812 3.847 4.079 6.677 8.113 6.677h.526c3.909 0 7.304-2.731 8.096-6.559.463-2.24 1.173-4.337 2.081-6.289-12.177-10.062-21.139-23.871-25.133-39.66z" fill="#f5c956"/><path d="m418.161 174.33c-4.473 4.219-10.166 7.223-16.801 8.595-4.877 1.009-8.357 5.333-8.357 10.423v.562c0 4.998 3.509 9.305 8.402 10.323 13.952 2.903 23.794 12.952 26.671 26.578 1.035 4.901 5.196 8.506 10.335 8.506h.67c4.98 0 9.305-3.48 10.314-8.357.946-4.574 2.672-8.697 5.028-12.289-18.013-8.343-31.59-24.614-36.262-44.341z" fill="#b08bd7"/></g><g><path d="m147.436 394.005v-12.691c0-4.142-3.358-7.5-7.5-7.5s-7.5 3.358-7.5 7.5v12.691c0 4.142 3.358 7.5 7.5 7.5s7.5-3.358 7.5-7.5z"/><path d="m209.307 409.759c9.177 0 17.905-3.975 23.943-10.905 2.721-3.123 2.396-7.86-.727-10.581s-7.86-2.396-10.581.727c-3.189 3.66-7.794 5.759-12.635 5.759-4.84 0-9.445-2.099-12.635-5.76-2.721-3.123-7.458-3.447-10.582-.727-3.123 2.722-3.448 7.459-.727 10.582 6.04 6.931 14.766 10.905 23.944 10.905z"/><path d="m273.92 393.651c0-3.974 3.233-7.206 7.207-7.206s7.206 3.233 7.206 7.206c0 4.142 3.358 7.5 7.5 7.5s7.5-3.358 7.5-7.5c0-12.245-9.962-22.206-22.206-22.206-12.245 0-22.207 9.962-22.207 22.206 0 4.142 3.358 7.5 7.5 7.5s7.5-3.358 7.5-7.5z"/><path d="m27.692 228.542c1.569 7.435 7.923 12.628 15.451 12.628h.525c7.444 0 13.938-5.274 15.44-12.54 1.645-7.954 7.139-13.476 15.075-15.152 7.434-1.57 12.626-7.882 12.626-15.349v-.728c0-7.468-5.192-13.78-12.627-15.349-7.934-1.675-13.429-7.198-15.075-15.152-1.503-7.266-8.039-12.54-15.541-12.54h-.526c-7.47 0-13.781 5.189-15.347 12.62-1.673 7.938-7.196 13.435-15.153 15.08-7.266 1.504-12.54 8.034-12.54 15.527v.441c0 7.434 5.285 13.93 12.567 15.446 7.939 1.652 13.452 7.144 15.125 15.068zm-12.692-30.955c0-.429.233-.766.579-.837 13.86-2.867 23.875-12.839 26.792-26.676.072-.344.313-.714.669-.714h.526c.438 0 .781.233.853.579 2.866 13.854 12.834 23.869 26.665 26.789.349.074.725.315.725.672v.728c0 .357-.376.599-.725.673-13.831 2.92-23.8 12.934-26.665 26.79-.069.335-.385.578-.751.578h-.525c-.561 0-.729-.507-.774-.726-2.916-13.813-12.914-23.778-26.745-26.655-.361-.075-.624-.395-.624-.76z"/><path d="m330.493 108.913c7.939 1.652 13.452 7.144 15.124 15.068 1.569 7.435 7.923 12.627 15.451 12.627h.526c7.443 0 13.937-5.274 15.44-12.54 1.645-7.954 7.139-13.476 15.073-15.151 7.435-1.569 12.628-7.881 12.628-15.349v-.728c0-7.468-5.193-13.78-12.628-15.349-7.934-1.675-13.428-7.197-15.074-15.151-1.503-7.267-8.039-12.541-15.542-12.541h-.526c-7.47 0-13.781 5.19-15.347 12.62-1.673 7.938-7.196 13.434-15.152 15.08-7.267 1.503-12.541 8.033-12.541 15.526v.441c0 7.436 5.286 13.932 12.568 15.447zm2.432-15.887c0-.429.233-.766.58-.837 13.859-2.867 23.875-12.84 26.791-26.676.072-.344.313-.714.669-.714h.526c.438 0 .781.233.853.58 2.866 13.855 12.834 23.869 26.664 26.789.35.074.726.316.726.673v.727c0 .357-.376.599-.726.673-13.83 2.92-23.799 12.934-26.664 26.789-.07.335-.386.579-.751.579h-.526c-.561 0-.728-.507-.774-.725-2.916-13.813-12.914-23.778-26.745-26.655-.361-.075-.624-.395-.624-.761v-.442z"/><path d="m399.872 211.582c10.95 2.278 18.553 9.853 20.86 20.784 1.797 8.512 9.065 14.456 17.673 14.456h.67c8.513 0 15.939-6.03 17.658-14.337 2.269-10.97 9.847-18.587 20.792-20.897 8.512-1.797 14.456-9.012 14.456-17.544v-.926c.001-8.533-5.944-15.748-14.456-17.544-10.945-2.311-18.523-9.927-20.792-20.897-1.719-8.308-9.2-14.338-17.787-14.338h-.67c-8.535 0-15.748 5.941-17.541 14.447-2.308 10.949-9.925 18.531-20.898 20.801-8.308 1.719-14.338 9.191-14.338 17.767v.562c-.001 8.503 6.044 15.933 14.373 17.666zm.626-18.229c0-1.523.977-2.789 2.377-3.079 16.832-3.482 28.995-15.593 32.537-32.396.315-1.496 1.493-2.541 2.864-2.541h.67c1.535 0 2.81.978 3.099 2.376 3.48 16.826 15.586 28.988 32.382 32.535h.001c1.503.317 2.554 1.496 2.554 2.867v.927c0 1.371-1.05 2.55-2.554 2.868-16.796 3.545-28.902 15.708-32.383 32.535-.285 1.376-1.533 2.375-2.969 2.375h-.67c-1.814 0-2.749-1.377-2.997-2.555-3.541-16.774-15.683-28.876-32.481-32.37-1.408-.293-2.43-1.547-2.43-2.981z"/><path d="m485.757 325.294c-79.602-6.986-147.299-59.028-175.902-131.613-1.518-3.854-5.873-5.746-9.727-4.228-3.854 1.519-5.747 5.874-4.228 9.727 30.78 78.111 103.535 133.597 188.546 141.056 10.997.965 16.442 13.805 9.358 22.123-23.28 27.342-52.997 48.132-86.4 60.537-4.015-29.279-26.466-53.413-56.477-58.649-3.691-.645-6.321-3.832-6.255-7.579.47-26.779-10.232-51.609-28.655-69.599-16.838-16.441-38.954-26.029-62.275-26.998-24.51-1.023-48.755 7.247-67.799 24.505-1.993 1.806-4.891 2.25-7.329 1.331-13.912-5.247-29.662-6.568-45.301-2.911-5.211-18.61-7.793-37.837-7.683-57.262.259-45.907 15.117-89.39 42.967-125.749 26.973-35.213 65.151-61.395 107.5-73.723 10.616-3.093 20.192 7.056 16.551 17.572-14.367 41.499-15.767 85.579-6.034 125.956.971 4.028 5.025 6.505 9.048 5.534 4.027-.971 6.504-5.022 5.534-9.048-9.072-37.639-7.789-78.785 5.627-117.534 7.593-21.933-12.585-43.382-34.918-36.881-45.395 13.215-86.313 41.272-115.215 79.004-29.854 38.974-45.781 85.582-46.059 134.785-.119 21.097 2.735 41.977 8.471 62.175-8.312 3.766-15.975 9.004-22.636 15.61-14.457 14.338-22.641 33.372-23.044 53.597-.073 3.662-2.563 6.655-6.057 7.279-10.379 1.853-20.366 6.18-28.881 12.513-3.324 2.472-4.014 7.17-1.542 10.494 2.472 3.323 7.171 4.013 10.494 1.542 6.659-4.953 14.462-8.335 22.565-9.782 10.458-1.866 18.204-11.012 18.418-21.746.325-16.308 6.934-31.666 18.61-43.245 17.987-17.838 44.144-22.497 66.295-14.143 7.842 2.957 16.538 1.328 22.695-4.252 15.649-14.184 35.927-21.512 57.104-20.632 19.616.815 38.232 8.892 52.418 22.743 15.509 15.143 24.537 36.033 24.136 58.601-.198 11.184 7.655 20.698 18.673 22.621 27.137 4.737 45.3 29.002 44.674 53.46l-.013.608c0 .026.003.051.003.077-.239 13.678-5.743 26.634-15.626 36.622-10.395 10.505-24.747 16.531-39.378 16.531h-257.422c-30.004 0-54.681-23.973-55.008-53.439-.092-8.321 1.672-16.339 5.243-23.831 1.782-3.739.195-8.215-3.543-9.997-3.74-1.783-8.215-.195-9.997 3.543-4.564 9.576-6.818 19.821-6.701 30.451.418 37.646 31.823 68.273 70.007 68.273h257.42c18.609 0 36.848-7.647 50.04-20.98 11.351-11.472 18.188-26.047 19.673-41.634 37.797-13.043 71.424-35.995 97.503-66.622 15.009-17.63 3.567-44.772-19.468-46.793z"/></g></g></svg>