<svg id="Capa_1" enable-background="new 0 0 512 512" height="512" viewBox="0 0 512 512" width="512" xmlns="http://www.w3.org/2000/svg"><g><g><path d="m274.908 418.3-11.897 32.406 11.897 24.403c0 16.232 13.159 29.391 29.391 29.391 16.232 0 29.391-13.159 29.391-29.391v-56.809z" fill="#64d1e1"/><g><path d="m188.967 419.805c-.789 0-1.588-.061-2.393-.187-75.742-11.881-104.038-71.276-105.206-73.797-3.553-7.677-.21-16.779 7.466-20.332 7.656-3.544 16.731-.228 20.303 7.405.988 2.072 23.178 47.207 82.184 56.464 8.356 1.31 14.067 9.147 12.757 17.503-1.184 7.551-7.7 12.944-15.111 12.944z" fill="#9ae0eb"/></g><path d="m216.125 418.3v56.808c0 16.232 13.159 29.391 29.391 29.391 16.232 0 29.391-13.159 29.391-29.391v-56.808z" fill="#9ae0eb"/><path d="m235.292 427.308c0-3.025.098-6.026.271-9.007h-19.437v56.808c0 16.232 13.159 29.391 29.391 29.391 3.391 0 6.644-.581 9.675-1.638-12.663-22.298-19.9-48.08-19.9-75.554z" fill="#64d1e1"/><path d="m387.527 393.794-12.947-52.993-99.673-30.392-99.673 30.392-12.947 52.993c-5.549 22.714 11.651 44.622 35.033 44.622h155.174c23.383 0 40.583-21.908 35.033-44.622z" fill="#ff748f"/><path d="m383.321 11.85c-8.886-7.578-22.515-4.938-27.853 5.449-10.127 19.707-32.72 46.653-80.561 46.653s-70.434-26.947-80.561-46.653c-5.338-10.387-18.966-13.027-27.853-5.449-28.372 24.195-74.49 78.116-56.691 163.155l60.27 48.641h214.293l55.646-48.641c17.8-85.038-28.318-138.96-56.69-163.155z" fill="#ff748f"/><path d="m400.826 184.395c7.276-9.583 18.452-15.364 27.777-18.745 9.217-3.342 19.36 2.004 21.858 11.484 20.542 77.946-53.78 91.47-53.78 91.47z" fill="#64d1e1"/><path d="m166.474 184.288c0-52.783 19.912-100.911 52.624-137.3-12.09-9.031-19.874-20.196-24.751-29.688-5.338-10.387-18.967-13.027-27.853-5.449-28.372 24.195-74.49 78.116-56.691 163.155l60.27 48.641h.183c-2.472-12.741-3.782-25.896-3.782-39.359z" fill="#fd5f7e"/><path d="m385.341 150.027c-20.316-31.808-63.104-41.012-93.763-19.001-.308.221-.616.446-.923.674-9.346 6.93-22.147 6.93-31.493 0-.307-.228-.615-.453-.924-.674-30.676-22.023-73.475-12.789-93.79 19.044-12.793 20.047-20.276 43.812-20.47 69.311-.55 72.031 57.934 131.433 129.965 131.953 72.751.525 131.901-58.301 131.901-130.931-.001-25.905-7.523-50.053-20.503-70.376z" fill="#9ae0eb"/><path d="m248.67 348.673c-49.909-37.484-82.196-97.163-82.196-164.386 0-14.684 1.553-29.004 4.481-42.816-2.358 2.651-4.541 5.516-6.508 8.598-6.718 10.526-11.953 22.085-15.456 34.375l-.002-.05c-7.276-9.583-18.452-15.364-27.777-18.745-9.217-3.342-19.36 2.004-21.858 11.484-20.542 77.946 53.78 91.47 53.78 91.47l-.014-.288c16.087 40.561 51.917 71.398 95.55 80.358z" fill="#64d1e1"/><path d="m204.078 406.86c1.311-8.355-4.401-16.192-12.757-17.503-20.568-3.227-36.659-10.815-48.942-19.417l-4.378 17.921c-1.167 4.779-1.737 9.605-1.755 14.393 13.735 7.811 30.385 14.235 50.328 17.363.804.127 1.603.188 2.393.188 7.411 0 13.927-5.393 15.111-12.945z" fill="#64d1e1"/><path d="m235.292 427.308c0-45.057 19.448-85.57 50.405-113.609l-10.789-3.29-99.673 30.392-12.947 52.993c-5.549 22.714 11.651 44.622 35.033 44.622h38.375c-.264-3.669-.404-7.372-.404-11.108z" fill="#fd5f7e"/><path d="m338.766 282.574-3.402-2.434c-7.254-5.19-16.971-5.12-24.244.044-7.224 5.129-16.91 5.115-24.121-.044-7.231-5.173-16.952-5.173-24.182 0-7.21 5.158-16.896 5.173-24.121.044-7.272-5.163-16.99-5.233-24.244-.044l-3.402 2.434c-5.453 3.902-8.689 10.195-8.689 16.901v72.808c0 18.258 14.801 33.059 33.059 33.059h78.977c18.258 0 33.059-14.801 33.059-33.059v-72.808c-.001-6.706-3.237-12.999-8.69-16.901z" fill="#bc9bdd"/><path d="m240.581 320.071c0-12.748 2.022-25.022 5.75-36.529-2.691-.582-5.293-1.695-7.635-3.357-7.272-5.163-16.99-5.233-24.244-.044l-3.402 2.434c-5.453 3.902-8.689 10.195-8.689 16.901v72.808c0 18.258 14.801 33.059 33.059 33.059h41.409c-22.345-21.545-36.248-51.783-36.248-85.272z" fill="#b08bd7"/><path d="m203.578 299.46h-21.091c-14.052 0-25.444 11.392-25.444 25.444 0 14.052 11.392 25.444 25.444 25.444h21.091c14.052 0 25.444-11.392 25.444-25.444 0-14.052-11.392-25.444-25.444-25.444z" fill="#9ae0eb"/><path d="m346.238 299.46h21.091c14.052 0 25.444 11.392 25.444 25.444 0 14.052-11.392 25.444-25.444 25.444h-21.091c-14.052 0-25.444-11.392-25.444-25.444 0-14.052 11.392-25.444 25.444-25.444z" fill="#64d1e1"/><path d="m115.903 315.371-44.698-9.971c-7.78-1.736-14.723 5.208-12.988 12.987l9.971 44.698c2.175 9.75 15.24 11.66 20.115 2.94l9.45-16.903c.982-1.756 2.431-3.205 4.187-4.187l16.903-9.45c8.72-4.874 6.81-17.939-2.94-20.114z" fill="#ff748f"/><path d="m72.537 306.213c0-.172.011-.341.013-.513l-1.345-.3c-7.78-1.736-14.723 5.208-12.988 12.988l9.971 44.698c2.175 9.75 15.24 11.66 20.115 2.94l7.395-13.227c-14.069-10.672-23.161-27.565-23.161-46.586z" fill="#fd5f7e"/></g><g><path d="m298.125 218.851c-3.123-2.721-7.86-2.396-10.582.727-3.19 3.662-7.797 5.761-12.638 5.761s-9.447-2.1-12.638-5.761c-2.723-3.123-7.459-3.447-10.582-.727-3.123 2.722-3.448 7.459-.727 10.582 6.04 6.931 14.768 10.906 23.946 10.906s17.906-3.975 23.947-10.906c2.721-3.123 2.396-7.861-.726-10.582z"/><path d="m220.598 199.589-26.737-7.164c-3.996-1.068-8.113 1.302-9.185 5.304-1.072 4.001 1.303 8.113 5.304 9.185l8.774 2.351c-.464.975-.731 2.061-.731 3.213v11.517c0 4.142 3.358 7.5 7.5 7.5s7.5-3.358 7.5-7.5v-10.906l3.694.99c3.998 1.069 8.112-1.298 9.185-5.304 1.072-4.002-1.303-8.114-5.304-9.186z"/><path d="m355.947 192.425-26.737 7.164c-4.001 1.072-6.375 5.185-5.304 9.185 1.073 4.003 5.184 6.374 9.185 5.304l3.694-.99v10.906c0 4.142 3.358 7.5 7.5 7.5s7.5-3.358 7.5-7.5v-11.517c0-1.151-.267-2.238-.731-3.213l8.773-2.351c4.001-1.072 6.375-5.185 5.304-9.185-1.07-4.001-5.186-6.372-9.184-5.303z"/><path d="m348.794 13.876c-9.982 19.425-30.904 42.581-73.889 42.581s-63.907-23.156-73.889-42.58c-7.54-14.674-26.806-18.46-39.389-7.728-8.318 7.094-16.069 14.905-23.035 23.218-2.66 3.175-2.244 7.905.931 10.566 3.175 2.659 7.905 2.243 10.566-.931 6.431-7.674 13.587-14.887 21.271-21.439 5.212-4.445 13.193-2.907 16.315 3.171 9.735 18.944 34.013 50.724 87.231 50.724s77.495-31.78 87.231-50.725c3.119-6.069 11.096-7.621 16.315-3.17 18.764 16.001 43.255 43.378 53.382 82.933 1.03 4.024 5.124 6.43 9.125 5.405 4.013-1.027 6.433-5.113 5.406-9.125-11.101-43.363-37.766-73.218-58.18-90.626-12.602-10.748-31.86-6.929-39.391 7.726z"/><path d="m457.71 175.225c-1.294-4.911-4.113-9.269-7.975-12.475 1.628-11.87 2.114-23.636 1.439-35.043-.245-4.135-3.789-7.291-7.93-7.043-4.135.245-7.289 3.795-7.043 7.93.551 9.303.256 18.884-.875 28.58-2.751-.122-5.412.228-8.093 1.032-6.803 2.079-16.033 6.709-23.176 12.299-3.367-8.723-7.692-17.143-12.399-24.512-10.909-17.079-28.61-29.308-48.809-33.19-19.895-3.824-40.016.547-56.664 12.876-6.648 4.928-15.983 4.876-22.559 0-17.04-12.614-37.247-16.607-56.669-12.871-31.156 5.994-49.83 28.21-61.201 57.698-6.605-5.254-16.103-10.141-23.26-12.323-2.629-.794-5.33-1.129-8.012-1.009-3.975-33.935 2.369-65.635 18.897-94.34 2.067-3.589.833-8.175-2.757-10.242-3.588-2.066-8.174-.833-10.242 2.757-18.804 32.659-25.62 68.769-20.302 107.398-3.864 3.206-6.684 7.565-7.978 12.478-6.843 25.965-4.553 48.184 6.807 66.041 14.475 22.756 39.317 31.265 48.948 33.808 3.7 8.558 8.264 16.761 13.646 24.456-7.301 6.047-11.96 15.178-11.96 25.376 0 11.59 6.022 21.794 15.096 27.668l-4.672 19.123c-17.823-8.873-29.534-20.973-36.531-30.231 13.76-8.77 10.062-29.852-5.9-33.413l-44.697-9.971c-13.132-2.925-24.874 8.787-21.941 21.94l9.972 44.698c3.138 14.067 20.254 18.967 30.42 9.501 13.529 16.284 34.78 34.946 66.24 45.871 6.873 15.33 22.037 25.824 39.791 25.824h11.304v29.192c0 20.342 16.549 36.891 36.891 36.891 11.985 0 22.648-5.747 29.391-14.627 6.743 8.88 17.407 14.627 29.391 14.627 20.342 0 36.891-16.549 36.891-36.891v-29.192h11.304c28.227 0 49.028-26.438 42.318-53.901l-9.636-39.442c9.074-5.874 15.095-16.078 15.095-27.668 0-10.14-4.607-19.22-11.835-25.268 5.468-7.798 10.064-16.039 13.763-24.632 9.793-2.623 34.383-11.196 48.725-33.768 11.342-17.851 13.626-40.061 6.787-66.012zm-316.287 81.791c-9.457-3.977-21.932-11.27-29.927-23.906-8.966-14.17-10.611-32.359-4.892-54.062 1.124-4.264 4.588-5.761 4.688-5.843 1.215-.549 2.313-.966 3.867-1.031 4.119-.19 17.968 5.967 25.574 14.083-3.651 14.387-5.08 29.981-3.783 45.449.702 8.577 2.183 17.034 4.473 25.31zm40.91 49.954c.051 0 .101-.008.152-.008h21.09c9.894 0 17.944 8.05 17.944 17.944s-8.05 17.944-17.944 17.944c-2.471 0-15.837 0-21.09 0-.002 0-.003 0-.005 0-9.618-.004-17.939-7.839-17.939-17.943 0-9.814 7.936-17.855 17.792-17.937zm36.48-20.728c4.641-3.32 10.883-3.244 15.538.06 9.83 6.978 23.021 6.954 32.826-.06 4.621-3.307 10.832-3.308 15.454 0 9.799 7.008 22.989 7.044 32.826.059 4.689-3.33 10.934-3.354 15.537-.06 2.384 1.901 5.108 2.986 7.214 6.709-15.198 3.914-24.919 17.381-24.919 31.955 0 15.588 11.052 29.288 26.661 32.342v15.036c0 14.093-11.465 25.558-25.558 25.558h-78.976c-14.093 0-25.558-11.465-25.558-25.558v-15.036c15.089-2.913 26.66-16.285 26.66-32.342 0-15.069-10.309-28.289-24.919-31.955 2.097-3.708 4.759-4.765 7.214-6.708zm-143.306 75.212-9.971-44.698c-.543-2.434 1.616-4.57 4.035-4.035l44.697 9.971c3.051.68 3.642 4.723.913 6.248-17.137 9.599-17.888 9.694-20.354 11.958-1.434 1.316-2.663 2.85-3.622 4.565-.405.725-8.956 16.019-9.45 16.902-1.524 2.731-5.567 2.141-6.248-.911zm78.237 41.118c-25.899-11.001-43.182-27.774-53.956-41.718 6.675-11.812 3.445-7.61 10.471-11.974 8.242 11.309 22.899 26.977 46.066 37.715-.712 3.498-2.608 8.536-2.581 15.977zm91.77 94.428c-12.071 0-21.891-9.82-21.891-21.891v-29.192h43.783v29.192c-.001 12.071-9.821 21.891-21.892 21.891zm80.673-21.891c0 12.071-9.82 21.891-21.891 21.891s-21.891-9.82-21.891-21.891v-29.192h43.782zm44.785-117.46 9.266 37.926c4.393 17.981-9.212 35.342-27.747 35.342-44.246 0-111.036 0-155.173 0-18.518 0-32.148-17.336-27.747-35.341.249-1.018 8.52-34.873 9.266-37.927 1.17.132 2.512.201 3.647.201h12.373v14.435c0 22.364 18.194 40.558 40.558 40.558h78.976c22.364 0 40.558-18.194 40.558-40.558v-14.435h12.373.006c1.123-.001 2.439-.067 3.644-.201zm-3.647-14.799c-3.345 0-16.392 0-21.09 0-9.894 0-17.944-8.049-17.944-17.944 0-9.874 8.031-17.944 17.944-17.944h21.09c.012 0 .024.002.036.002 9.977.016 17.908 8.17 17.908 17.942-.001 9.915-8.119 17.944-17.944 17.944zm.004-50.888c-.001 0-.003 0-.004 0h-13.395c-3.338-12.04-12.538-16.425-14.205-17.919-9.805-7.014-23.046-7.002-32.949.028-1.443 1.024-3.04 1.727-4.694 2.109-7.11 1.649-10.459-2.402-14.558-4.447-9.165-4.574-20.379-3.909-29.073 2.31-4.552 3.256-10.768 3.327-15.415.029-9.903-7.032-23.145-7.042-32.949-.028-1.463 1.362-10.855 5.836-14.205 17.919h-13.395c-2.561 0-5.273.347-7.372.83-30.015-41.259-31.393-96.301-4.346-138.684 8.814-13.811 23.036-23.495 39.022-26.571 15.909-3.061 31.874.524 44.902 10.191 9.038 6.701 20.437 8.415 30.709 5.042 4.597-1.509 7.413-3.388 10.548-5.648 12.303-8.833 27.927-12.691 44.069-9.589 21.878 4.204 35.644 18.22 45.626 38.297 19.829 40.221 16.572 89.406-10.777 127.002-2.124-.502-4.903-.87-7.539-.871zm70.984-58.851c-7.964 12.588-20.374 19.872-29.816 23.858 6.382-23.459 6.311-48.168.585-70.722 5.567-5.952 16.978-12.304 22.968-13.818 4.653-1.165 9.816 1.539 11.154 6.618 5.721 21.705 4.075 39.894-4.891 54.064z"/></g></g></svg>