<svg id="Capa_1" enable-background="new 0 0 512 512" height="512" viewBox="0 0 512 512" width="512" xmlns="http://www.w3.org/2000/svg"><g><g><g><path d="m151.749 441.359h-59.564c-43.81 0-79.451-35.641-79.451-79.451s35.641-79.452 79.451-79.452 79.451 35.641 79.451 79.451v59.565c0 10.984-8.904 19.887-19.887 19.887zm-59.564-119.13c-21.879 0-39.678 17.8-39.678 39.678 0 21.879 17.799 39.679 39.678 39.679h39.678v-39.679c-.001-21.878-17.8-39.678-39.678-39.678z" fill="#b2b0bc"/></g><path d="m338.876 16.732c-14.767-12.309-36.409-12.309-51.176 0-29.939 24.956-48.994 62.527-48.994 104.551 0 53.019 30.329 98.95 74.582 121.402 44.253-22.452 74.582-68.383 74.582-121.402-.001-42.024-19.055-79.595-48.994-104.551z" fill="#f9d888"/><path d="m330.203 104.259c-7.678-12.827-26.154-12.827-33.831 0-8.375 13.992-12.921 30.12-12.921 46.853 0 26.235 11.033 50.531 29.838 67.578 18.804-17.047 29.837-41.343 29.837-67.578-.002-16.732-4.548-32.86-12.923-46.853z" fill="#ffa875"/><path d="m430.748 396.427c-12.702-19.729-20.253-42.33-21.962-65.732l-3.084-42.247-31.417-67.075h-128.543l-25.585 76.888-2.368 32.433c-1.709 23.403-9.26 46.003-21.962 65.732l-9.716 15.092h254.354z" fill="#bc9bdd"/><path d="m134.634 364.002c-.93 0-1.853.026-2.772.07v37.514h-39.677c-3.691 0-7.262-.518-10.655-1.465-2.585 6.51-4.022 13.597-4.022 21.018 0 6.679 1.159 13.222 3.393 19.405 3.688.527 7.453.815 11.284.815h59.564c10.983 0 19.887-8.903 19.887-19.886v-57.471z" fill="#a19dae"/><path d="m242.501 292.235c0-25.097 2.632-49.025 8.528-70.861h-5.287l-25.585 76.888-2.368 32.433c-1.709 23.403-9.26 46.003-21.962 65.732l-9.716 15.092h104.385c-28.409-32.263-47.995-73.865-47.995-119.284z" fill="#b08bd7"/><path d="m472.139 394.002h-168.752-168.753c-14.989 0-27.127 12.147-27.127 27.137 0 5.594 1.713 10.901 4.733 15.326 3.019 4.416 7.336 7.94 12.553 9.95 21.177 8.148 34.85 20.82 43.482 32.245 12.267 16.267 31.434 25.84 51.809 25.84h83.302 83.302c20.375 0 39.542-9.574 51.809-25.84 8.633-11.425 22.305-24.097 43.482-32.245 5.218-2.01 9.534-5.535 12.553-9.95 3.02-4.425 4.733-9.732 4.733-15.326.001-14.99-12.136-27.137-27.126-27.137z" fill="#f9d888"/><path d="m370.766 195.085h-114.957c-24.448 0-44.266 19.819-44.266 44.266v41.016c0 12.652 10.256 22.908 22.908 22.908s22.908-10.256 22.908-22.908v-27.133c0-9.118 7.392-16.51 16.51-16.51 9.118 0 16.51 7.392 16.51 16.51v44.969c0 12.652 10.256 22.908 22.908 22.908s22.908-10.256 22.908-22.908v-34.602c0-9.118 7.392-16.51 16.51-16.51 9.118 0 16.51 7.392 16.51 16.51v6.399c0 12.652 10.256 22.908 22.908 22.908 12.652 0 22.908-10.256 22.908-22.908v-30.649c.001-24.448-19.818-44.266-44.265-44.266z" fill="#e8e8e8"/><path d="m242.501 292.235c0-35.618 5.292-68.888 17.716-97.15h-4.407c-24.448 0-44.266 19.819-44.266 44.266v41.016c0 12.652 10.256 22.908 22.908 22.908 2.942 0 5.751-.561 8.334-1.571-.188-3.136-.285-6.293-.285-9.469z" fill="#e0e0e0"/><path d="m258.562 174.863c0-64.61 38.719-120.168 94.215-144.762-4.315-4.774-8.956-9.247-13.901-13.369-14.767-12.309-36.409-12.309-51.176 0-29.939 24.956-48.993 62.527-48.993 104.551 0 26.71 7.704 51.616 21.001 72.632-.751-6.247-1.146-12.603-1.146-19.052z" fill="#f5c956"/><g><path d="m196.239 408.419c0-4.867.246-9.676.724-14.417h-62.329c-14.989 0-27.127 12.147-27.127 27.137 0 5.594 1.713 10.901 4.733 15.326 3.019 4.416 7.336 7.94 12.553 9.95 21.177 8.148 34.85 20.82 43.482 32.245 12.267 16.267 31.434 25.84 51.809 25.84h13.619c-23.257-25.282-37.464-59.021-37.464-96.081z" fill="#f5c956"/></g></g><g><path d="m225.013 434.916c-4.142 0-7.499 3.358-7.499 7.499v15.06c0 4.142 3.358 7.499 7.499 7.499s7.499-3.358 7.499-7.499v-15.06c0-4.141-3.357-7.499-7.499-7.499z"/><path d="m381.754 434.916c-4.142 0-7.499 3.358-7.499 7.499v15.06c0 4.142 3.358 7.499 7.499 7.499s7.499-3.358 7.499-7.499v-15.06c0-4.141-3.358-7.499-7.499-7.499z"/><path d="m328.972 451.373c-3.123-2.722-7.86-2.396-10.581.727-3.788 4.347-9.258 6.841-15.008 6.841s-11.22-2.493-15.008-6.841c-2.721-3.122-7.458-3.448-10.581-.727-3.122 2.721-3.448 7.458-.727 10.581 6.637 7.617 16.229 11.986 26.316 11.986s19.678-4.369 26.315-11.986c2.722-3.123 2.396-7.86-.726-10.581z"/><path d="m472.123 386.511h-38.625c-4.502-7.858-8.206-16.185-11.025-24.81-1.287-3.936-5.52-6.084-9.459-4.798-3.937 1.287-6.085 5.522-4.798 9.459 2.26 6.912 5.027 13.652 8.271 20.149h-206.412c8.585-17.217 13.796-36.086 15.196-55.256l1.565-21.431c2.362.612 5.094.966 7.617.966 16.766 0 30.406-13.64 30.406-30.406v-27.131c0-4.967 4.042-9.009 9.009-9.009 4.983 0 9.009 4.057 9.009 9.009v44.966c0 16.766 13.64 30.406 30.406 30.406s30.406-13.64 30.406-30.406v-34.599c0-4.967 4.041-9.009 9.009-9.009 4.927 0 9.009 4.012 9.009 9.009v6.398c0 16.766 13.64 30.406 30.406 30.406 2.346 0 4.967-.338 6.874-.777 2.401 32.506 2.265 31.94 2.76 36.557.44 4.118 4.14 7.099 8.254 6.66 4.118-.44 7.1-4.136 6.66-8.254-.452-4.221-.238-2.49-3.218-42.948 5.598-5.518 9.076-13.181 9.076-21.643v-30.647c0-25.811-18.991-47.267-43.734-51.137 10.861-20.559 16.573-43.449 16.573-66.923 0-42.719-18.839-82.923-51.687-110.304-17.608-14.677-43.168-14.677-60.776 0-9.039 7.535-17.151 16.184-24.111 25.709-2.444 3.344-1.714 8.036 1.63 10.48 3.345 2.443 8.036 1.715 10.48-1.631 6.237-8.535 13.506-16.286 21.604-23.037 12.043-10.038 29.526-10.039 41.569 0 29.419 24.523 46.292 60.527 46.292 98.782 0 23.479-6.355 46.312-18.417 66.297h-18.254c4.553-11.541 6.928-23.95 6.928-36.47 0-17.884-4.836-35.416-13.985-50.701-10.583-17.679-36.104-17.701-46.699 0-9.149 15.285-13.984 32.817-13.984 50.701 0 12.521 2.375 24.929 6.928 36.47h-18.254c-12.062-19.986-18.417-42.819-18.417-66.297 0-17.394 3.423-34.276 10.174-50.178 1.619-3.812-.16-8.215-3.973-9.834-3.812-1.616-8.215.16-9.834 3.973-7.542 17.766-11.366 36.62-11.366 56.039 0 23.474 5.712 46.364 16.573 66.923-24.742 3.869-43.734 25.325-43.734 51.137v41.013c0 8.1 3.19 15.465 8.372 20.921l-2.107 28.858c-1.442 19.747-7.388 39.139-17.243 56.348h-13.928v-24.593c0-47.941-39.003-86.944-86.944-86.944s-86.943 39.003-86.943 86.945c0 47.941 39.003 86.945 86.945 86.945h21.706c2.501 1.869 5.246 3.414 8.207 4.555 16.557 6.37 30.079 16.385 40.185 29.759 13.609 18.047 35.214 28.822 57.792 28.822h166.592c22.578 0 44.184-10.775 57.789-28.816 10.11-13.38 23.632-23.395 40.191-29.766 13.308-5.126 22.089-17.963 22.089-32.272 0-19.098-15.533-34.635-34.625-34.635zm-181.175-235.372c0-15.172 4.099-30.04 11.856-42.998 4.776-7.979 16.178-7.987 20.959 0 7.756 12.957 11.856 27.826 11.856 42.997 0 12.66-2.854 25.178-8.285 36.47h-28.101c-5.432-11.29-8.285-23.808-8.285-36.469zm-71.903 88.232c0-20.271 16.492-36.763 36.763-36.763h114.949c20.271 0 36.763 16.492 36.763 36.763v30.647c0 8.405-6.844 15.407-15.407 15.407-8.495 0-15.407-6.912-15.407-15.407v-6.398c0-13.238-10.77-24.008-24.008-24.008s-24.008 10.77-24.008 24.008v34.599c0 8.495-6.912 15.407-15.407 15.407s-15.407-6.912-15.407-15.407v-44.966c0-13.215-10.747-24.008-24.008-24.008-13.238 0-24.008 10.77-24.008 24.008v27.131c0 8.377-6.768 15.405-15.46 15.405-8.438-.03-15.354-6.891-15.354-15.405v-41.013zm-126.848 194.494c-39.671 0-71.946-32.275-71.946-71.946s32.275-71.946 71.946-71.946 71.945 32.274 71.945 71.945v24.593h-24.771v-24.593c0-26.012-21.162-47.174-47.174-47.174s-47.175 21.163-47.175 47.174c0 26.013 21.163 47.175 47.175 47.175h9.962c-1.416 3.826-2.14 8.002-2.14 12.052 0 4.253.832 8.729 2.411 12.72zm20.861-39.77h-20.861c-17.742 0-32.176-14.435-32.176-32.176s14.434-32.175 32.176-32.175c17.741 0 32.175 14.434 32.175 32.175v26.149c-4.163 1.295-7.985 3.364-11.314 6.027zm366.212 45.325c-19.211 7.392-34.946 19.073-46.774 34.727-10.791 14.31-27.919 22.854-45.817 22.854h-166.592c-17.898 0-35.026-8.543-45.821-22.86-11.824-15.648-27.56-27.331-46.768-34.72-7.111-2.74-12.481-9.773-12.481-18.276 0-10.733 8.739-19.635 19.626-19.635h337.48c10.821 0 19.626 8.808 19.626 19.635 0 8.103-4.965 15.381-12.479 18.275z"/></g></g></svg>