<svg id="Capa_1" enable-background="new 0 0 512 512" height="512" viewBox="0 0 512 512" width="512" xmlns="http://www.w3.org/2000/svg"><g><g><path d="m174.122 113.788-29.747 61.765h223.25l-29.747-61.765-81.878-47.234z" fill="#bc9bdd"/><path d="m214.122 127.293c0-13.46 1.534-26.561 4.436-39.139l-44.436 25.635-29.747 61.765h76.559c-4.43-15.322-6.812-31.512-6.812-48.261z" fill="#b08bd7"/><path d="m337.878 113.788c-25.816-5.53-53.526-8.442-81.878-8.442s-56.062 2.913-81.878 8.442l37.894-78.66c8.137-16.884 25.236-27.628 43.984-27.628s35.847 10.744 43.984 27.629z" fill="#5c586f"/><path d="m261.818 7.854c-1.916-.23-3.857-.354-5.818-.354-18.748 0-35.847 10.744-43.984 27.629l-37.894 78.66c13.27-2.843 27.044-4.988 41.145-6.407 4.389-38.38 21.295-72.955 46.551-99.528z" fill="#4f4c5f"/><ellipse cx="256" cy="249.564" fill="#4f4c5f" rx="183.336" ry="93.301"/><path d="m398.976 365.547c35.125 0 63.599 31.106 63.599 69.477 0 9.798-1.866 19.116-5.216 27.569 12.525 2.407 21.99 13.418 21.99 26.645 0 8.429-6.833 15.262-15.262 15.262h-65.111c-35.125 0-63.599-31.106-63.599-69.477s28.475-69.476 63.599-69.476z" fill="#8bdf9e"/><path d="m113.024 365.547c-35.125 0-63.599 31.106-63.599 69.477 0 9.798 1.866 19.116 5.216 27.569-12.525 2.407-21.99 13.418-21.99 26.645 0 8.429 6.833 15.262 15.262 15.262h65.111c35.125 0 63.599-31.106 63.599-69.477s-28.475-69.476-63.599-69.476z" fill="#8bdf9e"/><path d="m446.151 394.209c0-1.981-.05-3.956-.122-5.929-11.633-13.966-28.405-22.733-47.052-22.733-35.125 0-63.599 31.106-63.599 69.477 0 36.305 25.495 66.088 57.99 69.192 3.933-3.349 7.832-6.946 11.692-10.805 26.498-26.498 41.091-61.728 41.091-99.202z" fill="#73d98b"/><path d="m180.599 504.5c-48.597-11.518-84.75-58.17-84.75-110.291 0-19.41 4.175-37.853 11.691-54.473 7.506-16.61 18.341-31.397 31.651-43.515 10.306-9.379 16.141-22.71 16.141-36.651v-7.444c0-27.802 22.537-50.339 50.328-50.339 27.802 0 50.339 22.537 50.339 50.339 0-27.802 22.537-50.339 50.339-50.339 13.901 0 26.478 5.632 35.582 14.746 9.115 9.104 14.746 21.691 14.746 35.592v7.444c0 13.942 5.835 27.272 16.141 36.651 26.62 24.227 43.342 59.158 43.342 97.988 0 30.46-12.343 58.027-32.303 77.988-14.196 14.196-32.252 27.517-52.447 32.303l-75.399-48.341z" fill="#8bdf9e"/><path d="m356.901 434.486c0 25.734-9.634 49.218-25.5 67.04-8.198 1.945-16.752 2.974-25.541 2.974h-99.72c-8.789 0-17.343-1.029-25.541-2.974-15.866-17.822-25.5-41.305-25.5-67.04 0-55.726 45.175-100.911 100.901-100.911s100.901 45.186 100.901 100.911z" fill="#b9ebc2"/><g fill="#73d98b"><path d="m336.298 449.126c22.809 0 41.298 18.49 41.298 41.298 0 7.774-6.302 14.075-14.075 14.075h-54.446c-7.774 0-14.075-6.302-14.075-14.075 0-22.808 18.49-41.298 41.298-41.298z"/><path d="m175.702 449.126c-22.809 0-41.298 18.49-41.298 41.298 0 7.774 6.302 14.075 14.075 14.075h54.446c7.774 0 14.075-6.302 14.075-14.075 0-22.808-18.49-41.298-41.298-41.298z"/><path d="m133.522 385.784c0-74.497 38.696-139.957 97.084-177.375-7.355-4.206-15.865-6.622-24.945-6.622-27.792 0-50.328 22.537-50.328 50.339v7.444c0 13.942-5.835 27.272-16.141 36.652-13.31 12.119-24.146 26.906-31.651 43.515-7.516 16.62-11.691 35.063-11.691 54.473 0 47.302 29.778 90.095 71.609 106.214-21.46-32.987-33.937-72.354-33.937-114.64z"/></g><path d="m147.203 460.552c-7.881 7.521-12.799 18.119-12.799 29.873 0 7.774 6.302 14.075 14.075 14.075h21.699c-9.297-13.589-17.037-28.324-22.975-43.948z" fill="#55d47b"/></g><g><path d="m192.403 263.02c-4.142 0-7.5 3.358-7.5 7.5v12.22c0 4.142 3.358 7.5 7.5 7.5s7.5-3.358 7.5-7.5v-12.22c0-4.143-3.358-7.5-7.5-7.5z"/><path d="m319.596 263.02c-4.142 0-7.5 3.358-7.5 7.5v12.22c0 4.142 3.358 7.5 7.5 7.5s7.5-3.358 7.5-7.5v-12.22c0-4.143-3.358-7.5-7.5-7.5z"/><path d="m277.694 276.722c-3.123-2.721-7.86-2.396-10.582.727-2.806 3.219-6.856 5.066-11.113 5.066-4.256 0-8.307-1.847-11.112-5.066-2.721-3.124-7.459-3.448-10.582-.727s-3.448 7.459-.727 10.582c5.655 6.49 13.827 10.211 22.421 10.211s16.767-3.722 22.421-10.211c2.722-3.123 2.397-7.861-.726-10.582z"/><path d="m466.889 457.859c2.117-7.366 3.187-15.016 3.187-22.835 0-34.24-20.483-63.818-50.345-73.609-3.898-16.108-10.635-31.421-19.865-45.191 30.362-18.251 46.971-41.701 46.971-66.66 0-38.655-37.942-65.341-73.727-79.907-.221-.458-66.015-137.05-66.369-137.785-9.332-19.361-29.248-31.872-50.741-31.872s-41.41 12.511-50.741 31.874c-.337.7-66.198 137.429-66.369 137.783-35.831 14.585-73.727 41.277-73.727 79.907 0 24.948 16.594 48.387 46.931 66.635-9.277 13.804-16.031 29.162-19.894 45.238-29.825 9.814-50.276 39.373-50.276 73.587 0 7.82 1.069 15.47 3.187 22.835-11.934 5.586-19.96 17.709-19.96 31.379 0 12.551 10.21 22.762 22.761 22.762h65.111c7.851 0 15.515-1.39 22.86-4.094 3.549 2.564 7.892 4.094 12.595 4.094h215.042c4.703 0 9.047-1.53 12.596-4.095 7.345 2.704 15.009 4.095 22.86 4.095h65.111c12.551 0 22.762-10.211 22.762-22.762 0-13.67-8.026-25.793-19.96-31.379zm-287.628-337.457c15.303-3.109 29.655-4.701 30.732-5.06 3.31-1.103 5.5-4.413 5.067-8.011-.496-4.112-4.23-7.046-8.343-6.549-5.796.698-13.037 1.738-19.364 2.823l31.419-65.221c6.846-14.205 21.459-23.384 37.228-23.384s30.381 9.179 37.227 23.383l31.416 65.214c-21.304-3.7-45.087-5.751-68.643-5.751-6.308 0-12.803.152-19.304.452-4.129.19-7.338 3.692-7.146 7.838.191 4.137 3.692 7.34 7.838 7.146 6.271-.29 12.533-.436 18.612-.436 27.033 0 52.794 2.669 76.728 7.535l20.288 42.125c-30.991-9.559-64.84-13.743-97.016-13.743-32.046 0-65.903 4.146-97.017 13.743zm-99.097 129.162c0-32.399 36.734-55.173 66.945-67.027 34.025-13.311 72.645-18.773 108.892-18.773 91.63 0 175.836 36.983 175.836 85.801 0 19.813-14.506 39.048-41.013 54.596-3.666-4.357-8.403-9.333-12.967-13.486-16.969-15.444-13.169-35.357-13.689-38.549 0-31.932-25.839-57.838-57.828-57.838-21.552 0-40.39 11.85-50.338 29.376-9.949-17.526-28.787-29.376-50.339-29.376-31.887 0-57.828 25.946-57.828 57.838-.225 5.225.835 11.491-2.038 20.406-4.751 14.746-12.315 17.017-24.625 31.624-26.504-15.548-41.008-34.782-41.008-54.592zm32.859 247.436h-65.111c-4.279 0-7.761-3.482-7.761-7.762 0-9.4 6.689-17.509 15.905-19.28 4.613-.886 7.289-5.758 5.557-10.128-3.111-7.851-4.688-16.197-4.688-24.807 0-24.577 12.802-46.134 32.25-56.128-4.554 42.099 10.935 79.448 38.183 104.908-1.043 7.589-.007 10.67.029 11.142-4.661 1.366-9.468 2.055-14.364 2.055zm28.88-6.575c0-18.751 15.302-33.798 33.798-33.798.583 0 1.161.015 1.737.044 17.735.902 32.062 15.604 32.062 33.754 0 3.392-2.406 6.257-6.427 6.568-.05.001-.098.007-.148.007h-54.446c-3.601 0-6.576-2.932-6.576-6.575zm81.576 6.575c.595-1.849 1.021-4.364 1.021-6.575 0-26.908-21.891-48.798-48.798-48.798-4.274 0-8.571.561-12.689 1.657-.275-2.926-.414-5.865-.414-8.797 0-51.507 41.9-93.411 93.401-93.411 21.422 0 42.353 7.44 58.938 20.951 3.211 2.615 7.936 2.133 10.552-1.078s2.133-7.936-1.078-10.552c-19.252-15.684-43.548-24.321-68.411-24.321-59.773 0-108.401 48.633-108.401 108.411 0 5.089.362 10.194 1.074 15.24-6.755 4.478-12.351 10.625-16.184 17.967-23.318-25.104-34.465-60.41-26.56-98.813.016-.075.019-.151.032-.226 9.112-43.869 36.973-64.94 42.471-71.128 17.765-19.993 13.882-41.897 14.401-45.401 0-23.621 19.212-42.838 42.828-42.838 23.622 0 42.839 19.217 42.839 42.838 0 4.142 3.358 7.5 7.5 7.5s7.5-3.358 7.5-7.5c0-23.621 19.217-42.838 42.838-42.838 23.651 0 42.828 19.147 42.828 42.838.529 3.038-3.918 29.156 18.594 49.643 46.283 42.119 57.655 117.861 11.102 164.799-3.683-6.554-9.035-12.408-15.546-16.754.72-5.073 1.085-10.208 1.085-15.327 0-21.559-6.318-42.391-18.272-60.244-2.305-3.442-6.963-4.363-10.405-2.059-3.442 2.305-4.364 6.963-2.059 10.405 10.295 15.375 15.736 33.321 15.736 51.898 0 2.935-.139 5.877-.414 8.805-3.802-1.023-8.335-1.665-12.688-1.665-26.908 0-48.798 21.891-48.798 48.798 0 2.032.362 4.498 1.021 6.575zm85.596 0c-3.425 0-6.575-2.806-6.575-6.575 0-18.603 15.127-33.798 33.798-33.798h.004c18.514.004 33.794 15.079 33.794 33.798 0 3.61-2.947 6.575-6.575 6.575zm155.012 0h-65.111c-4.896 0-9.703-.689-14.364-2.054.78-4.146.487-8.676-.233-12.851 30.661-28.423 42.678-64.581 38.433-103.206 19.456 9.991 32.263 31.551 32.263 56.134 0 8.609-1.578 16.956-4.688 24.807-1.731 4.368.942 9.241 5.558 10.128 9.216 1.771 15.905 9.879 15.905 19.28-.001 4.28-3.483 7.762-7.763 7.762z"/></g></g></svg>