<svg id="Capa_1" enable-background="new 0 0 497 497" height="512" viewBox="0 0 497 497" width="512" xmlns="http://www.w3.org/2000/svg"><g><path d="m297.851 226.569c0 57.761-46.881 104.351-104.331 104.351h-89.191c-59.067 0-106.349-49.039-104.261-108.009l148.857-34.634 148.857 34.634c.049 1.22.069 2.439.069 3.658z" fill="#f9d888"/><path d="m255.968 114.903-107.042 35.515-107.047-35.515 27.392-57.662c14.642-30.807 45.676-50.337 79.648-50.337 34.038 0 65.047 19.587 79.648 50.337z" fill="#e8e8e8"/><path d="m190.956 17.57c-12.666-6.869-27.057-10.667-42.037-10.667-33.971 0-65.005 19.53-79.648 50.337l-27.392 57.662 30.059 9.973c21.564-51.296 65.199-91.02 119.018-107.305z" fill="#e0e0e0"/><path d="m57.675 209.508-57.608 13.404c-2.087 58.97 45.195 108.009 104.261 108.009h8.146c-31.503-31.486-51.887-74.086-54.799-121.413z" fill="#f5c956"/><path d="m297.781 222.912h-297.714c.49-14.021 3.797-28.012 10.023-41.103l31.789-66.906h214.089l31.789 66.906c6.226 13.091 9.544 27.092 10.024 41.103z" fill="#ffa875"/><path d="m497 385.745c0 57.761-46.881 104.351-104.331 104.351h-89.191c-59.067 0-106.349-49.039-104.261-108.009l148.857-34.634 148.857 34.634c.049 1.219.069 2.439.069 3.658z" fill="#f9d888"/><path d="m455.118 274.078-107.042 35.515-107.047-35.515 27.392-57.662c14.642-30.807 45.676-50.337 79.648-50.337 34.038 0 65.047 19.587 79.648 50.337z" fill="#e8e8e8"/><path d="m496.93 382.087h-297.714c.49-14.021 3.797-28.012 10.023-41.103l31.789-66.906h214.089l31.789 66.906c6.227 13.092 9.544 27.092 10.024 41.103z" fill="#ffa875"/><path d="m57.3 197.771c0-29.739 6.906-57.862 19.186-82.868h-34.607l-31.789 66.906c-6.226 13.091-9.534 27.082-10.023 41.103h58.909c-1.099-8.225-1.676-16.616-1.676-25.141z" fill="#ff995d"/><g><g><g><ellipse cx="63.195" cy="179.843" fill="#fff" rx="31.633" ry="25.191"/></g><g><ellipse cx="234.655" cy="179.843" fill="#fff" rx="31.633" ry="25.191"/></g></g></g><g><path d="m81.631 163.093c-4.142 0-7.5-3.358-7.5-7.5v-12.931c0-4.142 3.358-7.5 7.5-7.5s7.5 3.358 7.5 7.5v12.931c0 4.142-3.358 7.5-7.5 7.5z" fill="#423e4f"/></g><g><path d="m216.22 163.093c-4.142 0-7.5-3.358-7.5-7.5v-12.931c0-4.142 3.358-7.5 7.5-7.5s7.5 3.358 7.5 7.5v12.931c0 4.142-3.358 7.5-7.5 7.5z" fill="#423e4f"/></g><g><path d="m148.925 170.791c-8.967 0-17.495-3.884-23.396-10.655-2.721-3.123-2.396-7.86.727-10.582 3.123-2.721 7.86-2.396 10.582.727 3.052 3.502 7.458 5.51 12.087 5.51 4.63 0 9.036-2.008 12.088-5.51 2.721-3.123 7.459-3.448 10.582-.727s3.448 7.459.727 10.582c-5.902 6.771-14.43 10.655-23.397 10.655z" fill="#423e4f"/></g><path d="m390.105 176.746c-12.666-6.869-27.057-10.667-42.037-10.667-33.971 0-65.005 19.53-79.648 50.337l-27.392 57.662 30.059 9.973c21.564-51.296 65.199-91.02 119.018-107.305z" fill="#e0e0e0"/><path d="m256.824 368.684-57.608 13.403c-2.087 58.97 45.195 108.009 104.261 108.009h8.146c-31.503-31.486-51.887-74.086-54.799-121.412z" fill="#f5c956"/><path d="m256.449 356.947c0-29.739 6.906-57.862 19.186-82.868h-34.607l-31.789 66.906c-6.226 13.091-9.534 27.082-10.023 41.103h58.909c-1.098-8.226-1.676-16.616-1.676-25.141z" fill="#ff995d"/><g><g><g><ellipse cx="262.345" cy="339.018" fill="#fff" rx="31.633" ry="25.191"/></g><g><ellipse cx="433.805" cy="339.018" fill="#fff" rx="31.633" ry="25.191"/></g></g></g><g><path d="m280.78 322.269c-4.142 0-7.5-3.358-7.5-7.5v-12.931c0-4.142 3.358-7.5 7.5-7.5s7.5 3.358 7.5 7.5v12.931c0 4.142-3.358 7.5-7.5 7.5z" fill="#423e4f"/></g><g><path d="m415.369 322.269c-4.142 0-7.5-3.358-7.5-7.5v-12.931c0-4.142 3.358-7.5 7.5-7.5s7.5 3.358 7.5 7.5v12.931c0 4.142-3.358 7.5-7.5 7.5z" fill="#423e4f"/></g><g><path d="m348.075 329.967c-8.967 0-17.495-3.884-23.396-10.655-2.721-3.123-2.396-7.86.727-10.582 3.124-2.721 7.86-2.396 10.582.727 3.052 3.502 7.458 5.51 12.087 5.51 4.63 0 9.036-2.008 12.088-5.51 2.722-3.123 7.458-3.448 10.582-.727 3.123 2.721 3.448 7.459.727 10.582-5.902 6.771-14.43 10.655-23.397 10.655z" fill="#423e4f"/></g></g></svg>