<svg id="Capa_1" enable-background="new 0 0 497 497" height="512" viewBox="0 0 497 497" width="512" xmlns="http://www.w3.org/2000/svg"><g><path d="m486.835 67.056-56.891-56.891c-14.902-14.903-39.54-13.19-52.237 3.632l-34.6 45.84 22.942 71.313 71.313 22.942 45.84-34.6c16.822-12.696 18.536-37.333 3.633-52.236z" fill="#f9d888"/><path d="m381.53 196.957-15.48-66.006-66.006-15.48c-62.352 62.351-97.937-73.681-272.004 119.644-14.107 15.667-23.382 35.09-26.688 55.911-5.479 34.504 5.899 69.544 30.603 94.247l79.773 79.773c24.703 24.703 59.744 36.081 94.247 30.602 20.822-3.306 40.244-12.581 55.912-26.688 193.324-174.066 57.292-209.652 119.643-272.003z" fill="#ff748f"/><path d="m299.356 149.38c25.304 0 49.775 2.762 72.943 8.219l-6.25-26.649-66.006-15.48c-62.352 62.352-97.937-73.681-272.004 119.645-14.107 15.667-23.382 35.09-26.688 55.912-5.479 34.503 5.899 69.544 30.603 94.247l4.383 4.383c12.046-134.694 125.192-240.277 263.019-240.277z" fill="#fd5f7e"/><path d="m462.985 43.206-33.041-33.041c-14.902-14.903-39.54-13.19-52.237 3.632l-34.6 45.84 13.871 43.117c23.888-33.787 62.221-56.628 106.007-59.548z" fill="#f5c956"/><path d="m432.056 146.431-81.486-81.487c-10.747-10.746-28.17-10.746-38.917 0l-11.609 11.609c-10.747 10.746-10.747 28.17 0 38.916l81.486 81.487c10.747 10.746 28.17 10.746 38.917 0l11.609-11.609c10.746-10.746 10.746-28.17 0-38.916z" fill="#ff9db0"/><circle cx="181.239" cy="315.761" fill="#e8e8e8" r="89.031"/><path d="m160.609 282.446c-2.516 1.561-4.897 3.422-7.081 5.605-15.304 15.304-15.304 40.117 0 55.421s40.117 15.304 55.421 0 15.304-40.117 0-55.421c-3.605-3.605-7.741-6.349-12.153-8.256z" fill="#4f4c5f"/><circle cx="178.379" cy="276.688" fill="#fff" r="18.692"/><g fill="#ff9db0"><circle cx="158.608" cy="414.329" r="32.329"/><circle cx="305.219" cy="215.562" r="24.999"/><circle cx="236.631" cy="194.619" r="18.439"/></g><path d="m371.244 85.619-20.674-20.674c-10.747-10.747-28.17-10.747-38.917 0l-11.609 11.609c-10.747 10.746-10.747 28.17 0 38.916l35.896 35.897c6.089-24.895 17.988-47.979 35.304-65.748z" fill="#ff748f"/></g></svg>