<svg id="Capa_1" enable-background="new 0 0 497 497" height="512" viewBox="0 0 497 497" width="512" xmlns="http://www.w3.org/2000/svg"><g><path d="m377.841 432.404c-5.162-19.459-9.953-42.902-9.953-62.879l-44.913-19.671h-37.041v122.558h61.194c20.901.001 36.072-19.806 30.713-40.008z" fill="#4f4c5f"/><path d="m119.159 432.404c5.162-19.459 9.953-42.902 9.953-62.879l44.913-19.671h37.041v122.558h-61.194c-20.9.001-36.072-19.806-30.713-40.008z" fill="#4f4c5f"/><path d="m406.689 267.473c-21.172-17.396-42.005-24.617-42.005-24.617h-232.367s-20.833 7.221-42.005 24.617c-12.268 10.08-8.949 29.793 6.048 35.008 14.537 5.055 31.01 13.595 42.284 27.899h219.713c11.275-14.304 27.747-22.844 42.284-27.899 14.997-5.214 18.316-24.928 6.048-35.008z" fill="#ff748f"/><path d="m248.5 396.772-11.136 27.995 11.136 23.059 30.524 24.587 30.524-24.587v-51.054l-30.524-27.246z" fill="#5c586f"/><path d="m248.5 396.772v51.054l-30.524 24.587-30.524-24.587v-51.054l30.524-27.246z" fill="#6a647f"/><path d="m160.988 374.427-18.512 9.394c-12.121 6.144-27.007 1.353-33.201-10.846-6.164-12.17-1.314-27.027 10.856-33.201l18.512-9.394 22.345 15.706z" fill="#ffdcce"/><path d="m336.012 374.427 18.512 9.394c12.121 6.144 27.007 1.353 33.201-10.846 6.164-12.17 1.314-27.027-10.856-33.201l-18.512-9.394-25.927 15.706z" fill="#ffdcce"/><path d="m206.382 379.875-18.929 16.896v51.054l30.524 24.587 4.254-3.426c-8.465-22.205-14.254-51.338-15.849-89.111z" fill="#5c586f"/><path d="m207.594 295.401-68.95 34.979 22.344 44.047 26.467-13.426v35.77h122.09v-35.77l26.467 13.426 22.345-44.047-68.951-34.979z" fill="#e8e8e8"/><path d="m248.5 447.826v18.65c0 16.846-13.652 30.524-30.524 30.524-16.852 0-30.524-13.662-30.524-30.524v-18.65z" fill="#4f4c5f"/><path d="m248.5 447.826v18.65c0 16.846 13.652 30.524 30.524 30.524 16.852 0 30.524-13.662 30.524-30.524v-18.65z" fill="#423e4f"/><path d="m432.298 183.798c0-101.346-82.452-183.798-183.798-183.798-101.347 0-183.798 82.452-183.798 183.798z" fill="#5c586f"/><path d="m135.478 168.57c0-78.762 51.524-145.479 122.701-168.315-3.206-.167-6.433-.255-9.679-.255-101.347 0-183.798 82.452-183.798 183.798h71.436c-.429-5.02-.66-10.097-.66-15.228z" fill="#4f4c5f"/><circle cx="400.688" cy="182.81" fill="#ffcabd" r="36.004"/><path d="m391.813 133.192c-13.659-47.013-65.507-72.249-110.149-52.151-6.326 2.848-12.446 6.588-18.185 11.408-8.653 7.268-21.304 7.268-29.958 0-5.085-4.271-10.469-7.694-16.031-10.4-45.272-22.026-98.91 3.736-112.602 52.184-3.654 12.929-5.61 26.572-5.61 40.671-.001 82.367 66.71 139.266 149.077 139.344 82.481.078 149.366-56.88 149.366-139.343 0-14.478-2.062-28.475-5.908-41.713z" fill="#ffdcce"/><path d="m204.22 308.473c-41.811-32.324-68.742-82.965-68.742-139.903 0-33.37 9.252-64.576 25.324-91.202-25.916 7.663-47.847 28.325-55.914 56.866-1.203 4.256-2.202 8.597-3.028 12.999-1.809-.279-3.661-.426-5.548-.426-19.885 0-36.004 16.12-36.004 36.004s16.12 36.004 36.004 36.004c3.261 0 6.418-.441 9.423-1.254 14.359 45.288 51.428 78.202 98.485 90.912z" fill="#ffcabd"/><g fill="#ff9db0"><ellipse cx="159.138" cy="216.598" rx="32.973" ry="26.258"/><ellipse cx="337.863" cy="216.598" rx="32.973" ry="26.258"/></g><g fill="#423e4f"><path d="m271.92 185.266c-3.123-2.721-7.861-2.396-10.581.728-3.241 3.719-7.921 5.852-12.839 5.852s-9.599-2.133-12.84-5.853c-2.723-3.123-7.461-3.447-10.582-.726-3.123 2.722-3.448 7.459-.727 10.582 6.092 6.989 14.894 10.998 24.148 10.998 9.256 0 18.058-4.009 24.147-10.998 2.724-3.125 2.397-7.862-.726-10.583z"/><path d="m193.576 165.81-27.031-7.243c-4.001-1.072-8.113 1.303-9.186 5.304s1.302 8.113 5.303 9.186l8.966 2.402c-.491.997-.774 2.115-.774 3.302v11.644c0 4.142 3.357 7.5 7.5 7.5s7.5-3.358 7.5-7.5v-11.135l3.839 1.028c.65.174 1.304.257 1.946.257 3.312 0 6.342-2.21 7.239-5.561 1.073-4-1.301-8.112-5.302-9.184z"/><path d="m339.642 163.87c-1.071-4.001-5.183-6.375-9.186-5.304l-27.031 7.243c-4.001 1.072-6.375 5.185-5.303 9.186.897 3.351 3.928 5.561 7.239 5.561.643 0 1.296-.083 1.946-.257l3.838-1.028v11.134c0 4.142 3.357 7.5 7.5 7.5s7.5-3.358 7.5-7.5v-11.645c0-1.187-.283-2.304-.773-3.302l8.967-2.402c4.001-1.073 6.375-5.185 5.303-9.186z"/></g><path d="m207.412 396.771c-.966-11.891-1.484-24.73-1.484-38.606 0-22.671 5.617-44.026 15.523-62.765h-13.857l-68.951 34.979 22.345 44.047 26.467-13.426v35.771z" fill="#e0e0e0"/><path d="m230.543 318.544s-49.229 45.39-49.229-13.185 49.229-13.185 49.229-13.185z" fill="#fd5f7e"/><path d="m266.458 318.544s49.229 45.39 49.229-13.185-49.229-13.185-49.229-13.185z" fill="#fd5f7e"/><path d="m256.136 284.218h-15.561c-11.675 0-21.14 9.465-21.14 21.14 0 11.675 9.465 21.14 21.14 21.14h15.561c11.675 0 21.14-9.465 21.14-21.14 0-11.675-9.465-21.14-21.14-21.14z" fill="#ff748f"/><path d="m215.564 447.826h-28.112v18.65c0 16.862 13.672 30.523 30.524 30.523 5.752 0 11.128-1.592 15.718-4.354-7.208-11.736-13.418-26.492-18.13-44.819z" fill="#423e4f"/></g></svg>