<svg id="Capa_1" enable-background="new 0 0 497 497" height="512" viewBox="0 0 497 497" width="512" xmlns="http://www.w3.org/2000/svg"><g><path d="m497 434.855v61.74h-497v-61.74l248.5-37.872z" fill="#edb798"/><path d="m248.5.405c-102.583 0-185.743 83.16-185.743 185.743v239.143h371.486v-239.143c0-102.583-83.16-185.743-185.743-185.743z" fill="#b2b0bc"/><path d="m152.447 254.476c-9.792-6.93-23.347-4.611-30.278 5.181-6.93 9.792-4.611 23.347 5.181 30.278l38.441 27.208 25.097-35.458z" fill="#8bdf9e"/><path d="m162.509 217.976c0-11.996 9.725-21.721 21.721-21.721 11.996 0 21.721 9.725 21.721 21.721 0-11.996 9.725-21.721 21.721-21.721 11.996 0 21.721 9.725 21.721 21.721 0-11.996 9.725-21.721 21.721-21.721 11.996 0 21.721 9.725 21.721 21.721 0-11.996 9.725-21.721 21.721-21.721 11.996 0 21.721 9.725 21.721 21.721v179.007h-173.768z" fill="#b9ebc2"/><g><g fill="#fff"><path d="m220.219 85.579c0-13.602-11.502-24.668-25.64-24.668h-17.554c-.004 0-.007 0-.011 0s-.007 0-.011 0c-4.142 0-7.5 3.358-7.5 7.5v66.059c0 4.142 3.358 7.5 7.5 7.5s7.5-3.358 7.5-7.5v-20.707l22.585 25.662c2.741 3.114 7.48 3.408 10.585.675 3.109-2.737 3.412-7.476.675-10.585l-17.598-19.995c11.166-2.666 19.469-12.386 19.469-23.941zm-25.64 9.668c-2.314 0-6.359.017-9.975.035-.051-9.651-.022-7.433-.057-19.371h10.031c5.767 0 10.64 4.427 10.64 9.668s-4.872 9.668-10.639 9.668z"/><path d="m306.989 60.911h-18.394c-4.162 0-7.5 3.392-7.5 7.5v66.059c0 4.142 3.358 7.5 7.5 7.5s7.5-3.358 7.5-7.5v-21.235c3.89-.02 8.374-.041 10.894-.041 14.616 0 26.507-11.727 26.507-26.142.001-14.414-11.891-26.141-26.507-26.141zm0 37.283c-2.501 0-6.931.02-10.807.04-.058-11.257-.025-8.425-.064-22.324h10.871c6.238 0 11.507 5.103 11.507 11.142.001 6.04-5.269 11.142-11.507 11.142z"/><path d="m249.776 60.911c-4.142 0-7.5 3.358-7.5 7.5v66.059c0 4.142 3.358 7.5 7.5 7.5s7.5-3.358 7.5-7.5v-66.059c0-4.143-3.358-7.5-7.5-7.5z"/></g></g><path d="m96.219 231.973c0-98.726 29.882-184.442 113.703-227.545-84.067 17.759-147.165 92.366-147.165 181.719v239.144h79.374c-28.943-37.78-45.912-97.847-45.912-193.318z" fill="#a19dae"/><path d="m104.027 433.029c0-4.738.17-9.437.471-14.099l-104.498 15.925v61.74h113.548c-6.185-20.096-9.521-41.441-9.521-63.566z" fill="#e8a882"/><path d="m497 407.645v27.21h-497v-27.21c0-9.81 3.12-19.08 8.57-26.68 5.44-7.61 13.21-13.55 22.49-16.71 10.07-3.43 20.57-5.14 31.06-5.14 10.5 0 21 1.71 31.07 5.14s20.57 5.14 31.06 5.14 20.99-1.71 31.06-5.14 20.57-5.14 31.07-5.14c10.49 0 20.99 1.71 31.06 5.14s20.56 5.14 31.06 5.14 20.99-1.71 31.06-5.14 20.57-5.14 31.06-5.14c10.5 0 21 1.71 31.07 5.14s20.57 5.14 31.06 5.14 20.99-1.71 31.06-5.14c20.14-6.86 41.99-6.86 62.13 0 18.57 6.32 31.06 23.77 31.06 43.39z" fill="#8bdf9e"/><path d="m104.027 433.029c0-22.366 3.403-43.938 9.718-64.225-6.955-.762-13.851-2.266-20.555-4.549-10.07-3.43-20.57-5.14-31.07-5.14-10.49 0-20.99 1.71-31.06 5.14-9.28 3.16-17.05 9.1-22.49 16.71-5.45 7.6-8.57 16.87-8.57 26.68v27.21h104.05c-.005-.609-.023-1.215-.023-1.826z" fill="#73d98b"/></g></svg>