<svg id="Capa_1" enable-background="new 0 0 497 497" height="512" viewBox="0 0 497 497" width="512" xmlns="http://www.w3.org/2000/svg"><g><path d="m397.824 287.253h-137.7v-103.45h183.94c.3 16.05 1.91 30.31 4.2 42.73 5.81 31.58-18.33 60.72-50.44 60.72z" fill="#edb798"/><path d="m260.263 427.826-7.463 28.289 7.463 10.361c0 16.846 13.652 30.524 30.524 30.524 16.852 0 30.524-13.662 30.524-30.524v-38.65z" fill="#ffbe9c"/><path d="m141.2 374.059-2.625-1.878c-5.596-4.004-13.094-3.95-18.704.034-5.574 3.957-13.047 3.946-18.609-.034-5.579-3.991-13.078-3.991-18.657 0-5.563 3.98-13.036 3.991-18.609.034-5.611-3.984-13.108-4.038-18.704-.034l-2.625 1.878c-4.207 3.01-6.704 7.866-6.704 13.039v56.172c0 14.086 11.419 25.505 25.505 25.505h60.931c14.086 0 25.505-11.419 25.505-25.505v-56.172c0-5.173-2.497-10.028-6.704-13.039z" fill="#bc9bdd"/><path d="m219.357 295.401-68.95 34.979-4.849 28.057 27.194 15.99 26.467-13.427v28.771l60.904 29.027 61.185-29.027v-28.771l26.467 13.427 28.672-15.99-6.327-28.057-68.951-34.979z" fill="#ff748f"/><path d="m460.764 25.03c-.328-6.508-3.972-12.4-9.621-15.648l-.161-.092c-8.538-4.909-19.349-2.534-25.175 5.407-9.428 12.854-26.629 30.709-53.36 38.884l47.372 61.581s45.129-7.149 40.945-90.132z" fill="#f9d888"/><path d="m59.763 25.03c.328-6.508 3.972-12.4 9.621-15.648l.161-.092c8.538-4.909 19.349-2.534 25.175 5.407 9.428 12.854 26.629 30.709 53.36 38.884l-47.372 61.581s-45.129-7.149-40.945-90.132z" fill="#f9d888"/><path d="m100.708 115.162 47.372-61.581c-15.926-4.87-28.444-13.179-37.976-21.816-16.344 16.144-30.107 34.893-40.606 55.57 12.2 24.806 31.21 27.827 31.21 27.827z" fill="#f5c956"/><path d="m410.422 31.765c-9.532 8.638-22.05 16.946-37.975 21.816l47.372 61.581s19.009-3.021 31.209-27.826c-10.498-20.678-24.262-39.426-40.606-55.571z" fill="#f5c956"/><path d="m444.061 183.798c0-101.347-82.452-183.798-183.798-183.798-101.347 0-183.798 82.451-183.798 183.798z" fill="#ff748f"/><path d="m113.683 147.24v-.01c13.1-67.17 73.66-111.6 146.44-111.67 72.89-.07 133.6 44.41 146.73 111.67l-.01.01z" fill="#edb798"/><path d="m260.124 183.803v103.45h-137.42c-32.11 0-56.25-29.14-50.44-60.72 2.29-12.42 3.9-26.68 4.2-42.73z" fill="#e8a882"/><path d="m171.225 61.486c-29.384 19.604-50.439 49.33-57.541 85.744v.01h26.66c3.065-31.563 14.021-60.816 30.881-85.754z" fill="#e8a882"/><circle cx="412.451" cy="182.81" fill="#ffbe9c" r="36.004"/><path d="m218.49 398.956c-.404-4.15-.616-8.357-.616-12.614 0-35.517 14.401-67.671 37.682-90.941h-36.198l-68.951 34.979-4.849 28.058 27.194 15.99 26.467-13.428v28.771z" fill="#fd5f7e"/><path d="m409.483 174.91c0 82.46-66.88 139.42-149.36 139.34-82.37-.08-149.07-56.98-149.08-139.34 0-9.59.9-18.82 2.64-27.67 0 0 72.76 1.24 128.03-45.17 10.72-8.99 26.38-8.99 37.1 0 55.27 46.41 128.03 45.17 128.03 45.17l.01-.01c1.73 8.85 2.63 18.09 2.63 27.68z" fill="#ffd3bc"/><path d="m201.106 303.651c-37.843-34.015-61.65-83.338-61.65-138.227 0-6.888.387-13.685 1.117-20.378-16.239 2.373-26.89 2.195-26.89 2.195-.002.01-.004.021-.006.031-1.773-.302-3.638-.465-5.602-.465-19.885 0-36.004 16.12-36.004 36.004 0 19.885 16.12 36.004 36.004 36.004 3.423 0 6.55-.488 9.392-1.381 12.788 40.455 43.681 71.052 83.639 86.217z" fill="#ffbe9c"/><g><g><g><ellipse cx="170.901" cy="216.598" fill="#ff9db0" rx="32.973" ry="26.258"/></g><g><ellipse cx="349.626" cy="216.598" fill="#ff9db0" rx="32.973" ry="26.258"/></g></g></g><g fill="#423e4f"><path d="m283.684 185.266c-3.123-2.721-7.86-2.396-10.582.727-3.241 3.719-7.921 5.852-12.839 5.852s-9.598-2.133-12.839-5.852c-2.721-3.123-7.459-3.448-10.582-.727s-3.448 7.459-.727 10.582c6.091 6.989 14.892 10.998 24.148 10.998 9.255 0 18.057-4.008 24.147-10.998 2.722-3.123 2.397-7.861-.726-10.582z"/><path d="m205.338 165.81-27.031-7.243c-3.995-1.072-8.113 1.302-9.186 5.303-1.072 4.001 1.302 8.114 5.304 9.186l8.966 2.403c-.491.997-.774 2.115-.774 3.302v11.644c0 4.143 3.358 7.5 7.5 7.5s7.5-3.357 7.5-7.5v-11.134l3.838 1.029c.65.174 1.303.257 1.946.257 3.311 0 6.342-2.21 7.24-5.561 1.072-4.002-1.302-8.115-5.303-9.186z"/><path d="m351.405 163.87c-1.073-4.001-5.187-6.375-9.186-5.303l-27.031 7.243c-4.001 1.072-6.375 5.185-5.304 9.186.898 3.351 3.928 5.561 7.24 5.561.643 0 1.296-.083 1.946-.257l3.838-1.029v11.134c0 4.143 3.358 7.5 7.5 7.5s7.5-3.357 7.5-7.5v-11.645c0-1.187-.283-2.305-.774-3.302l8.966-2.403c4.003-1.072 6.377-5.184 5.305-9.185z"/></g><g fill="#ffd3bc"><path d="m172.752 374.427-18.512 9.394c-12.121 6.144-27.007 1.353-33.201-10.846-6.164-12.17-1.314-27.027 10.856-33.201l18.512-9.394z"/><path d="m347.775 374.427 18.512 9.394c12.121 6.144 27.007 1.353 33.201-10.846 6.164-12.17 1.314-27.027-10.856-33.201l-18.512-9.394z"/><path d="m260.263 427.826v38.65c0 16.846-13.652 30.524-30.524 30.524-16.852 0-30.524-13.662-30.524-30.524v-38.65z"/></g><path d="m341.735 423.495-20.427-33.724h-122.37l-20.427 33.724c-6.47 10.682 1.221 24.331 13.709 24.331h135.807c12.488 0 20.179-13.65 13.708-24.331z" fill="#ff889e"/><path d="m217.92 389.771h-18.981l-20.427 33.724c-6.47 10.682 1.221 24.332 13.709 24.332h41.281c-9.451-17.326-15.032-37.064-15.582-58.056z" fill="#ff748f"/><path d="m63.997 396.927c0-7.975.972-15.721 2.793-23.135-.968-.429-1.907-.946-2.795-1.577-5.611-3.983-13.108-4.038-18.704-.034l-2.625 1.878c-4.208 3.01-6.704 7.866-6.704 13.039v56.172c0 14.086 11.419 25.505 25.505 25.505h23.895c-16.619-17.695-21.365-43.328-21.365-71.848z" fill="#b08bd7"/></g></svg>