<svg id="Capa_1" enable-background="new 0 0 497 497" height="512" viewBox="0 0 497 497" width="512" xmlns="http://www.w3.org/2000/svg"><g><path d="m128.268 400.99v32.138c0 14.869 12.054 26.923 26.923 26.923 14.869 0 26.923-12.054 26.923-26.923v-19.275c0-10.898 8.834-19.732 19.732-19.732 10.898 0 19.732 8.834 19.732 19.732v56.224c0 14.869 12.054 26.923 26.923 26.923 14.869 0 26.923-12.054 26.923-26.923v-43.607c0-10.898 8.834-19.732 19.732-19.732 10.898 0 19.732 8.834 19.732 19.732v14.374c0 14.869 12.054 26.923 26.923 26.923 14.869 0 26.923-12.054 26.923-26.923v-124.956h-240.466z" fill="#ff748f"/><path d="m128.268 364.729c7.234 4.876 14.746 9.325 22.502 13.273 14.43 7.347 29.733 13.01 45.496 16.932 1.771-.521 3.64-.813 5.58-.813 4.771 0 9.146 1.693 12.557 4.511 11.261 1.803 22.671 2.742 34.097 2.742 43.292 0 85.031-12.971 120.232-36.619v-48.868h-240.464z" fill="#fd5f7e"/><path d="m394.256 293.08 7.513-2.555c20.447-29.835 32.418-65.936 32.418-104.837 0-102.553-83.135-185.688-185.687-185.688s-185.687 83.135-185.687 185.687c0 36.432 10.5 70.407 28.627 99.081l7.599 2.966 1.222 9.782c33.896 44.861 87.678 73.858 148.239 73.858 56.311 0 106.762-25.07 140.816-64.652z" fill="#e8e8e8"/><circle cx="248.5" cy="156.61" fill="#8bdf9e" r="101.249"/><path d="m248.5 92.962c-.028 0-.056 0-.084 0-3.385.006-5.428 3.699-3.785 6.659 2.759 4.97 4.124 10.82 3.561 17.026-1.272 14.021-12.598 25.348-26.619 26.62-6.206.563-12.056-.802-17.026-3.561-2.96-1.643-6.653.401-6.659 3.785v.084c0 28.608 23.734 51.672 52.586 50.576 26.233-.996 47.608-22.371 48.604-48.604 1.094-28.851-21.97-52.585-50.578-52.585z" fill="#4f4c5f"/><path d="m388.839 267.634c-6.682-8.042-12.452-14.987-12.607-37.846-.028-4.125-3.38-7.449-7.499-7.449-.017 0-.035 0-.052 0-4.142.028-7.477 3.409-7.449 7.551.069 10.179 1.215 17.998 2.996 24.267-9.841-1.476-23.192-1.232-38.482 5.015-3.834 1.567-5.673 5.945-4.106 9.78 1.188 2.906 3.989 4.666 6.946 4.665.944 0 1.905-.18 2.833-.559 21.152-8.642 37.114-3.054 41.725-1.021 1.382 1.838 2.787 3.531 4.159 5.183 5.763 6.936 10.848 13.071 12.014 29.502 4.439-5.16 8.596-10.568 12.454-16.198-3.074-11.019-8.201-17.195-12.932-22.89z" fill="#ff748f"/><path d="m95.03 212.058c0-102.007 69.914-187.679 164.436-211.727-3.629-.211-7.284-.331-10.966-.331-102.552 0-185.687 83.135-185.687 185.687 0 36.432 10.5 70.407 28.627 99.081l7.599 2.966 1.222 9.782c7.955 10.528 17.017 20.169 26.994 28.78-20.433-33.239-32.225-72.359-32.225-114.238z" fill="#e0e0e0"/><path d="m142.624 246.49c-9.035 1.042-16.459 3.515-22.401 6.407.096-.653.212-1.293.296-1.955 2.513-19.563-.705-35.503-.843-36.172-.838-4.057-4.805-6.666-8.862-5.827-4.057.838-6.666 4.806-5.827 8.862.097.47 7.935 40.205-13.547 66.962 2.766 4.376 5.709 8.629 8.821 12.748 5.698-6.267 10.303-13.568 13.749-21.791 2.017-2.368 11.4-12.152 30.333-14.334 4.115-.475 7.066-4.195 6.592-8.31-.476-4.114-4.198-7.065-8.311-6.59z" fill="#ff748f"/><path d="m101.719 265.884c-2.281 6.551-5.578 13.028-10.279 18.884 2.766 4.376 5.709 8.629 8.821 12.748 2.949-3.243 5.598-6.769 7.952-10.55-2.508-6.872-4.675-13.907-6.494-21.082z" fill="#fd5f7e"/></g></svg>