<svg id="Capa_1" enable-background="new 0 0 497 497" height="512" viewBox="0 0 497 497" width="512" xmlns="http://www.w3.org/2000/svg"><g><path d="m167.264 266.374c-3.853-.528-7.78-.823-11.778-.823-47.487 0-85.983 38.496-85.983 85.983 0 44.098 41.895 80.437 85.903 85.399z" fill="#e8a882"/><path d="m329.736 266.374c3.853-.528 7.78-.823 11.778-.823 47.487 0 85.983 38.496 85.983 85.983 0 44.098-41.895 80.437-85.903 85.399z" fill="#e8a882"/><path d="m374.089 362.144c0 69.361-56.228 104.541-125.589 104.541s-125.589-35.18-125.589-104.541 56.228-125.589 125.589-125.589 125.589 56.228 125.589 125.589z" fill="#e3986d"/><path d="m323.19 358.887c0 41.25-33.44 62.172-74.689 62.172s-74.689-20.922-74.689-62.172 33.44-74.69 74.689-74.69 74.689 33.44 74.689 74.69z" fill="#e8e8e8"/><path d="m299.907 443.364c-20.189 0-36.555 16.366-36.555 36.555 0 9.434 7.648 17.081 17.081 17.081h38.947c9.434 0 17.081-7.648 17.081-17.081.001-20.189-16.365-36.555-36.554-36.555z" fill="#f9d888"/><path d="m197.093 443.364c20.189 0 36.555 16.366 36.555 36.555 0 9.434-7.648 17.081-17.081 17.081h-38.947c-9.434 0-17.081-7.648-17.081-17.081-.001-20.189 16.365-36.555 36.554-36.555z" fill="#f9d888"/><path d="m414.622 186.128c0 71.905-74.375 135.238-166.122 135.238s-166.122-63.333-166.122-135.238 47.483-120.112 166.122-120.112 166.122 48.206 166.122 120.112z" fill="#e8a882"/><path d="m118.736 197.379c0-46.664 17.966-89.126 47.348-120.868-58.794 17.908-83.706 57.544-83.706 109.617 0 41.451 24.719 80.05 63.23 105.313-17.025-27.293-26.872-59.525-26.872-94.062z" fill="#e3986d"/><path d="m436.873 37.606c-2.044-11.805-7.981-22.759-15.018-32.315-.017-.023-.042-.055-.074-.095-5.368-6.692-15.441-6.926-21.306-.666-19.151 20.442-66.715 59.218-151.975 59.218s-132.824-38.776-151.975-59.218c-5.865-6.26-15.938-6.026-21.306.666-.032.04-.057.072-.074.095-7.037 9.556-12.973 20.51-15.018 32.315-5.749 33.193 24.57 53.203 51.184 64.069 38.182 15.589 77.86 29.538 115.414 47.067 13.816 6.449 29.733 6.449 43.549 0 37.554-17.529 77.232-31.478 115.414-47.067 26.615-10.866 56.934-30.876 51.185-64.069z" fill="#edb798"/><path d="m285.47 177.437c-.272 20.179-16.72 36.456-36.97 36.456s-36.698-16.277-36.97-36.456z" fill="#f5c956"/><path d="m285.48 176.912c0 .171 0 .353-.01.524-10.992 3.177-23.588 4.982-36.97 4.982s-25.978-1.805-36.97-4.982c-.01-.171-.01-.353-.01-.524 0-20.421 16.559-36.98 36.98-36.98s36.98 16.559 36.98 36.98z" fill="#f9d888"/><ellipse cx="147.736" cy="195.226" fill="#fff" rx="37.18" ry="29.608"/><ellipse cx="349.264" cy="195.226" fill="#fff" rx="37.18" ry="29.608"/><g><path d="m169.404 174.106c-4.142 0-7.5-3.358-7.5-7.5v-14.964c0-4.142 3.358-7.5 7.5-7.5s7.5 3.358 7.5 7.5v14.964c0 4.142-3.358 7.5-7.5 7.5z" fill="#423e4f"/></g><g><path d="m327.596 174.106c-4.143 0-7.5-3.358-7.5-7.5v-14.964c0-4.142 3.357-7.5 7.5-7.5s7.5 3.358 7.5 7.5v14.964c0 4.142-3.358 7.5-7.5 7.5z" fill="#423e4f"/></g><path d="m187.946 56.503c-48.137-12.207-77.398-37.004-91.42-51.973-5.866-6.261-15.939-6.026-21.307.666-.032.04-.057.072-.074.095-7.037 9.556-12.973 20.51-15.018 32.315-5.749 33.193 24.57 53.203 51.184 64.069 9.472 3.867 19.036 7.633 28.636 11.377 11.892-22.062 28.306-41.321 47.999-56.549z" fill="#e8a882"/><g fill="#f5c956"><path d="m184.91 467.292c0-9.014 3.187-17.282 8.493-23.744-18.456 1.851-32.865 17.427-32.865 36.37 0 9.434 7.648 17.081 17.081 17.081h21.955c-8.913-6.843-14.664-17.601-14.664-29.707z"/><path d="m287.724 467.293c0-9.014 3.187-17.282 8.493-23.744-18.456 1.851-32.865 17.427-32.865 36.37 0 9.434 7.648 17.081 17.081 17.081h21.955c-8.913-6.844-14.664-17.601-14.664-29.707z"/></g></g></svg>