<svg id="Capa_1" enable-background="new 0 0 497 497" height="512" viewBox="0 0 497 497" width="512" xmlns="http://www.w3.org/2000/svg"><g><path d="m137.907 46.004c-14.861-2.64-25.407-9.333-32.404-15.434-8.12-7.08-19.193-9.718-29.651-7.128-20.276 5.021-30.841 27.302-22.011 46.232 10.783 23.115 31.962 51.782 73.842 70.986l26.76-93.815c-5.605.282-11.087.03-16.536-.841z" fill="#f9d888"/><path d="m359.093 46.004c14.861-2.64 25.407-9.333 32.404-15.434 8.12-7.08 19.193-9.718 29.651-7.128 20.276 5.021 30.841 27.302 22.011 46.232-10.783 23.115-31.962 51.782-73.842 70.986l-26.76-93.815c5.605.282 11.087.03 16.536-.841z" fill="#f9d888"/><path d="m248.5 451.227v14.625c0 17.201-13.953 31.148-31.148 31.148-17.214 0-31.158-13.945-31.158-31.148v-14.625l31.153-16.098z" fill="#5c586f"/><path d="m248.5 451.227v14.625c0 17.201 13.953 31.148 31.148 31.148 17.214 0 31.158-13.945 31.158-31.148v-14.625l-31.153-16.098z" fill="#4f4c5f"/><path d="m186.193 393.719h62.307v57.508h-62.307z" fill="#9ae0eb"/><path d="m248.5 393.719h62.307v57.508h-62.307z" fill="#64d1e1"/><path d="m384.861 35.661c-6.526 4.396-15.01 8.432-25.767 10.343-5.45.871-10.932 1.123-16.536.841l26.76 93.814c21.459-9.84 37.472-22.166 49.447-34.955-5.952-26.031-17.74-49.86-33.904-70.043z" fill="#f5c956"/><path d="m78.235 105.705c11.975 12.789 27.989 25.115 49.448 34.955l26.76-93.814c-5.604.281-11.086.029-16.536-.841-10.757-1.911-19.242-5.947-25.767-10.344-16.165 20.183-27.954 44.012-33.905 70.044z" fill="#f5c956"/><path d="m103.854 186.548v-41.903c0-79.757 64.888-144.645 144.646-144.645s144.646 64.888 144.646 144.646v41.903h-289.292z" fill="#5c586f"/><path d="m155.667 180.315c0-72.184 16.005-136.405 64.336-177.49-66.158 13.271-116.15 71.815-116.15 141.82v41.903h51.903c-.055-2.071-.089-4.148-.089-6.233z" fill="#4f4c5f"/><path d="m354.082 155.066c-.225-40.778-42.191-68.2-79.706-52.213-5.661 2.413-10.508 5.139-14.424 7.672-6.974 4.51-15.93 4.51-22.904 0-3.916-2.532-8.763-5.259-14.424-7.672-37.514-15.987-79.48 11.435-79.706 52.213-.001.199-.002.397-.002.596v100.996h211.167v-100.996c0-.199 0-.398-.001-.596z" fill="#73d98b"/><path d="m168.987 256.658c-8.615-23.833-13.32-49.538-13.32-76.343 0-23.226 1.656-45.627 5.512-66.701-11.006 10.163-18.168 24.675-18.261 41.452-.001.199-.002.397-.002.596v12.965c-7.072-6.437-16.471-10.361-26.788-10.361-11.451 0-20.734 9.283-20.734 20.734v19.123c0 33.438 27.107 60.545 60.545 60.545v-2.011h13.048z" fill="#55d47b"/><path d="m380.871 158.266c11.451 0 20.734 9.283 20.734 20.734v19.123c0 33.438-27.107 60.545-60.545 60.545v-60.592c0-21.986 17.824-39.81 39.811-39.81z" fill="#55d47b"/><path d="m171.686 201.977h-22.993c-8.723 0-15.794 7.071-15.794 15.795v33.348h54.582v-33.348c0-8.723-7.072-15.795-15.795-15.795z" fill="#e8e8e8"/><path d="m325.314 201.977h22.993c8.723 0 15.795 7.071 15.795 15.795v33.348h-54.582v-33.348c-.001-8.723 7.071-15.795 15.794-15.795z" fill="#e8e8e8"/><path d="m326.291 321.623h41.427v79.458c0 13.541-10.977 24.518-24.518 24.518h-20.632c-10.295 0-18.64-8.346-18.64-18.64v-41.209z" fill="#e8a882"/><path d="m170.709 321.623h-41.427v79.458c0 13.541 10.977 24.518 24.518 24.518h20.632c10.295 0 18.64-8.346 18.64-18.64v-41.209z" fill="#e8a882"/><path d="m156.711 201.978h-8.018c-8.723 0-15.794 7.071-15.794 15.794v33.348h34.171c-5.208-15.685-8.731-32.136-10.359-49.142z" fill="#e0e0e0"/><path d="m353.084 235.294h-209.168c-11.329 0-19.973 10.199-18.042 21.362 10.129 58.555 61.177 103.09 122.626 103.09s112.497-44.536 122.626-103.09c1.931-11.162-6.713-21.362-18.042-21.362z" fill="#8bdf9e"/><g fill="#423e4f"><path d="m201.603 162.458-23.215-6.22c-4.002-1.072-8.114 1.302-9.186 5.303s1.302 8.114 5.303 9.186l6.559 1.758c-.198.672-.308 1.382-.308 2.119v10c0 4.142 3.357 7.5 7.5 7.5s7.5-3.358 7.5-7.5v-8.182l1.964.526c.65.174 1.304.258 1.946.258 3.312 0 6.342-2.21 7.239-5.561 1.073-4.002-1.301-8.114-5.302-9.187z"/><path d="m327.797 161.542c-1.071-4.001-5.183-6.375-9.186-5.303l-23.215 6.22c-4.001 1.072-6.375 5.185-5.303 9.186.897 3.351 3.928 5.561 7.239 5.561.643 0 1.296-.083 1.946-.258l1.964-.526v8.182c0 4.142 3.357 7.5 7.5 7.5s7.5-3.358 7.5-7.5v-10c0-.737-.111-1.446-.308-2.119l6.559-1.758c4.002-1.072 6.376-5.185 5.304-9.185z"/><path d="m263.34 182.915c-5.692 0-10.891 2.143-14.84 5.66-3.949-3.517-9.148-5.66-14.84-5.66-12.318 0-22.34 10.021-22.34 22.34 0 4.142 3.357 7.5 7.5 7.5s7.5-3.358 7.5-7.5c0-4.047 3.293-7.34 7.34-7.34s7.34 3.292 7.34 7.34c0 4.142 3.357 7.5 7.5 7.5s7.5-3.358 7.5-7.5c0-4.047 3.293-7.34 7.34-7.34s7.34 3.292 7.34 7.34c0 4.142 3.357 7.5 7.5 7.5s7.5-3.358 7.5-7.5c0-12.318-10.022-22.34-22.34-22.34z"/></g><path d="m162.458 235.294h-18.542c-11.329 0-19.973 10.199-18.042 21.362 9.943 57.477 59.313 101.441 119.246 103.041-40.27-30.382-69.98-74.007-82.662-124.403z" fill="#73d98b"/><path d="m323.134 275.062-3.976-2.845c-8.478-6.065-19.835-5.984-28.335.051-8.443 5.995-19.764 5.978-28.191-.051-8.451-6.046-19.812-6.046-28.263 0-8.427 6.029-19.748 6.046-28.191.051-8.5-6.035-19.857-6.117-28.335-.051l-3.976 2.845c-6.374 4.56-10.155 11.915-10.155 19.752v76.097c0 21.339 17.298 38.637 38.637 38.637h92.304c21.339 0 38.637-17.299 38.637-38.637v-76.097c-.001-7.836-3.783-15.192-10.156-19.752z" fill="#bc9bdd"/><path d="m331.867 294.797h24.65c16.423 0 29.737 13.314 29.737 29.737 0 16.423-13.314 29.737-29.737 29.737h-24.65c-16.424 0-29.737-13.314-29.737-29.737-.001-16.423 13.313-29.737 29.737-29.737z" fill="#b9ebc2"/><path d="m203.726 325.687c0-17.799 4.622-34.516 12.723-49.027-3.625-.568-7.149-1.958-10.277-4.179-8.487-6.025-19.826-6.107-28.291-.051l-3.97 2.84c-6.364 4.553-10.14 11.897-10.14 19.722v75.979c0 21.306 17.272 38.578 38.577 38.578h46.291c-27.074-18.058-44.913-48.875-44.913-83.862z" fill="#b08bd7"/><path d="m165.133 294.797h-24.65c-16.423 0-29.737 13.314-29.737 29.737 0 16.423 13.314 29.737 29.737 29.737h24.65c16.424 0 29.737-13.314 29.737-29.737.001-16.423-13.313-29.737-29.737-29.737z" fill="#b9ebc2"/></g></svg>