<svg id="Capa_1" enable-background="new 0 0 497 497" height="512" viewBox="0 0 497 497" width="512" xmlns="http://www.w3.org/2000/svg"><g><g><path d="m72.478 240.481c-6.649 0-13.274-2.685-18.115-7.976-20.497-22.401-31.912-43.716-34.896-65.162-2.746-19.734 2.049-35.994 5.902-49.059 2.942-9.977 5.266-17.857 4.003-25.256-1.519-8.903-8.802-19.544-21.646-31.627-9.873-9.289-10.347-24.823-1.058-34.696s24.823-10.347 34.696-1.058c48.928 46.033 38.618 80.995 31.09 106.523-3.157 10.707-5.652 19.164-4.365 28.408 1.568 11.275 8.925 23.964 22.491 38.789 9.151 10.001 8.462 25.527-1.539 34.678-4.71 4.309-10.646 6.436-16.563 6.436z" fill="#4f4c5f"/></g><path d="m252.484 126.961c.816-1.214 1.633-2.376 2.438-3.485 9.126-12.579 25.849-16.901 40.008-10.486 41.41 18.764 52.827 61.199 52.827 61.199l-59.87 47.574z" fill="#4f4c5f"/><path d="m89.691 254.55v186.96c0 20.165 16.347 36.512 36.511 36.512 20.165 0 36.511-16.347 36.511-36.512v-109.15z" fill="#423e4f"/><g><path d="m341.34 478.021c-8.957 0-17.931-3.264-24.993-9.861-27.57-25.751-48.428-47.08-60.321-81.481-9.148-26.464-10.028-45.986-10.099-48.125l73.215-2.404-.015-.39c.107 1.947 3.128 37.679 47.222 78.865 14.784 13.809 15.574 36.986 1.766 51.77-7.212 7.721-16.983 11.626-26.775 11.626z" fill="#423e4f"/></g><path d="m300.325 414.626c-33.187-30.999-43.106-54.369-46.029-70.041 22.794-23.178 36.866-54.958 36.866-90.035 0-70.94-57.508-107.519-128.449-107.519s-128.448 36.579-128.448 107.519v186.96c0 20.165 16.347 36.512 36.511 36.512 20.165 0 36.511-16.347 36.511-36.512v-70.454h77.986c1.26 4.841 2.81 10.077 4.727 15.624 11.893 34.401 32.751 55.73 60.321 81.481 7.062 6.597 16.037 9.861 24.993 9.861 9.793 0 19.564-3.905 26.776-11.625 13.809-14.785 13.019-37.962-1.765-51.771z" fill="#4f4c5f"/><path d="m474.404 126.961c-.816-1.214-1.633-2.376-2.438-3.485-9.125-12.579-25.849-16.901-40.008-10.486-41.41 18.764-52.827 61.199-52.827 61.199l59.87 47.574z" fill="#4f4c5f"/><path d="m393.059 145.988c-10.363 14.96-13.928 28.202-13.928 28.202l59.87 47.574 18.102-48.474c-18.766-13.422-40.516-22.92-64.044-27.302z" fill="#423e4f"/><path d="m287.887 221.764 59.87-47.574s-3.566-13.242-13.928-28.202c-23.528 4.382-45.278 13.88-64.044 27.302z" fill="#423e4f"/><path d="m435.726 198.311c0 8.142 1.141 16.001 3.276 23.452l47.992 38.145c21.725-64.328 3.673-108.857-12.589-132.947-23.285 15.195-38.679 41.473-38.679 71.35z" fill="#bc9bdd"/><path d="m291.162 198.311c0 8.142-1.141 16.001-3.276 23.452l-47.992 38.145c-21.725-64.328-3.673-108.857 12.589-132.947 23.285 15.195 38.679 41.473 38.679 71.35z" fill="#bc9bdd"/><path d="m230.277 213.592c.99 14.083 3.946 29.523 9.617 46.316l47.992-38.145c2.135-7.451 3.276-15.311 3.276-23.452 0-12.137-2.541-23.68-7.118-34.128-21.458 12.181-39.864 29.134-53.767 49.409z" fill="#b08bd7"/><path d="m496.611 213.592c-13.903-20.275-32.309-37.229-53.767-49.408-4.578 10.448-7.118 21.991-7.118 34.128 0 8.142 1.141 16.001 3.276 23.452l47.992 38.145c5.671-16.794 8.627-32.234 9.617-46.317z" fill="#b08bd7"/><path d="m494.81 304.619c0 72.551-58.814 88.492-131.366 88.492s-131.366-15.94-131.366-88.492 58.814-131.366 131.366-131.366 131.366 58.815 131.366 131.366z" fill="#5c586f"/><g fill="#423e4f"><g><path d="m308.649 265.559-22.927-4.043c-4.086-.718-7.969 2.005-8.688 6.084s2.004 7.969 6.083 8.688l22.927 4.042c.441.078.879.115 1.312.115 3.571 0 6.735-2.561 7.377-6.199.719-4.078-2.005-7.968-6.084-8.687z"/><path d="m449.854 267.6c-.719-4.08-4.609-6.802-8.688-6.084l-22.927 4.043c-4.079.719-6.803 4.609-6.083 8.688.642 3.639 3.806 6.199 7.377 6.199.433 0 .871-.038 1.312-.115l22.927-4.042c4.078-.72 6.802-4.61 6.082-8.689z"/><path d="m394.822 296.905c-4.143 0-7.5 3.358-7.5 7.5 0 4.516-3.674 8.189-8.189 8.189s-8.188-3.673-8.188-8.189c0-4.142-3.357-7.5-7.5-7.5s-7.5 3.358-7.5 7.5c0 4.516-3.673 8.189-8.188 8.189s-8.189-3.673-8.189-8.189c0-4.142-3.357-7.5-7.5-7.5s-7.5 3.358-7.5 7.5c0 12.787 10.402 23.189 23.189 23.189 6.046 0 11.556-2.328 15.688-6.131 4.132 3.804 9.643 6.131 15.688 6.131 12.787 0 23.189-10.402 23.189-23.189 0-4.142-3.358-7.5-7.5-7.5z"/><path d="m294.602 281.856c-4.143 0-7.5 3.358-7.5 7.5v13.024c0 4.142 3.357 7.5 7.5 7.5s7.5-3.358 7.5-7.5v-13.024c0-4.142-3.357-7.5-7.5-7.5z"/><path d="m432.287 281.856c-4.143 0-7.5 3.358-7.5 7.5v13.024c0 4.142 3.357 7.5 7.5 7.5s7.5-3.358 7.5-7.5v-13.024c0-4.142-3.358-7.5-7.5-7.5z"/></g><path d="m65.969 366.223c0-93.846 52.943-175.312 130.581-216.204-10.782-1.984-22.124-2.987-33.837-2.987-70.94 0-128.449 36.578-128.449 107.519v186.959c0 20.165 16.347 36.511 36.511 36.511 4.043 0 7.928-.667 11.563-1.88-11.545-33.039-16.369-70.378-16.369-109.918z"/></g></g></svg>