<svg id="Capa_1" enable-background="new 0 0 497 497" height="512" viewBox="0 0 497 497" width="512" xmlns="http://www.w3.org/2000/svg"><g><path d="m486.658 132.494v82.762l-238.158 33.244-238.158-33.244v-82.762c0-45.023 36.493-81.526 81.516-81.526h313.284c45.023 0 81.516 36.503 81.516 81.526z" fill="#ffa875"/><path d="m486.658 215.256v200.217c0 45.023-36.493 81.526-81.516 81.526h-313.284c-45.023 0-81.516-36.504-81.516-81.526v-200.217z" fill="#bc9bdd"/><path d="m110.131 50.968h-18.273c-45.023 0-81.516 36.503-81.516 81.526v82.762l49.004 6.84c2.997-68.67 20.328-126.115 50.785-171.128z" fill="#ff995d"/><g fill="#f9d888"><path d="m91.858 0c-16.071 0-29.098 13.028-29.098 29.098v31.158c0 16.071 13.028 29.098 29.098 29.098s29.098-13.028 29.098-29.098v-31.158c0-16.07-13.027-29.098-29.098-29.098z"/><path d="m405.142 0c16.071 0 29.098 13.028 29.098 29.098v31.158c0 16.071-13.028 29.098-29.098 29.098s-29.098-13.028-29.098-29.098v-31.158c0-16.07 13.028-29.098 29.098-29.098z"/><path d="m196.286 0c-16.071 0-29.098 13.028-29.098 29.098v31.158c0 16.071 13.028 29.098 29.098 29.098s29.098-13.028 29.098-29.098v-31.158c0-16.07-13.027-29.098-29.098-29.098z"/><path d="m300.714 0c-16.071 0-29.098 13.028-29.098 29.098v31.158c0 16.071 13.028 29.098 29.098 29.098s29.098-13.028 29.098-29.098v-31.158c0-16.07-13.027-29.098-29.098-29.098z"/></g><path d="m346.141 255.865h-37.432c-4.142 0-7.5 3.358-7.5 7.5s3.358 7.5 7.5 7.5h29.932v167.626c0 4.142 3.358 7.5 7.5 7.5s7.5-3.358 7.5-7.5v-175.126c0-4.142-3.358-7.5-7.5-7.5z" fill="#e8e8e8"/><path d="m247.983 307.817c0-28.845-23.467-52.312-52.312-52.312-24.941 0-46.529 17.739-51.33 42.18-.798 4.064 1.849 8.006 5.914 8.805 4.066.799 8.007-1.85 8.805-5.914 3.423-17.425 18.82-30.071 36.611-30.071 20.574 0 37.312 16.737 37.312 37.312 0 20.573-16.738 37.312-37.312 37.312-4.142 0-7.5 3.358-7.5 7.5s3.358 7.5 7.5 7.5c20.574 0 37.312 16.738 37.312 37.312 0 20.573-16.738 37.312-37.312 37.312-20.173 0-37.312-16.407-37.312-37.312 0-4.143-3.358-7.5-7.5-7.5s-7.5 3.357-7.5 7.5c0 29.183 23.928 52.312 52.312 52.312 28.845 0 52.312-23.467 52.312-52.312 0-18.99-10.173-35.645-25.353-44.812 15.18-9.168 25.353-25.823 25.353-44.812z" fill="#e8e8e8"/><path d="m307.087 185.951c2.184-3.52 1.101-8.144-2.419-10.327-8.88-5.509-19.913-5.51-28.793 0-4.002 2.483-8.975 2.484-12.978 0-8.88-5.509-19.913-5.51-28.793 0-4.001 2.483-8.975 2.483-12.978 0-8.88-5.509-19.913-5.509-28.793 0-3.52 2.184-4.603 6.808-2.419 10.327s6.807 4.604 10.327 2.419c4.003-2.484 8.976-2.483 12.978 0 8.881 5.51 19.914 5.509 28.793 0 4.003-2.484 8.976-2.483 12.978 0 4.44 2.755 9.418 4.133 14.397 4.133 4.978 0 9.957-1.378 14.396-4.132 4.003-2.483 8.976-2.483 12.979 0 3.517 2.182 8.141 1.099 10.325-2.42z" fill="#423e4f"/><path d="m179.415 130.911-16.688-24.114c-5.54-8.005-17.372-8.005-22.912 0l-16.688 24.114c-6.395 9.24.219 21.861 11.456 21.861h33.377c11.237 0 17.85-12.621 11.455-21.861z" fill="#423e4f"/><path d="m317.585 130.911 16.688-24.114c5.54-8.005 17.372-8.005 22.912 0l16.688 24.114c6.395 9.24-.219 21.861-11.456 21.861h-33.377c-11.237 0-17.85-12.621-11.455-21.861z" fill="#423e4f"/><path d="m267.48 135.236-11.254-16.261c-3.736-5.398-11.715-5.398-15.451 0l-11.254 16.261c-4.313 6.231.147 14.742 7.726 14.742h22.508c7.577 0 12.037-8.51 7.725-14.742z" fill="#423e4f"/><path d="m58.858 243.887c0-9.757.284-19.296.828-28.631h-49.344v200.217c0 45.023 36.493 81.526 81.516 81.526h65.099c-63.922-47.939-98.099-129.245-98.099-253.112z" fill="#b08bd7"/></g></svg>