<svg id="Capa_1" enable-background="new 0 0 497 497" height="512" viewBox="0 0 497 497" width="512" xmlns="http://www.w3.org/2000/svg"><g><path d="m248.5 445.514v16.45c0 19.348 15.695 35.036 35.036 35.036 19.362 0 35.047-15.685 35.047-35.036v-16.45l-35.042-18.108z" fill="#4f4c5f"/><path d="m248.5 380.828-11.356 32.343 11.356 32.343h70.083v-64.686z" fill="#e3986d"/><path d="m248.5 445.514v16.45c0 19.348-15.695 35.036-35.036 35.036-19.362 0-35.047-15.685-35.047-35.036v-16.45l35.042-18.108z" fill="#5c586f"/><path d="m204.211 432.185-25.794 13.33v16.45c0 19.351 15.685 35.036 35.047 35.036 6.839 0 13.217-1.969 18.612-5.36-16.757-14.448-27.471-35.69-27.865-59.456z" fill="#4f4c5f"/><path d="m178.417 380.828h70.083v64.686h-70.083z" fill="#e8a882"/><path d="m336.001 299.733h46.597v89.375c0 15.231-12.347 27.578-27.578 27.578h-23.207c-11.58 0-20.967-9.387-20.967-20.967v-46.351z" fill="#5c586f"/><path d="m204.177 430.833c0-18.913 6.556-36.285 17.499-50.005h-43.259v64.687h27.124c-.881-4.763-1.364-9.665-1.364-14.682z" fill="#e3986d"/><path d="m160.999 299.733h-46.597v89.375c0 15.231 12.347 27.578 27.578 27.578h23.207c11.58 0 20.967-9.387 20.967-20.967v-46.351z" fill="#5c586f"/><circle cx="405.394" cy="167.237" fill="#64d1e1" r="37.156"/><path d="m394.165 129.657-.055-.073c-5.576-7.401-7.724-16.831-5.904-25.917l.007-.032c2.851-14.23-4.087-28.624-16.996-35.258l-.007-.003c-8.258-4.244-14.304-11.819-16.61-20.812l-.012-.045c-3.601-14.039-16.07-23.992-30.558-24.39l-.076-.002c-9.261-.255-17.973-4.454-23.941-11.54l-.026-.03c-9.349-11.099-24.927-14.648-38.161-8.691-8.475 3.815-18.178 3.815-26.654 0-13.233-5.956-28.812-2.408-38.161 8.691l-.025.029c-5.969 7.086-14.68 11.286-23.942 11.54l-.075.002c-14.488.398-26.958 10.351-30.559 24.39l-.012.046c-2.307 8.993-8.353 16.569-16.61 20.812l-.007.004c-12.908 6.633-19.847 21.027-16.996 35.257l.007.034c1.82 9.085-.328 18.516-5.904 25.916l-.055.073h291.332z" fill="#ffb2c1"/><path d="m244.146 5.42c-3.068-.416-6.092-1.26-8.973-2.557-13.233-5.957-28.812-2.408-38.161 8.691l-.025.029c-5.969 7.086-14.68 11.286-23.942 11.541l-.076.002c-14.488.398-26.958 10.351-30.559 24.39l-.012.045c-2.307 8.993-8.353 16.569-16.61 20.812l-.007.004c-12.908 6.633-19.847 21.027-16.996 35.257l.007.034c1.82 9.085-.328 18.516-5.904 25.916l-.055.073h40.568c13.204-54.958 50.82-100.409 100.745-124.237z" fill="#ff9db0"/><path d="m397.443 118.791c-3.671-11.06-14.126-18.442-25.779-18.442h-246.32c-11.745 0-22.182 7.522-25.864 18.675-5.011 15.178-7.768 31.381-7.874 48.213-.547 86.997 68.845 157.33 155.841 157.901 87.135.572 157.949-69.891 157.949-156.893.001-17.28-2.793-33.907-7.953-49.454z" fill="#9ae0eb"/><path d="m210.982 320.668c-44.218-33.972-72.728-87.375-72.728-147.446 0-25.867 5.29-50.496 14.839-72.874h-27.749c-11.745 0-22.182 7.522-25.864 18.675-1.229 3.724-2.321 7.51-3.273 11.351-1.509-.187-3.042-.293-4.601-.293-20.521 0-37.156 16.635-37.156 37.156s16.635 37.156 37.156 37.156c1.381 0 2.743-.082 4.085-.229 13.325 57.435 57.978 102.581 115.291 116.504z" fill="#64d1e1"/><ellipse cx="164.436" cy="196.012" fill="#ff9db0" rx="31.018" ry="24.701"/><ellipse cx="332.564" cy="196.012" fill="#ff9db0" rx="31.018" ry="24.701"/><ellipse cx="248.5" cy="177.033" fill="#423e4f" rx="16.465" ry="18.425"/><g><path d="m169.621 173.705c-4.142 0-7.5-3.358-7.5-7.5v-12.031c0-4.142 3.358-7.5 7.5-7.5s7.5 3.358 7.5 7.5v12.031c0 4.142-3.358 7.5-7.5 7.5z" fill="#423e4f"/></g><g><path d="m327.379 173.705c-4.142 0-7.5-3.358-7.5-7.5v-12.031c0-4.142 3.358-7.5 7.5-7.5s7.5 3.358 7.5 7.5v12.031c0 4.142-3.358 7.5-7.5 7.5z" fill="#423e4f"/></g><path d="m327.128 252.895-4.189-2.997c-8.932-6.39-20.897-6.304-29.851.054-8.895 6.316-20.822 6.298-29.7-.054-8.903-6.37-20.872-6.37-29.776 0-8.878 6.352-20.805 6.37-29.7.054-8.955-6.358-20.92-6.444-29.851-.054l-4.189 2.997c-6.715 4.804-10.699 12.553-10.699 20.81v80.17c0 22.481 18.224 40.705 40.705 40.705h97.244c22.481 0 40.705-18.224 40.705-40.705v-80.17c0-8.257-3.984-16.006-10.699-20.81z" fill="#bc9bdd"/><path d="m342.272 269.56h27.726c18.473 0 33.449 14.976 33.449 33.449 0 18.473-14.976 33.449-33.449 33.449h-27.726c-18.473 0-33.449-14.976-33.449-33.449 0-18.473 14.976-33.449 33.449-33.449z" fill="#b3e8f0"/><path d="m201.032 311.767c0-20.749 5.255-40.271 14.506-57.307-4.099-.514-8.101-2.005-11.626-4.508-8.955-6.358-20.92-6.444-29.851-.054l-4.189 2.997c-6.715 4.804-10.699 12.553-10.699 20.81v80.17c0 22.481 18.224 40.705 40.705 40.705h34.214c-20.487-21.565-33.06-50.72-33.06-82.813z" fill="#b08bd7"/><path d="m154.728 269.56h-27.726c-18.473 0-33.449 14.976-33.449 33.449 0 18.473 14.976 33.449 33.449 33.449h27.726c18.473 0 33.449-14.976 33.449-33.449 0-18.473-14.976-33.449-33.449-33.449z" fill="#b3e8f0"/></g></svg>