<svg id="Capa_1" enable-background="new 0 0 497 497" height="512" viewBox="0 0 497 497" width="512" xmlns="http://www.w3.org/2000/svg"><g><path d="m443.782 411.862-17.914-190.397c-2.574-27.353-25.537-48.258-53.011-48.258h-248.715c-27.474 0-50.437 20.904-53.011 48.258l-17.913 190.397c-4.297 45.672 31.63 85.138 77.503 85.138h235.558c45.873 0 81.8-39.466 77.503-85.138z" fill="#ffa875"/><path d="m109.013 313.959c0-53.216 18.397-102.13 49.164-140.751h-34.035c-27.474 0-50.437 20.904-53.011 48.257l-17.913 190.397c-4.297 45.672 31.63 85.138 77.503 85.138h48.589c-52.874-41.091-70.297-107.763-70.297-183.041z" fill="#ff995d"/><g><path d="m359.514 245.57c-14.164 0-25.648-11.483-25.648-25.648v-83.261c0-47.071-38.295-85.366-85.366-85.366s-85.366 38.295-85.366 85.366v83.261c0 14.165-11.483 25.648-25.648 25.648s-25.648-11.483-25.648-25.648v-83.261c.001-75.355 61.307-136.661 136.662-136.661 75.356 0 136.661 61.306 136.661 136.661v83.261c0 14.165-11.482 25.648-25.647 25.648z" fill="#8bdf9e"/></g><g fill="#423e4f"><path d="m189.268 317.391-17.51-25.3c-5.813-8.399-18.227-8.399-24.04 0l-17.51 25.3c-6.71 9.695.229 22.936 12.02 22.936h35.019c11.792 0 18.731-13.241 12.021-22.936z"/><path d="m270.779 337.311-13.21-19.088c-4.385-6.336-13.752-6.336-18.137 0l-13.21 19.088c-5.062 7.314.173 17.304 9.068 17.304h26.42c8.896.001 14.131-9.989 9.069-17.304z"/><path d="m307.732 317.391 17.51-25.3c5.813-8.399 18.227-8.399 24.04 0l17.51 25.3c6.71 9.695-.229 22.936-12.02 22.936h-35.019c-11.792 0-18.731-13.241-12.021-22.936z"/><path d="m315.788 384.636-.318-.183c-8.293-4.767-18.495-4.767-26.788 0s-18.495 4.767-26.788 0-18.495-4.767-26.788 0-18.495 4.767-26.788 0-18.495-4.767-26.788 0l-.318.183c-8.089 4.65-13.075 13.269-13.075 22.599s4.987 17.949 13.075 22.599l.318.183c8.293 4.767 18.495 4.767 26.788 0s18.495-4.767 26.788 0 18.495 4.767 26.788 0 18.495-4.767 26.788 0 18.495 4.767 26.788 0l.318-.183c8.089-4.65 13.075-13.269 13.075-22.599s-4.987-17.949-13.075-22.599z"/></g><path d="m222.547 2.483c-62.985 12.159-110.708 67.696-110.708 134.178v83.261c0 14.165 11.483 25.647 25.648 25.647s25.648-11.482 25.648-25.647v-83.261c0-23.162 9.286-44.187 24.314-59.582 5.146-28.056 17.511-53.584 35.098-74.596z" fill="#73d98b"/></g></svg>