<svg id="Capa_1" enable-background="new 0 0 497 497" height="512" viewBox="0 0 497 497" width="512" xmlns="http://www.w3.org/2000/svg"><g><path d="m248.5 370.876v70.122l-35.902 28.001-35.902-28.001v-70.122z" fill="#9ae0eb"/><path d="m248.5 370.876v70.122l35.902 28.001 35.902-28.001v-70.122z" fill="#64d1e1"/><path d="m176.696 421.068c6.158-1.147 12.16-3.034 17.94-5.7 3.465-1.599 7.156-2.409 10.973-2.409s7.508.811 10.972 2.409c10.08 4.651 20.819 7.009 31.92 7.009v-51.5h-71.804v50.191z" fill="#64d1e1"/><path d="m248.5 422.376c11.101 0 21.84-2.358 31.919-7.009 3.465-1.599 7.156-2.409 10.973-2.409s7.508.811 10.972 2.409c5.78 2.667 11.783 4.554 17.941 5.701v-50.191h-71.805z" fill="#3ccadd"/><path d="m248.5 0c-94.755 0-171.568 76.814-171.568 171.568v207.376c0 11.029 11.431 18.344 21.446 13.724 13.608-6.279 29.284-6.279 42.892 0 13.608 6.279 29.284 6.279 42.892 0 13.608-6.279 29.284-6.279 42.892 0 13.608 6.279 29.284 6.279 42.892 0 13.608-6.279 29.284-6.279 42.892 0 13.608 6.279 29.284 6.279 42.892 0 13.608-6.279 29.284-6.279 42.892 0 10.015 4.621 21.446-2.694 21.446-13.724v-207.376c0-94.754-76.813-171.568-171.568-171.568z" fill="#e8e8e8"/><path d="m121.984 206.164c0-74.362 9.675-141.374 50.547-188.457-56.643 28.021-95.599 86.387-95.599 153.861v207.375c0 11.029 11.431 18.345 21.446 13.724 13.608-6.279 29.284-6.279 42.892 0 11.186 5.161 23.767 6.07 35.45 2.746-36.213-40.979-54.736-102.295-54.736-189.249z" fill="#e0e0e0"/><ellipse cx="144.134" cy="156.653" fill="#ff9db0" rx="38.509" ry="30.667"/><ellipse cx="352.866" cy="156.653" fill="#ff9db0" rx="38.509" ry="30.667"/><ellipse cx="248.5" cy="133.091" fill="#423e4f" rx="20.441" ry="22.874"/><g><path d="m188.317 126.905c-4.143 0-7.5-3.358-7.5-7.5 0-5.312-4.321-9.634-9.634-9.634-5.312 0-9.633 4.322-9.633 9.634 0 4.142-3.357 7.5-7.5 7.5s-7.5-3.358-7.5-7.5c0-13.583 11.05-24.634 24.633-24.634s24.634 11.051 24.634 24.634c0 4.142-3.357 7.5-7.5 7.5z" fill="#423e4f"/></g><g><path d="m341.474 126.905c-4.143 0-7.5-3.358-7.5-7.5 0-5.312-4.321-9.634-9.634-9.634s-9.634 4.322-9.634 9.634c0 4.142-3.357 7.5-7.5 7.5s-7.5-3.358-7.5-7.5c0-13.583 11.051-24.634 24.634-24.634s24.634 11.051 24.634 24.634c0 4.142-3.357 7.5-7.5 7.5z" fill="#423e4f"/></g><path d="m323.162 203.708-3.978-2.846c-8.481-6.068-19.843-5.986-28.346.051-8.447 5.997-19.771 5.98-28.202-.051-8.454-6.048-19.819-6.048-28.274 0-8.43 6.031-19.755 6.048-28.202.051-8.503-6.037-19.865-6.119-28.346-.051l-3.978 2.846c-6.376 4.562-10.159 11.92-10.159 19.76v85.126c0 21.347 17.305 38.652 38.652 38.652h92.338c21.347 0 38.652-17.305 38.652-38.652v-85.126c.002-7.84-3.781-15.199-10.157-19.76z" fill="#e8a882"/><path d="m331.898 223.45h24.659c16.43 0 29.749 13.319 29.749 29.749 0 16.43-13.319 29.749-29.749 29.749h-24.659c-16.43 0-29.749-13.319-29.749-29.749 0-16.43 13.319-29.749 29.749-29.749z" fill="#fed2a4"/><path d="m212.643 252.074c0-16.661 3.536-32.493 9.889-46.798-5.676.54-11.501-.906-16.371-4.363-8.503-6.037-19.865-6.119-28.346-.051l-3.977 2.846c-6.376 4.562-10.159 11.92-10.159 19.76v85.126c0 21.347 17.305 38.652 38.652 38.652h60.424c-30.263-20.808-50.112-55.669-50.112-95.172z" fill="#e3986d"/><path d="m165.102 223.45h-24.659c-16.43 0-29.749 13.319-29.749 29.749 0 16.43 13.319 29.749 29.749 29.749h24.659c16.43 0 29.749-13.319 29.749-29.749-.001-16.43-13.32-29.749-29.749-29.749z" fill="#fed2a4"/><path d="m248.5 440.998v20.105c0 9.906-4.021 18.886-10.511 25.386-6.5 6.49-15.479 10.511-25.386 10.511-19.833 0-35.907-16.074-35.907-35.897v-20.105z" fill="#5c586f"/><path d="m248.5 440.998v20.105c0 9.906 4.021 18.886 10.511 25.386 6.5 6.49 15.48 10.511 25.386 10.511 19.833 0 35.907-16.074 35.907-35.897v-20.105z" fill="#4f4c5f"/></g></svg>