<svg id="Capa_1" enable-background="new 0 0 497 497" height="512" viewBox="0 0 497 497" width="512" xmlns="http://www.w3.org/2000/svg"><g><g><path d="m203.656 311.26c-9.072-9.07-10.517-23.628-2.804-34.401l58.759-82.073c6.609-9.229 16.834-15.484 28.057-17.165l58.101-8.697 10.122-83.161c1.458-11.973 7.986-22.769 17.911-29.621l74.462-51.411c12.135-8.378 28.758-5.334 37.141 6.802 8.377 12.134 5.333 28.763-6.802 37.14l-70.314 48.547-10.544 86.622c-2.285 18.767-16.938 33.828-35.633 36.628l-61.845 9.258-55.997 78.215c-8.584 11.99-25.262 14.751-37.251 6.167-1.217-.87-2.339-1.826-3.363-2.85z" fill="#e8a882"/></g><path d="m119.43 483.43-98.995-98.995c-20.575-20.575-17.307-54.791 6.776-71.102l54.921-37.182 89.044 56.538 56.538 89.044-37.182 54.921c-16.311 24.083-50.527 27.351-71.102 6.776z" fill="#f9d888"/><path d="m269.454 234.411c-7.458-7.458-15.704-13.843-24.545-19.089l-44.057 61.537c-7.713 10.773-6.267 25.331 2.804 34.401 1.024 1.023 2.146 1.979 3.362 2.85 11.99 8.584 28.667 5.823 37.251-6.167l39.915-55.751c-4.285-6.283-9.193-12.244-14.73-17.781z" fill="#e3986d"/><path d="m253.96 382.966-82.783-50.277-50.277-82.783 8.307-5.629c37.271-25.241 87.207-20.479 119.035 11.348 31.827 31.827 36.591 81.764 11.348 119.035z" fill="#f9d888"/><path d="m101.121 288.208-18.989-12.057-54.921 37.182c-20.177 13.666-25.732 39.895-14.908 60.145 17.69-35.674 50.637-65.673 88.818-85.27z" fill="#f5c956"/><path d="m197.312 263.57c23.955 0 46.725 5.058 67.316 14.148-4.264-7.967-9.723-15.431-16.386-22.094-31.827-31.828-81.764-36.589-119.035-11.348l-8.307 5.629 14.561 23.975c20.456-6.664 41.508-10.31 61.851-10.31z" fill="#f5c956"/><path d="m227.714 421.733-145.582-145.582 38.768-26.245 133.06 133.06z" fill="#ff748f"/><g><path d="m19.251 383.251 45.563-45.564c2.93-2.929 7.678-2.929 10.607 0s2.929 7.677 0 10.606l-45.563 45.564z" fill="#f5c956"/></g><g><path d="m49.503 413.503 45.564-45.564c2.931-2.929 7.679-2.928 10.607 0 2.929 2.929 2.929 7.678 0 10.606l-45.564 45.564z" fill="#f5c956"/></g><g><path d="m79.756 443.755 45.563-45.564c2.93-2.929 7.678-2.929 10.607 0s2.929 7.678 0 10.607l-45.563 45.564z" fill="#f5c956"/></g><g><path d="m110.008 474.008 45.564-45.564c2.93-2.929 7.678-2.928 10.607 0 2.929 2.929 2.929 7.678 0 10.606l-45.564 45.564z" fill="#f5c956"/></g><path d="m214.654 140.405c-11.785-2.488-20.472-11.007-22.97-23.081-.872-4.214-4.608-7.22-9.022-7.22h-.579c-4.324 0-7.923 3.108-8.815 7.338-2.485 11.79-11.005 20.482-23.083 22.98-4.214.872-7.22 4.608-7.22 9.005v.485c0 4.318 3.032 8.039 7.259 8.919 12.054 2.508 20.557 11.189 23.042 22.962.894 4.234 4.489 7.349 8.929 7.349h.579c4.303 0 8.039-3.006 8.911-7.22 2.497-12.075 11.185-20.594 22.97-23.082 4.234-.894 7.349-4.49 7.349-8.817v-.8c-.001-4.328-3.116-7.924-7.35-8.818z" fill="#f9d888"/><path d="m432.064 307.768c-15.019-3.171-26.09-14.027-29.273-29.415-1.111-5.37-5.872-9.202-11.498-9.202h-.738c-5.51 0-10.097 3.96-11.233 9.352-3.167 15.026-14.025 26.102-29.418 29.286-5.37 1.111-9.202 5.872-9.202 11.476v.619c0 5.503 3.864 10.245 9.251 11.367 15.362 3.197 26.198 14.26 29.365 29.263 1.139 5.396 5.721 9.365 11.38 9.365h.737c5.484 0 10.245-3.831 11.356-9.201 3.183-15.389 14.254-26.245 29.273-29.416 5.396-1.139 9.365-5.722 9.365-11.237v-1.02c0-5.515-3.969-10.098-9.365-11.237z" fill="#f9d888"/><path d="m168.103 129.168c-4.165 5.679-10.34 9.687-17.918 11.254-4.214.872-7.22 4.608-7.22 9.005v.485c0 4.318 3.032 8.039 7.259 8.919 12.054 2.508 20.557 11.189 23.042 22.962.894 4.234 4.489 7.348 8.929 7.349h.579c4.303 0 8.039-3.006 8.911-7.219.846-4.088 2.415-7.756 4.56-10.933-16.003-7.398-27.295-23.243-28.142-41.822z" fill="#f5c956"/><path d="m368.827 297.93c-4.986 4.858-11.409 8.305-18.924 9.859-5.37 1.111-9.202 5.872-9.202 11.476v.619c0 5.502 3.864 10.245 9.251 11.366 15.362 3.197 26.198 14.26 29.365 29.263 1.139 5.396 5.721 9.365 11.38 9.366h.737c5.483 0 10.245-3.831 11.356-9.201.945-4.57 2.601-8.729 4.835-12.417-21.579-7.047-37.433-26.74-38.798-50.331z" fill="#f5c956"/><path d="m142.666 271.672-21.766-21.766-38.767 26.246 14.451 14.451c14.704-7.956 30.261-14.357 46.082-18.931z" fill="#fd5f7e"/></g></svg>