<svg id="Capa_1" enable-background="new 0 0 497 497" height="512" viewBox="0 0 497 497" width="512" xmlns="http://www.w3.org/2000/svg"><g><path d="m267.849 8.293c-10.578-11.057-28.119-11.057-38.697 0-10.613 11.094-17.134 26.132-17.134 42.699 0 .897.019 1.79.057 2.678 1.974 46.268 70.878 46.268 72.851 0 .038-.888.057-1.781.057-2.678 0-16.567-6.521-31.605-17.134-42.699z" fill="#f9d888"/><path d="m248.5 73.451c-8.493-10.551-13.577-23.962-13.577-38.561 0-12.89 3.969-24.849 10.741-34.736-6.056.644-11.936 3.354-16.513 8.138-10.613 11.094-17.134 26.132-17.134 42.699 0 .897.019 1.79.057 2.678.987 23.135 18.706 34.685 36.425 34.682v-14.9z" fill="#f5c956"/><g><path d="m248.5 148.618c-4.142 0-7.5-3.358-7.5-7.5v-86.863c0-4.142 3.358-7.5 7.5-7.5s7.5 3.358 7.5 7.5v86.863c0 4.142-3.358 7.5-7.5 7.5z" fill="#423e4f"/></g><path d="m313.025 216.312c72.791 3.844 131.698 63.075 132.956 136.759.02 1.136.03 2.282.03 3.418 0 26.116-5.071 51.046-14.28 73.866-16.319 40.427-55.975 66.534-99.557 66.645z" fill="#ffa875"/><path d="m164.826 497c-44.342-.122-84.191-27.303-100.348-68.633-8.712-22.273-13.489-46.513-13.489-71.879 0-1.136.01-2.282.03-3.418 1.258-73.684 60.164-132.915 132.956-136.759z" fill="#ffa875"/><path d="m336.211 410.699c0 30.072-1.41 59.059-4.037 86.301h-167.348c-2.627-27.242-4.037-56.229-4.037-86.301 0-74.992 8.793-143.26 23.185-194.387 2.495-.122 5-.193 7.526-.193h114c2.525 0 5.031.071 7.526.193 14.391 51.127 23.185 119.395 23.185 194.387z" fill="#ff995d"/><path d="m89.827 399.102c0-74.629 35.784-140.895 91.124-182.594-71.392 5.3-128.692 63.902-129.933 136.563-.02 1.136-.03 2.282-.03 3.417 0 25.366 4.777 49.606 13.489 71.879 8.033 20.55 21.927 37.597 39.315 49.564-9.031-24.572-13.965-51.124-13.965-78.829z" fill="#ff995d"/><path d="m331.815 202.526c-9.328-12.569-20.132-31.962-27.982-60.576-3.436-12.522-14.737-21.258-27.721-21.258h-55.221c-12.985 0-24.286 8.736-27.722 21.258-7.851 28.614-18.655 48.007-27.982 60.576-12.847 17.312-19.588 38.399-19.588 59.957v17.651c0 12.116 9.822 21.937 21.937 21.937 12.116 0 21.937-9.822 21.937-21.937v-17.475c0-10.242 8.303-18.545 18.545-18.545 10.242 0 18.545 8.303 18.545 18.545v57.671c0 12.116 9.822 21.937 21.937 21.937 12.116 0 21.937-9.822 21.937-21.937v-37.573c0-10.242 8.303-18.545 18.545-18.545 10.242 0 18.545 8.303 18.545 18.545v27.524c0 12.116 9.822 21.937 21.937 21.937 12.116 0 21.937-9.822 21.937-21.937v-47.798c.002-21.558-6.739-42.645-19.586-59.957z" fill="#e8e8e8"/><g><g><path d="m123.227 389.754c-4.142 0-7.5-3.358-7.5-7.5v-17.987c0-4.142 3.358-7.5 7.5-7.5s7.5 3.358 7.5 7.5v17.987c0 4.142-3.358 7.5-7.5 7.5z" fill="#423e4f"/></g><g><path d="m373.772 389.754c-4.142 0-7.5-3.358-7.5-7.5v-17.987c0-4.142 3.358-7.5 7.5-7.5s7.5 3.358 7.5 7.5v17.987c0 4.142-3.358 7.5-7.5 7.5z" fill="#423e4f"/></g><g><path d="m248.5 405.891c-12.746 0-24.868-5.521-33.257-15.147-2.721-3.123-2.396-7.86.727-10.582 3.123-2.721 7.86-2.396 10.582.727 5.54 6.357 13.54 10.002 21.948 10.002 8.409 0 16.409-3.646 21.949-10.003 2.721-3.123 7.459-3.448 10.582-.726 3.123 2.721 3.448 7.459.727 10.582-8.391 9.626-20.513 15.147-33.258 15.147z" fill="#423e4f"/></g></g><path d="m201.167 234.702c0-43.261 15.257-82.956 40.676-114.01h-20.953c-12.985 0-24.286 8.736-27.722 21.258-7.851 28.614-18.655 48.006-27.982 60.576-12.847 17.312-19.588 38.399-19.588 59.957v17.651c0 12.116 9.822 21.938 21.938 21.938 12.116 0 21.938-9.822 21.938-21.938v-17.474c0-7.864 4.902-14.568 11.811-17.265-.077-3.54-.118-7.102-.118-10.693z" fill="#e0e0e0"/></g></svg>