<svg id="Capa_1" enable-background="new 0 0 497 497" height="512" viewBox="0 0 497 497" width="512" xmlns="http://www.w3.org/2000/svg"><g><path d="m85.847 311.342c-14.623 0-26.83 1.554-37.004 4.048-28.974 7.102-49.13 33.389-48.839 63.22.118 12.082 8.708 22.419 20.565 24.746 11.856 2.327 20.446 12.664 20.564 24.746l.024 2.519c.136 13.873 11.349 25.087 25.222 25.222l2.519.024c12.083.118 22.419 8.708 24.747 20.565 2.327 11.856 12.664 20.447 24.746 20.565 29.831.291 56.118-19.865 63.22-48.839 2.494-10.174 4.048-22.381 4.048-37.004z" fill="#bc9bdd"/><path d="m476.432 93.644c-11.856-2.327-20.446-12.664-20.564-24.746l-.024-2.519c-.136-13.873-11.349-25.086-25.222-25.222l-2.519-.025c-12.083-.118-22.419-8.708-24.747-20.564-2.327-11.857-12.664-20.447-24.746-20.565-29.831-.291-56.118 19.865-63.22 48.84-2.494 10.174-4.048 22.381-4.048 37.004l99.812 99.812c14.623 0 26.83-1.554 37.004-4.048 28.974-7.102 49.13-33.389 48.839-63.22-.118-12.083-8.708-22.42-20.565-24.747z" fill="#bc9bdd"/><path d="m308.691 85.516c-23.334-2.407-47.481 5.04-65.708 22.349l43.442 248.863 69.281-69.281 13.549-121.239z" fill="#ffa875"/><g><path d="m141.056 366.551-40.559 40.559c-2.929 2.929-7.678 2.929-10.607 0s-2.929-7.678 0-10.607l40.559-40.559c2.929-2.929 7.678-2.929 10.607 0s2.929 7.678 0 10.607z" fill="#b08bd7"/></g><g><path d="m116.05 341.551c-1.212 1.212-2.842 2.016-4.683 2.168-15.346 1.268-39.284 16.748-47.213 22.607-3.331 2.461-8.027 1.756-10.489-1.575-2.461-3.332-1.758-8.026 1.576-10.489 1.304-.963 32.196-23.616 54.891-25.491 4.128-.341 7.751 2.729 8.092 6.857.189 2.286-.669 4.418-2.174 5.923z" fill="#b08bd7"/></g><g><path d="m142.004 442.613c-2.581 2.581-6.73 2.956-9.754.722-3.33-2.461-4.036-7.155-1.577-10.487 5.86-7.943 21.343-31.909 22.608-47.215.341-4.129 3.964-7.198 8.092-6.857s7.198 3.964 6.857 8.092c-1.875 22.695-24.528 53.587-25.491 54.891-.227.307-.473.592-.735.854z" fill="#b08bd7"/></g><g><path d="m407.11 100.497-40.559 40.559c-2.929 2.929-7.678 2.929-10.607 0s-2.929-7.678 0-10.607l40.559-40.559c2.929-2.929 7.678-2.929 10.607 0s2.929 7.678 0 10.607z" fill="#b08bd7"/></g><g><path d="m341.551 116.05c-1.505 1.505-3.637 2.363-5.924 2.174-4.128-.341-7.198-3.964-6.857-8.092 1.875-22.694 24.528-53.587 25.491-54.891 2.463-3.337 7.158-4.037 10.489-1.576 3.33 2.461 4.036 7.155 1.577 10.487-5.86 7.943-21.344 31.909-22.608 47.215-.152 1.841-.957 3.472-2.168 4.683z" fill="#b08bd7"/></g><g><path d="m442.613 142.004c-.262.262-.547.508-.854.735-1.304.963-32.196 23.616-54.891 25.491-4.128.341-7.751-2.729-8.092-6.857-.34-4.128 2.729-7.751 6.857-8.092 15.345-1.267 39.284-16.748 47.213-22.607 3.331-2.461 8.027-1.756 10.489 1.575 2.234 3.025 1.859 7.175-.722 9.755z" fill="#b08bd7"/></g><path d="m243.494 243.494-53.589-82.596-54.914 54.913 8.207 176.453c19.032 16.143 43.63 22.342 66.927 18.573l40.344-64.875z" fill="#ffa875"/><path d="m329.942 113.831-21.251-28.314c-23.334-2.407-47.481 5.04-65.708 22.349l9.72 55.68c22.93-21.764 49.135-38.851 77.239-49.715z" fill="#ff995d"/><path d="m163.256 373.311c0-62.716 20.808-122.157 54.518-169.458l-27.87-42.955-54.914 54.914 8.207 176.453c6.667 5.655 14.019 10.085 21.757 13.298-1.113-10.571-1.698-21.332-1.698-32.252z" fill="#ff995d"/><path d="m270.59 187.588c-8.124-31.549-18.144-58.374-27.607-79.722-.527.497-1.053 1.008-1.572 1.527l-51.506 51.506c4.822 13.066 9.546 27.75 13.713 43.938 10.283 39.891 15.233 81.219 14.729 122.841-.339 27.66-3.092 55.448-8.222 83.16 16.64-2.678 32.625-10.434 45.443-23.252l30.857-30.857c.594-9.411.955-18.813 1.068-28.209.579-47.715-5.116-95.129-16.903-140.932z" fill="#f9d888"/><path d="m387.585 138.113-28.72-28.72c-14.029-14.029-31.85-21.995-50.174-23.876 10.08 23.47 20.386 51.919 28.863 84.83 9.847 38.251 15.925 77.488 18.151 117.101l31.88-31.88c32.429-32.43 32.429-85.026 0-117.455z" fill="#f9d888"/><g fill="#f5c956"><path d="m134.991 215.812-25.599 25.599c-32.429 32.429-32.429 85.026 0 117.455l28.721 28.72c1.647 1.647 3.34 3.205 5.085 4.679 12.149-70.959 4.183-131.447-8.207-176.453z"/><path d="m355.143 105.914c-13.394-11.863-29.708-18.68-46.452-20.398 4.198 9.774 8.433 20.425 12.561 31.889 11.004-4.823 22.33-8.68 33.891-11.491z"/><path d="m207.203 219.773c15.051-24.362 33.385-46.057 54.096-64.04-5.901-18.089-12.223-34.12-18.317-47.868-.527.497-1.053 1.008-1.572 1.527l-51.506 51.506c4.822 13.066 9.546 27.75 13.713 43.938 1.279 4.958 2.474 9.937 3.586 14.937z"/></g></g></svg>