<svg id="Capa_1" enable-background="new 0 0 497 497" height="512" viewBox="0 0 497 497" width="512" xmlns="http://www.w3.org/2000/svg"><g><path d="m231.566 458.218-79.502-259.597c-3.683-12.027-2.256-25.039 3.947-35.981l63.574-112.147c8.129-14.34 23.341-23.203 39.825-23.203h128.237c16.484 0 31.695 8.862 39.825 23.203l63.574 112.147c6.203 10.942 7.63 23.954 3.947 35.981l-79.502 259.597c-5.891 19.237-23.653 32.373-43.772 32.373h-96.382c-20.118.001-37.879-13.135-43.771-32.373z" fill="#e8a882"/><path d="m219.586 50.493-63.574 112.147c-6.203 10.942-7.63 23.954-3.947 35.981l79.502 259.597c5.891 19.237 23.653 32.374 43.772 32.374h16.834l27.357-9.216c31.767-10.702 52.486-40.406 51.557-73.917l-7.537-271.392c-.574-20.72-9.762-40.532-25.207-54.358l-60.79-54.418h-18.14c-16.487 0-31.698 8.862-39.827 23.202z" fill="#e3986d"/><path d="m274.318 414.344-65.867-215.077c-2.562-8.367-1.569-17.42 2.746-25.032l43.693-77.077c5.656-9.977 16.238-16.143 27.707-16.143h81.866c11.468 0 22.051 6.166 27.707 16.143l43.693 77.077c4.315 7.613 5.308 16.665 2.746 25.032l-65.867 215.077c-4.099 13.384-16.455 22.523-30.453 22.523h-37.517c-13.999 0-26.355-9.139-30.454-22.523z" fill="#5c586f"/><path d="m363.548 136.067c-.574-20.72-9.762-40.532-25.207-54.358l-.775-.694h-54.97c-11.468 0-22.051 6.166-27.707 16.143l-43.693 77.077c-4.315 7.613-5.308 16.666-2.746 25.032l65.867 215.077c4.099 13.384 16.455 22.522 30.453 22.522h37.517c11.961 0 22.705-6.686 28.141-16.978.547-4.063.773-8.216.656-12.43z" fill="#4f4c5f"/><path d="m341.096 408.292-7.537-271.393c-.349-12.573-5.856-24.449-15.228-32.838l-96.051-85.982c-12.282-10.995-29.527-14.537-45.148-9.274l-121.525 40.94c-15.621 5.262-27.207 18.517-30.333 34.702l-24.443 126.576c-2.385 12.35.417 25.137 7.747 35.358l158.219 220.63c11.725 16.35 32.75 23.128 51.817 16.705l91.338-30.77c19.065-6.424 31.703-24.543 31.144-44.654z" fill="#e8a882"/><path d="m89.197 226.552c0-89.335 24.272-168.506 87.363-217.555l-120.953 40.748c-15.621 5.262-27.207 18.517-30.333 34.702l-24.443 126.576c-2.385 12.35.417 25.137 7.747 35.358l158.219 220.63c11.725 16.35 32.75 23.128 51.817 16.705l4.888-1.646c-80.306-55.567-134.305-155.942-134.305-255.518z" fill="#e3986d"/><path d="m280.331 155.512c-.243-8.747-4.074-17.009-10.594-22.846l-66.014-59.094c-8.545-7.649-20.542-10.113-31.41-6.452l-77.582 26.136c-10.868 3.662-18.929 12.883-21.103 24.144l-16.799 86.993c-1.659 8.592.29 17.488 5.389 24.599l131.085 182.793c8.157 11.375 22.785 16.091 36.05 11.622l35.554-11.978c13.265-4.469 22.057-17.074 21.669-31.066z" fill="#edb798"/><path d="m236.162 184.94-4.059-12.048c-2.754-8.176-11.615-12.571-19.792-9.817l-24.853 8.373-9.479-28.137c-2.754-8.176-11.615-12.571-19.792-9.817l-12.048 4.059c-8.176 2.754-12.571 11.615-9.817 19.792l9.479 28.137-24.853 8.373c-8.176 2.754-12.571 11.616-9.817 19.792l4.059 12.048c2.754 8.176 11.615 12.571 19.792 9.817l24.853-8.373 24.448 72.572c2.754 8.176 11.615 12.571 19.792 9.817l12.048-4.059c8.176-2.754 12.571-11.615 9.817-19.792l-24.448-72.571 24.853-8.373c8.176-2.756 12.571-11.617 9.817-19.793z" fill="#f9d888"/><path d="m89.197 226.552c0-51.488 8.064-99.599 26.968-140.517l-21.435 7.221c-10.868 3.662-18.929 12.883-21.103 24.144l-16.799 86.993c-1.659 8.592.29 17.488 5.389 24.599l30.618 42.696c-2.379-14.959-3.638-30.056-3.638-45.136z" fill="#e8a882"/></g></svg>