<svg id="Capa_1" enable-background="new 0 0 497 497" height="512" viewBox="0 0 497 497" width="512" xmlns="http://www.w3.org/2000/svg"><g><path d="m228.762 23.27h39.477v219.632h-39.477z" fill="#e8e8e8"/><g><path d="m185.78 267.588c-10.489 7.523-25.069 5.102-32.569-5.349l-12.574-17.512c-7.701-10.735-17.531-19.696-28.751-26.38l-8.225-28.127 33.858-10.892c15.972 9.82 29.974 22.777 41.035 38.179l12.574 17.512c7.515 10.474 5.116 25.055-5.348 32.569z" fill="#bc9bdd"/></g><path d="m150.191 272.209-18.733-10.67c-16.479-9.383-34.609-15.317-53.221-17.579l-26.227 24.025 19.209 22.131c12.985 1.393 25.657 5.437 37.135 11.98l18.733 10.67c11.176 6.369 25.436 2.487 31.831-8.726 6.374-11.195 2.472-25.447-8.727-31.831z" fill="#bc9bdd"/><path d="m129.801 326.315-20.982-4.953c-18.456-4.354-37.524-4.933-56.019-1.854l-18.386 30.446 24.671 15.814c12.851-2.326 26.149-2.02 39.006 1.02l20.982 4.953c12.519 2.958 25.105-4.788 28.077-17.35 2.959-12.537-4.805-25.11-17.349-28.076z" fill="#bc9bdd"/><path d="m157.577 393.106c-3.293-12.455-16.062-19.892-28.525-16.602l-20.843 5.509c-18.333 4.848-35.428 13.314-50.294 24.739l-1.886 35.517 29.211 2.336c10.243-8.102 22.118-14.094 34.893-17.465l20.843-5.509c12.436-3.283 19.893-16.043 16.601-28.525z" fill="#bc9bdd"/><g><path d="m311.22 267.588c10.489 7.523 25.069 5.102 32.569-5.349l12.574-17.512c7.701-10.735 17.531-19.696 28.751-26.38l8.225-28.127-33.858-10.892c-15.972 9.82-29.974 22.777-41.035 38.179l-12.574 17.512c-7.515 10.474-5.116 25.055 5.348 32.569z" fill="#bc9bdd"/></g><path d="m346.809 272.209 18.733-10.67c16.479-9.383 34.609-15.317 53.221-17.579l26.227 24.024-19.209 22.131c-12.986 1.393-25.657 5.437-37.135 11.98l-18.733 10.67c-11.176 6.369-25.436 2.487-31.831-8.726-6.374-11.194-2.472-25.446 8.727-31.83z" fill="#bc9bdd"/><path d="m367.199 326.315 20.982-4.953c18.456-4.354 37.524-4.933 56.019-1.854l18.386 30.446-24.671 15.814c-12.851-2.326-26.149-2.02-39.006 1.02l-20.982 4.953c-12.519 2.958-25.105-4.788-28.077-17.35-2.959-12.537 4.805-25.11 17.349-28.076z" fill="#bc9bdd"/><path d="m339.423 393.106c3.293-12.455 16.062-19.892 28.525-16.602l20.843 5.509c18.333 4.848 35.428 13.314 50.294 24.739l1.886 35.517-29.211 2.336c-10.243-8.102-22.118-14.094-34.893-17.465l-20.843-5.509c-12.436-3.283-19.893-16.043-16.601-28.525z" fill="#bc9bdd"/><path d="m268.238 183.159c-6.477-.637-13.06-.968-19.739-.968-6.678 0-13.261.332-19.738.968v59.742h39.477z" fill="#e0e0e0"/><g fill="#b08bd7"><path d="m343.789 262.24 12.574-17.512c3.666-5.11 7.827-9.803 12.378-14.055-11.974-10.266-25.411-18.98-40.013-25.85-3.654 4.017-7.094 8.245-10.282 12.685l-12.574 17.512c-7.514 10.474-5.115 25.054 5.349 32.569 10.488 7.523 25.067 5.102 32.568-5.349z"/><path d="m388.809 250.953c-8.021 2.812-15.814 6.343-23.267 10.586l-18.733 10.67c-11.199 6.383-15.101 20.636-8.726 31.831 6.395 11.213 20.655 15.095 31.831 8.726l18.733-10.67c8.076-4.604 16.744-7.964 25.695-10.041-6.557-14.938-15.175-28.744-25.533-41.102z"/><path d="m388.181 321.362-20.982 4.953c-12.544 2.966-20.309 15.539-17.35 28.077 2.972 12.562 15.558 20.308 28.077 17.35l20.982-4.953c9.847-2.329 19.951-3.047 29.916-2.214.013-.874.028-1.747.028-2.632 0-15.378-1.953-30.232-5.634-44.35-11.725-.199-23.501 1.047-35.037 3.769z"/><path d="m388.791 382.013-20.843-5.509c-12.464-3.29-25.233 4.147-28.525 16.602-3.292 12.482 4.165 25.242 16.602 28.525l20.843 5.509c8.142 2.148 15.917 5.366 23.139 9.512 11.761-9.901 19.954-23.179 24.525-39.721-11.114-6.54-23.135-11.585-35.741-14.918z"/><path d="m129.052 376.504-20.843 5.509c-12.607 3.333-24.628 8.378-35.742 14.919 4.57 16.542 12.762 29.821 24.523 39.722 7.223-4.147 14.999-7.365 23.143-9.514l20.843-5.509c12.437-3.284 19.894-16.043 16.602-28.525-3.293-12.454-16.062-19.891-28.526-16.602z"/><path d="m129.801 326.315-20.982-4.953c-11.537-2.722-23.313-3.968-35.039-3.769-3.68 14.118-5.633 28.972-5.633 44.35 0 .885.014 1.758.028 2.632 9.965-.833 20.07-.115 29.917 2.213l20.982 4.953c12.519 2.958 25.105-4.789 28.077-17.35 2.958-12.537-4.806-25.11-17.35-28.076z"/><path d="m150.191 272.209-18.733-10.67c-7.453-4.244-15.247-7.774-23.268-10.586-10.359 12.358-18.977 26.165-25.533 41.102 8.952 2.077 17.62 5.437 25.696 10.041l18.733 10.67c11.176 6.369 25.436 2.487 31.831-8.726 6.376-11.195 2.473-25.447-8.726-31.831z"/><path d="m140.638 244.728 12.574 17.512c7.5 10.451 22.079 12.872 32.569 5.349 10.464-7.515 12.863-22.095 5.349-32.569l-12.574-17.512c-3.188-4.44-6.629-8.669-10.282-12.686-14.602 6.87-28.039 15.583-40.013 25.85 4.55 4.252 8.711 8.946 12.377 14.056z"/></g><path d="m403.853 361.943c0 85.799-69.554 71.34-155.353 71.34s-155.353 14.458-155.353-71.34 69.554-149.752 155.353-149.752 155.353 63.953 155.353 149.752z" fill="#6a647f"/><ellipse cx="331.697" cy="368.614" fill="#ff9db0" rx="30.698" ry="24.446"/><g><path d="m301.708 324.563c-3.571 0-6.735-2.56-7.377-6.199-.72-4.079 2.004-7.969 6.083-8.688l21.749-3.835c4.075-.717 7.969 2.004 8.688 6.083.72 4.079-2.004 7.969-6.083 8.688l-21.749 3.835c-.44.078-.879.116-1.311.116z" fill="#423e4f"/></g><g><path d="m313.806 352.484c-4.143 0-7.5-3.358-7.5-7.5v-12.355c0-4.142 3.357-7.5 7.5-7.5s7.5 3.358 7.5 7.5v12.355c0 4.142-3.357 7.5-7.5 7.5z" fill="#423e4f"/></g><g><g><path d="m248.5 360.679c-8.664 0-16.903-3.752-22.604-10.295-2.722-3.123-2.396-7.86.728-10.582 3.122-2.72 7.86-2.396 10.581.727 2.852 3.273 6.969 5.15 11.296 5.15s8.445-1.877 11.297-5.15c2.72-3.123 7.458-3.448 10.581-.727s3.449 7.459.728 10.582c-5.703 6.542-13.942 10.295-22.607 10.295z" fill="#423e4f"/></g></g><path d="m137.52 179.329-25.633 39.019c-7.645-4.555-15.944-8.056-24.653-10.333-12.471-3.267-19.93-16.018-16.662-28.489 3.267-12.471 16.018-19.93 28.489-16.662 13.638 3.574 26.595 9.147 38.459 16.465z" fill="#b9ebc2"/><path d="m36.415 245.04c-12.697 2.234-21.174 14.332-18.941 27.029 2.234 12.697 14.331 21.174 27.028 18.941 8.865-1.563 17.868-1.844 26.716-.894l7.018-46.155c-13.835-1.702-27.935-1.361-41.821 1.079z" fill="#b9ebc2"/><path d="m52.8 319.509c-13.754 2.27-27.185 6.574-39.819 12.832-11.552 5.724-16.272 19.722-10.548 31.273s19.722 16.272 31.273 10.548c8.064-4 16.622-6.809 25.379-8.393z" fill="#b9ebc2"/><path d="m57.915 406.752c-11.065 8.478-20.889 18.599-29.089 30.068-7.496 10.489-5.071 25.06 5.418 32.557 10.489 7.496 25.06 5.071 32.557-5.418 5.231-7.326 11.459-13.833 18.439-19.353z" fill="#b9ebc2"/><path d="m359.48 179.329 25.633 39.019c7.645-4.555 15.944-8.056 24.653-10.333 12.471-3.267 19.93-16.018 16.662-28.489-3.267-12.471-16.018-19.93-28.489-16.662-13.638 3.574-26.594 9.147-38.459 16.465z" fill="#b9ebc2"/><path d="m460.585 245.04c12.697 2.234 21.174 14.332 18.941 27.029-2.234 12.697-14.331 21.174-27.029 18.941-8.865-1.563-17.868-1.844-26.716-.894l-7.018-46.155c13.836-1.702 27.936-1.361 41.822 1.079z" fill="#b9ebc2"/><path d="m444.2 319.509c13.754 2.27 27.185 6.574 39.819 12.832 11.552 5.724 16.272 19.722 10.548 31.273s-19.722 16.272-31.273 10.548c-8.064-4-16.622-6.809-25.379-8.393z" fill="#b9ebc2"/><path d="m439.085 406.752c11.065 8.478 20.889 18.599 29.089 30.068 7.496 10.489 5.071 25.06-5.418 32.557-10.489 7.496-25.06 5.071-32.557-5.418-5.231-7.326-11.459-13.833-18.439-19.353z" fill="#b9ebc2"/><path d="m140.24 379.126c0-70.433 35.438-132.077 90.183-165.964-77.28 8.269-137.275 69.098-137.275 148.781 0 47.973 21.749 64.598 55.919 69.937-5.655-16.772-8.827-34.467-8.827-52.754z" fill="#5c586f"/><ellipse cx="165.303" cy="368.614" fill="#ff9db0" rx="30.698" ry="24.446"/><g><path d="m195.293 324.563c-.433 0-.87-.037-1.312-.115l-21.749-3.835c-4.079-.719-6.803-4.609-6.083-8.688s4.606-6.802 8.688-6.083l21.749 3.835c4.079.719 6.803 4.609 6.083 8.688-.641 3.637-3.805 6.198-7.376 6.198z" fill="#423e4f"/></g><g><path d="m183.194 352.484c-4.143 0-7.5-3.358-7.5-7.5v-12.355c0-4.142 3.357-7.5 7.5-7.5s7.5 3.358 7.5 7.5v12.355c0 4.142-3.358 7.5-7.5 7.5z" fill="#423e4f"/></g></g></svg>