<svg id="Capa_1" enable-background="new 0 0 497 497" height="512" viewBox="0 0 497 497" width="512" xmlns="http://www.w3.org/2000/svg"><g><path d="m466.872.134c-8.839.996-16.02 7.531-17.926 16.219-6.285 28.647-39.568 45.617-39.956 45.811l9.16 18.536 9.09 18.588c1.798-.879 18.023-9.042 33.753-24.661 15.092-14.986 24.703-31.836 28.503-49.697 2.933-13.789-8.614-26.375-22.624-24.796z" fill="#b9ebc2"/><path d="m186.775 259.382-178.4 178.4c-10.914 10.914-10.914 28.61 0 39.524l11.507 11.507c10.914 10.914 28.61 10.914 39.525 0l178.4-178.4z" fill="#edb798"/><path d="m114.468 331.69c7.15 9.539 15.055 18.682 23.702 27.329 8.668 8.668 17.796 16.584 27.302 23.73l72.335-72.335-51.032-51.032z" fill="#e8a882"/><path d="m196.525 85.826-47.218-13.496c-74.367 76.234-65.446 189.955 10.076 265.477s189.243 84.443 265.477 10.076l.764-32.958z" fill="#8bdf9e"/><path d="m453.689 43.5c-3.769-3.769-7.653-7.382-11.629-10.858-11.818 18.678-32.763 29.369-33.07 29.523l9.16 18.537 9.09 18.588c1.798-.879 18.023-9.042 33.752-24.661 3.749-3.722 7.157-7.56 10.225-11.499-5.444-6.834-11.288-13.391-17.528-19.63z" fill="#8bdf9e"/><path d="m125.66 248.545c0-61.239 28.026-119.679 71.423-162.161l-.559-.559-47.218-13.497c-64.826 66.453-66.356 161.387-15.66 234.678-5.198-18.598-7.986-38.203-7.986-58.461z" fill="#73d98b"/><path d="m432.476 64.713c-74.062-74.063-190.648-78.312-269.567-15.834-12.028 9.522-16.945 25.473-12.253 40.079 2.808 8.742 7.63 16.539 13.949 22.857 6.31 6.31 14.107 11.132 22.849 13.94s16.539 7.63 22.849 13.94c6.318 6.318 11.14 14.116 13.949 22.858 2.8 8.733 7.63 16.539 13.94 22.849s14.116 11.141 22.858 13.949 16.539 7.63 22.849 13.94 11.132 14.107 13.94 22.849 7.639 16.548 13.949 22.858 14.116 11.14 22.849 13.94c8.742 2.808 16.539 7.63 22.858 13.949 6.348 6.348 11.19 14.202 13.991 23.008 5.547 17.442 19.321 31.042 36.747 36.639 14.606 4.691 30.557-.225 40.079-12.253 62.475-78.918 58.228-195.504-15.836-269.568z" fill="#e8a882"/><path d="m150.656 88.958c2.808 8.742 7.63 16.539 13.948 22.857 1.854 1.854 3.849 3.561 5.946 5.144 42.286-57.59 109.756-97.133 181.83-97.133 4.009 0 7.981-.027 11.915-.071-66.458-26.476-143.91-16.378-201.386 29.123-12.028 9.523-16.945 25.474-12.253 40.08z" fill="#e3986d"/><g fill="#fff"><ellipse cx="242.754" cy="97.501" rx="32.607" ry="40.945" transform="matrix(.707 -.707 .707 .707 2.158 200.212)"/><ellipse cx="399.688" cy="254.435" rx="32.607" ry="40.945" transform="matrix(.707 -.707 .707 .707 -62.847 357.142)"/></g><g><path d="m281.823 99.68c-1.92 0-3.839-.732-5.304-2.197-2.929-2.929-2.929-7.678 0-10.607l11.836-11.836c2.931-2.929 7.679-2.928 10.607 0 2.929 2.929 2.929 7.678 0 10.607l-11.836 11.836c-1.464 1.465-3.384 2.197-5.303 2.197z" fill="#423e4f"/></g><g><path d="m405.01 222.866c-1.919 0-3.839-.732-5.303-2.197-2.93-2.929-2.93-7.678-.001-10.607l11.835-11.835c2.93-2.929 7.679-2.929 10.606 0 2.93 2.929 2.93 7.678.001 10.607l-11.835 11.835c-1.465 1.465-3.385 2.197-5.303 2.197z" fill="#423e4f"/></g><g><path d="m357.909 177.231c-10.041 0-19.703-3.971-26.842-11.11-7.757-7.756-11.773-18.492-11.02-29.454.284-4.132 3.853-7.248 7.997-6.968 4.132.284 7.252 3.865 6.968 7.997-.456 6.635 1.972 13.129 6.661 17.818 4.689 4.69 11.181 7.118 17.819 6.662 4.13-.284 7.712 2.836 7.996 6.969.283 4.132-2.836 7.712-6.969 7.996-.871.061-1.743.09-2.61.09z" fill="#423e4f"/></g><circle cx="386.469" cy="110.72" fill="#8bdf9e" r="20.413"/><circle cx="344.465" cy="20.791" fill="#ff748f" r="20.413"/><circle cx="219.769" cy="29.491" fill="#f9d888" r="20.413"/><circle cx="476.398" cy="152.724" fill="#9ae0eb" r="20.413"/><circle cx="467.698" cy="277.42" fill="#f9d888" r="20.413"/></g></svg>