<svg id="Capa_1" enable-background="new 0 0 497 497" height="512" viewBox="0 0 497 497" width="512" xmlns="http://www.w3.org/2000/svg"><g><path d="m314.478 400.698v63.313c0 18.219-14.77 32.989-32.989 32.989-18.219 0-32.989-14.77-32.989-32.989l-13.02-26.137 13.02-37.176z" fill="#b2b0bc"/><path d="m314.478 452.96v-52.262h-65.978l-13.02 37.176 8.967 18.002h50.253c6.874 0 13.511-1.027 19.778-2.916z" fill="#a19dae"/><path d="m182.522 400.698v63.313c0 18.219 14.77 32.989 32.989 32.989 18.219 0 32.989-14.77 32.989-32.989v-63.313z" fill="#c7c5cb"/><path d="m404.689 156.189c0 86.261-69.928 186.209-156.189 186.209s-156.189-99.949-156.189-186.209 69.928-156.189 156.189-156.189 156.189 69.928 156.189 156.189z" fill="#b2b0bc"/><path d="m143.482 170.788c0-71.959 37.901-135.055 94.821-170.448-81.506 5.255-145.992 73.015-145.992 155.848 0 83.263 65.155 179.267 147.26 185.839-57.627-35.238-96.089-98.745-96.089-171.239z" fill="#a19dae"/><path d="m128.721 147.748c.437-14.264 11.946-25.773 26.21-26.21 18.107-.554 36.39 6.072 50.212 19.894s20.448 32.105 19.894 50.212c-.437 14.264-11.946 25.773-26.21 26.21-18.107.554-36.39-6.072-50.212-19.894s-20.449-32.105-19.894-50.212z" fill="#423e4f"/><path d="m368.279 147.748c-.437-14.264-11.946-25.773-26.21-26.21-18.107-.554-36.39 6.072-50.212 19.894s-20.448 32.105-19.894 50.212c.437 14.264 11.946 25.773 26.21 26.21 18.107.554 36.39-6.072 50.212-19.894s20.449-32.105 19.894-50.212z" fill="#423e4f"/><g><path d="m248.5 262.294c-10.882 0-21.23-4.713-28.393-12.932-2.722-3.123-2.396-7.86.726-10.582 3.122-2.721 7.86-2.397 10.582.726 4.313 4.949 10.541 7.787 17.085 7.787s12.772-2.838 17.086-7.787c2.721-3.123 7.458-3.448 10.582-.726 3.123 2.722 3.448 7.459.726 10.582-7.163 8.219-17.512 12.932-28.394 12.932z" fill="#423e4f"/></g><path d="m182.522 452.96c6.267 1.889 12.904 2.916 19.778 2.916h46.2v-55.178h-65.978z" fill="#b2b0bc"/><path d="m323.211 286.246-3.98-2.848c-8.487-6.072-19.856-5.99-28.364.051-8.452 6.001-19.785 5.984-28.22-.051-8.46-6.052-19.833-6.052-28.292 0-8.436 6.035-19.768 6.052-28.22.051-8.508-6.041-19.878-6.123-28.364-.051l-3.98 2.848c-6.38 4.565-10.166 11.928-10.166 19.773v81.18c0 21.361 17.316 38.677 38.677 38.677h92.4c21.361 0 38.677-17.317 38.677-38.677v-81.18c-.002-7.846-3.787-15.209-10.168-19.773z" fill="#b9ebc2"/><path d="m331.954 306.001h24.675c16.441 0 29.768 13.328 29.768 29.768 0 16.441-13.328 29.768-29.768 29.768h-24.675c-16.441 0-29.768-13.328-29.768-29.768-.001-16.44 13.327-29.768 29.768-29.768z" fill="#c7c5cb"/><path d="m211.488 337.571c0-17.638 3.61-34.431 10.125-49.688-5.392.312-10.865-1.157-15.479-4.434-8.508-6.041-19.878-6.123-28.364-.051l-3.98 2.848c-6.38 4.565-10.166 11.928-10.166 19.773v81.18c0 21.361 17.317 38.678 38.677 38.678h45.068c-22.201-22.814-35.881-53.96-35.881-88.306z" fill="#8bdf9e"/><path d="m165.046 306.001h-24.675c-16.441 0-29.768 13.328-29.768 29.768 0 16.441 13.328 29.768 29.768 29.768h24.675c16.441 0 29.768-13.328 29.768-29.768.001-16.44-13.327-29.768-29.768-29.768z" fill="#c7c5cb"/></g></svg>