<svg id="Capa_1" enable-background="new 0 0 497 497" height="512" viewBox="0 0 497 497" width="512" xmlns="http://www.w3.org/2000/svg"><g><path d="m17.927 218.253v185.118c0 38.279 31.032 69.311 69.311 69.311h322.525c38.279 0 69.311-31.032 69.311-69.311v-185.118z" fill="#ff748f"/><path d="m58.653 338.663c0-46.508 17.944-88.819 47.275-120.41h-88.001v185.118c0 38.28 31.032 69.311 69.311 69.311h32.781c-37.581-32.462-61.366-80.462-61.366-134.019z" fill="#fd5f7e"/><path d="m478.663 410.871c.265-2.465.41-4.965.41-7.5v-7.5h-70.762v-52.962h70.762v-15h-78.257c-.002 0-.003 0-.005 0s-.003 0-.005 0h-304.613c-.002 0-.003 0-.005 0s-.003 0-.005 0h-78.256v15h70.762v52.962h-70.762v7.5c0 2.535.145 5.035.41 7.5h119.006v61.811h15v-61.811h88.657v61.811h15v-61.811h88.657v61.811h15v-61.811zm-374.974-15v-52.962h289.623v52.962z" fill="#e8e8e8"/><path d="m497 239.784c0-15.817-4.382-31.438-13.24-44.542-6.226-9.21-9.337-20.378-8.522-31.819l.009-.122c1.877-26.195-16.679-49.439-42.639-53.411l-.064-.01c-17.731-2.713-32.681-14.654-39.246-31.347-9.611-24.44-36.408-37.372-61.521-29.69l-.084.026c-17.122 5.238-35.737 1.004-48.91-11.124l-.107-.099c-9.657-8.891-21.918-13.333-34.177-13.327-12.259-.006-24.52 4.436-34.177 13.327l-.107.099c-13.172 12.127-31.788 16.361-48.91 11.124l-.084-.026c-25.113-7.682-51.91 5.25-61.521 29.69-6.565 16.693-21.514 28.634-39.245 31.347l-.064.01c-25.96 3.972-44.516 27.216-42.639 53.411l.009.122c.815 11.441-2.296 22.609-8.522 31.819-8.857 13.103-13.239 28.724-13.239 44.542v20.589c0 24.953 20.228 45.182 45.182 45.182 24.953 0 45.182-20.229 45.182-45.182v-8.18c0-12.477 10.114-22.591 22.591-22.591s22.591 10.114 22.591 22.591v62.021c0 24.953 20.229 45.182 45.182 45.182 24.953 0 45.182-20.229 45.182-45.182v-31.208c0-12.477 10.114-22.591 22.591-22.591s22.591 10.114 22.591 22.591v47.642c0 24.953 20.229 45.182 45.182 45.182 24.953 0 45.182-20.229 45.182-45.182v-88.727c0-12.477 10.114-22.591 22.591-22.591s22.591 10.114 22.591 22.591v28.722c0 24.953 20.229 45.182 45.182 45.182 24.953 0 45.182-20.229 45.182-45.182z" fill="#8bdf9e"/><circle cx="248.5" cy="127.737" fill="#fff" r="60.864"/><circle cx="248.5" cy="118.746" fill="#ff748f" r="22.998"/><g><path d="m248.5 231.003c-10.574 0-20.629-4.58-27.588-12.565-2.721-3.123-2.396-7.86.727-10.582 3.122-2.721 7.86-2.396 10.582.727 4.109 4.715 10.042 7.42 16.279 7.42s12.17-2.704 16.279-7.42c2.721-3.123 7.459-3.448 10.582-.727s3.448 7.459.727 10.582c-6.959 7.986-17.014 12.565-27.588 12.565z" fill="#423e4f"/></g><path d="m58.706 342.909c-.033-1.412-.054-2.827-.054-4.246 0-3.612.121-7.195.335-10.754h-41.06v15z" fill="#e0e0e0"/><path d="m68.106 395.871h-50.179v7.5c0 2.535.145 5.035.41 7.5h55.671c-2.186-4.887-4.158-9.89-5.902-15z" fill="#e0e0e0"/><path d="m102.987 202.233c0-59.912 24.722-114.042 64.509-152.774-.731-.188-1.463-.369-2.189-.591l-.084-.026c-25.113-7.682-51.91 5.25-61.521 29.69-6.565 16.693-21.514 28.634-39.245 31.347l-.064.01c-25.96 3.972-44.516 27.216-42.639 53.411l.009.123c.815 11.441-2.296 22.609-8.522 31.819-8.859 13.104-13.241 28.724-13.241 44.542v20.589c0 24.953 20.228 45.182 45.182 45.182 24.953 0 45.182-20.229 45.182-45.182v-8.179c0-9.652 6.055-17.886 14.572-21.121-1.276-9.433-1.949-19.058-1.949-28.84z" fill="#73d98b"/></g></svg>