<svg id="Capa_1" enable-background="new 0 0 497 497" height="512" viewBox="0 0 497 497" width="512" xmlns="http://www.w3.org/2000/svg"><g><path d="m135.222 299.062-106.916 106.916c-20.822 20.822-20.822 54.582 0 75.405 20.822 20.823 54.582 20.823 75.405 0l106.917-106.917z" fill="#5c586f"/><path d="m459.722 6.645c-8.86-8.86-23.224-8.86-32.083 0l-100.468 100.468 19.324 56.081 56.081 19.324 57.147-57.147c32.785-32.785 32.785-85.941-.001-118.726z" fill="#c7c5cb"/><path d="m346.495 163.194 56.08 19.324 21.213-21.213-75.405-75.405-21.212 21.213z" fill="#b2b0bc"/><path d="m402.575 182.518-75.405-75.405c-58.498-58.498-153.341-58.498-211.839 0l-.007.007c-58.498 58.498-58.498 153.341 0 211.839l75.405 75.405c9.984 9.984 26.171 9.984 36.154 0 9.984-9.984 9.984-26.171 0-36.154l-75.405-75.405c-38.6-38.6-38.468-101.491.404-139.932 38.716-38.286 101.398-37.339 139.899 1.162l74.638 74.638c9.984 9.984 26.171 9.984 36.154 0 9.986-9.984 9.986-26.171.002-36.155z" fill="#ff748f"/><path d="m63.624 456.315c0-62.091 42.93-114.146 100.725-128.127l-29.126-29.126-106.917 106.916c-20.822 20.823-20.822 54.582 0 75.405 11.422 11.422 26.737 16.564 41.674 15.455-4.121-12.768-6.356-26.383-6.356-40.523z" fill="#4f4c5f"/><circle cx="69.816" cy="439.873" fill="#c7c5cb" r="15.83"/><circle cx="117.019" cy="392.67" fill="#c7c5cb" r="15.83"/><path d="m151.48 282.804c-35.612-35.612-38.228-91.885-7.898-130.573-1.091-9.018-1.665-18.195-1.665-27.507 0-14.011 1.28-27.721 3.713-41.029-10.82 6.335-21.017 14.138-30.297 23.418l-.007.006c-58.498 58.498-58.498 153.341 0 211.839l75.405 75.405c9.984 9.984 26.171 9.984 36.154 0 9.984-9.983 9.984-26.17 0-36.154z" fill="#fd5f7e"/></g></svg>