<svg id="Capa_1" enable-background="new 0 0 497 497" height="512" viewBox="0 0 497 497" width="512" xmlns="http://www.w3.org/2000/svg"><g><path d="m328.567 295.452h31.545c17.422 0 31.545 14.123 31.545 31.545 0 17.422-14.123 31.545-31.545 31.545h-31.545l-17.196-31.545z" fill="#e8e8e8"/><path d="m358.502 358.543v-63.091h-29.935l-17.196 31.546 17.196 31.545z" fill="#e0e0e0"/><path d="m164.284 107.805c-90.732 0-164.284 73.553-164.284 164.284v177.607c0 15.204 7.739 29.362 20.535 37.57 12.514 8.027 28.557 8.027 41.071 0 12.514-8.027 28.557-8.027 41.071 0 12.514 8.027 28.557 8.027 41.071 0 12.514-8.027 28.557-8.027 41.071 0 12.514 8.027 28.557 8.027 41.071 0 12.514-8.027 28.557-8.027 41.071 0 12.514 8.027 28.557 8.027 41.071 0 12.797-8.209 20.535-22.367 20.535-37.57v-177.607c0-90.731-73.552-164.284-164.283-164.284z" fill="#e8e8e8"/><g><path d="m151.917 366.026h-31.545c-4.134 0-7.484-3.351-7.484-7.484s3.35-7.484 7.484-7.484h31.545c13.268 0 24.062-10.794 24.062-24.061s-10.794-24.062-24.062-24.062h-31.545c-4.134 0-7.484-3.351-7.484-7.484s3.35-7.484 7.484-7.484h31.545c21.52 0 39.029 17.508 39.029 39.029.001 21.522-17.508 39.03-39.029 39.03z" fill="#e0e0e0"/></g><g><ellipse cx="203.706" cy="246.196" fill="#423e4f" rx="15.519" ry="17.366"/></g><g><path d="m129.36 243.473c-4.134 0-7.484-3.351-7.484-7.484v-14.396c0-4.133 3.35-7.484 7.484-7.484s7.484 3.351 7.484 7.484v14.396c0 4.133-3.35 7.484-7.484 7.484z" fill="#423e4f"/></g><g><path d="m278.053 243.473c-4.134 0-7.484-3.351-7.484-7.484v-14.396c0-4.133 3.35-7.484 7.484-7.484s7.484 3.351 7.484 7.484v14.396c-.001 4.133-3.351 7.484-7.484 7.484z" fill="#423e4f"/></g><g fill="#bc9bdd"><path d="m269.723 42.308c2.977-4.023 4.742-8.997 4.742-14.375 0-13.355-10.865-24.22-24.22-24.22h-21.127c-4.134 0-7.484 3.351-7.484 7.484v72.733c0 4.086 3.293 7.484 7.517 7.484.002 0 19.429-.086 24.784-.086 14.922 0 27.061-12.14 27.061-27.061 0-9.033-4.452-17.041-11.273-21.959zm-19.478-23.627c5.102 0 9.252 4.151 9.252 9.252s-4.15 9.252-9.252 9.252c-.275 0 2.124-.006-13.643.02v-18.524zm3.69 57.679c-3.167 0-11.241.03-17.333.055v-24.22c10.919-.044 6.218-.012 17.333-.023 6.668 0 12.094 5.425 12.094 12.094s-5.426 12.094-12.094 12.094z"/><path d="m330.842 3.714c-24.179 0-43.85 19.671-43.85 43.85s19.671 43.85 43.85 43.85c24.18 0 43.851-19.671 43.851-43.85-.001-24.179-19.672-43.85-43.851-43.85zm0 72.732c-15.926 0-28.882-12.957-28.882-28.882 0-15.926 12.956-28.883 28.882-28.883s28.883 12.957 28.883 28.883-12.957 28.882-28.883 28.882z"/><path d="m427.019 3.714c-24.179 0-43.85 19.671-43.85 43.85s19.671 43.85 43.85 43.85 43.85-19.671 43.85-43.85c-.001-24.179-19.671-43.85-43.85-43.85zm0 72.732c-15.926 0-28.882-12.957-28.882-28.882 0-15.926 12.956-28.883 28.882-28.883s28.882 12.957 28.882 28.883-12.956 28.882-28.882 28.882z"/><path d="m489.446 86.307c-3.575 0-6.473 2.898-6.473 6.473s2.898 6.473 6.473 6.473 6.473-2.898 6.473-6.473-2.898-6.473-6.473-6.473z"/><path d="m489.516 3.714c-4.134 0-7.484 3.351-7.484 7.484v61.945c0 4.133 3.35 7.484 7.484 7.484s7.484-3.351 7.484-7.484v-61.946c0-4.133-3.35-7.483-7.484-7.483z"/></g><path d="m48.265 323.973c0-98.425 29.902-182.471 126.458-215.828-3.453-.216-6.932-.34-10.44-.34-90.731 0-164.283 73.553-164.283 164.284v177.607c0 15.203 7.739 29.362 20.535 37.57 12.514 8.027 28.557 8.027 41.071 0 12.514-8.027 28.557-8.027 41.071 0 5.905 3.788 12.597 5.765 19.332 5.978-45.36-42.211-73.744-102.422-73.744-169.271z" fill="#e0e0e0"/></g></svg>