<svg id="Capa_1" enable-background="new 0 0 497 497" height="512" viewBox="0 0 497 497" width="512" xmlns="http://www.w3.org/2000/svg"><g><path d="m37.78 384.41-12.174 9.687c-13.042 10.378-12.986 30.181.086 40.522 31.733 25.106 99.594 62.381 222.808 62.381s191.075-37.275 222.808-62.381c13.071-10.342 13.128-30.144.086-40.522l-12.174-9.687z" fill="#f9d888"/><path d="m361.02 248.5-112.52 38.365-112.52-38.365 66.66-214.72c6.244-20.094 24.819-33.78 45.86-33.78 21.04 0 39.63 13.69 45.86 33.78z" fill="#bc9bdd"/><path d="m95.727 461.165c0-27.978 7.521-54.196 20.642-76.755h-78.589l-12.174 9.687c-13.042 10.378-12.986 30.181.086 40.522 14.884 11.775 37.715 26.228 70.478 38.255-.293-3.864-.443-7.769-.443-11.709z" fill="#f5c956"/><path d="m459.22 384.41c-35.59 26.45-101.35 58.59-210.72 58.59s-175.13-32.14-210.72-58.59l74.38-59.18 136.34-38.365 136.34 38.365z" fill="#bc9bdd"/><path d="m179.899 306.169-67.739 19.061-74.38 59.18c15.339 11.4 36.289 23.855 63.913 34.34 11.869-41.186 40.586-75.227 78.206-94.19z" fill="#b08bd7"/><path d="m194.994 147.696c0-46.082 28.78-103.223 73.6-143.288-6.165-2.842-12.988-4.408-20.094-4.408-21.041 0-39.616 13.687-45.86 33.78l-66.66 214.72 100.402 34.233c-29.425-34.782-41.388-82.445-41.388-135.037z" fill="#b08bd7"/><path d="m195.995 248.495v76.731h-83.84l23.82-76.731z" fill="#5c586f"/><path d="m384.835 325.226h-188.84v-76.731h165.02z" fill="#6a647f"/><path d="m280.474 214.327h-63.948c-20.228 0-36.627 16.398-36.627 36.627v74.276h137.201v-74.276c.001-20.228-16.398-36.627-36.626-36.627z" fill="#f9d888"/><path d="m203.247 216.82c-13.661 5.319-23.348 18.591-23.348 34.134v74.276h116.842c-51.574-20.366-80.582-59.611-93.494-108.41z" fill="#f5c956"/><path d="m214.899 325.23v-74.276c0-.897.73-1.627 1.627-1.627h63.947c.897 0 1.627.729 1.627 1.627v74.276z" fill="#6a647f"/><g><g><path d="m160.494 395.904c-4.143 0-7.5-3.358-7.5-7.5v-16.911c0-4.142 3.357-7.5 7.5-7.5s7.5 3.358 7.5 7.5v16.911c0 4.142-3.357 7.5-7.5 7.5z" fill="#423e4f"/></g><g><path d="m336.506 395.904c-4.143 0-7.5-3.358-7.5-7.5v-16.911c0-4.142 3.357-7.5 7.5-7.5s7.5 3.358 7.5 7.5v16.911c0 4.142-3.358 7.5-7.5 7.5z" fill="#423e4f"/></g><g><path d="m248.5 405.971c-11.06 0-21.577-4.79-28.856-13.143-2.722-3.123-2.396-7.86.727-10.582 3.122-2.721 7.859-2.396 10.582.727 4.43 5.083 10.825 7.998 17.548 7.998s13.118-2.915 17.548-7.998c2.723-3.123 7.457-3.449 10.582-.727 3.122 2.721 3.448 7.459.727 10.582-7.281 8.352-17.798 13.143-28.858 13.143z" fill="#423e4f"/></g></g><path d="m287.608 160.997c-24.505-4.729-43.369-26.276-43.369-52.59 0-5.498.829-10.803 2.369-15.796 1.997-6.477-4.81-12.138-10.904-9.173-18.356 8.932-30.844 28.043-30.119 49.992.912 27.612 23.157 50.278 50.749 51.671 12.839.648 24.749-3.228 34.28-10.174 5.483-3.994 3.656-12.645-3.006-13.93z" fill="#f9d888"/></g></svg>