<svg id="Capa_1" enable-background="new 0 0 497 497" height="512" viewBox="0 0 497 497" width="512" xmlns="http://www.w3.org/2000/svg"><g><path d="m220.983 165.786c-63.717 0-115.369-51.653-115.369-115.369 0-7.795.774-15.408 2.249-22.769 2.47-12.325-10.289-22.236-21.641-16.839-38.798 18.447-65.669 57.911-65.887 103.68-.3 63.063 50.821 115.125 113.88 115.92 46.767.59 87.23-26.655 105.885-66.209-6.218 1.037-12.603 1.586-19.117 1.586z" fill="#f9d888"/><path d="m171.064 191.226c-60.819 0-110.123-49.304-110.123-110.123 0-26.747 9.539-51.264 25.396-70.343-.038.018-.076.031-.114.049-38.799 18.447-65.669 57.911-65.887 103.68-.3 63.063 50.821 115.125 113.88 115.92 44.993.567 84.141-24.635 103.658-61.767-18.531 14.164-41.685 22.584-66.81 22.584z" fill="#f5c956"/><path d="m452.345 342.6h-126.635v-273.423l63.317-37.194 63.318 40.127z" fill="#d5c3e9"/><path d="m348.053 414.911v-198.59l-99.553-78.131-99.554 78.131v202.086l20.335 69.468h158.438z" fill="#c6ade3"/><path d="m148.946 216.321v60.466c6.493-1.28 12.613-4.002 18.019-8.063l81.535-61.253 81.534 61.254c5.406 4.061 11.526 6.783 18.019 8.063v-60.466l-99.553-78.132z" fill="#bc9bdd"/><path d="m381.282 200.509-116.167-87.272c-9.841-7.394-23.385-7.394-33.229 0l-116.168 87.272c-6.368 4.784-7.651 13.823-2.868 20.191l15.905 21.171c4.784 6.368 13.824 7.652 20.191 2.868l99.554-74.791 99.553 74.791c6.368 4.784 15.407 3.5 20.191-2.868l15.906-21.171c4.784-6.368 3.5-15.408-2.868-20.191z" fill="#b9ebc2"/><path d="m27.719 335.512v152.363h141.562v-152.363l-70.781-53.635z" fill="#bc9bdd"/><path d="m27.719 335.512v55.81c6.513-.995 12.654-3.57 18.02-7.6l52.761-39.638 52.76 39.637c5.365 4.031 11.507 6.606 18.021 7.601v-55.81l-70.781-53.635z" fill="#b08bd7"/><path d="m192.905 328.289-82.592-62.049c-6.997-5.257-16.626-5.257-23.625 0l-82.593 62.049c-4.527 3.401-5.44 9.828-2.039 14.355l11.308 15.052c3.401 4.527 9.828 5.44 14.356 2.039l70.78-53.174 70.78 53.175c4.527 3.401 10.954 2.488 14.355-2.039l11.308-15.052c3.402-4.528 2.49-10.955-2.038-14.356z" fill="#b9ebc2"/><path d="m248.5 230.384c-16.34 0-29.587 13.246-29.587 29.587v26.743c0 7.635 6.19 13.825 13.825 13.825h31.524c7.635 0 13.825-6.19 13.825-13.825v-26.743c0-16.341-13.247-29.587-29.587-29.587z" fill="#f9d888"/><path d="m248.5 377.064c-16.34 0-29.587 13.246-29.587 29.587v81.224h59.174v-81.224c0-16.34-13.247-29.587-29.587-29.587z" fill="#b9ebc2"/><path d="m98.5 358.119c-13.228 0-23.951 10.723-23.951 23.951v21.649c0 6.181 5.011 11.192 11.192 11.192h25.519c6.181 0 11.192-5.011 11.192-11.192v-21.649c-.001-13.228-10.724-23.951-23.952-23.951z" fill="#f9d888"/><path d="m469.281 335.512v152.363h-141.562v-152.363l70.781-53.635z" fill="#bc9bdd"/><path d="m327.719 335.512v55.81c6.513-.995 12.655-3.57 18.02-7.601l52.761-39.637 52.763 39.639c5.365 4.03 11.506 6.604 18.018 7.6v-55.81l-70.781-53.636z" fill="#b08bd7"/><path d="m304.095 328.289 82.592-62.049c6.997-5.257 16.626-5.257 23.625 0l82.593 62.049c4.527 3.401 5.44 9.828 2.039 14.355l-11.308 15.052c-3.401 4.527-9.828 5.44-14.356 2.039l-70.78-53.174-70.78 53.175c-4.527 3.401-10.954 2.488-14.355-2.039l-11.308-15.052c-3.402-4.528-2.49-10.955 2.038-14.356z" fill="#b9ebc2"/><path d="m325.71 69.177v58.563c6.518-.913 12.667-3.444 18.019-7.465l45.298-34.03 45.298 34.031c5.354 4.022 11.502 6.552 18.02 7.465v-55.631l-63.318-40.127z" fill="#c6ade3"/><path d="m304.576 68.158 73.884-55.506c6.259-4.703 14.873-4.703 21.134 0l73.885 55.507c4.05 3.042 4.866 8.792 1.824 12.842l-10.116 13.465c-3.042 4.05-8.792 4.867-12.842 1.824l-63.318-47.568-63.317 47.567c-4.05 3.043-9.799 2.226-12.842-1.824l-10.116-13.465c-3.042-4.05-2.226-9.799 1.824-12.842z" fill="#b9ebc2"/><g fill="#f9d888"><path d="m398.5 358.119c13.228 0 23.951 10.723 23.951 23.951v21.649c0 6.181-5.011 11.192-11.192 11.192h-25.519c-6.181 0-11.192-5.011-11.192-11.192v-21.649c.001-13.228 10.724-23.951 23.952-23.951z"/><path d="m473.346 160.884c-11.163-2.357-19.392-10.426-21.758-21.864-.826-3.992-4.365-6.839-8.546-6.839h-.549c-4.096 0-7.505 2.944-8.35 6.951-2.354 11.168-10.425 19.401-21.866 21.768-3.992.826-6.839 4.365-6.839 8.53v.46c0 4.09 2.872 7.615 6.876 8.448 11.418 2.376 19.473 10.599 21.827 21.75.847 4.011 4.252 6.961 8.458 6.961h.548c4.076 0 7.615-2.848 8.441-6.839 2.366-11.438 10.595-19.507 21.758-21.864 4.011-.847 6.961-4.253 6.961-8.352v-.758c0-4.099-2.95-7.505-6.961-8.352z"/><path d="m232.613 41.494c-12.008-2.535-20.86-11.215-23.405-23.518-.888-4.294-4.695-7.357-9.193-7.357h-.59c-4.406 0-8.073 3.167-8.981 7.477-2.532 12.013-11.214 20.87-23.52 23.415-4.294.888-7.357 4.695-7.357 9.176v.495c0 4.4 3.089 8.192 7.397 9.088 12.282 2.556 20.946 11.401 23.478 23.397.911 4.315 4.574 7.488 9.098 7.488h.59c4.384 0 8.191-3.063 9.079-7.356 2.545-12.304 11.397-20.984 23.405-23.519 4.315-.911 7.488-4.575 7.488-8.984v-.816c-.001-4.412-3.174-8.076-7.489-8.986z"/></g><path d="m427.15 152.742c-3.808 4.048-8.87 6.917-14.873 8.158-3.992.826-6.839 4.365-6.839 8.53v.46c0 4.09 2.872 7.615 6.876 8.448 11.418 2.376 19.473 10.599 21.827 21.75.847 4.011 4.252 6.961 8.458 6.961h.548c4.076 0 7.615-2.848 8.441-6.839.991-4.79 3.021-8.978 5.853-12.414-16.523-3.598-29.092-17.757-30.291-35.054z" fill="#f5c956"/><path d="m181.909 33.763c-3.966 3.812-9.048 6.52-14.986 7.748-4.294.888-7.357 4.695-7.357 9.176v.495c0 4.4 3.089 8.192 7.397 9.088 12.282 2.556 20.946 11.401 23.479 23.397.911 4.314 4.574 7.488 9.098 7.488h.589c4.384 0 8.191-3.063 9.079-7.356.73-3.528 1.993-6.745 3.685-9.617-16.128-7.355-28.012-22.38-30.984-40.419z" fill="#f5c956"/></g></svg>