<svg id="Capa_1" enable-background="new 0 0 497 497" height="512" viewBox="0 0 497 497" width="512" xmlns="http://www.w3.org/2000/svg"><g><path d="m206.367 239.8-46.663 46.662-25.819 76.653 25.827 25.008 97.489-97.489z" fill="#f9d888"/><path d="m108.468 337.698-51.236 51.236-25.355 76.19 25.355 25.355c.541-.464 1.074-.95 1.591-1.468l49.652-49.652 25.409-76.244z" fill="#f9d888"/><path d="m159.704 286.462-3.403 10.104c6.094 8.3 12.892 16.241 20.392 23.742 8.612 8.612 17.857 16.359 27.626 23.208l52.882-52.882-50.834-50.834z" fill="#f5c956"/><circle cx="321.795" cy="175.205" fill="#bc9bdd" r="175.205"/><path d="m169.877 224.907c0-111.51 90.397-201.907 201.907-201.907 15.539 0 30.666 1.76 45.197 5.083-67.889-44.017-159.561-36.28-219.074 23.234-59.768 59.768-67.323 151.971-22.674 219.945-3.498-14.886-5.356-30.403-5.356-46.355z" fill="#b08bd7"/><path d="m466.377 231.794-201.17-201.17c-13.363-13.362-34.45-15.15-49.813-4.146-8.026 5.749-15.688 12.227-22.895 19.433-7.206 7.206-13.684 14.868-19.433 22.895-11.004 15.363-9.216 36.45 4.146 49.813l201.17 201.17c13.362 13.362 34.45 15.15 49.813 4.146 8.026-5.749 15.688-12.227 22.895-19.433s13.684-14.868 19.433-22.895c11.004-15.363 9.216-36.451-4.146-49.813z" fill="#c6ade3"/><g><g><path d="m251.075 118.451c-1.919 0-3.839-.732-5.303-2.197-2.929-2.929-2.929-7.678 0-10.606l12.968-12.968c2.929-2.929 7.678-2.929 10.606 0 2.929 2.929 2.929 7.678 0 10.606l-12.968 12.968c-1.464 1.465-3.384 2.197-5.303 2.197z" fill="#423e4f"/></g><g><path d="m386.049 253.425c-1.919 0-3.839-.732-5.303-2.197-2.929-2.929-2.929-7.678 0-10.606l12.968-12.968c2.929-2.929 7.678-2.929 10.606 0 2.929 2.929 2.929 7.678 0 10.606l-12.968 12.968c-1.464 1.465-3.383 2.197-5.303 2.197z" fill="#423e4f"/></g><g><path d="m334.442 203.424c-10.812 0-21.215-4.276-28.902-11.963-8.352-8.351-12.677-19.911-11.866-31.715.284-4.132 3.863-7.254 7.997-6.968 4.132.284 7.252 3.864 6.968 7.997-.514 7.477 2.223 14.796 7.507 20.08 5.285 5.286 12.608 8.02 20.081 7.508 4.124-.273 7.713 2.836 7.997 6.968.284 4.133-2.836 7.713-6.968 7.997-.94.064-1.88.096-2.814.096z" fill="#423e4f"/></g></g><path d="m159.704 286.462-51.236 51.236.008 101.661 51.236-51.236z" fill="#ffa875"/><path d="m159.704 286.462-6.197 6.197c1.985 2.842 4.052 5.643 6.198 8.402z" fill="#ff995d"/><path d="m57.232 388.934-49.243 49.243c-10.654 10.654-10.654 27.928.008 38.589l12.237 12.237c10.144 10.144 26.275 10.638 36.998 1.476z" fill="#ffa875"/><path d="m191.839 133.245c19.294-37.801 50.146-68.717 87.9-88.089l-14.532-14.532c-13.363-13.363-34.45-15.15-49.813-4.146-8.026 5.749-15.688 12.227-22.895 19.433-7.206 7.207-13.684 14.869-19.433 22.895-11.004 15.363-9.216 36.45 4.146 49.813z" fill="#bc9bdd"/></g></svg>