<svg id="Capa_1" enable-background="new 0 0 497 497" height="512" viewBox="0 0 497 497" width="512" xmlns="http://www.w3.org/2000/svg"><g><path d="m424.152 0h-351.304c-40.233 0-72.848 32.615-72.848 72.848v351.305c0 40.232 32.615 72.847 72.848 72.847h351.305c40.232 0 72.847-32.615 72.847-72.847v-351.305c0-40.233-32.615-72.848-72.848-72.848z" fill="#bc9bdd"/><path d="m328.636 127.786v-41.359c0-12.256-9.935-22.192-22.192-22.192-12.256 0-22.192 9.936-22.192 22.192v41.358c0 12.256 9.936 22.192 22.192 22.192 12.257 0 22.192-9.935 22.192-22.191z" fill="#8bdf9e"/><path d="m284.253 86.427v41.358c0 12.256 9.936 22.192 22.192 22.192 12.256 0 22.192-9.936 22.192-22.192v-41.358c0-.344-.01-.687-.026-1.027h-44.331c-.017.341-.027.683-.027 1.027z" fill="#73d98b"/><path d="m403.742 110.4h-67.987-33.557-179.482v177.533h196.797l20.679-66.575 20.679-66.575h42.871c12.256 0 22.192-9.936 22.192-22.192 0-12.255-9.936-22.191-22.192-22.191z" fill="#8bdf9e"/><path d="m360.871 199.167-20.679-22.192-20.679 22.192c-12.256 0-22.192 9.935-22.192 22.192 0 12.256 9.936 22.192 22.192 22.192l20.679 22.192 20.679-22.192c12.256 0 22.192-9.936 22.192-22.192 0-12.256-9.935-22.192-22.192-22.192z" fill="#73d98b"/><path d="m190.996 143.395c0-11.266 1.027-22.292 2.979-32.994h-71.258v177.533h139.237c-43.163-33.417-70.958-85.729-70.958-144.539z" fill="#73d98b"/><ellipse cx="122.716" cy="199.167" fill="#ff748f" rx="52.301" ry="88.767"/><path d="m133.925 162.882c-3.513-10.798-18.904-10.798-22.417 0-3.092 9.502-5.383 21.695-5.383 36.285s2.292 26.783 5.383 36.285c3.513 10.798 18.904 10.798 22.417 0 3.092-9.502 5.383-21.695 5.383-36.285.001-14.59-2.291-26.783-5.383-36.285z" fill="#fff"/><g><g fill="#b9ebc2"><path d="m169.358 335.737c-.026-.069-.053-.138-.082-.207-1.452-3.527-4.852-5.804-8.665-5.804-.003 0-.007 0-.01 0-3.817.004-7.217 2.29-8.662 5.823-.023.056-.045.113-.067.169l-30.969 81.313c-1.474 3.871.468 8.204 4.339 9.678 3.871 1.476 8.204-.469 9.678-4.339l5.873-15.42h39.407l5.811 15.399c1.473 3.901 5.814 5.823 9.665 4.369 3.875-1.463 5.832-5.79 4.369-9.665zm-22.85 56.213 14.08-36.969 13.951 36.969z"/><path d="m430.677 331.15c-3.471-2.258-8.118-1.278-10.377 2.194l-19.853 30.496-20.054-30.713c-2.266-3.469-6.913-4.444-10.381-2.179s-4.444 6.912-2.179 10.38l25.118 38.469-.098 39.886c-.01 4.142 3.34 7.508 7.481 7.519h.019c4.134 0 7.49-3.346 7.5-7.481l.098-39.914 24.919-38.278c2.26-3.473 1.279-8.119-2.193-10.379z"/><path d="m342.638 329.727h-45.547c-4.142 0-7.5 3.358-7.5 7.5s3.358 7.5 7.5 7.5h15.181v74.974c0 4.142 3.358 7.5 7.5 7.5s7.5-3.358 7.5-7.5v-74.974h15.366c4.142 0 7.5-3.358 7.5-7.5s-3.358-7.5-7.5-7.5z"/><path d="m276.689 358.661c0-15.954-13.524-28.934-30.147-28.934h-21.916c-.005 0-.009.001-.014.001s-.009-.001-.013-.001c-4.142 0-7.5 3.358-7.5 7.5v82.474c0 4.142 3.358 7.5 7.5 7.5s7.5-3.358 7.5-7.5v-30.791l31.46 35.746c2.74 3.113 7.48 3.408 10.585.675 3.109-2.736 3.412-7.476.675-10.585l-24.142-27.43c14.673-1.942 26.012-14.048 26.012-28.655zm-30.147 13.934c-3.293 0-9.394.028-14.307.053-.076-13.953-.035-10.348-.086-27.921h14.393c8.211 0 15.147 6.381 15.147 13.934s-6.936 13.934-15.147 13.934z"/><path d="m93.767 329.727h-22.964c-4.143 0-7.5 3.377-7.5 7.5v82.474c0 4.142 3.358 7.5 7.5 7.5s7.5-3.358 7.5-7.5v-28.365c5.223-.029 11.932-.061 15.464-.061 17.22 0 31.23-13.805 31.23-30.774s-14.01-30.774-31.23-30.774zm0 46.548c-3.516 0-10.134.032-15.347.06-.087-16.438-.037-11.364-.095-31.608h15.442c8.797 0 16.23 7.224 16.23 15.774s-7.432 15.774-16.23 15.774z"/></g></g><path d="m360.871 243.55h-41.358c-12.256 0-22.192 9.935-22.192 22.192 0 12.256 9.936 22.192 22.192 22.192h41.358c12.256 0 22.192-9.936 22.192-22.192 0-12.256-9.935-22.192-22.192-22.192z" fill="#b9ebc2"/><path d="m360.871 154.784h-41.358c-12.256 0-22.192 9.935-22.192 22.192 0 12.256 9.936 22.192 22.192 22.192h41.358c12.256 0 22.192-9.936 22.192-22.192 0-12.257-9.935-22.192-22.192-22.192z" fill="#b9ebc2"/><path d="m39.539 282.45c0-158.568 16.94-240.342 67.294-282.45h-33.985c-40.233 0-72.848 32.615-72.848 72.848v351.305c0 40.232 32.615 72.847 72.848 72.847h.289c-21.509-48.09-33.598-116.692-33.598-214.55z" fill="#b08bd7"/></g></svg>