<svg id="Capa_1" enable-background="new 0 0 497 497" height="512" viewBox="0 0 497 497" width="512" xmlns="http://www.w3.org/2000/svg"><g><path d="m292.465 0h-87.929c-22.653 0-39.312 21.233-33.921 43.235l10.983 44.83h133.806l10.983-44.83c5.39-22.002-11.269-43.235-33.922-43.235z" fill="#f9d888"/><path d="m60.574 327.741c-7.17-32.824 9.293-66.245 39.701-80.554l49.429-23.258c24.745-11.649 39.064-38.022 35.342-65.123l-3.863-28.163h134.635l-3.863 28.163c-3.721 27.101 10.598 53.474 35.342 65.123l49.429 23.258c30.408 14.309 46.87 47.73 39.701 80.554l-64.805 96.705h-239.745z" fill="#b9ebc2"/><path d="m102.914 326.138c0-31.251 6.143-61.063 17.262-88.316l-19.901 9.364c-30.408 14.309-46.87 47.73-39.701 80.554l55.079 74.701c-8.249-23.916-12.739-49.584-12.739-76.303z" fill="#8bdf9e"/><path d="m436.426 327.741-21.307 97.462c-9.161 41.915-46.273 71.797-89.179 71.797h-154.88c-42.906 0-80.018-29.882-89.18-71.797l-21.307-97.462c124.361-63.414 252.029 73.142 375.853 0z" fill="#5c586f"/><path d="m248.5 256.82c-64.409 0-116.623 44.622-116.623 109.03 0 31.388 25.445 56.833 56.833 56.833h2.063c4.403 0 7.973 3.57 7.973 7.973 0 12.229 9.913 22.142 22.142 22.142h3.13l7.5-3.169 7.5 3.169h18.965l7.5-3.351 7.5 3.351h3.129c12.229 0 22.142-9.913 22.142-22.142 0-4.403 3.57-7.973 7.973-7.973h2.063c31.388 0 56.833-25.445 56.833-56.833 0-64.408-52.214-109.03-116.623-109.03z" fill="#fff"/><g><g><path d="m224.018 452.799v-28.353c0-4.142 3.357-7.5 7.5-7.5s7.5 3.358 7.5 7.5v28.353z" fill="#423e4f"/></g><g><path d="m257.983 452.799v-28.353c0-4.142 3.357-7.5 7.5-7.5s7.5 3.358 7.5 7.5v28.353z" fill="#423e4f"/></g></g><g><g><path d="m190.21 402.301c-4.143 0-7.5-3.358-7.5-7.5v-11.201c0-4.142 3.357-7.5 7.5-7.5s7.5 3.358 7.5 7.5v11.201c0 4.142-3.357 7.5-7.5 7.5z" fill="#423e4f"/></g><g><path d="m306.789 402.301c-4.143 0-7.5-3.358-7.5-7.5v-11.201c0-4.142 3.357-7.5 7.5-7.5s7.5 3.358 7.5 7.5v11.201c0 4.142-3.357 7.5-7.5 7.5z" fill="#423e4f"/></g></g><path d="m191.298 170.759h114.404c1.943 0 3.861-.101 5.758-.279-.194-3.849-.045-7.753.494-11.674l3.863-28.163h-134.634l3.863 28.163c.538 3.921.688 7.825.494 11.674 1.896.177 3.815.279 5.758.279z" fill="#8bdf9e"/><path d="m209.946 68.069c0-25.492 8.33-49.036 22.41-68.069h-27.82c-22.653 0-39.312 21.233-33.921 43.235l10.983 44.83h30.091c-1.144-6.494-1.743-13.175-1.743-19.996z" fill="#f5c956"/><path d="m305.702 78.206h-114.404c-17.273 0-31.276 14.003-31.276 31.276 0 17.274 14.003 31.276 31.276 31.276h114.404c17.273 0 31.276-14.003 31.276-31.276.001-17.273-14.002-31.276-31.276-31.276z" fill="#b9ebc2"/><path d="m102.914 326.138c0-4.328.127-8.627.359-12.897-14.269 2.637-28.505 7.263-42.699 14.5l21.307 97.462c9.161 41.915 46.273 71.797 89.179 71.797h6.017c-45.633-42.693-74.163-103.441-74.163-170.862z" fill="#4f4c5f"/><path d="m164.576 383.066c0-53.865 29.409-100.859 73.045-125.809-59.307 4.719-105.743 47.854-105.743 108.593 0 24.505 15.51 45.387 37.248 53.367-2.971-11.555-4.55-23.669-4.55-36.151z" fill="#e8e8e8"/></g></svg>