<svg id="Capa_1" enable-background="new 0 0 497 497" height="512" viewBox="0 0 497 497" width="512" xmlns="http://www.w3.org/2000/svg"><g><circle cx="405.394" cy="178.984" fill="#8bdf9e" r="37.156"/><path d="m394.165 141.405-.055-.073c-5.576-7.401-7.724-16.831-5.904-25.917l.006-.032c2.851-14.23-4.087-28.624-16.996-35.258l-.007-.003c-8.258-4.244-14.304-11.819-16.61-20.812l-.012-.045c-3.601-14.039-16.07-23.992-30.558-24.39l-.076-.002c-9.261-.255-17.973-4.454-23.941-11.54l-.026-.03c-9.349-11.099-24.927-14.648-38.161-8.691-8.475 3.815-18.178 3.815-26.654 0-13.233-5.956-28.812-2.408-38.161 8.691l-.025.029c-5.969 7.086-14.68 11.286-23.942 11.54l-.075.002c-14.488.398-26.958 10.351-30.559 24.39l-.012.046c-2.307 8.993-8.353 16.569-16.61 20.812l-.007.004c-12.908 6.633-19.847 21.027-16.996 35.257l.007.034c1.82 9.085-.328 18.516-5.904 25.916l-.055.073h291.333z" fill="#ffb2c1"/><path d="m230.551 12.952c-12.095-3.372-25.259.52-33.538 10.35l-.025.029c-5.969 7.086-14.68 11.286-23.942 11.54l-.075.002c-14.488.398-26.958 10.351-30.559 24.39l-.012.046c-2.306 8.993-8.353 16.569-16.61 20.812l-.007.004c-12.908 6.633-19.847 21.027-16.996 35.257l.007.034c1.82 9.085-.328 18.516-5.904 25.916l-.055.073h44.383c13.351-51.404 43.104-96.187 83.333-128.453z" fill="#ff9db0"/><path d="m397.443 130.539c-3.671-11.06-14.126-18.442-25.779-18.442h-246.32c-11.745 0-22.182 7.522-25.864 18.675-5.011 15.178-7.768 31.381-7.874 48.213-.547 86.997 68.845 157.33 155.841 157.901 87.135.572 157.949-69.891 157.949-156.893.001-17.28-2.793-33.907-7.953-49.454z" fill="#b9ebc2"/><path d="m5.858 335.852h485.284v149.401h-485.284z" fill="#e8a882"/><path d="m166.246 313.811c-17.144-33.304-26.826-71.078-26.826-111.115 0-32.026 6.205-62.599 17.458-90.6h-31.533c-11.745 0-22.182 7.522-25.864 18.675-1.229 3.724-2.321 7.51-3.273 11.351-1.509-.187-3.042-.294-4.601-.294-20.521 0-37.156 16.635-37.156 37.156s16.635 37.156 37.156 37.156c1.383 0 2.747-.082 4.092-.229 9.595 41.362 35.429 76.355 70.547 97.9z" fill="#8bdf9e"/><path d="m44.872 353.652c0-6.006.296-11.941.855-17.801h-39.869v149.401h93.89c-33.883-33.572-54.876-80.132-54.876-131.6z" fill="#e3986d"/><path d="m451.624 288.911h-406.248c-25.06 0-45.376 20.315-45.376 45.376 0 17.512 9.519 33.639 24.85 42.102 15.467 8.538 34.233 8.538 49.7 0 15.467-8.538 34.233-8.538 49.7 0 15.467 8.538 34.233 8.538 49.7 0 15.467-8.538 34.233-8.538 49.7 0 15.467 8.538 34.233 8.538 49.7 0 15.467-8.538 34.233-8.538 49.7 0 15.467 8.538 34.233 8.538 49.7 0 15.467-8.538 34.233-8.538 49.7 0 15.467 8.538 34.233 8.538 49.7 0 15.331-8.463 24.85-24.591 24.85-42.102 0-25.061-20.316-45.376-45.376-45.376z" fill="#edb798"/><path d="m47.147 382.713c-7.7-.383-15.333-2.479-22.297-6.324-15.512-8.563-25.074-24.973-24.846-42.724.32-24.931 21.131-44.755 46.064-44.755h10.442 139.576c.265 2.766.395 5.571.351 8.416-.441 28.636-24.061 51.501-52.7 51.501h-47.197-20.48c-17.886 0-31.632 15.911-28.957 33.596.014.099.029.195.044.29z" fill="#e8a882"/><path d="m120.197 249.989c-25.542 0-46.248 20.706-46.248 46.248 0 12.477 10.114 22.591 22.591 22.591h47.315c12.477 0 22.591-10.114 22.591-22.591-.001-25.542-20.707-46.248-46.249-46.248z" fill="#73d98b"/><path d="m300.914 288.911c-.231 2.412-.359 4.854-.359 7.326 0 28.999 23.592 52.591 52.591 52.591h47.314c28.999 0 52.591-23.592 52.591-52.591 0-2.463-.128-4.896-.357-7.299-.357-.008-.711-.027-1.07-.027z" fill="#e8a882"/><path d="m376.803 249.989c25.542 0 46.248 20.706 46.248 46.248 0 12.477-10.114 22.591-22.591 22.591h-47.315c-12.477 0-22.591-10.114-22.591-22.591.001-25.542 20.707-46.248 46.249-46.248z" fill="#8bdf9e"/><path d="m248.5 220.122c9.342 0 17.661 6.341 22.894-4.477 5.308-10.973-6.58-27.256-22.894-27.256s-28.202 16.283-22.894 27.256c5.233 10.818 13.552 4.477 22.894 4.477z" fill="#423e4f"/><path d="m255.947 215.475c-4.773-1.95-10.121-1.95-14.894 0-3.161 1.291-5.226 4.366-5.226 7.781v13.587c0 6.999 5.674 12.673 12.673 12.673 6.999 0 12.673-5.674 12.673-12.673v-13.587c0-3.414-2.065-6.489-5.226-7.781z" fill="#fd5f7e"/><g fill="#fff"><ellipse cx="164.436" cy="207.76" rx="31.018" ry="24.701"/><ellipse cx="332.564" cy="207.76" rx="31.018" ry="24.701"/></g><g><path d="m169.621 185.452c-4.143 0-7.5-3.358-7.5-7.5v-12.031c0-4.142 3.357-7.5 7.5-7.5s7.5 3.358 7.5 7.5v12.031c0 4.143-3.357 7.5-7.5 7.5z" fill="#423e4f"/></g><g><path d="m327.379 185.452c-4.143 0-7.5-3.358-7.5-7.5v-12.031c0-4.142 3.357-7.5 7.5-7.5s7.5 3.358 7.5 7.5v12.031c0 4.143-3.358 7.5-7.5 7.5z" fill="#423e4f"/></g></g></svg>