<svg id="Capa_1" enable-background="new 0 0 497 497" height="512" viewBox="0 0 497 497" width="512" xmlns="http://www.w3.org/2000/svg"><g><path d="m306.182 451.489c0 18.168 14.728 32.896 32.896 32.896 18.168 0 32.896-14.728 32.896-32.896v-48.024c0-11.737 9.515-21.253 21.253-21.253 11.737 0 21.253 9.515 21.253 21.253v8.765c0 18.168 14.728 32.896 32.896 32.896 18.168 0 32.896-14.728 32.896-32.896v-190.35h-174.09z" fill="#ff748f"/><path d="m306.182 392.989c24.165-1.868 47.99-7.656 71.038-17.283 29.334-12.253 55.841-30.099 78.784-53.042 8.874-8.874 16.964-18.297 24.266-28.154v-72.63h-174.088z" fill="#fd5f7e"/><path d="m496.417 140.814c-1.337-16.848-16.962-28.646-33.585-25.594-56.55 10.382-117.09-6.287-160.828-50.024l-73.811 29.658-29.659 73.811c43.737 43.737 60.406 104.277 50.025 160.827-3.052 16.624 8.746 32.249 25.595 33.585 55.802 4.426 115.422-16.413 160.636-61.626 45.222-45.222 66.055-104.838 61.627-160.637z" fill="#b2b0bc"/><path d="m354.685 196.277c-6.897-6.897-18.744-6.231-26.462 1.486-7.718 7.718-8.383 19.565-1.486 26.462s18.744 6.232 26.462-1.486 8.383-19.565 1.486-26.462z" fill="#423e4f"/><g><path d="m289.098 149.712c-1.919 0-3.839-.732-5.303-2.197-2.929-2.929-2.929-7.678 0-10.606l9.125-9.125c2.929-2.929 7.678-2.929 10.606 0 2.929 2.929 2.929 7.678 0 10.606l-9.125 9.125c-1.464 1.465-3.383 2.197-5.303 2.197z" fill="#423e4f"/></g><g><path d="m408.75 269.363c-1.919 0-3.839-.732-5.303-2.197-2.929-2.929-2.929-7.678 0-10.606l9.125-9.125c2.929-2.929 7.678-2.929 10.606 0 2.929 2.929 2.929 7.678 0 10.606l-9.125 9.125c-1.465 1.465-3.384 2.197-5.303 2.197z" fill="#423e4f"/></g><path d="m264.1 209.341c0-51.189 17.734-98.229 47.379-135.337-3.234-2.807-6.4-5.734-9.475-8.809l-73.811 29.658-29.659 73.811c43.737 43.737 60.406 104.277 50.025 160.827-3.052 16.624 8.746 32.249 25.595 33.585 10.296.817 20.723.767 31.165-.131-30.781-38.093-41.219-91.241-41.219-153.604z" fill="#a19dae"/><path d="m302.005 36.867-18.385-18.384c-7.823-7.823-20.506-7.823-28.329 0l-103.47 103.469c-32.856 32.856-36.77 85.447-36.406 112.164.149 10.908-3.89 21.474-11.393 29.395-68.633 72.458-93.902 133.61-103.05 171.923-5.228 21.893 11.257 42.943 33.765 42.943h42.489c19.176 0 34.675-15.541 34.738-34.718.22-67.219 27.13-114.903 48.455-142.166 13.832-17.682 21.733-39.353 22.507-61.789 1.304-37.787 15.608-71.039 15.608-71.039l103.47-103.469c7.823-7.823 7.823-20.507.001-28.329z" fill="#e8a882"/><path d="m80.42 289.948c-51.053 60.85-71.434 111.928-79.447 145.486-5.228 21.893 11.257 42.943 33.765 42.943h42.489c19.176 0 34.675-15.541 34.738-34.718.034-10.335.703-20.204 1.882-29.612-21.067-36.565-33.194-78.924-33.427-124.099z" fill="#e3986d"/></g></svg>