<svg id="Capa_1" enable-background="new 0 0 497 497" height="512" viewBox="0 0 497 497" width="512" xmlns="http://www.w3.org/2000/svg"><g><path d="m421.57 285.942c-8.261-19.564-31.007-28.492-50.371-19.772l-14.307 5.794-4.949 5.368-8.911.245-5.642 2.285h-165.275l-5.64-2.284h-7.045l-6.867-5.634-14.258-5.774c-19.363-8.72-42.109.208-50.371 19.772-7.991 18.922.583 40.763 19.311 49.198l14.153 6.023 8.758-.494 5.04 6.366 33.978 14.46-17.9 48.064-10.154 36.207c-7.279 19.207 2.102 40.713 21.133 48.443 19.675 7.992 42.072-1.778 49.598-21.636l4.597-12.13-.276-8.733 5.525-5.117 8.607-22.711c3.851-10.161 13.582-16.882 24.447-16.889 10.865.007 20.596 6.728 24.447 16.889l8.602 22.697 6.11 6.093-.858 7.766 4.599 12.135c7.526 19.858 29.923 29.628 49.598 21.636 19.03-7.73 28.412-29.236 21.133-48.443l-5.519-16.579-4.21-7.135-.553-7.17-11.399-34.243c-3.6-10.814 1.705-22.581 12.192-27.044l15.407-6.557-.025-.002 5.683-5.276 8.115-.596-.015.02 14.2-6.043c18.73-8.436 27.303-30.277 19.312-49.199z" fill="#f1c6ad"/><path d="m204.412 346.038c0-24.505 7.433-47.274 20.166-66.177h-52.463l-5.64-2.284h-7.045l-6.867-5.634-14.258-5.774c-19.363-8.72-42.109.208-50.371 19.772-7.991 18.922.583 40.763 19.311 49.198l14.153 6.023 8.758-.494 5.04 6.366 33.978 14.46-17.9 48.064-10.154 36.207c-7.279 19.207 2.102 40.713 21.133 48.443 19.675 7.992 42.072-1.778 49.598-21.636l4.597-12.13-.276-8.733 5.525-5.117 8.607-22.711c.326-.86.708-1.685 1.115-2.493-16.873-20.488-27.007-46.735-27.007-75.35z" fill="#edb798"/><circle cx="254.737" cy="160.269" fill="#f5d5c4" r="145.373"/><path d="m414.065 36.109c-7.004-7.004-18.361-7.004-25.365 0l-71.395 71.395c-7.005 7.005-7.005 18.361 0 25.366s18.361 7.004 25.365 0l71.395-71.395c7.005-7.005 7.005-18.361 0-25.366z" fill="#b2b0bc"/><path d="m190.966 359.25c-5.837-8.004-17.056-9.76-25.06-3.924l-81.58 59.492c-8.005 5.837-9.761 17.057-3.924 25.061s17.056 9.76 25.06 3.924l81.58-59.492c8.005-5.838 9.761-17.057 3.924-25.061z" fill="#b2b0bc"/><path d="m388.7 36.109-59.441 59.441c6.404 10.268 15.097 18.961 25.366 25.365l59.441-59.441c7.005-7.005 7.005-18.361 0-25.366-7.006-7.003-18.362-7.003-25.366.001z" fill="#a19dae"/><circle cx="396.257" cy="53.917" fill="#ff748f" r="53.917"/><path d="m221.05 446.26-15.449-6.957.604-1.342c1.701-3.777.018-8.217-3.759-9.918-3.775-1.701-8.217-.019-9.918 3.759l-.604 1.342-37.283-16.79c-1.142-.514-2.345-.715-3.514-.646l-4.398 13.212c.52.438 1.103.817 1.754 1.11l37.283 16.79-.647 1.436c-1.701 3.777-.018 8.217 3.759 9.918 1 .45 2.045.664 3.075.664 2.86 0 5.592-1.645 6.843-4.422l.647-1.436 15.449 6.957c.51.23 1.032.396 1.558.506 1.595-4.207 3.437-9.07 5.249-13.85-.21-.12-.425-.232-.649-.333z" fill="#e8a882"/><path d="m105.462 443.802 67.957-49.557c-2.339-5.491-5.302-10.762-8.906-15.704s-7.717-9.374-12.231-13.28l-67.956 49.557c-8.005 5.837-9.761 17.057-3.924 25.061 5.837 8.003 17.057 9.759 25.06 3.923z" fill="#a19dae"/><ellipse cx="100.75" cy="425.04" fill="#ff748f" rx="53.917" ry="53.917" transform="matrix(.707 -.707 .707 .707 -271.039 195.732)"/><path d="m159.674 294.446-.661-.298 7.462-16.571-13.912-5.634-7.226 16.046-2.117-.953c-3.776-1.701-8.217-.019-9.918 3.759-1.701 3.777-.018 8.217 3.759 9.918l2.117.953-4.61 10.237-1.435-.646c-3.775-1.701-8.218-.019-9.918 3.759-1.701 3.777-.018 8.217 3.759 9.918l1.435.646-6.957 15.449c-.02.044-.033.09-.052.134l13.798 5.872 6.888-15.295 1.343.604c1 .45 2.045.664 3.075.664 2.86 0 5.592-1.645 6.843-4.422 1.701-3.777.018-8.217-3.759-9.918l-1.343-.604 4.61-10.237.661.298c1 .45 2.045.664 3.075.664 2.86 0 5.592-1.645 6.843-4.422 1.7-3.78.017-8.22-3.76-9.921z" fill="#e8a882"/><path d="m349.799 294.446.661-.298-7.462-16.571 13.912-5.634 7.226 16.046 2.117-.953c3.776-1.701 8.217-.019 9.918 3.759 1.701 3.777.018 8.217-3.759 9.918l-2.117.953 4.61 10.237 1.435-.646c3.775-1.701 8.218-.019 9.918 3.759 1.701 3.777.018 8.217-3.759 9.918l-1.435.646 6.957 15.449c.02.044.033.09.052.134l-13.798 5.872-6.888-15.295-1.343.604c-1 .45-2.045.664-3.075.664-2.86 0-5.592-1.645-6.843-4.422-1.701-3.777-.018-8.217 3.759-9.918l1.343-.604-4.61-10.237-.661.298c-1 .45-2.045.664-3.075.664-2.86 0-5.592-1.645-6.843-4.422-1.7-3.78-.017-8.22 3.76-9.921z" fill="#edb798"/><path d="m347.621 436.051 15.243-6.865-4.762-14.306-16.64 7.493-.297-.66c-1.701-3.777-6.141-5.46-9.918-3.759s-5.46 6.141-3.759 9.918l.297.66-10.236 4.61-.604-1.342c-1.701-3.777-6.14-5.46-9.918-3.759-3.777 1.701-5.46 6.141-3.759 9.918l.604 1.342-15.449 6.957c-.215.097-.421.205-.622.319l5.252 13.859c.516-.11 1.028-.275 1.529-.501l15.449-6.957.647 1.436c1.25 2.777 3.982 4.422 6.843 4.422 1.029 0 2.076-.213 3.075-.664 3.777-1.701 5.46-6.141 3.759-9.918l-.647-1.436 10.237-4.61.953 2.117c1.25 2.777 3.982 4.422 6.843 4.422 1.029 0 2.076-.213 3.075-.664 3.777-1.701 5.46-6.141 3.759-9.918z" fill="#edb798"/><path d="m145.316 187.172c0-68.339 31.386-129.34 80.522-169.399-66.442 13.402-116.474 72.104-116.474 142.496 0 45.39 20.807 85.917 53.398 112.576-11.226-26.307-17.446-55.262-17.446-85.673z" fill="#f1c6ad"/><g><g><g><ellipse cx="172.084" cy="204.478" fill="#ff9db0" rx="30.497" ry="24.287"/></g><g><ellipse cx="337.39" cy="204.621" fill="#ff9db0" rx="30.497" ry="24.287"/></g></g></g><g><path d="m189.879 188.46c-.002 0-.004 0-.006 0-4.142-.003-7.497-3.364-7.494-7.506l.009-12.172c.003-4.14 3.36-7.494 7.5-7.494h.006c4.142.003 7.497 3.364 7.494 7.506l-.009 12.172c-.003 4.14-3.361 7.494-7.5 7.494z" fill="#5c586f"/></g><g><path d="m319.637 188.587c-.002 0-.004 0-.006 0-4.142-.003-7.497-3.364-7.494-7.506l.009-12.172c.003-4.14 3.36-7.494 7.5-7.494h.006c4.142.003 7.497 3.364 7.494 7.506l-.009 12.172c-.003 4.14-3.361 7.494-7.5 7.494z" fill="#5c586f"/></g><path d="m288.885 214.965v-3.584l4.307.004h.006c4.139 0 7.497-3.354 7.5-7.494.003-4.142-3.352-7.503-7.494-7.506l-4.32-.004v-3.577c0-4.142-3.358-7.5-7.5-7.5s-7.5 3.358-7.5 7.5v3.564l-11.648-.01v-3.554c0-4.142-3.358-7.5-7.5-7.5s-7.5 3.358-7.5 7.5v3.541l-11.648-.01v-3.531c0-4.142-3.358-7.5-7.5-7.5s-7.5 3.358-7.5 7.5v3.518l-4.276-.004c-.002 0-.004 0-.006 0-4.139 0-7.497 3.354-7.5 7.494-.003 4.142 3.352 7.503 7.494 7.506l4.289.004v3.643c0 4.142 3.358 7.5 7.5 7.5s7.5-3.358 7.5-7.5v-3.63l11.648.01v3.62c0 4.142 3.358 7.5 7.5 7.5s7.5-3.358 7.5-7.5v-3.607l11.648.01v3.597c0 4.142 3.358 7.5 7.5 7.5s7.5-3.358 7.5-7.5z" fill="#5c586f"/><g fill="#fd5f7e"><path d="m369.769 77.834c0-30.897 13.918-58.538 35.821-77.012-3.033-.53-6.148-.822-9.333-.822-29.777 0-53.917 24.139-53.917 53.917 0 21.375 12.439 39.843 30.472 48.565-1.984-7.888-3.043-16.144-3.043-24.648z"/><path d="m82.27 441.528c0-29.711 20.359-54.664 47.887-61.678-6.187-4.031-13.297-6.863-21.066-8.079-29.419-4.606-57.002 15.509-61.608 44.928s15.509 57.002 44.928 61.608c.581.091 1.161.156 1.741.228-7.471-10.43-11.882-23.199-11.882-37.007z"/></g></g></svg>