<svg id="Capa_1" enable-background="new 0 0 497 497" height="512" viewBox="0 0 497 497" width="512" xmlns="http://www.w3.org/2000/svg"><g><path d="m278.896 437.707 30.396 15.707h21.722c12.036 0 21.793 9.757 21.793 21.793 0 12.036-9.757 21.793-21.793 21.793h-60.902c-11.937 0-21.613-9.676-21.613-21.613v-21.973z" fill="#fd5f7e"/><path d="m248.5 389.486-9.82 34.491 9.82 29.437h60.793v-63.928z" fill="#b08bd7"/><path d="m218.104 437.707-30.396 15.707h-21.722c-12.036 0-21.793 9.757-21.793 21.793 0 12.036 9.757 21.793 21.793 21.793h60.902c11.937 0 21.613-9.676 21.613-21.613v-21.973z" fill="#ff748f"/><path d="m187.707 389.486h60.793v63.929h-60.793z" fill="#bc9bdd"/><path d="m411.101 137.451c-.12-.12-.242-.239-.363-.358l-.069-.068c9.193-32.828-10.434-66.789-43.467-75.214l-.016-.004-.427-1.683c-8.43-33.211-42.086-52.021-74.79-41.801h-.001l-.068-.069c-23.814-24.34-62.985-24.34-86.799 0l-.068.069c-32.479-10.826-65.997 7.452-74.485 40.62l-.733 2.863c-32.382 8.22-52.018 41.081-43.915 73.492l.432 1.726-.069.068c-.122.119-.243.239-.363.358-15.911 15.828-4.452 43.041 17.991 43.041h289.219c22.442.002 33.901-27.212 17.991-43.04z" fill="#bc9bdd"/><circle cx="386.032" cy="195.795" fill="#e0e0e0" r="34.733"/><path d="m139.972 157.736c0-73.223 23.939-116.524 54.168-141.951-28.766-3.995-56.053 13.699-63.592 43.159l-.733 2.863c-32.382 8.22-52.018 41.081-43.915 73.492l.432 1.726-.069.068c-.122.119-.243.238-.363.358-15.911 15.828-4.452 43.041 17.991 43.041h37.545c-.963-7.449-1.464-15.044-1.464-22.756z" fill="#b08bd7"/><path d="m352.809 103.002c-20.678-25.787-57.783-31.83-85.143-13.284-.278.188-.555.379-.833.571-11.032 7.665-25.634 7.665-36.667 0-.279-.194-.557-.385-.836-.573-27.52-18.652-64.752-12.336-85.453 13.678-18.059 22.694-28.886 51.395-29.001 82.629-.27 73.29 59.316 133.576 132.605 134.123 74.267.554 134.643-59.482 134.643-133.62 0-31.609-10.971-60.647-29.315-83.524z" fill="#e8e8e8"/><circle cx="248.5" cy="184.401" fill="#ff748f" r="29.327"/><path d="m139.972 157.736c0-21.205 2.013-39.892 5.6-56.37-.574.664-1.143 1.336-1.694 2.028-13.254 16.656-22.606 36.55-26.693 58.303-1.894-.412-3.958-.635-6.217-.635-19.182 0-34.733 15.55-34.733 34.732s15.55 34.733 34.733 34.733c4.182 0 7.716-.74 10.686-2.095 17.571 52.785 67.333 91.277 125.827 91.713.292.002.582-.005.874-.005-63.633-26.448-108.383-89.197-108.383-162.404z" fill="#e0e0e0"/><g><g><g><ellipse cx="165.592" cy="206.912" fill="#ff9db0" rx="30.591" ry="24.361"/></g><g><ellipse cx="331.408" cy="206.912" fill="#ff9db0" rx="30.591" ry="24.361"/></g></g></g><g fill="#5c586f"><path d="m197.683 159.268-25.079-6.72c-4.001-1.071-8.114 1.302-9.186 5.304-1.072 4.001 1.302 8.113 5.303 9.186l7.71 2.066c-.325.84-.51 1.749-.51 2.703v10.803c0 4.142 3.357 7.5 7.5 7.5s7.5-3.358 7.5-7.5v-9.624l2.879.771c.65.174 1.304.257 1.946.257 3.312 0 6.342-2.21 7.239-5.561 1.073-4-1.301-8.112-5.302-9.185z"/><path d="m333.581 157.852c-1.071-4.001-5.183-6.372-9.186-5.304l-25.078 6.72c-4.001 1.072-6.375 5.185-5.303 9.186.897 3.351 3.928 5.561 7.239 5.561.643 0 1.296-.083 1.946-.257l2.879-.771v9.624c0 4.142 3.357 7.5 7.5 7.5s7.5-3.358 7.5-7.5v-10.803c0-.954-.185-1.864-.51-2.703l7.709-2.066c4.003-1.073 6.377-5.186 5.304-9.187z"/><path d="m270.585 228.25c-3.125-2.721-7.862-2.396-10.582.727-2.904 3.333-7.097 5.244-11.503 5.244s-8.6-1.911-11.504-5.244c-2.723-3.122-7.46-3.448-10.582-.727-3.122 2.722-3.448 7.459-.727 10.582 5.754 6.602 14.068 10.389 22.813 10.389 8.743 0 17.058-3.787 22.812-10.389 2.722-3.123 2.395-7.86-.727-10.582z"/></g><path d="m309.293 433.059v-43.574h-60.793l-9.82 34.491 3.655 10.955h51.196c5.427.001 10.701-.659 15.762-1.872z" fill="#a47cd1"/><path d="m187.707 433.059c5.061 1.212 10.335 1.872 15.763 1.872h45.03v-45.446h-60.793z" fill="#b08bd7"/><path d="m321.32 273.712-3.879-2.775c-8.272-5.918-19.353-5.838-27.646.05-8.238 5.849-19.284 5.832-27.506-.05-8.246-5.899-19.331-5.899-27.576 0-8.222 5.882-19.268 5.899-27.506.05-8.293-5.888-19.375-5.968-27.646-.05l-3.879 2.775c-6.219 4.449-9.909 11.626-9.909 19.273v74.248c0 20.82 16.878 37.698 37.698 37.698h90.061c20.82 0 37.698-16.878 37.698-37.698v-74.248c-.001-7.647-3.691-14.824-9.91-19.273z" fill="#ffa875"/><path d="m200.173 323.046c0-17.863 4.993-34.559 13.658-48.771-2.325-.729-4.563-1.825-6.624-3.289-8.293-5.888-19.375-5.968-27.646-.05l-3.879 2.775c-6.219 4.449-9.909 11.626-9.909 19.273v74.248c0 20.82 16.878 37.699 37.698 37.699h44.703c-28.642-16.063-48.001-46.71-48.001-81.885z" fill="#ff995d"/><path d="m165.769 292.963 24.973 29.018-24.973 29.019h-24.616c-15.973 0-29.013-12.954-29.013-29.013 0-16.026 12.987-29.023 29.013-29.023h24.616z" fill="#8bdf9e"/><path d="m329.194 292.963-24.973 29.018 24.973 29.019h24.616c15.973 0 29.013-12.954 29.013-29.013 0-16.026-12.987-29.023-29.013-29.023h-24.616z" fill="#8bdf9e"/><g fill="#e8e8e8"><path d="m215.714 321.987c0 16.016-12.987 29.013-29.013 29.013h-20.932v-58.037h20.932c16.066 0 29.013 13.027 29.013 29.024z"/><path d="m279.248 321.987c0 16.016 12.987 29.013 29.013 29.013h20.932v-58.037h-20.932c-16.065 0-29.013 13.027-29.013 29.024z"/></g></g></svg>