<svg id="Capa_1" enable-background="new 0 0 497 497" height="512" viewBox="0 0 497 497" width="512" xmlns="http://www.w3.org/2000/svg"><g><path d="m303.094.273c-65.339 11.505-98.609 54.859-115.086 89.631-9.445 19.932-39.076 14.942-41.539-6.976-.038-.335-.074-.668-.108-1-1.355-13.128-16.466-19.77-27.212-12.109-39.104 27.88-85.457 86.222-86.66 206.355-1.206 120.469 95.552 220.838 216.027 220.826 119.299-.012 216.006-96.727 216.006-216.029 0-71.117-31.578-128.45-52.041-158.137-6.409-9.298-19.755-9.963-27.248-1.514-5.935 6.692-15.29 13.444-30.006 17.542-9.855 2.745-20.346-1.574-25.21-10.574-10.046-18.589-22.997-55.416-7.411-105.867 3.826-12.383-6.747-24.396-19.512-22.148z" fill="#9ae0eb"/><path d="m69.981 280.894c0-73.417 32.173-139.31 83.176-184.383-3.523-3.275-6.043-7.842-6.688-13.584-.038-.335-.073-.668-.108-1-1.355-13.128-16.466-19.77-27.212-12.109-39.104 27.879-85.457 86.222-86.66 206.355-.964 96.262 60.626 179.683 146.881 209.318-65.955-44.124-109.389-119.284-109.389-204.597z" fill="#64d1e1"/><path d="m248.5 167.93c-87.033 0-157.587 60.295-157.587 147.328 0 42.413 34.383 76.796 76.796 76.796h2.788c5.95 0 10.773 4.823 10.773 10.773 0 16.524 13.395 29.919 29.919 29.919h74.621c16.524 0 29.919-13.395 29.919-29.919 0-5.95 4.823-10.773 10.773-10.773h2.788c42.413 0 76.796-34.383 76.796-76.796.001-87.033-70.553-147.328-157.586-147.328z" fill="#fff"/><path d="m263.448 358.747-7.747-12.405c-3.325-5.324-11.078-5.324-14.402 0l-7.747 12.405c-3.531 5.655.534 12.987 7.201 12.987h15.493c6.668 0 10.733-7.332 7.202-12.987z" fill="#5c586f"/><g fill="#5c586f"><path d="m233.053 432.747v-38.312c0-4.142-3.357-7.5-7.5-7.5s-7.5 3.358-7.5 7.5v38.312z"/><path d="m278.947 432.747v-38.312c0-4.142-3.357-7.5-7.5-7.5s-7.5 3.358-7.5 7.5v38.312z"/><path d="m189.097 324.36-29.16-7.813c-4.003-1.071-8.114 1.302-9.186 5.304-1.072 4.001 1.302 8.113 5.303 9.186l10.401 2.787c-.709 1.145-1.125 2.491-1.125 3.937v12.561c0 4.142 3.357 7.5 7.5 7.5s7.5-3.358 7.5-7.5v-12.562c0-.075-.009-.148-.011-.223l4.896 1.312c.65.174 1.304.257 1.946.257 3.312 0 6.342-2.21 7.239-5.561 1.072-4.001-1.302-8.113-5.303-9.185z"/><path d="m346.249 321.85c-1.071-4.001-5.185-6.375-9.186-5.304l-29.16 7.813c-4.001 1.072-6.375 5.185-5.303 9.186.897 3.351 3.928 5.561 7.239 5.561.643 0 1.296-.083 1.946-.257l4.896-1.312c-.002.075-.011.147-.011.223v12.561c0 4.142 3.357 7.5 7.5 7.5s7.5-3.358 7.5-7.5v-12.561c0-1.446-.416-2.792-1.125-3.937l10.401-2.787c4.001-1.073 6.375-5.185 5.303-9.186z"/></g><path d="m128.254 339.846c0-84.368 59.908-154.741 139.505-170.908-6.313-.663-12.738-1.008-19.258-1.008-87.033 0-157.587 60.295-157.587 147.328 0 30.305 17.559 56.501 43.053 68.993-3.723-14.178-5.713-29.058-5.713-44.405z" fill="#e8e8e8"/></g></svg>