<svg id="Capa_1" enable-background="new 0 0 497 497" height="512" viewBox="0 0 497 497" width="512" xmlns="http://www.w3.org/2000/svg"><g><path d="m248.5 408.685-11.322 32.357 11.322 23.541c0 17.903 14.513 32.416 32.416 32.416 17.903 0 32.416-14.513 32.416-32.416v-55.898z" fill="#ffcabd"/><path d="m183.668 408.685v55.898c0 17.903 14.513 32.416 32.416 32.416 17.903 0 32.416-14.513 32.416-32.416v-55.898z" fill="#ffdcce"/><path d="m249.01.001c-99.592-.278-180.704 80.664-180.704 180.193v101.1c0 37.976 30.786 68.762 68.762 68.762h222.862c37.976 0 68.762-30.786 68.762-68.762v-99.357c.002-99.603-80.078-181.659-179.682-181.936z" fill="#5c586f"/><path d="m209.795 309.114c-42.956-33.785-70.544-86.23-70.544-145.121 0-71.179 40.309-132.936 99.34-163.713-94.768 5.163-170.285 83.88-170.285 179.914v101.1c0 37.976 30.786 68.762 68.762 68.762h72.726v-40.942z" fill="#4f4c5f"/><path d="m372.711 381.657-14.279-68.671-109.932-23.296-109.931 23.296-14.279 68.671c-6.12 25.051 12.85 49.214 38.638 49.214h171.144c25.789.001 44.759-24.162 38.639-49.214z" fill="#e8e8e8"/><path d="m369.353 187.141c-.076-.075-.152-.151-.228-.226-13.281-13.107-30.744-21.89-46.909-30.028-20.909-10.522-40.44-25.369-54.752-44.033-9.594-12.511-28.336-12.511-37.929 0-14.312 18.664-33.843 33.511-54.752 44.033-16.164 8.138-33.627 16.921-46.909 30.028-.076.075-.152.151-.228.226-12.928 12.869-15.907 32.794-7.538 49.002 23.996 46.47 72.486 78.237 128.391 78.237s104.395-31.767 128.391-78.237c8.371-16.208 5.391-36.133-7.537-49.002z" fill="#ffdcce"/><path d="m248.5 197.097c9.551 0 18.057 6.483 23.407-4.577 5.427-11.219-6.727-27.867-23.407-27.867s-28.834 16.648-23.407 27.867c5.35 11.06 13.856 4.577 23.407 4.577z" fill="#423e4f"/><path d="m256.114 192.346c-4.88-1.994-10.348-1.994-15.228 0-3.232 1.32-5.343 4.464-5.343 7.955v13.891c0 7.156 5.801 12.957 12.957 12.957 7.156 0 12.958-5.801 12.958-12.957v-13.891c0-3.49-2.112-6.634-5.344-7.955z" fill="#ff748f"/><path d="m139.712 176.988c-4.185 3.034-8.174 6.312-11.837 9.927-.076.075-.152.151-.228.226-12.928 12.869-15.907 32.794-7.538 49.002 18.24 35.324 50.641 62.134 89.686 72.972-39.769-31.279-66.355-78.554-70.083-132.127z" fill="#ffcabd"/><path d="m194.489 355.518c0-20.059 3.917-39.201 11.011-56.716l-66.931 14.184-14.279 68.671c-6.12 25.051 12.85 49.214 38.638 49.214h51.654c-12.781-22.182-20.093-47.913-20.093-75.353z" fill="#e0e0e0"/><path d="m318.93 258.991-3.752-2.684c-8-5.724-18.718-5.646-26.739.048-7.968 5.657-18.651 5.641-26.603-.048-7.975-5.705-18.696-5.705-26.671 0-7.952 5.689-18.635 5.705-26.603.048-8.021-5.695-18.739-5.772-26.739-.048l-3.752 2.684c-6.015 4.303-9.583 11.244-9.583 18.64v72.122c0 20.137 16.324 36.461 36.461 36.461h87.105c20.137 0 36.461-16.324 36.461-36.461v-72.122c-.001-7.396-3.57-14.337-9.585-18.64z" fill="#e8a882"/><path d="m209.795 296.279c0-12.773 2.091-25.058 5.946-36.533-2.524-.695-4.959-1.815-7.18-3.391-8.021-5.695-18.739-5.772-26.739-.048l-3.752 2.684c-6.015 4.303-9.583 11.244-9.583 18.64v72.122c0 20.137 16.324 36.461 36.461 36.461h48.387c-26.522-21-43.54-53.479-43.54-89.935z" fill="#e3986d"/><path d="m169.829 267.39h-23.261c-15.498 0-28.063 12.564-28.063 28.063 0 15.498 12.564 28.063 28.063 28.063h23.261c15.499 0 28.063-12.564 28.063-28.063 0-15.499-12.565-28.063-28.063-28.063z" fill="#ffdcce"/><path d="m327.172 267.39h23.261c15.499 0 28.063 12.564 28.063 28.063 0 15.498-12.564 28.063-28.063 28.063h-23.261c-15.499 0-28.063-12.564-28.063-28.063 0-15.499 12.564-28.063 28.063-28.063z" fill="#ffcabd"/></g></svg>