<svg id="Capa_1" enable-background="new 0 0 497.002 497.002" height="512" viewBox="0 0 497.002 497.002" width="512" xmlns="http://www.w3.org/2000/svg"><g><path d="m259.469 401.482v50.96l-32.88 8.549-32.88-8.549v-50.96l32.88-9.584z" fill="#e8e8e8"/><path d="m325.219 401.482v50.96l-32.875 8.549-32.875-8.549v-50.96l32.875-9.584z" fill="#d8d8d8"/><path d="m128.997 370.6-2.625-1.878c-5.596-4.004-13.094-3.95-18.704.034-5.574 3.957-13.047 3.946-18.609-.034-5.579-3.991-13.078-3.991-18.657 0-5.563 3.98-13.036 3.991-18.609.034-5.611-3.984-13.108-4.038-18.704-.034l-2.625 1.878c-4.207 3.01-6.704 7.866-6.704 13.039v56.172c0 14.086 11.419 25.505 25.505 25.505h60.931c14.086 0 25.505-11.419 25.505-25.505v-56.172c0-5.173-2.496-10.029-6.704-13.039z" fill="#bc9bdd"/><path d="m160.479 367.382-15.21 7.72c-13.05 6.62-29.09 1.46-35.76-11.68-6.64-13.11-1.41-29.11 11.69-35.76l15.22-7.72 20.925 15.285z" fill="#da9d81"/><path d="m193.719 350.522-28.51 14.46-4.73 2.4-24.06-47.44 4.72-2.4 28.51-14.47 21.585 16.75z" fill="#e8e8e8"/><path d="m358.148 367.382 15.21 7.72c13.05 6.62 29.09 1.46 35.76-11.68 6.64-13.11 1.41-29.11-11.69-35.76l-15.22-7.72-20.925 15.285z" fill="#da9d81"/><path d="m324.908 350.522 28.51 14.46 4.73 2.4 24.06-47.44-4.72-2.4-28.51-14.47-21.585 16.75z" fill="#e0e0e0"/><path d="m349.029 302.952-24.13 47.57-65.43 9.642-65.75-9.642-24.07-47.45 45.76-23.21h88.11z" fill="#e8e8e8"/><path d="m325.219 452.442v11.68c0 18.16-14.73 32.88-32.88 32.88-18.17 0-32.87-14.73-32.87-32.88v-11.68z" fill="#c7856a"/><path d="m470.011 247.364-12.811-19.234c-4.112-6.173-11.437-9.566-18.752-8.342-19.02 3.18-44.075-9.239-50.91-13.568l-32.111 50.684c1.777 1.126 17.998 11.188 40.05 17.717 23.381 6.922 45.157 7.457 64.199 1.718 12.29-3.704 17.45-18.293 10.335-28.975z" fill="#e8e8e8"/><path d="m109.797 26.627c-4.604-5.815-12.312-8.213-19.503-6.394l-22.404 5.668c-12.442 3.148-18.403 17.428-11.774 28.419 10.271 17.031 26.778 31.243 48.761 41.796 20.734 9.953 39.513 13.374 41.586 13.731l10.19-59.128c-7.973-1.374-34.885-8.974-46.856-24.092z" fill="#e8e8e8"/><path d="m114.052 31.156c-8.372 9.162-15.737 19.156-21.928 29.857-3.963 6.848-7.42 13.905-10.382 21.152 6.855 5.17 14.573 9.842 23.134 13.951 20.734 9.953 39.513 13.374 41.586 13.731l10.19-59.128c-7.131-1.229-29.41-7.445-42.6-19.563z" fill="#d8d8d8"/><path d="m400.84 76.041-141.376 19.532-141.375-19.532c27.174-46.971 80.209-75.976 141.225-76.041 61.134-.064 114.319 28.973 141.526 76.041z" fill="#e8e8e8"/><path d="m387.538 206.22-32.111 50.684c1.777 1.126 17.998 11.188 40.05 17.717 1.054.312 2.102.596 3.149.882 5.917-5.837 11.405-12.046 16.374-18.604 8.674-11.429 15.788-23.75 21.309-36.827-18.713 1.982-42.19-9.683-48.771-13.852z" fill="#d8d8d8"/><path d="m416.425 184.275c-4.621 20.378-13.356 38.72-25.322 54.489l-131.639 25.275-131.639-25.275c-11.966-15.768-20.701-34.111-25.322-54.489l156.96-20.808z" fill="#e8e8e8"/><path d="m264.582.073c-1.75-.046-3.505-.075-5.269-.073-61.016.065-114.05 29.07-141.224 76.041l40.842 5.643c22.126-40.086 60.189-70.139 105.651-81.611z" fill="#e0e0e0"/><path d="m420.184 150.089c0 11.923-1.292 23.34-3.759 34.186h-313.921c-2.456-10.846-3.759-22.274-3.759-34.186 0-27.702 7.001-52.722 19.344-74.048h282.751c12.343 21.326 19.344 46.346 19.344 74.048z" fill="#da9d81"/><g fill="#e0e0e0"><path d="m254.917 279.862h-39.508l-45.76 23.21 24.07 47.45 22.968 3.368c6.059-28.138 19.509-53.528 38.23-74.028z"/><path d="m325.219 389.052v12.43h-131.51v-12.43l.01-.01v-38.52h131.49v38.52z"/><path d="m139.009 179.435-36.505 4.84c4.621 20.378 13.356 38.72 25.322 54.489l31.968 6.138c-11.141-19.69-18.417-41.853-20.785-65.467z"/><path d="m391.103 238.764c-29.081 38.376-77.268 61.457-131.789 61.403-54.402-.054-102.461-23.114-131.488-61.403z"/></g><g><g><path d="m170.283 146.306c-4.142 0-7.5-3.358-7.5-7.5v-17.136c0-4.142 3.358-7.5 7.5-7.5s7.5 3.358 7.5 7.5v17.137c0 4.141-3.358 7.499-7.5 7.499z" fill="#423e4f"/></g><g><path d="m348.646 146.306c-4.142 0-7.5-3.358-7.5-7.5v-17.136c0-4.142 3.358-7.5 7.5-7.5s7.5 3.358 7.5 7.5v17.137c0 4.141-3.358 7.499-7.5 7.499z" fill="#423e4f"/></g><g><path d="m259.464 156.507c-11.179 0-21.81-4.842-29.167-13.284-2.721-3.123-2.396-7.86.727-10.582 3.123-2.721 7.86-2.396 10.582.727 4.507 5.172 11.017 8.139 17.858 8.139s13.35-2.967 17.858-8.139c2.72-3.123 7.458-3.448 10.582-.726 3.123 2.721 3.448 7.459.726 10.582-7.357 8.442-17.987 13.283-29.166 13.283z" fill="#423e4f"/></g></g><path d="m156.477 238.764h-28.651c16.901 22.294 40.262 39.412 67.562 49.844-15.919-13.939-29.18-30.837-38.911-49.844z" fill="#d8d8d8"/><path d="m138.163 162.521c0-31.643 8.776-61.234 24.022-86.48h-44.096c-12.343 21.326-19.344 46.346-19.344 74.048 0 11.912 1.303 23.34 3.759 34.186h37.064c-.924-7.121-1.405-14.381-1.405-21.754z" fill="#c7856a"/><path d="m47.749 395.945c0-9.449 1.462-18.555 4.165-27.109-.04-.028-.082-.051-.122-.08-5.611-3.983-13.108-4.038-18.704-.034l-2.625 1.878c-4.207 3.01-6.704 7.865-6.704 13.039v56.172c0 14.086 11.419 25.505 25.505 25.505h31.216c-19.988-16.484-32.731-41.439-32.731-69.371z" fill="#b08bd7"/><path d="m213.144 395.817-19.435 5.665v50.96l26.655 6.931c-5.11-19.286-6.901-40.792-7.22-63.556z" fill="#e0e0e0"/><path d="m259.469 452.442v11.68c0 18.15-14.71 32.88-32.88 32.88-18.15 0-32.88-14.72-32.88-32.88v-11.68z" fill="#da9d81"/><path d="m218.687 452.442h-24.978v11.68c0 18.16 14.73 32.88 32.88 32.88 3.33 0 6.542-.499 9.57-1.419-8.476-12.679-13.976-27.23-17.472-43.141z" fill="#c7856a"/><path d="m213.089 387.732c0-12.812 1.515-25.269 4.359-37.21h-23.729v38.52l-.01.01v12.43h19.55c-.116-4.533-.17-9.117-.17-13.75z" fill="#d8d8d8"/></g></svg>