<svg id="Capa_1" enable-background="new 0 0 497 497" height="512" viewBox="0 0 497 497" width="512" xmlns="http://www.w3.org/2000/svg"><g><path d="m328.522 356.473v79.717l-40.011 30.405-40.011-30.405-17.337-34.607 17.337-45.11z" fill="#ff995d"/><path d="m328.522 436.19v20.799c0 11.04-4.475 21.051-11.723 28.288-7.237 7.248-17.237 11.723-28.288 11.723-22.101 0-40.011-17.92-40.011-40.011v-20.799z" fill="#4f4c5f"/><path d="m248.5 356.473v79.717l-40.011 30.405-40.011-30.405v-79.717z" fill="#ffa875"/><path d="m179.966 356.473h-11.488v79.718l40.011 30.405 1.556-1.182c-14.388-26.575-25.224-62.059-30.079-108.941z" fill="#ff995d"/><path d="m401.817 323.115-17.625-72.143-135.692-41.375-135.691 41.375-17.625 72.143c-7.555 30.922 15.861 60.747 47.692 60.747h211.249c31.831-.001 55.246-29.826 47.692-60.747z" fill="#5c586f"/><path d="m177.146 298.522c0-24.888 4.341-48.76 12.287-70.915l-76.624 23.365-17.625 72.143c-7.555 30.922 15.861 60.747 47.692 60.747h40.803c-4.19-24.607-6.533-52.877-6.533-85.34z" fill="#4f4c5f"/><path d="m335.434 171.704-4.631-3.313c-9.875-7.065-23.104-6.97-33.005.06-9.835 6.983-23.021 6.963-32.837-.06-9.844-7.042-23.077-7.042-32.921 0-9.816 7.022-23.002 7.042-32.837.06-9.9-7.029-23.13-7.125-33.005-.06l-4.631 3.313c-7.424 5.312-11.829 13.879-11.829 23.008v99.118c0 24.856 20.149 45.005 45.005 45.005h107.516c24.856 0 45.005-20.149 45.005-45.005v-99.118c-.001-9.129-4.406-17.697-11.83-23.008z" fill="#8bdf9e"/><g fill="#ff748f"><path d="m315.552 61.389c10.808-10.808 28.33-10.808 39.138 0s10.808 28.33 0 39.138-43.186 25.663-53.994 14.855c-10.807-10.807 4.048-43.185 14.856-53.993z"/><path d="m181.448 61.389c-10.808-10.808-28.33-10.808-39.138 0s-10.808 28.33 0 39.138 43.186 25.663 53.994 14.855c10.807-10.807-4.048-43.185-14.856-53.993z"/><path d="m276.175 27.675c0 15.284-12.39 48.684-27.675 48.684s-27.675-33.399-27.675-48.684 12.391-27.675 27.675-27.675 27.675 12.39 27.675 27.675z"/></g><path d="m198.032 232.128c0-21.147 5.127-41.094 14.201-58.674-4.593-.546-9.083-2.201-13.031-5.004-9.901-7.029-23.13-7.125-33.005-.06l-4.631 3.313c-7.424 5.312-11.829 13.879-11.829 23.008v99.118c0 24.856 20.149 45.005 45.005 45.005h60.499c-34.483-22.956-57.209-62.174-57.209-106.706z" fill="#73d98b"/><path d="m345.606 194.692h28.712c19.13 0 34.638 15.508 34.638 34.638 0 19.13-15.508 34.638-34.638 34.638h-28.712c-19.13 0-34.638-15.508-34.638-34.638 0-19.13 15.508-34.638 34.638-34.638z" fill="#ffd3bc"/><path d="m248.5 436.19v20.799c0 11.04-4.475 21.051-11.723 28.288-7.237 7.248-17.237 11.723-28.288 11.723-22.101 0-40.011-17.92-40.011-40.011v-20.799z" fill="#5c586f"/><path d="m197.068 436.19h-28.59v20.799c0 22.091 17.91 40.011 40.011 40.011 7.029 0 13.63-1.816 19.368-5-11.871-14.305-22.426-32.604-30.789-55.81z" fill="#4f4c5f"/><path d="m151.394 194.692h-28.712c-19.13 0-34.638 15.508-34.638 34.638 0 19.13 15.508 34.638 34.638 34.638h28.712c19.13 0 34.638-15.508 34.638-34.638 0-19.13-15.508-34.638-34.638-34.638z" fill="#ffd3bc"/><path d="m192.704 104.383c-23.73 0-42.967-19.237-42.967-42.967 0-1.866.132-3.701.363-5.505-2.819 1.325-5.461 3.149-7.79 5.479-10.808 10.808-10.808 28.33 0 39.138s43.186 25.663 53.994 14.855c2.733-2.732 3.82-6.846 3.752-11.639-2.39.412-4.844.639-7.352.639z" fill="#fd5f7e"/></g></svg>