<svg id="Capa_1" enable-background="new 0 0 497 497" height="512" viewBox="0 0 497 497" width="512" xmlns="http://www.w3.org/2000/svg"><g><path d="m477.607 325.261c-110.079-9.659-197.226-102.214-197.226-215.667 0-24.801 4.176-48.625 11.857-70.813 5.615-16.219-9.255-32.024-25.735-27.227-89.68 26.106-155.319 108.656-155.872 206.633-.667 118.224 94.536 215.715 212.745 217.717 67.561 1.144 128.186-28.67 168.644-76.186 11.058-12.987 2.579-32.966-14.413-34.457z" fill="#f9d888"/><path d="m192.438 187.611c0-68.521 27.692-130.571 72.49-175.58-88.87 26.611-153.746 108.756-154.296 206.157-.667 118.224 94.536 215.715 212.745 217.717 19.942.338 39.272-2.042 57.666-6.758-108.328-26.959-188.605-124.866-188.605-241.536z" fill="#f5c956"/><path d="m342.141 364.132c-7.344-1.282-12.596-7.646-12.464-15.1.043-2.432-.014-4.887-.175-7.364-2.885-44.332-39.181-79.764-83.568-81.608-24.061-.999-46.078 7.728-62.452 22.568-4.063 3.683-9.882 4.726-15.013 2.791-7.706-2.906-16.055-4.498-24.777-4.498-38.903 0-69.527 31.305-70.272 68.755-.143 7.158-5.189 13.255-12.237 14.513-29.163 5.206-50.938 30.914-50.601 61.272.376 33.881 28.625 60.857 62.508 60.857h257.423c34.221 0 62.889-28 62.526-62.22-.321-30.154-22.277-54.971-50.898-59.966z" fill="#bc9bdd"/><path d="m85.897 448.395c0-66.991 32.853-126.301 83.319-162.723-.25-.079-.5-.159-.747-.253-7.706-2.906-16.055-4.498-24.777-4.498-38.903 0-69.527 31.305-70.272 68.755-.143 7.158-5.189 13.255-12.237 14.513-29.163 5.206-50.938 30.914-50.601 61.272.376 33.88 28.625 60.857 62.508 60.857h16.405c-2.352-12.281-3.598-24.956-3.598-37.923z" fill="#b08bd7"/><g fill="#fff"><ellipse cx="113.433" cy="411.819" rx="32.609" ry="25.968"/><ellipse cx="290.185" cy="411.819" rx="32.609" ry="25.968"/></g><g><path d="m132.437 394.002c-4.143 0-7.5-3.358-7.5-7.5v-12.691c0-4.142 3.357-7.5 7.5-7.5s7.5 3.358 7.5 7.5v12.691c0 4.142-3.357 7.5-7.5 7.5z" fill="#423e4f"/></g><g><path d="m201.809 402.257c-9.177 0-17.904-3.975-23.944-10.905-2.722-3.123-2.396-7.86.727-10.582 3.122-2.721 7.859-2.396 10.582.727 3.19 3.661 7.796 5.76 12.636 5.76s9.444-2.1 12.635-5.76c2.722-3.122 7.457-3.448 10.582-.727 3.122 2.722 3.448 7.459.727 10.582-6.041 6.93-14.768 10.905-23.945 10.905z" fill="#423e4f"/></g><g><path d="m288.337 393.648c-4.143 0-7.5-3.358-7.5-7.5 0-3.974-3.232-7.207-7.206-7.207s-7.207 3.233-7.207 7.207c0 4.142-3.357 7.5-7.5 7.5s-7.5-3.358-7.5-7.5c0-12.245 9.962-22.207 22.207-22.207 12.244 0 22.206 9.962 22.206 22.207 0 4.142-3.358 7.5-7.5 7.5z" fill="#423e4f"/></g><path d="m65.134 181.885c-10.707-2.26-18.6-10-20.869-20.97-.792-3.828-4.186-6.56-8.197-6.56h-.526c-3.928 0-7.198 2.823-8.008 6.667-2.26 10.712-10.001 18.608-20.974 20.878-3.828.792-6.56 4.186-6.56 8.182v.441c0 3.923 2.755 7.304 6.595 8.103 10.952 2.279 18.677 10.166 20.935 20.862.812 3.847 4.079 6.677 8.113 6.677h.526c3.909 0 7.304-2.731 8.096-6.559 2.269-10.971 10.162-18.71 20.869-20.971 3.847-.812 6.677-4.079 6.677-8.011v-.727c-.001-3.933-2.83-7.2-6.677-8.012z" fill="#f9d888"/><path d="m383.063 77.322c-10.707-2.26-18.6-10-20.869-20.97-.792-3.828-4.186-6.56-8.197-6.56h-.526c-3.928 0-7.198 2.823-8.008 6.667-2.258 10.712-9.999 18.609-20.972 20.878-3.828.792-6.56 4.186-6.56 8.182v.441c0 3.923 2.755 7.304 6.595 8.103 10.952 2.279 18.677 10.166 20.935 20.862.812 3.847 4.079 6.677 8.113 6.677h.526c3.909 0 7.304-2.731 8.096-6.559 2.269-10.971 10.162-18.71 20.869-20.971 3.847-.812 6.677-4.079 6.677-8.011v-.727c-.003-3.932-2.832-7.199-6.679-8.012z" fill="#f9d888"/><path d="m468.481 175.405c-13.641-2.88-23.696-12.74-26.587-26.716-1.009-4.877-5.333-8.357-10.443-8.357h-.671c-5.005 0-9.17 3.597-10.203 8.494-2.876 13.647-12.738 23.707-26.718 26.599-4.877 1.009-8.357 5.333-8.357 10.423v.562c0 4.998 3.509 9.305 8.402 10.323 13.952 2.903 23.794 12.951 26.671 26.578 1.035 4.901 5.196 8.506 10.335 8.506h.67c4.98 0 9.305-3.48 10.314-8.357 2.891-13.976 12.946-23.837 26.587-26.716 4.901-1.035 8.506-5.197 8.506-10.206v-.927c0-5.009-3.605-9.171-8.506-10.206z" fill="#bc9bdd"/><path d="m19.823 175.084c-3.522 3.349-8.018 5.731-13.263 6.816-3.828.792-6.56 4.186-6.56 8.182v.441c0 3.923 2.755 7.304 6.595 8.103 10.952 2.279 18.677 10.166 20.935 20.862.812 3.847 4.079 6.677 8.113 6.677h.526c3.909 0 7.304-2.731 8.096-6.559.64-3.095 1.742-5.921 3.214-8.451-12.764-8.608-22.575-21.241-27.656-36.071z" fill="#f5c956"/><path d="m339.142 69.094c-3.693 4.105-8.69 7.01-14.653 8.244-3.828.792-6.56 4.186-6.56 8.181v.441c0 3.923 2.755 7.304 6.595 8.103 10.952 2.279 18.677 10.166 20.935 20.862.812 3.847 4.079 6.677 8.113 6.677h.526c3.909 0 7.304-2.731 8.096-6.559.463-2.24 1.173-4.337 2.081-6.289-12.177-10.062-21.139-23.871-25.133-39.66z" fill="#f5c956"/><path d="m410.661 166.83c-4.473 4.219-10.166 7.223-16.801 8.595-4.877 1.009-8.357 5.333-8.357 10.423v.562c0 4.998 3.509 9.305 8.402 10.323 13.952 2.903 23.794 12.952 26.671 26.578 1.035 4.901 5.196 8.506 10.335 8.506h.67c4.98 0 9.305-3.48 10.314-8.357.946-4.574 2.672-8.697 5.028-12.289-18.013-8.343-31.59-24.614-36.262-44.341z" fill="#b08bd7"/></g></svg>