<svg id="Capa_1" enable-background="new 0 0 497 497" height="512" viewBox="0 0 497 497" width="512" xmlns="http://www.w3.org/2000/svg"><g><path d="m267.408 410.8-11.897 32.406 11.897 24.403c0 16.232 13.159 29.391 29.391 29.391 16.232 0 29.391-13.159 29.391-29.391v-56.809z" fill="#64d1e1"/><g><path d="m181.467 412.305c-.789 0-1.588-.061-2.393-.187-75.742-11.881-104.038-71.276-105.206-73.797-3.553-7.677-.21-16.779 7.466-20.332 7.656-3.544 16.731-.228 20.303 7.405.988 2.072 23.178 47.207 82.184 56.464 8.356 1.31 14.067 9.147 12.757 17.503-1.184 7.551-7.7 12.944-15.111 12.944z" fill="#9ae0eb"/></g><path d="m208.625 410.8v56.808c0 16.232 13.159 29.391 29.391 29.391 16.232 0 29.391-13.159 29.391-29.391v-56.808z" fill="#9ae0eb"/><path d="m227.792 419.808c0-3.025.098-6.026.271-9.007h-19.437v56.808c0 16.232 13.159 29.391 29.391 29.391 3.391 0 6.644-.581 9.675-1.638-12.663-22.298-19.9-48.08-19.9-75.554z" fill="#64d1e1"/><path d="m380.027 386.294-12.947-52.993-99.673-30.392-99.673 30.392-12.947 52.993c-5.549 22.714 11.651 44.622 35.033 44.622h155.174c23.383 0 40.583-21.908 35.033-44.622z" fill="#ff748f"/><path d="m375.821 4.35c-8.886-7.578-22.515-4.938-27.853 5.449-10.127 19.707-32.72 46.653-80.561 46.653s-70.434-26.947-80.561-46.653c-5.338-10.387-18.966-13.027-27.853-5.449-28.372 24.195-74.49 78.116-56.691 163.155l60.27 48.641h214.293l55.646-48.641c17.8-85.038-28.318-138.96-56.69-163.155z" fill="#ff748f"/><path d="m393.326 176.895c7.276-9.583 18.452-15.364 27.777-18.746 9.217-3.342 19.36 2.004 21.858 11.484 20.542 77.946-53.78 91.47-53.78 91.47z" fill="#64d1e1"/><path d="m158.974 176.788c0-52.783 19.912-100.911 52.624-137.3-12.09-9.031-19.874-20.196-24.751-29.688-5.338-10.387-18.967-13.027-27.853-5.449-28.372 24.195-74.49 78.116-56.691 163.155l60.27 48.641h.183c-2.472-12.741-3.782-25.896-3.782-39.359z" fill="#fd5f7e"/><path d="m377.841 142.527c-20.316-31.808-63.104-41.012-93.763-19.001-.308.221-.616.446-.923.674-9.346 6.929-22.147 6.929-31.493 0-.307-.228-.615-.453-.924-.674-30.676-22.023-73.475-12.789-93.79 19.044-12.793 20.047-20.276 43.812-20.47 69.311-.55 72.031 57.934 131.433 129.965 131.953 72.751.525 131.901-58.301 131.901-130.931-.001-25.904-7.523-50.053-20.503-70.376z" fill="#9ae0eb"/><path d="m241.17 341.173c-49.909-37.484-82.196-97.163-82.196-164.386 0-14.684 1.553-29.004 4.481-42.816-2.358 2.651-4.541 5.516-6.508 8.598-6.718 10.526-11.953 22.085-15.456 34.375l-.002-.05c-7.276-9.583-18.452-15.364-27.777-18.745-9.217-3.342-19.36 2.004-21.858 11.484-20.542 77.946 53.78 91.47 53.78 91.47l-.014-.288c16.087 40.561 51.917 71.398 95.55 80.358z" fill="#64d1e1"/><path d="m196.578 399.36c1.311-8.355-4.401-16.192-12.757-17.503-20.568-3.227-36.659-10.815-48.942-19.417l-4.378 17.921c-1.167 4.779-1.737 9.605-1.755 14.393 13.735 7.811 30.385 14.235 50.328 17.363.804.127 1.603.188 2.393.188 7.411 0 13.927-5.393 15.111-12.945z" fill="#64d1e1"/><path d="m227.792 419.808c0-45.057 19.448-85.57 50.405-113.609l-10.789-3.29-99.673 30.392-12.947 52.993c-5.549 22.714 11.651 44.622 35.033 44.622h38.375c-.264-3.669-.404-7.372-.404-11.108z" fill="#fd5f7e"/><path d="m331.266 275.074-3.402-2.434c-7.254-5.19-16.971-5.12-24.244.044-7.224 5.129-16.91 5.115-24.121-.044-7.231-5.173-16.952-5.173-24.182 0-7.21 5.158-16.896 5.173-24.121.044-7.272-5.163-16.99-5.233-24.244-.044l-3.402 2.434c-5.453 3.902-8.689 10.195-8.689 16.901v72.808c0 18.258 14.801 33.059 33.059 33.059h78.977c18.258 0 33.059-14.801 33.059-33.059v-72.808c-.001-6.706-3.237-12.999-8.69-16.901z" fill="#bc9bdd"/><path d="m233.081 312.571c0-12.748 2.022-25.022 5.75-36.529-2.691-.582-5.293-1.695-7.635-3.357-7.272-5.163-16.99-5.233-24.244-.044l-3.402 2.434c-5.453 3.902-8.689 10.195-8.689 16.901v72.808c0 18.258 14.801 33.059 33.059 33.059h41.409c-22.345-21.545-36.248-51.783-36.248-85.272z" fill="#b08bd7"/><path d="m196.078 291.96h-21.091c-14.052 0-25.444 11.392-25.444 25.444 0 14.052 11.392 25.444 25.444 25.444h21.091c14.052 0 25.444-11.392 25.444-25.444 0-14.052-11.392-25.444-25.444-25.444z" fill="#9ae0eb"/><path d="m338.738 291.96h21.091c14.052 0 25.444 11.392 25.444 25.444 0 14.052-11.392 25.444-25.444 25.444h-21.091c-14.052 0-25.444-11.392-25.444-25.444 0-14.052 11.392-25.444 25.444-25.444z" fill="#64d1e1"/><g fill="#423e4f"><path d="m290.627 211.347c-3.122-2.721-7.861-2.396-10.581.728-3.19 3.661-7.796 5.761-12.638 5.761s-9.447-2.1-12.638-5.761c-2.721-3.123-7.459-3.447-10.581-.728-3.123 2.721-3.449 7.459-.728 10.582 6.039 6.931 14.768 10.906 23.946 10.906s17.907-3.975 23.946-10.906c2.723-3.123 2.397-7.861-.726-10.582z"/><path d="m213.101 192.086-26.736-7.164c-4.002-1.069-8.114 1.302-9.186 5.303s1.302 8.114 5.303 9.186l8.773 2.351c-.464.975-.73 2.061-.73 3.212v11.517c0 4.142 3.357 7.5 7.5 7.5s7.5-3.358 7.5-7.5v-10.906l3.693.99c.65.174 1.304.257 1.946.257 3.312 0 6.342-2.21 7.239-5.561 1.073-4.001-1.301-8.113-5.302-9.185z"/><path d="m357.636 190.226c-1.071-4.001-5.184-6.373-9.186-5.304l-26.737 7.164c-4.001 1.072-6.375 5.185-5.303 9.186.897 3.351 3.928 5.561 7.239 5.561.643 0 1.296-.083 1.946-.257l3.694-.99v10.906c0 4.142 3.357 7.5 7.5 7.5s7.5-3.358 7.5-7.5v-11.517c0-1.151-.267-2.237-.73-3.212l8.773-2.351c4.003-1.073 6.377-5.185 5.304-9.186z"/></g><path d="m108.403 307.871-44.698-9.971c-7.78-1.736-14.723 5.208-12.988 12.987l9.971 44.698c2.175 9.75 15.24 11.66 20.115 2.94l9.45-16.903c.982-1.756 2.431-3.205 4.187-4.187l16.903-9.45c8.72-4.874 6.81-17.939-2.94-20.114z" fill="#ff748f"/><path d="m65.037 298.713c0-.172.011-.341.013-.513l-1.345-.3c-7.78-1.736-14.723 5.208-12.988 12.988l9.971 44.698c2.175 9.75 15.24 11.66 20.115 2.94l7.395-13.227c-14.069-10.672-23.161-27.565-23.161-46.586z" fill="#fd5f7e"/></g></svg>