<svg id="Capa_1" enable-background="new 0 0 497 497" height="512" viewBox="0 0 497 497" width="512" xmlns="http://www.w3.org/2000/svg"><g><path d="m222.557 365.125h51.885v131.875h-51.885z" fill="#e8a882"/><path d="m420.105 269.954c16.728 0 30.289 13.561 30.289 30.289 0 16.728-13.561 30.289-30.289 30.289h-19.743l-14.194-30.289 14.194-30.289z" fill="#f9d888"/><path d="m76.895 269.954c-16.728 0-30.289 13.561-30.289 30.289 0 16.728 13.561 30.289 30.289 30.289h19.743l14.194-30.289-14.194-30.289z" fill="#f9d888"/><path d="m169.543 109.604c-35.136 0-64.799 26.087-69.308 60.923l-3.824 29.622c-4.788 37.012 24.035 69.805 61.358 69.805l12.515 18.915 21.947-18.915 7.991-160.35z" fill="#ffa875"/><path d="m400.589 200.149-3.825-29.622c-4.509-34.835-34.172-60.923-69.308-60.923h-30.679l7.991 160.35 19.412 18.915 15.05-18.915c37.324 0 66.148-32.794 61.359-69.805z" fill="#ffa875"/><path d="m296.778 109.604h-96.556c-11.567 23.341-18.667 55.046-18.667 89.964 0 25.942 3.918 50.102 10.676 70.385l56.269 25.611 56.269-25.611c6.758-20.283 10.675-44.443 10.675-70.385.001-34.918-7.099-66.623-18.666-89.964z" fill="#ff995d"/><path d="m222.557 365.125h51.885v63.518h-51.885z" fill="#e3986d"/><path d="m185.198 269.954h126.604v128.689h-126.604z" fill="#f9d888"/><path d="m289.214 269.954v138.651c0 12.668 10.269 22.937 22.937 22.937h41.465c13.463 0 22.598-13.689 17.432-26.121l-15.009-56.04 23.807 7.079c10.438 2.567 20.517-5.335 20.517-16.083v-70.423z" fill="#8bdf9e"/><path d="m123.733 217.03c0-45.029 23.262-84.62 58.42-107.426h-12.611c-35.136 0-64.799 26.087-69.308 60.923l-3.824 29.622c-3.65 28.213 12.241 53.957 36.529 64.611-5.933-14.75-9.206-30.857-9.206-47.73z" fill="#ff995d"/><path d="m207.786 269.954v138.651c0 12.668-10.269 22.937-22.937 22.937h-41.465c-13.463 0-22.598-13.689-17.432-26.121l15.009-56.04-23.807 7.079c-10.438 2.567-20.517-5.335-20.517-16.083v-70.423z" fill="#8bdf9e"/><g><g><path d="m148.056 213.65c-4.142 0-7.5-3.358-7.5-7.5v-19.301c0-4.142 3.358-7.5 7.5-7.5s7.5 3.358 7.5 7.5v19.301c0 4.142-3.358 7.5-7.5 7.5z" fill="#423e4f"/></g><g><path d="m348.944 213.65c-4.142 0-7.5-3.358-7.5-7.5v-19.301c0-4.142 3.358-7.5 7.5-7.5s7.5 3.358 7.5 7.5v19.301c0 4.142-3.358 7.5-7.5 7.5z" fill="#423e4f"/></g><g><path d="m248.5 224.11c-10.585 0-20.652-4.584-27.618-12.579-2.721-3.123-2.396-7.86.727-10.582 3.122-2.721 7.86-2.396 10.582.727 4.117 4.724 10.062 7.433 16.31 7.433 6.249 0 12.193-2.709 16.31-7.433 2.722-3.124 7.459-3.448 10.582-.727 3.123 2.722 3.448 7.459.727 10.582-6.968 7.995-17.035 12.579-27.62 12.579z" fill="#423e4f"/></g></g><path d="m378.762 96.491-130.262 24.202-130.262-24.202c16.965-55.847 68.867-96.491 130.262-96.491s113.297 40.644 130.262 96.491z" fill="#f5c956"/><path d="m231.769 1.02c-53.943 6.612-98.131 44.777-113.531 95.47l34.105 6.337c12.481-43.263 41.337-79.578 79.426-101.807z" fill="#f2c13b"/><path d="m411.158 96.491c-42.362 0-290.425 0-325.315 0-13.369 0-24.207 10.829-24.207 24.197s10.847 24.207 24.207 24.207h325.315c13.369 0 24.207-10.839 24.207-24.207 0-13.374-10.849-24.197-24.207-24.197z" fill="#f9d888"/><path d="m154.307 96.491c-33.138 0-58.868 0-68.465 0-13.369 0-24.207 10.828-24.207 24.197 0 13.368 10.847 24.207 24.207 24.207h59.833c.586-16.856 3.571-33.101 8.632-48.404z" fill="#f5c956"/><path d="m168.216 349.75c0-29.32 8.407-56.673 22.929-79.796h-94.506v70.423c0 10.749 10.079 18.65 20.517 16.083l23.807-7.079-15.009 56.04c-5.166 12.432 3.969 26.121 17.432 26.121h41.465c2.399 0 4.711-.37 6.885-1.053-14.889-23.32-23.52-51.021-23.52-80.739z" fill="#73d98b"/></g></svg>