<svg id="Capa_1" enable-background="new 0 0 497 497" height="512" viewBox="0 0 497 497" width="512" xmlns="http://www.w3.org/2000/svg"><g><path d="m112.285 250.756v159.952c0 14.862 12.048 26.91 26.91 26.91 14.862 0 26.91-12.048 26.91-26.91v-56.329c0-12.574 10.193-22.768 22.768-22.768 12.574 0 22.768 10.193 22.768 22.768v20.875c0 14.862 12.048 26.91 26.91 26.91 14.862 0 26.91-12.048 26.91-26.91v-124.498z" fill="#f9496e"/><path d="m0 155.706s9.293 137.542 248.5 137.542 248.5-137.542 248.5-137.542l-248.5-28.926z" fill="#fd5f7e"/><path d="m0 155.706s1.358 20.084 16.382 44.902c30.391 16.328 55.778 23.569 81.024 23.57h.004c22.824 0 42.153-5.977 62.617-12.305 23.137-7.154 49.329-15.254 88.473-16.851 39.142 1.597 65.336 9.697 88.476 16.852 20.465 6.327 39.795 12.304 62.617 12.304 25.245 0 50.633-7.241 81.025-23.57 15.024-24.818 16.382-44.902 16.382-44.902l-248.5-28.926z" fill="#f9496e"/><path d="m426.81 180.522s-5.352 62.03-46.975 107.595c-10.357 11.337-29.155 3.119-27.84-12.18 2.649-30.814.851-73.997-21.588-109.083z" fill="#e8e8e8"/><path d="m132.565 282.306c0-10.88 1.34-21.446 3.848-31.55h-24.128v159.952c0 14.862 12.048 26.91 26.91 26.91 14.862 0 26.91-12.048 26.91-26.91v-41.053c-20.847-23.133-33.54-53.757-33.54-87.349z" fill="#f5385d"/><path d="m70.19 180.522s5.352 62.03 46.975 107.595c10.357 11.337 29.155 3.119 27.84-12.18-2.649-30.814-.851-73.997 21.588-109.083z" fill="#e8e8e8"/><path d="m330.406 166.853c9.775 15.285 15.631 32.107 18.911 48.774 16.102 4.748 32.079 8.551 50.276 8.551 5.796 0 11.601-.391 17.471-1.177 8.158-24.098 9.746-42.479 9.746-42.479z" fill="#e0e0e0"/><path d="m70.19 180.522s1.588 18.38 9.746 42.478c5.869.785 11.674 1.177 17.47 1.177h.004c18.197 0 34.173-3.802 50.273-8.55 3.279-16.667 9.135-33.489 18.911-48.775z" fill="#e0e0e0"/><path d="m248.5 164.999c124.25 4.647 130.474 68.771 248.5-9.293-103.218-135.997-191.465-96.663-229.081-68.561-11.539 8.62-27.299 8.62-38.838 0-37.616-28.102-125.863-67.436-229.081 68.561 118.026 78.064 124.25 13.94 248.5 9.293z" fill="#ff748f"/></g></svg>