<svg id="Capa_1" enable-background="new 0 0 497 497" height="512" viewBox="0 0 497 497" width="512" xmlns="http://www.w3.org/2000/svg"><g><g><path d="m144.249 433.859h-59.564c-43.81 0-79.451-35.641-79.451-79.451s35.641-79.452 79.451-79.452 79.451 35.641 79.451 79.451v59.565c0 10.984-8.904 19.887-19.887 19.887zm-59.564-119.13c-21.879 0-39.678 17.8-39.678 39.678 0 21.879 17.799 39.679 39.678 39.679h39.678v-39.679c-.001-21.878-17.8-39.678-39.678-39.678z" fill="#b2b0bc"/></g><path d="m331.376 9.232c-14.767-12.309-36.409-12.309-51.176 0-29.939 24.956-48.994 62.527-48.994 104.551 0 53.019 30.329 98.95 74.582 121.402 44.253-22.452 74.582-68.383 74.582-121.402-.001-42.024-19.055-79.595-48.994-104.551z" fill="#f9d888"/><path d="m322.703 96.759c-7.678-12.827-26.154-12.827-33.831 0-8.375 13.992-12.921 30.12-12.921 46.853 0 26.235 11.033 50.531 29.838 67.578 18.804-17.047 29.837-41.343 29.837-67.578-.002-16.732-4.548-32.86-12.923-46.853z" fill="#ffa875"/><path d="m423.248 388.927c-12.702-19.729-20.253-42.33-21.962-65.732l-3.084-42.247-31.417-67.075h-128.543l-25.585 76.888-2.368 32.433c-1.709 23.403-9.26 46.003-21.962 65.732l-9.716 15.092h254.354z" fill="#bc9bdd"/><path d="m127.134 356.502c-.93 0-1.853.026-2.772.07v37.514h-39.677c-3.691 0-7.262-.518-10.655-1.465-2.585 6.51-4.022 13.597-4.022 21.018 0 6.679 1.159 13.222 3.393 19.405 3.688.527 7.453.815 11.284.815h59.564c10.983 0 19.887-8.903 19.887-19.886v-57.471z" fill="#a19dae"/><path d="m235.001 284.735c0-25.097 2.632-49.025 8.528-70.861h-5.287l-25.585 76.888-2.368 32.433c-1.709 23.403-9.26 46.003-21.962 65.732l-9.716 15.092h104.385c-28.409-32.263-47.995-73.865-47.995-119.284z" fill="#b08bd7"/><path d="m464.639 386.502h-168.752-168.753c-14.989 0-27.127 12.147-27.127 27.137 0 5.594 1.713 10.901 4.733 15.326 3.019 4.416 7.336 7.94 12.553 9.95 21.177 8.148 34.85 20.82 43.482 32.245 12.268 16.266 31.435 25.84 51.81 25.84h83.302 83.302c20.375 0 39.542-9.574 51.809-25.84 8.633-11.425 22.305-24.097 43.482-32.245 5.218-2.01 9.534-5.535 12.553-9.95 3.02-4.425 4.733-9.732 4.733-15.326 0-14.99-12.137-27.137-27.127-27.137z" fill="#f9d888"/><g><g><path d="m217.51 457.471c-4.142 0-7.5-3.358-7.5-7.5v-15.061c0-4.142 3.358-7.5 7.5-7.5s7.5 3.358 7.5 7.5v15.061c0 4.142-3.358 7.5-7.5 7.5z" fill="#423e4f"/></g><g><path d="m374.263 457.471c-4.142 0-7.5-3.358-7.5-7.5v-15.061c0-4.142 3.358-7.5 7.5-7.5s7.5 3.358 7.5 7.5v15.061c0 4.142-3.358 7.5-7.5 7.5z" fill="#423e4f"/></g><g><path d="m295.887 466.436c-10.087 0-19.679-4.369-26.318-11.986-2.721-3.123-2.396-7.86.727-10.582 3.123-2.721 7.859-2.396 10.582.727 3.789 4.348 9.26 6.841 15.009 6.841s11.22-2.494 15.009-6.841c2.721-3.123 7.459-3.447 10.582-.727 3.123 2.722 3.448 7.459.727 10.582-6.639 7.618-16.231 11.986-26.318 11.986z" fill="#423e4f"/></g></g><path d="m363.266 187.585h-114.957c-24.448 0-44.266 19.819-44.266 44.266v41.016c0 12.652 10.256 22.908 22.908 22.908s22.908-10.256 22.908-22.908v-27.133c0-9.118 7.392-16.51 16.51-16.51 9.118 0 16.51 7.392 16.51 16.51v44.969c0 12.652 10.256 22.908 22.908 22.908s22.908-10.256 22.908-22.908v-34.602c0-9.118 7.392-16.51 16.51-16.51 9.118 0 16.51 7.392 16.51 16.51v6.398c0 12.652 10.256 22.908 22.908 22.908 12.652 0 22.908-10.256 22.908-22.908v-30.649c.001-24.447-19.818-44.265-44.265-44.265z" fill="#e8e8e8"/><path d="m235.001 284.735c0-35.618 5.292-68.888 17.716-97.15h-4.407c-24.448 0-44.266 19.819-44.266 44.266v41.016c0 12.652 10.256 22.908 22.908 22.908 2.942 0 5.751-.561 8.334-1.571-.188-3.136-.285-6.293-.285-9.469z" fill="#e0e0e0"/><path d="m251.062 167.363c0-64.61 38.719-120.168 94.215-144.762-4.315-4.774-8.956-9.247-13.901-13.369-14.767-12.309-36.409-12.309-51.176 0-29.939 24.956-48.993 62.527-48.993 104.551 0 26.71 7.704 51.616 21.001 72.632-.751-6.247-1.146-12.603-1.146-19.052z" fill="#f5c956"/><g><path d="m188.739 400.919c0-4.867.246-9.676.724-14.417h-62.329c-14.989 0-27.127 12.147-27.127 27.137 0 5.594 1.713 10.901 4.733 15.326 3.019 4.416 7.336 7.94 12.553 9.95 21.177 8.148 34.85 20.82 43.482 32.245 12.268 16.266 31.435 25.84 51.81 25.84h13.619c-23.258-25.282-37.465-59.021-37.465-96.081z" fill="#f5c956"/></g></g></svg>