<svg id="Capa_1" enable-background="new 0 0 497 497" height="512" viewBox="0 0 497 497" width="512" xmlns="http://www.w3.org/2000/svg"><g><path d="m166.622 106.288-29.747 61.765h223.25l-29.747-61.765-81.878-47.234z" fill="#bc9bdd"/><path d="m206.622 119.793c0-13.46 1.534-26.561 4.436-39.139l-44.436 25.635-29.747 61.765h76.559c-4.43-15.322-6.812-31.512-6.812-48.261z" fill="#b08bd7"/><path d="m330.378 106.288c-25.816-5.53-53.526-8.442-81.878-8.442s-56.062 2.913-81.878 8.442l37.894-78.66c8.137-16.884 25.236-27.628 43.984-27.628s35.847 10.744 43.984 27.629z" fill="#5c586f"/><path d="m254.318.354c-1.916-.23-3.857-.354-5.818-.354-18.748 0-35.847 10.744-43.984 27.629l-37.894 78.66c13.27-2.843 27.044-4.988 41.145-6.407 4.389-38.38 21.295-72.955 46.551-99.528z" fill="#4f4c5f"/><ellipse cx="248.5" cy="242.064" fill="#4f4c5f" rx="183.336" ry="93.301"/><path d="m391.476 358.047c35.125 0 63.599 31.106 63.599 69.477 0 9.798-1.866 19.116-5.216 27.569 12.525 2.407 21.99 13.418 21.99 26.645 0 8.429-6.833 15.262-15.262 15.262h-65.111c-35.125 0-63.599-31.106-63.599-69.477s28.475-69.476 63.599-69.476z" fill="#8bdf9e"/><path d="m105.524 358.047c-35.125 0-63.599 31.106-63.599 69.477 0 9.798 1.866 19.116 5.216 27.569-12.525 2.407-21.99 13.418-21.99 26.645 0 8.429 6.833 15.262 15.262 15.262h65.111c35.125 0 63.599-31.106 63.599-69.477s-28.475-69.476-63.599-69.476z" fill="#8bdf9e"/><path d="m438.651 386.709c0-1.981-.05-3.956-.122-5.929-11.633-13.966-28.405-22.733-47.052-22.733-35.125 0-63.599 31.106-63.599 69.477 0 36.305 25.495 66.088 57.99 69.192 3.933-3.349 7.832-6.946 11.692-10.805 26.498-26.498 41.091-61.728 41.091-99.202z" fill="#73d98b"/><path d="m173.099 497c-48.597-11.518-84.75-58.17-84.75-110.291 0-19.41 4.175-37.853 11.691-54.473 7.506-16.61 18.341-31.397 31.651-43.515 10.306-9.379 16.141-22.71 16.141-36.651v-7.444c0-27.802 22.537-50.339 50.328-50.339 27.802 0 50.339 22.537 50.339 50.339 0-27.802 22.537-50.339 50.339-50.339 13.901 0 26.478 5.632 35.582 14.746 9.115 9.104 14.746 21.691 14.746 35.592v7.444c0 13.942 5.835 27.272 16.141 36.651 26.62 24.227 43.342 59.158 43.342 97.988 0 30.46-12.343 58.027-32.303 77.988-14.196 14.196-32.252 27.517-52.447 32.303l-75.399-48.341z" fill="#8bdf9e"/><g><g><path d="m184.904 282.74c-4.143 0-7.5-3.358-7.5-7.5v-12.221c0-4.142 3.357-7.5 7.5-7.5s7.5 3.358 7.5 7.5v12.221c0 4.142-3.358 7.5-7.5 7.5z" fill="#423e4f"/></g><g><path d="m312.096 282.74c-4.143 0-7.5-3.358-7.5-7.5v-12.221c0-4.142 3.357-7.5 7.5-7.5s7.5 3.358 7.5 7.5v12.221c0 4.142-3.357 7.5-7.5 7.5z" fill="#423e4f"/></g><g><path d="m248.5 290.014c-8.594 0-16.766-3.722-22.422-10.21-2.721-3.123-2.396-7.86.727-10.582 3.122-2.722 7.859-2.397 10.582.726 2.806 3.219 6.856 5.066 11.113 5.066 4.256 0 8.307-1.847 11.112-5.066 2.722-3.124 7.46-3.448 10.582-.726 3.123 2.722 3.447 7.459.727 10.582-5.656 6.489-13.828 10.21-22.421 10.21z" fill="#423e4f"/></g></g><path d="m349.401 426.986c0 25.734-9.634 49.218-25.5 67.04-8.198 1.945-16.752 2.974-25.541 2.974h-99.72c-8.789 0-17.343-1.029-25.541-2.974-15.866-17.822-25.5-41.305-25.5-67.04 0-55.726 45.175-100.911 100.901-100.911s100.901 45.186 100.901 100.911z" fill="#b9ebc2"/><g fill="#73d98b"><path d="m328.798 441.626c22.809 0 41.298 18.49 41.298 41.298 0 7.774-6.302 14.075-14.075 14.075h-54.446c-7.774 0-14.075-6.302-14.075-14.075 0-22.808 18.49-41.298 41.298-41.298z"/><path d="m168.202 441.626c-22.809 0-41.298 18.49-41.298 41.298 0 7.774 6.302 14.075 14.075 14.075h54.446c7.774 0 14.075-6.302 14.075-14.075 0-22.808-18.49-41.298-41.298-41.298z"/><path d="m126.022 378.284c0-74.497 38.696-139.957 97.084-177.375-7.355-4.206-15.865-6.622-24.945-6.622-27.792 0-50.328 22.537-50.328 50.339v7.444c0 13.942-5.835 27.272-16.141 36.652-13.31 12.119-24.146 26.906-31.651 43.515-7.516 16.62-11.691 35.063-11.691 54.473 0 47.302 29.778 90.095 71.609 106.214-21.46-32.987-33.937-72.354-33.937-114.64z"/></g><path d="m139.703 453.052c-7.881 7.521-12.799 18.119-12.799 29.873 0 7.774 6.302 14.075 14.075 14.075h21.699c-9.297-13.589-17.037-28.324-22.975-43.948z" fill="#55d47b"/></g></svg>