<svg id="Capa_1" enable-background="new 0 0 497 497" height="512" viewBox="0 0 497 497" width="512" xmlns="http://www.w3.org/2000/svg"><g><path d="m248.5 397.415-11.633 24.042 11.633 26.684 30.328 24.43 30.328-24.43v-50.726l-30.328-27.072z" fill="#5c586f"/><path d="m248.5 397.415v50.726l-30.328 24.43-30.328-24.43v-50.726l30.328-27.072z" fill="#6a647f"/><path d="m335.45 375.214 18.393 9.334c12.043 6.105 26.834 1.345 32.988-10.777 6.124-12.092 1.305-26.854-10.787-32.988l-18.393-9.334-19.382 17.713z" fill="#ffd3bc"/><path d="m161.55 375.214-18.393 9.334c-12.043 6.105-26.834 1.345-32.988-10.777-6.124-12.092-1.305-26.854 10.787-32.988l18.393-9.334 22.201 15.605z" fill="#ffd3bc"/><path d="m88.404 39.832c8.028-13.751 17.318-24.542 24.75-32.003 8.306-8.346 21.153-10.284 31.437-4.531 13.274 7.422 31.159 21.412 43.251 46.48l-45.665 76.327z" fill="#e8a882"/><path d="m207.857 296.694-68.509 34.755 22.202 43.765 26.297-13.341v35.541h121.306v-35.541l26.297 13.341 22.202-43.765-68.509-34.755z" fill="#e3986d"/><path d="m297.23 296.694 25.61 87.53c3.091 10.566-4.831 21.139-15.84 21.139h-21.303c-9.115 0-16.504-7.389-16.504-16.504v-92.164h28.037z" fill="#8bdf9e"/><path d="m205.646 430.476c0-20.614 6.856-39.624 18.406-54.884l-5.881-5.249-30.328 27.071v50.727l26.607 21.432c-5.642-11.846-8.804-25.101-8.804-39.097z" fill="#5c586f"/><path d="m199.77 296.694-25.61 87.53c-3.091 10.566 4.831 21.139 15.84 21.139h21.303c9.115 0 16.504-7.389 16.504-16.504v-92.164h-28.037z" fill="#8bdf9e"/><path d="m408.596 39.832c-8.028-13.751-17.318-24.542-24.75-32.003-8.306-8.346-21.153-10.284-31.437-4.531-13.274 7.422-31.159 21.412-43.251 46.48l45.665 76.327z" fill="#e8a882"/><path d="m107.891 71.098 34.285 55.007 45.665-76.327c-4.929-10.219-10.821-18.596-16.971-25.438-17.476 7.618-33.505 17.873-47.448 30.553-5.594 5.088-10.771 10.505-15.531 16.205z" fill="#e3986d"/><path d="m373.521 54.843c-13.932-12.661-29.939-22.9-47.388-30.507-6.151 6.843-12.044 15.221-16.974 25.442l45.665 76.327 34.283-55.004c-4.775-5.72-9.97-11.155-15.586-16.258z" fill="#e3986d"/><path d="m354.823 126.105 40.896 68.359c45.417-66.491 33.126-119.975 12.877-154.631-30.374 17.456-51.408 49.321-53.773 86.272z" fill="#ffd3bc"/><path d="m142.177 126.105-40.896 68.359c-45.417-66.491-33.126-119.976-12.877-154.632 30.374 17.457 51.408 49.322 53.773 86.273z" fill="#ffd3bc"/><path d="m74.614 138.157c4.573 17.487 13.007 36.308 26.667 56.307l40.896-68.359c-1.56-24.374-11.246-46.531-26.374-63.803-20.513 21.222-34.558 47.209-41.189 75.855z" fill="#ffbe9c"/><path d="m354.823 126.105 40.896 68.359c13.66-19.998 22.094-38.817 26.666-56.303-6.632-28.645-20.677-54.631-41.19-75.856-15.126 17.271-24.812 39.427-26.372 63.8z" fill="#ffbe9c"/><path d="m201.644 356.896c0-23.738 10.073-45.114 26.162-60.122v-.08h-28.036l-25.61 87.53c-3.091 10.566 4.832 21.139 15.84 21.139h21.302c1.925 0 3.765-.346 5.482-.952-9.523-13.42-15.14-29.807-15.14-47.515z" fill="#73d98b"/><path d="m100.236 176.971c-.001 81.838 66.282 138.373 148.12 138.45 81.952.078 148.408-56.515 148.408-138.449s-66.456-138.527-148.408-138.449c-81.838.078-148.121 56.612-148.12 138.45z" fill="#e8a882"/><path d="m350.049 145.7c-4.999-15.13-19.868-24.952-35.749-23.653-17.788 1.455-32.492 7.641-43.455 14.196-13.798 8.251-30.892 8.251-44.69 0-10.788-6.451-25.198-12.544-42.605-14.123-16.519-1.499-31.836 8.647-36.88 24.448-2.974 9.317-4.493 19.318-4.493 29.854 0 27.321 10.202 51.04 29.514 68.597 19.577 17.802 46.816 27.627 76.708 27.657h.122c29.902 0 57.161-9.814 76.759-27.616 19.332-17.568 29.544-41.297 29.544-68.628-.001-10.867-1.614-21.165-4.775-30.732z" fill="#ffd3bc"/><g fill="#423e4f"><path d="m198.446 166.215-20.988-3.701c-4.08-.715-7.969 2.004-8.688 6.084-.72 4.079 2.004 7.969 6.083 8.688l20.988 3.701c.441.078.879.115 1.312.115 3.571 0 6.735-2.561 7.377-6.199.719-4.079-2.005-7.969-6.084-8.688z"/><path d="m328.231 168.598c-.719-4.08-4.613-6.8-8.688-6.084l-20.988 3.701c-4.079.719-6.803 4.609-6.083 8.688.642 3.639 3.806 6.199 7.377 6.199.433 0 .871-.038 1.312-.115l20.988-3.701c4.078-.719 6.802-4.609 6.082-8.688z"/><path d="m277.225 194.902c-4.143 0-7.5 3.358-7.5 7.5 0 3.784-3.078 6.863-6.862 6.863s-6.863-3.079-6.863-6.863c0-4.142-3.357-7.5-7.5-7.5s-7.5 3.358-7.5 7.5c0 3.784-3.078 6.863-6.862 6.863s-6.863-3.079-6.863-6.863c0-4.142-3.357-7.5-7.5-7.5s-7.5 3.358-7.5 7.5c0 12.055 9.808 21.863 21.863 21.863 5.494 0 10.518-2.042 14.362-5.401 3.845 3.359 8.869 5.401 14.363 5.401 12.055 0 21.862-9.808 21.862-21.863 0-4.142-3.357-7.5-7.5-7.5z"/><path d="m185.476 181.125c-4.143 0-7.5 3.358-7.5 7.5v11.923c0 4.142 3.357 7.5 7.5 7.5s7.5-3.358 7.5-7.5v-11.923c0-4.142-3.357-7.5-7.5-7.5z"/><path d="m311.524 181.125c-4.143 0-7.5 3.358-7.5 7.5v11.923c0 4.142 3.357 7.5 7.5 7.5s7.5-3.358 7.5-7.5v-11.923c0-4.142-3.357-7.5-7.5-7.5z"/></g><path d="m248.5 448.141v18.531c0 16.738-13.564 30.328-30.328 30.328-16.744 0-30.328-13.574-30.328-30.328v-18.531z" fill="#e8a882"/><path d="m248.5 448.141v18.531c0 16.738 13.564 30.328 30.328 30.328 16.744 0 30.328-13.574 30.328-30.328v-18.531z" fill="#e3986d"/><path d="m163.372 178.371c0-20.657 5.795-39.959 15.844-56.375-14.805.463-27.947 10.165-32.546 24.573-2.974 9.317-4.493 19.318-4.493 29.854 0 27.321 10.202 51.04 29.514 68.597 10.408 9.464 22.981 16.673 36.966 21.355-27.416-19.617-45.285-51.723-45.285-88.004z" fill="#ffbe9c"/><path d="m207.365 448.142h-19.521v18.531c0 16.754 13.584 30.328 30.328 30.328 4.759 0 9.259-1.098 13.265-3.049-12.051-12.384-20.605-28.183-24.072-45.81z" fill="#e3986d"/></g></svg>