<svg id="Capa_1" enable-background="new 0 0 511.999 511.999" height="512" viewBox="0 0 511.999 511.999" width="512" xmlns="http://www.w3.org/2000/svg"><g><g><path d="m288.28 301.836c-4.142 0-7.5 3.358-7.5 7.5v12.931c0 4.142 3.358 7.5 7.5 7.5s7.5-3.358 7.5-7.5v-12.931c0-4.142-3.358-7.5-7.5-7.5z"/><path d="m422.868 301.836c-4.142 0-7.5 3.358-7.5 7.5v12.931c0 4.142 3.358 7.5 7.5 7.5s7.5-3.358 7.5-7.5v-12.931c0-4.142-3.358-7.5-7.5-7.5z"/><path d="m378.243 316.228c-3.123-2.721-7.86-2.396-10.582.727-3.052 3.502-7.458 5.51-12.087 5.51-4.63 0-9.036-2.008-12.087-5.51-2.721-3.123-7.459-3.448-10.582-.727s-3.448 7.458-.727 10.582c5.901 6.771 14.428 10.655 23.396 10.655 8.967 0 17.495-3.884 23.396-10.655 2.721-3.123 2.397-7.861-.727-10.582z"/><path d="m89.131 142.66c-4.142 0-7.5 3.358-7.5 7.5v12.931c0 4.142 3.358 7.5 7.5 7.5s7.5-3.358 7.5-7.5v-12.931c0-4.142-3.358-7.5-7.5-7.5z"/><path d="m223.72 142.66c-4.142 0-7.5 3.358-7.5 7.5v12.931c0 4.142 3.358 7.5 7.5 7.5s7.5-3.358 7.5-7.5v-12.931c0-4.142-3.358-7.5-7.5-7.5z"/><path d="m179.095 157.052c-3.123-2.722-7.861-2.396-10.582.727-3.052 3.501-7.458 5.51-12.087 5.51s-9.036-2.008-12.087-5.51c-2.722-3.123-7.459-3.448-10.582-.727s-3.448 7.459-.727 10.582c5.901 6.771 14.429 10.655 23.396 10.655s17.495-3.883 23.396-10.655c2.72-3.123 2.395-7.86-.727-10.582z"/><path d="m111.828 345.919h89.191c2.937 0 5.875-.117 8.804-.347-6.501 13.775-10.07 28.492-10.603 43.752v.01c-2.233 63.311 48.416 115.761 111.757 115.761h89.191c23.111 0 45.308-7.011 64.193-20.275 3.39-2.38 4.208-7.059 1.827-10.448s-7.059-4.207-10.448-1.826c-16.347 11.481-35.563 17.55-55.572 17.55h-89.191c-52.592 0-94.835-41.717-96.759-93.009h282.708c-.792 20.673-7.979 40.083-20.906 56.347-2.577 3.243-2.038 7.96 1.205 10.538 3.242 2.577 7.96 2.038 10.538-1.205 28.031-35.268 30.69-81.177 13.417-117.501-.686-1.445-59.118-124.412-59.191-124.566-15.754-33.181-49.677-54.62-86.422-54.62-19.907 0-38.981 6.308-54.796 17.359-.072-.152-57.857-121.759-57.931-121.915-15.755-33.181-49.678-54.62-86.422-54.62-12.992 0-25.651 2.598-37.626 7.723-3.808 1.629-5.574 6.038-3.945 9.846 1.63 3.808 6.037 5.574 9.846 3.944 10.099-4.321 20.772-6.513 31.725-6.513 30.984 0 59.588 18.077 72.874 46.056l22.308 46.943h-190.355l22.3-46.945c4.345-9.14 10.3-17.292 17.701-24.227 3.022-2.833 3.177-7.579.344-10.601s-7.579-3.176-10.601-.344c-8.776 8.224-15.839 17.891-20.993 28.734l-59.179 124.566c-6.592 13.862-10.208 28.684-10.745 44.053v.005c-2.237 63.184 48.289 115.775 111.756 115.775zm384.531 36.166h-281.569c1.21-10.543 4.133-20.732 8.724-30.384 6.02-12.671 23.138-48.699 29.755-62.625h204.609l29.756 62.627c4.596 9.665 7.519 19.854 8.725 30.382zm-67.918-154.952 22.308 46.943h-190.355c24.519-51.614 24.044-51.566 29.737-59.478 15-20.722 39.38-33.521 65.437-33.521 30.985 0 59.589 18.077 72.873 46.056zm-404.077-34.607 29.755-62.625h204.609l29.757 62.628c.109.23.218.461.326.695-8.786 8.538-15.479 18.66-20.717 29.686h-252.454c1.211-10.543 4.134-20.732 8.724-30.384zm236.605 45.384-43.525 91.613c-5.413.927-10.922 1.396-16.424 1.396h-89.191c-52.557 0-94.834-41.682-96.759-93.009z"/></g></g></svg>