<svg id="Capa_1" enable-background="new 0 0 512 512" height="512" viewBox="0 0 512 512" width="512" xmlns="http://www.w3.org/2000/svg"><g><g><path d="m354.454 87.233c2.193-3.514 1.123-8.14-2.391-10.333-26.102-16.293-57.238-24.905-90.043-24.905-42.776 0-82.402 14.623-111.579 41.176-30.036 27.335-46.578 65.396-46.578 107.173 0 44.619 36.3 80.918 80.918 80.918h2.666c1.544 0 2.8 1.256 2.8 2.8 0 19.908 16.196 36.104 36.104 36.104h71.339c19.908 0 36.104-16.196 36.104-36.104 0-1.544 1.256-2.8 2.8-2.8h2.665c44.619 0 80.919-36.3 80.919-80.919 0-40.078-15.374-77.039-43.289-104.074-2.976-2.882-7.724-2.805-10.605.17-2.881 2.976-2.806 7.724.17 10.605 25.334 24.535 38.725 56.797 38.725 93.299 0 36.348-29.571 65.918-65.919 65.918h-2.665c-9.815 0-17.8 7.985-17.8 17.8 0 11.637-9.467 21.104-21.104 21.104h-6.231v-29.125c0-4.142-3.358-7.5-7.5-7.5s-7.5 3.358-7.5 7.5v29.126h-28.877v-29.126c0-4.142-3.358-7.5-7.5-7.5s-7.5 3.358-7.5 7.5v29.126h-6.231c-11.637 0-21.104-9.467-21.104-21.104 0-9.815-7.985-17.8-17.8-17.8h-2.666c-36.348 0-65.918-29.571-65.918-65.919 0-37.5 14.8-71.622 41.674-96.079 26.409-24.034 62.449-37.27 101.482-37.27 29.994 0 58.384 7.825 82.101 22.629 3.514 2.195 8.14 1.124 10.333-2.39z"/><path d="m179.219 223.273v14.47c0 4.142 3.358 7.5 7.5 7.5s7.5-3.358 7.5-7.5v-14.47c0-4.142-3.358-7.5-7.5-7.5s-7.5 3.358-7.5 7.5z"/><path d="m337.32 215.773c-4.142 0-7.5 3.358-7.5 7.5v14.47c0 4.142 3.358 7.5 7.5 7.5s7.5-3.358 7.5-7.5v-14.47c0-4.142-3.358-7.5-7.5-7.5z"/><path d="m96.902 512h288.275c27.786 0 52.416-18.795 59.895-45.706 7.988-28.743 12.039-58.443 12.039-88.276v-182.927c0-107.573-87.518-195.091-195.091-195.091h-149.207c-31.921 0-49.943 36.693-30.414 61.942 5.655 7.311 12.095 14.73 19.193 22.114-22.701 32.699-34.664 70.948-34.664 111.035v103.17c0 4.142 3.358 7.5 7.5 7.5s7.5-3.358 7.5-7.5v-103.17c0-38.993 12.26-76.099 35.454-107.308 2.219-2.986 1.914-7.146-.716-9.777-8.434-8.434-15.971-16.926-22.401-25.24-11.889-15.372-1.028-37.766 18.548-37.766h149.207c99.302 0 180.091 80.789 180.091 180.091v182.927c0 28.475-3.866 56.824-11.491 84.259-5.682 20.445-24.368 34.723-45.442 34.723h-288.276c-17.806 0-30.667-16.895-26.063-34.195 15.576-58.525 9.835-98.731 11.09-134.773 0-4.142-3.358-7.5-7.5-7.5s-7.5 3.358-7.5 7.5c-1.239 36.365 4.357 74.765-10.585 130.916-7.141 26.829 12.907 53.052 40.558 53.052z"/><path d="m223.017 477.036h78.005c22.14 0 40.152-18.012 40.152-40.152v-15.17h12.13c17.993 0 32.631-14.638 32.631-32.631s-14.638-32.631-32.631-32.631h-13.174c-3.351-11.992-12.577-16.312-14.034-17.682-9.717-6.951-22.838-6.94-32.652.027-4.528 3.215-10.603 3.203-15.118-.027-9.753-6.978-22.86-6.978-32.613 0-4.516 3.23-10.592 3.241-15.119.027-9.814-6.968-22.936-6.979-32.651-.027-1.442 1.355-10.681 5.682-14.034 17.682h-13.174c-17.993 0-32.631 14.638-32.631 32.631s14.638 32.631 32.631 32.631h12.13v15.17c0 22.139 18.012 40.152 40.152 40.152zm147.918-87.953c0 9.722-7.909 17.631-17.631 17.631-3.304 0-16.191 0-20.832 0-9.701 0-17.631-7.889-17.631-17.631 0-9.722 7.909-17.631 17.631-17.631h20.832c9.722-.001 17.631 7.908 17.631 17.631zm-164.264-38.114c4.516-3.23 10.639-3.207 15.24.059 9.741 6.916 22.813 6.892 32.53-.059 4.534-3.243 10.625-3.243 15.158 0 9.717 6.952 22.79 6.975 32.53.059 4.6-3.266 10.725-3.29 15.24-.059 2.35 1.874 5.016 2.946 7.058 6.486-13.551 3.21-24.585 16.348-24.585 31.627 0 15.764 11.221 28.999 26.333 32.021v15.78c0 13.869-11.283 25.152-25.152 25.152h-78.005c-13.869 0-25.152-11.283-25.152-25.152v-15.78c15.259-3.052 26.333-16.388 26.333-32.021 0-15.385-10.763-28.219-24.584-31.627 2.001-3.473 4.838-4.718 7.056-6.486zm-53.567 38.113c0-9.722 7.909-17.631 17.631-17.631h20.832c9.722 0 17.631 7.909 17.631 17.631s-7.909 17.631-17.631 17.631c-2.44 0-15.642 0-20.832 0-9.722 0-17.631-7.909-17.631-17.631z"/></g></g></svg>