<svg id="Capa_1" enable-background="new 0 0 512.012 512.012" height="512" viewBox="0 0 512.012 512.012" width="512" xmlns="http://www.w3.org/2000/svg"><g><g><path d="m176.038 417.482v-16.808c0-4.143-3.358-7.5-7.5-7.5s-7.5 3.357-7.5 7.5v16.808c0 4.142 3.358 7.5 7.5 7.5s7.5-3.358 7.5-7.5z"/><path d="m350.974 417.482v-16.808c0-4.143-3.358-7.5-7.5-7.5s-7.5 3.357-7.5 7.5v16.808c0 4.142 3.358 7.5 7.5 7.5s7.5-3.358 7.5-7.5z"/><path d="m247.403 444.256h17.206c6.15 0 11.823-3.341 14.805-8.72 2.982-5.378 2.811-11.959-.447-17.176l-8.603-13.775c-3.113-4.985-8.481-7.961-14.359-7.961-5.877 0-11.245 2.977-14.358 7.961l-8.603 13.775c-3.258 5.216-3.429 11.798-.447 17.176 2.984 5.379 8.656 8.72 14.806 8.72zm-1.635-17.95 8.603-13.775c.468-.75 1.148-.907 1.636-.907s1.167.157 1.636.907l8.603 13.775c.497.796.302 1.503.051 1.956s-.748.994-1.687.994h-17.206c-.938 0-1.435-.54-1.686-.993-.252-.453-.447-1.16.05-1.957z"/><path d="m417.486 420.72c3.686 1.964 8.214.535 10.146-3.089 7.114-13.341 10.875-28.415 10.875-43.592 0-59.883-28.928-111.797-79.451-142.898-3.505-10.193-8.502-19.819-14.881-28.415-11.238-15.143-20.114-34.401-26.38-57.24-4.277-15.588-18.491-26.476-34.565-26.476h-19.723v-17.47c20.629-3.312 35.971-18.785 35.971-43.753 0-17.701-6.738-34.494-18.974-47.284-13.371-13.977-35.572-14.03-48.993 0-12.236 12.79-18.974 29.582-18.974 47.284 0 24.919 15.288 40.433 35.971 43.753v17.47h-19.723c-16.075 0-30.289 10.887-34.566 26.476-6.266 22.839-15.141 42.098-26.38 57.24-6.377 8.593-11.372 18.214-14.877 28.403-19.795 12.187-36.439 27.708-49.484 46.188-2.389 3.384-1.582 8.063 1.802 10.453 3.383 2.389 8.063 1.582 10.452-1.802 8.919-12.635 19.697-23.763 32.168-33.233-.031.243-.051.487-.08.73-.002.014-.003.027-.005.041-1.023 8.614-.738 13.512-.767 30.211 0 16.206 13.235 29.13 29.13 29.13 16.063 0 29.13-13.067 29.13-29.13v-17.23c0-5.947 4.838-10.785 10.785-10.785s10.785 4.837 10.785 10.785v56.861c0 16.206 13.237 29.13 29.13 29.13 16.063 0 29.13-13.068 29.13-29.13v-37.047c0-5.956 4.846-10.785 10.785-10.785 5.946 0 10.785 4.838 10.785 10.785v27.138c0 16.062 13.067 29.13 29.13 29.13 16.062 0 29.129-13.068 29.129-29.13v-47.127c-.006-.113.048-5.974-.77-12.838-.03-.249-.051-.499-.082-.747 37.968 28.793 59.395 72.103 59.395 121.313 0 12.724-3.15 25.357-9.11 36.533-1.952 3.655-.569 8.198 3.086 10.147zm-189.951-362.933c0-13.82 5.261-26.93 14.813-36.915 7.469-7.808 19.819-7.836 27.315 0 9.552 9.985 14.813 23.095 14.813 36.915 0 15.84-8.481 25.507-20.971 28.481v-25.263c0-4.142-3.358-7.5-7.5-7.5s-7.5 3.358-7.5 7.5v25.263c-12.411-2.956-20.97-12.561-20.97-28.481zm68.386 202.729c-14.187 0-25.785 11.536-25.785 25.785v37.045c0 7.791-6.338 14.13-14.129 14.13-7.631 0-14.129-6.235-14.129-14.13v-56.861c0-14.24-11.603-25.785-25.785-25.785-14.218 0-25.785 11.567-25.785 25.785v17.23c0 7.791-6.338 14.13-14.129 14.13-7.742 0-14.129-6.304-14.129-14.13.013-16.502-.203-21.243.66-28.447.335-1.327 1.692-22.738 17.175-43.603 12.351-16.642 22.041-37.572 28.8-62.211 2.496-9.093 10.761-15.444 20.101-15.444h54.446c9.339 0 17.604 6.351 20.1 15.444 6.76 24.638 16.45 45.569 28.8 62.211 10.926 14.722 17.618 33.293 17.836 54.646v47.127c0 7.77-6.317 14.129-14.129 14.129-7.799 0-14.13-6.347-14.13-14.129v-27.137c-.004-14.218-11.57-25.785-25.788-25.785z"/><path d="m97.312 301.902c-3.796-1.658-8.217.075-9.875 3.871-9.245 21.165-13.932 44.133-13.932 68.267 0 51.16 41.622 92.782 92.782 92.782h3.096c2.461 0 4.464 2.002 4.464 4.464 0 22.456 18.27 40.726 40.726 40.726h82.867c22.456 0 40.725-18.27 40.725-40.726 0-2.461 2.002-4.464 4.464-4.464 1.574-.274 34.911 3.021 64.66-23.391 3.098-2.75 3.379-7.49.629-10.588-2.75-3.097-7.49-3.379-10.588-.629-14.242 12.644-32.568 19.607-51.605 19.607h-3.096c-10.733 0-19.464 8.731-19.464 19.464 0 14.185-11.54 25.726-25.725 25.726h-8.45v-35.045c0-4.142-3.358-7.5-7.5-7.5s-7.5 3.358-7.5 7.5v35.045h-35.967v-35.045c0-4.142-3.358-7.5-7.5-7.5s-7.5 3.358-7.5 7.5v35.045h-8.45c-14.185 0-25.726-11.541-25.726-25.726 0-10.732-8.731-19.464-19.464-19.464h-3.096c-42.889 0-77.782-34.893-77.782-77.783 0-22.054 4.266-43.002 12.678-62.262 1.658-3.795-.075-8.216-3.871-9.874z"/></g></g></svg>