<svg id="Capa_1" enable-background="new 0 0 512.001 512.001" height="512" viewBox="0 0 512.001 512.001" width="512" xmlns="http://www.w3.org/2000/svg"><g><g><path d="m176.906 151.641c-4.142 0-7.5 3.358-7.5 7.5v14.964c0 4.142 3.358 7.5 7.5 7.5s7.5-3.358 7.5-7.5v-14.964c0-4.142-3.358-7.5-7.5-7.5z"/><path d="m335.098 151.641c-4.142 0-7.5 3.358-7.5 7.5v14.964c0 4.142 3.358 7.5 7.5 7.5s7.5-3.358 7.5-7.5v-14.964c0-4.142-3.358-7.5-7.5-7.5z"/><path d="m88.616 17.331c2.515-3.069 7.204-3.092 9.937-.175 9.061 9.672 20.161 18.924 32.098 26.757 3.463 2.271 8.113 1.307 10.385-2.157 2.272-3.463 1.307-8.113-2.157-10.385-13.846-9.085-23.619-18.321-29.38-24.471-9.034-9.642-24.456-9.088-32.623 1.091-.107.134-.189.242-.27.351-8.87 12.044-14.377 23.982-16.369 35.482-3.018 17.428 2.184 33.21 15.461 46.907 8.403 8.668 19.956 16.339 34.389 22.853-18.395 20.564-27.709 47.429-27.709 80.042 0 29.869 12.324 59.579 34.404 84.124-29.029 16.485-47.279 47.344-47.279 81.283 0 47.328 43.4 86.17 90.298 92.547 3.38 2.792 6.979 5.413 10.793 7.854-6.279 7.615-10.055 17.367-10.055 27.985 0 13.555 11.027 24.582 24.581 24.582h38.947c13.554 0 24.582-11.027 24.582-24.582 0-1.999-.146-3.962-.406-5.891 2.581.098 5.17.158 7.758.158s5.176-.061 7.757-.158c-.259 1.929-.406 3.893-.406 5.891 0 13.555 11.027 24.582 24.582 24.582h38.947c13.554 0 24.582-11.027 24.582-24.582 0-10.611-3.772-20.358-10.045-27.971 3.844-2.451 7.464-5.081 10.864-7.878 47.056-6.438 90.216-45.391 90.216-92.536 0-33.939-18.25-64.798-47.28-81.283 22.081-24.546 34.404-54.255 34.404-84.124 0-32.613-9.314-59.478-27.709-80.042 14.434-6.514 25.986-14.184 34.39-22.853 13.277-13.697 18.479-29.479 15.461-46.907-1.992-11.5-7.499-23.438-16.393-35.514-.049-.066-.12-.16-.239-.309-8.184-10.201-23.605-10.733-32.63-1.1-19.887 21.228-65.367 56.844-146.5 56.844-33.807 0-64.812-6.281-92.154-18.67-3.773-1.709-8.217-.037-9.927 3.736-1.709 3.773-.037 8.217 3.736 9.927 29.3 13.275 62.388 20.007 98.345 20.007 86.79 0 135.899-38.589 157.448-61.591 2.74-2.924 7.454-2.882 9.93.164 7.441 10.124 12.019 19.902 13.605 29.064 4.921 28.414-22.641 46.052-46.629 55.846-36.15 14.758-74.05 28.19-110.361 44.736-14.802-9.474-33.494-9.275-47.986 0-36.173-16.484-74.339-30.037-110.361-44.736-23.988-9.794-51.55-27.432-46.629-55.846 1.587-9.167 6.17-18.953 13.597-29.052zm222.974 311.328c7.606 11.14 11.602 24.083 11.602 37.728 0 26.43-17.651 54.672-67.19 54.672s-67.19-28.242-67.19-54.672c0-13.645 3.996-26.587 11.602-37.728 18.277 5.217 37.027 7.706 55.588 7.706 18.461 0 37.188-2.459 55.588-7.706zm-227.086 30.374c0-29.882 16.852-56.925 43.322-70.183 4.654 4.236 9.341 8.014 14.412 11.701-12.218 20.052-19.326 43.863-19.326 69.093 0 21.922 5.495 43.438 18.184 61.745-30.948-11.855-56.592-39.762-56.592-72.356zm139.564 137.967h-38.947c-5.283 0-9.581-4.298-9.581-9.582 0-15.946 13.001-29.055 29.055-29.055 15.958 0 29.055 13.001 29.055 29.055 0 5.284-4.298 9.582-9.582 9.582zm102.815 0h-38.947c-5.283 0-9.582-4.298-9.582-9.582 0-16.124 13.15-29.055 29.055-29.055 16.042 0 29.055 13.091 29.055 29.055 0 5.284-4.298 9.582-9.581 9.582zm100.617-137.967c0 32.803-25.874 60.556-56.507 72.324 8.777-12.625 14.538-27.457 16.899-44.244.577-4.102-2.28-7.895-6.382-8.471-4.04-.57-7.895 2.248-8.477 6.383-3.914 27.787-18.963 49.933-43.666 64.197-6.255-3.624-14.063-5.857-21.958-5.857-15.927 0-30.871 8.663-38.647 22.892-8.431.57-17.089.57-25.52 0-7.823-14.324-22.831-22.892-38.648-22.892-7.824 0-15.58 2.17-21.96 5.858-27.868-16.063-44.723-42.639-44.723-79.578 0-20.788 5.455-41.885 16.851-60.78 9.359 5.659 19.724 10.755 30.925 14.951-7.798 12.79-11.877 27.322-11.877 42.571 0 21.876 8.578 40.03 24.806 52.501 14.617 11.233 34.46 17.17 57.384 17.17s42.766-5.938 57.384-17.17c16.229-12.471 24.806-30.625 24.806-52.501 0-15.25-4.079-29.782-11.877-42.571 11.3-4.239 21.607-9.316 30.936-14.958 15.009 25.106 15.633 46.703 16.412 49.964.873 3.648 4.31 6.079 8.028 5.71 4.122-.411 7.13-4.084 6.72-8.206-1.974-19.816-8.484-39.014-18.648-55.772 5.092-3.701 9.777-7.482 14.415-11.703 26.472 13.257 43.324 40.3 43.324 70.182zm-50.198-84.31c-31.966 30.86-77.22 46.642-121.3 46.642-44.463 0-89.573-16.011-121.315-46.656-23.834-23.065-37.308-52.085-37.308-81.082 0-30.861 9.263-55.695 27.547-73.897 31.821 12.734 64.168 24.531 95.247 38.361-21.567 29.279-.255 70.801 35.828 70.801 36.174 0 57.358-41.572 35.828-70.801 31.08-13.829 63.398-25.616 95.247-38.361 18.284 18.202 27.547 43.035 27.547 73.897.001 29.003-13.477 58.029-37.321 81.096zm-121.306-119.792h.006s.004 0 .006 0c14.229 0 26.519 10.275 29.017 24.294-9.615 2.197-19.628 3.188-28.941 3.191-.027 0-.055.001-.082.001s-.055-.001-.082-.001c-9.647-.003-19.389-1.001-28.942-3.191 2.458-13.794 14.574-24.294 29.018-24.294zm27.552 39.943c-4.249 11.089-15.042 19.017-27.546 19.017s-23.297-7.927-27.546-19.017c8.406 1.599 18.247 2.543 27.546 2.543 9.525 0 19.418-.997 27.546-2.543z"/></g></g></svg>