<svg id="Capa_1" enable-background="new 0 0 511.999 511.999" height="512" viewBox="0 0 511.999 511.999" width="512" xmlns="http://www.w3.org/2000/svg"><g><g><path d="m206.523 123.293c-1.583-7.65-8.466-13.202-16.368-13.202h-.579c-7.862 0-14.504 5.466-16.154 13.291-1.906 9.045-8.199 15.308-17.265 17.183-7.649 1.583-13.201 8.459-13.201 16.35v.485c0 7.827 5.565 14.667 13.232 16.262 9.045 1.883 15.326 8.14 17.232 17.169 1.653 7.831 8.343 13.3 16.268 13.3h.579c7.837 0 14.673-5.552 16.256-13.201 1.874-9.062 8.135-15.354 17.174-17.263 7.831-1.653 13.3-8.297 13.3-16.157v-.8c0-7.86-5.469-14.503-13.3-16.156-9.039-1.907-15.3-8.199-17.174-17.261zm14.077 31.94c.673.142 1.398.666 1.398 1.479v.8c0 .813-.725 1.337-1.398 1.48-14.92 3.15-25.674 13.955-28.766 28.901-.148.718-.807 1.239-1.566 1.239h-.579c-.956 0-1.448-.722-1.591-1.397-3.146-14.901-13.932-25.651-28.853-28.757-.746-.155-1.287-.818-1.287-1.576v-.485c0-.827.51-1.51 1.239-1.661 14.952-3.092 25.758-13.851 28.904-28.779.141-.667.662-1.385 1.476-1.385h.579c.85 0 1.524.498 1.678 1.239 3.091 14.947 13.845 25.751 28.766 28.902-.001 0-.001 0 0 0z"/><path d="m417.636 284.326c-1.82-8.798-9.745-15.183-18.844-15.183h-.738c-9.036 0-16.674 6.294-18.573 15.306-2.606 12.364-11.207 20.925-23.599 23.489-8.798 1.82-15.183 9.736-15.183 18.821v.619c0 9.005 6.403 16.874 15.224 18.71 12.364 2.573 20.95 11.127 23.555 23.47 1.904 9.018 9.601 15.316 18.718 15.316h.737c9.017 0 16.882-6.385 18.701-15.182 2.562-12.388 11.12-20.988 23.478-23.598 9.018-1.903 15.317-9.542 15.317-18.576v-1.02c0-9.034-6.299-16.672-15.317-18.576-12.356-2.608-20.914-11.209-23.476-23.596zm20.38 38.274c2.01.424 3.414 2.027 3.414 3.899v1.02c0 1.871-1.404 3.475-3.415 3.899-18.19 3.84-31.3 17.013-35.07 35.236-.386 1.866-2.073 3.22-4.011 3.22h-.737c-1.986 0-3.61-1.372-4.041-3.415-3.835-18.167-16.985-31.272-35.177-35.058-1.9-.395-3.279-2.087-3.279-4.024v-.619c0-2.041 1.325-3.74 3.221-4.132 18.23-3.771 31.403-16.887 35.239-35.085.422-2.002 2.023-3.399 3.895-3.399h.738c2.054 0 3.762 1.324 4.154 3.221 3.769 18.224 16.879 31.397 35.069 35.237z"/><path d="m499.079 14.754c-10.719-15.515-32.061-19.422-47.575-8.711l-20.528 14.173c-3.409 2.354-4.264 7.025-1.911 10.433 2.354 3.408 7.025 4.264 10.433 1.911l20.528-14.173c8.711-6.013 20.692-3.818 26.709 4.891 2.914 4.22 4.009 9.323 3.086 14.367-.924 5.045-3.757 9.428-7.977 12.341l-70.315 48.549c-1.766 1.219-2.925 3.136-3.184 5.266l-10.545 86.625c-1.879 15.431-13.928 27.816-29.3 30.118l-61.846 9.259c-2.007.3-3.807 1.401-4.988 3.051l-28.425 39.702c-7.478-11.019-17.234-20.437-27.622-27.382l27.586-38.53c5.434-7.588 13.843-12.733 23.069-14.115l58.103-8.698c3.336-.5 5.927-3.164 6.335-6.511l10.122-83.163c1.199-9.845 6.567-18.722 14.728-24.357l29.566-20.413c3.409-2.354 4.264-7.025 1.911-10.433-2.354-3.408-7.024-4.264-10.433-1.911l-29.566 20.412c-11.689 8.071-19.378 20.787-21.096 34.888l-9.432 77.497-52.458 7.853c-13.216 1.979-25.26 9.347-33.044 20.216l-28.535 39.856c-31.631-14.826-69.74-12.689-99.984 7.793-38.313 25.943-48.303 32.709-101.997 69.057-28.014 18.976-31.752 58.74-7.873 82.618 11.789 11.789 86.117 86.118 98.998 98.998 23.971 23.971 63.717 20.031 82.618-7.875 131.203-193.8 10.052-14.848 69.058-101.997 20.354-30.052 22.593-67.872 8.071-99.385l30.648-42.807 58.707-8.788c22.019-3.298 39.277-21.038 41.968-43.14l10.137-83.276 67.539-46.632c7.518-5.19 12.564-12.997 14.21-21.983 1.647-8.986-.305-18.075-5.496-25.594zm-307.262 465.193c-13.324 19.67-40.953 22.824-58.374 6.83l40.229-40.229c2.929-2.929 2.929-7.678 0-10.607-2.929-2.93-7.678-2.93-10.607 0l-40.262 40.262-19.646-19.647 40.262-40.262c2.929-2.929 2.929-7.678 0-10.607s-7.678-2.929-10.607 0l-40.262 40.262-19.646-19.647 40.262-40.262c2.929-2.929 2.929-7.678 0-10.607s-7.678-2.929-10.607 0l-40.262 40.262-19.647-19.647 40.262-40.261c2.929-2.929 2.929-7.677 0-10.607-2.929-2.929-7.678-2.929-10.607 0l-40.228 40.23c-16.037-17.467-12.788-45.087 6.829-58.373l49.794-33.711 136.827 136.827zm69.06-102-.537.792-28.6-28.6c-2.929-2.929-7.678-2.929-10.607 0s-2.929 7.677 0 10.607l30.64 30.64-17.683 26.119-132.741-132.742 26.119-17.682 72.585 72.585c2.929 2.929 7.678 2.929 10.607 0s2.929-7.677 0-10.607l-70.545-70.545.79-.535c27.579-18.677 62.832-19.444 90.782-3.755 12.946 7.284 23.318 17.474 30.662 29.092 18.017 28.504 18.073 65.773-1.472 94.631z"/></g></g></svg>