<svg id="Capa_1" enable-background="new 0 0 511.999 511.999" height="512" viewBox="0 0 511.999 511.999" width="512" xmlns="http://www.w3.org/2000/svg"><g><g><path d="m295.333 162.793c-.299-10.76-5.07-21.048-13.09-28.227l-66.017-59.097c-10.536-9.433-25.407-12.487-38.809-7.973l-77.585 26.138c-13.401 4.514-23.392 15.945-26.074 29.83l-16.8 86.998c-2.041 10.568.386 21.646 6.659 30.393l36.387 50.74c2.414 3.366 7.1 4.139 10.466 1.724 3.366-2.414 4.138-7.099 1.724-10.466l-36.387-50.74c-3.881-5.413-5.383-12.268-4.12-18.807l16.8-86.997c1.66-8.593 7.842-15.665 16.135-18.459l77.586-26.138c8.292-2.794 17.495-.903 24.014 4.934l66.018 59.097c4.963 4.443 7.915 10.809 8.1 17.467l6.244 224.861c.299 10.768-6.359 20.313-16.567 23.752l-35.556 11.978c-10.207 3.438-21.284-.132-27.562-8.885l-77.345-107.856c-2.414-3.366-7.1-4.138-10.466-1.724s-4.138 7.1-1.724 10.466l77.345 107.855c10.112 14.1 27.991 19.934 44.541 14.359l35.556-11.978c16.497-5.558 27.256-20.983 26.772-38.384z"/><path d="m111.519 223.533 4.059 12.048c4.07 12.083 17.21 18.602 29.295 14.531l17.747-5.978 22.055 65.467c4.061 12.057 17.128 18.63 29.295 14.531l12.048-4.059c12.11-4.079 18.612-17.183 14.531-29.295l-22.055-65.467 17.747-5.978c12.111-4.08 18.611-17.183 14.531-29.295l-4.059-12.048c-4.08-12.11-17.18-18.611-29.295-14.531l-17.747 5.979-7.085-21.03c-4.079-12.11-17.182-18.612-29.295-14.531l-12.048 4.059c-12.111 4.08-18.611 17.183-14.531 29.294l7.085 21.031-17.747 5.979c-12.111 4.078-18.611 17.18-14.531 29.293zm19.321-15.08 24.854-8.373c3.926-1.322 6.035-5.576 4.713-9.502l-9.479-28.138c-1.433-4.256.851-8.858 5.105-10.291l12.049-4.059c4.253-1.433 8.856.849 10.29 5.104l9.479 28.139c1.321 3.923 5.577 6.035 9.502 4.713l24.855-8.373c4.244-1.43 8.86.86 10.29 5.105l4.059 12.048c1.433 4.254-.85 8.857-5.105 10.29l-24.855 8.373c-3.922 1.321-6.036 5.577-4.713 9.502l24.449 72.575c1.433 4.253-.849 8.858-5.104 10.291l-12.048 4.059c-4.251 1.433-8.856-.849-10.29-5.104l-24.449-72.575c-1.319-3.916-5.566-6.038-9.502-4.714l-24.855 8.373c-4.252 1.433-8.856-.849-10.29-5.104l-4.059-12.048c-1.431-4.244.859-8.861 5.104-10.291z"/><path d="m444.137 371.102c-1.213 3.961 1.015 8.155 4.975 9.368 3.964 1.213 8.155-1.015 9.368-4.975l51.2-167.185c4.268-13.936 2.593-29.199-4.594-41.878l-63.577-112.154c-9.443-16.658-27.204-27.005-46.352-27.005h-128.242c-6.722 0-13.437 1.324-19.705 3.821l-12.423-11.121c-14.267-12.771-34.402-16.908-52.549-10.795l-121.532 40.943c-18.146 6.113-31.674 21.59-35.304 40.39l-24.445 126.581c-2.763 14.31.523 29.31 9.016 41.153l158.227 220.642c13.689 19.089 37.895 26.993 60.309 19.443l18.803-6.334c9.722 8.69 22.412 13.603 35.531 13.603h96.387c23.57 0 44.044-15.142 50.946-37.679l19.549-63.834c1.213-3.961-1.015-8.155-4.975-9.368-3.964-1.214-8.156 1.015-9.368 4.975l-19.549 63.834c-4.959 16.192-19.668 27.071-36.602 27.071h-96.387c-6.318 0-12.501-1.584-17.995-4.51l55.004-18.53c9.346-3.149 17.325-8.643 23.405-15.687h6.54c17.408 0 32.529-11.183 37.626-27.828l65.871-215.088c3.152-10.292 1.915-21.565-3.393-30.929l-43.695-77.081c-6.974-12.303-20.091-19.945-34.233-19.945h-69.014l-42.616-38.149c2.171-.383 4.371-.578 6.571-.578h128.243c13.757 0 26.517 7.434 33.302 19.402l63.577 112.153c5.164 9.109 6.367 20.076 3.3 30.087zm-129.075 82.24c-6.927 2.334-78.95 26.597-91.343 30.772-16.046 5.406-33.46-.207-43.329-13.969l-158.227-220.642c-6.102-8.508-8.463-19.285-6.478-29.567l24.445-126.58c2.609-13.508 12.328-24.627 25.365-29.019l121.532-40.943c13.038-4.391 27.504-1.42 37.753 7.755l70.31 62.94 25.746 23.047c7.802 6.984 12.443 16.992 12.734 27.459l7.537 271.407v.001c.44 15.899-9.229 31.675-26.045 37.339zm56.909-357.341c8.751 0 16.868 4.729 21.183 12.342l43.696 77.081c3.284 5.794 4.05 12.77 2.099 19.138l-65.871 215.088c-2.895 9.455-11.018 16.059-20.664 17.079 2.718-6.899 3.881-14.176 3.687-21.144l-7.537-271.408c-.406-14.559-6.854-28.49-17.723-38.219l-11.124-9.959h52.254z"/></g></g></svg>