<svg id="Capa_1" enable-background="new 0 0 512 512" height="512" viewBox="0 0 512 512" width="512" xmlns="http://www.w3.org/2000/svg"><g><g><path d="m472.524 8.848c-11.796-11.797-30.889-11.798-42.688 0l-28.012 28.012c-2.929 2.929-2.929 7.677 0 10.606s7.677 2.929 10.606 0l28.012-28.012c5.937-5.936 15.54-5.935 21.476 0 29.807 29.807 29.807 78.308 0 108.116l-51.842 51.842-64.796-64.796 45.937-45.937c2.929-2.929 2.929-7.677 0-10.606s-7.677-2.929-10.606 0l-46.066 46.066c-61.65-56.095-157.456-54.374-217.004 5.174-.016.016-.033.033-.049.049-29.68 29.702-46.026 69.183-46.026 111.175 0 39.503 14.468 76.781 40.891 105.789l-81.839 81.839c-23.712 23.712-23.712 62.295 0 86.008 23.767 23.767 62.238 23.771 86.008 0l82.32-82.32c12.657 7.909 29.674 6.478 40.849-4.696 12.892-12.892 12.892-33.868 0-46.759l-75.402-75.402c-15.253-15.253-24.606-35.532-26.336-57.101-.332-4.129-3.942-7.207-8.075-6.876-4.129.332-7.207 3.947-6.876 8.075 2.015 25.118 12.911 48.738 30.681 66.508l75.402 75.402c7.043 7.043 7.043 18.504 0 25.547-7.059 7.059-18.486 7.061-25.547 0l-75.402-75.402c-26.874-26.874-41.675-62.606-41.675-100.612s14.801-73.737 41.675-100.612c.016-.015.031-.032.047-.047 55.481-55.437 145.719-55.423 201.183.041l75.402 75.403c7.059 7.058 7.061 18.486 0 25.546-7.059 7.059-18.486 7.061-25.547 0l-74.635-74.635c-41.583-41.584-109.084-42.117-150.47-1.191-14.382 14.222-24.347 32.172-28.817 51.907-.915 4.04 1.619 8.056 5.658 8.971s8.056-1.618 8.971-5.658c3.837-16.941 12.39-32.348 24.734-44.556 35.539-35.143 93.55-34.634 129.318 1.133l74.635 74.635c12.918 12.92 33.836 12.924 46.759 0 11.161-11.161 12.615-28.175 4.696-40.849l52.449-52.449c35.657-35.656 35.657-93.672.001-129.328zm-366.604 474.719c-17.906 17.906-46.888 17.908-64.796 0-17.864-17.864-17.864-46.932 0-64.796l81.713-81.713 64.796 64.796z"/><path d="m60.834 430.865c-9.096 9.096-9.096 23.896 0 32.993 9.117 9.118 23.875 9.118 32.992 0 9.096-9.096 9.096-23.896 0-32.993-9.117-9.116-23.874-9.118-32.992 0zm22.386 22.387c-3.255 3.256-8.524 3.255-11.78 0-3.256-3.256-3.255-8.524 0-11.781 3.254-3.254 8.525-3.256 11.78 0 3.248 3.248 3.248 8.533 0 11.781z"/><path d="m108.035 416.657c9.095 9.096 23.896 9.098 32.992 0 9.096-9.096 9.096-23.896 0-32.992-9.097-9.095-23.896-9.095-32.992 0s-9.096 23.896 0 32.992zm10.606-22.386c3.249-3.249 8.532-3.248 11.78 0s3.248 8.532 0 11.78c-3.248 3.247-8.532 3.248-11.78 0-3.256-3.256-3.255-8.524 0-11.78z"/></g></g></svg>