<svg id="Capa_1" enable-background="new 0 0 512 512" height="512" viewBox="0 0 512 512" width="512" xmlns="http://www.w3.org/2000/svg"><g><g><path d="m167.994 403.404c4.142 0 7.5-3.358 7.5-7.5v-16.911c0-4.143-3.358-7.5-7.5-7.5s-7.5 3.357-7.5 7.5v16.911c0 4.142 3.358 7.5 7.5 7.5z"/><path d="m344.005 403.404c4.142 0 7.5-3.358 7.5-7.5v-16.911c0-4.143-3.358-7.5-7.5-7.5s-7.5 3.357-7.5 7.5v16.911c0 4.142 3.358 7.5 7.5 7.5z"/><path d="m255.999 413.471c11.06 0 21.578-4.79 28.857-13.143 2.721-3.123 2.396-7.86-.727-10.582-3.123-2.721-7.86-2.396-10.582.727-4.429 5.083-10.826 7.998-17.548 7.998-6.723 0-13.118-2.915-17.547-7.998-2.721-3.123-7.459-3.448-10.582-.727s-3.448 7.459-.727 10.582c7.279 8.352 17.796 13.143 28.856 13.143z"/><path d="m239.922 84.195c-21.652 10.536-35.129 32.904-34.333 56.984 1.611 48.789 57.595 75.986 96.942 47.311 10.77-7.848 7.108-24.827-6.002-27.357-21.607-4.17-37.29-23.19-37.29-45.226 0-4.634.685-9.205 2.036-13.585 3.967-12.865-9.481-23.904-21.353-18.127zm53.765 91.666c.023.004.087.019.093.021.031.045.074.169.06.293-.007.058-.011.096-.144.193-29.664 21.617-71.9 1.146-73.116-35.684-.601-18.172 9.568-35.051 25.905-43.001.149-.072.184-.058.243-.036.126.048.224.154.235.155-.372 1.637-2.724 8.198-2.724 18.105 0 29.211 20.796 54.425 49.448 59.954z"/><path d="m317.831 92.726c3.956-1.228 6.167-5.431 4.939-9.386l-13.747-44.281c-7.244-23.363-28.553-39.059-53.023-39.059-24.455 0-45.763 15.695-53.022 39.057-5.16 16.622-85.189 274.408-89.795 289.243l-72.572 57.741s0 0-.001 0l-12.174 9.687c-16.825 13.388-16.76 38.932.102 52.272 21.339 16.883 48.768 31.343 79.32 41.818 42.929 14.719 92.771 22.182 148.142 22.182s105.213-7.463 148.142-22.181c30.552-10.475 57.981-24.935 79.32-41.818 16.862-13.341 16.927-38.885.102-52.272l-12.174-9.688c-.001 0-.002-.001-.003-.002l-72.57-57.739c-6.647-21.412-61.112-196.85-67.233-216.567-1.228-3.956-5.429-6.167-9.386-4.939-3.956 1.229-6.167 5.431-4.939 9.387l41.079 132.32h-27.379c-4.518-19.6-22.196-34.173-42.986-34.173h-63.948c-20.659 0-38.441 14.433-42.985 34.173h-27.379l63.641-204.994c5.299-17.051 20.85-28.507 38.698-28.507 17.859 0 33.41 11.454 38.697 28.504l13.748 44.283c1.228 3.956 5.43 6.167 9.386 4.939zm156.324 343.511c-66.823 52.869-165.364 60.763-218.155 60.763s-151.332-7.894-218.155-60.763c-9.275-7.338-9.34-21.394-.069-28.771l7.718-6.142c21.964 15.5 46.815 27.308 71.659 35.761 3.248 1.106 6.825-.14 8.693-3.008 2.701-4.152.727-9.631-3.86-11.192-22.423-7.633-44.53-17.994-64.226-31.32l64.52-51.335h267.44l64.518 51.333c-56.499 38.451-130.178 51.437-198.238 51.437-67.29 0-104.13-12.321-107.991-12.085-3.181.193-6.022 2.421-6.827 5.699-.983 4.003 1.454 8.08 5.495 9.072 35.244 8.656 72.454 12.314 109.323 12.314 73.27 0 150.553-14.51 210.505-56.676l7.719 6.142c9.255 7.364 9.223 21.419-.069 28.771zm-250.129-206.91h63.948c15.985 0 29.127 13.033 29.127 29.127v66.776h-20v-66.776c0-5.032-4.094-9.127-9.127-9.127h-63.947c-5.033 0-9.127 4.095-9.127 9.127v66.776h-20c0-1.95-.001-66.176.002-66.868.048-16.207 13.332-29.035 29.124-29.035zm58.075 95.903h-52.201v-60.903h52.201zm80.894-61.73 19.164 61.73h-50.058v-61.73zm-183.096 0v61.73h-50.058l19.164-61.73z"/></g></g></svg>