<svg id="Capa_1" enable-background="new 0 0 511.999 511.999" height="512" viewBox="0 0 511.999 511.999" width="512" xmlns="http://www.w3.org/2000/svg"><g><g><path d="m240.238 315.525h31.525c11.759 0 21.325-9.567 21.325-21.325v-26.743c0-20.45-16.638-37.088-37.087-37.088-20.45 0-37.088 16.638-37.088 37.088v26.743c-.001 11.758 9.566 21.325 21.325 21.325zm-6.325-48.069c0-12.179 9.908-22.088 22.088-22.088 12.179 0 22.087 9.908 22.087 22.088v26.743c0 3.487-2.837 6.325-6.325 6.325h-31.525c-3.488 0-6.325-2.837-6.325-6.325z"/><path d="m105.996 358.107c-17.343 0-31.452 14.109-31.452 31.452v21.65c0 10.307 8.385 18.692 18.692 18.692h25.52c10.306 0 18.692-8.385 18.692-18.692v-21.65c0-17.343-14.11-31.452-31.452-31.452zm16.452 53.101c0 2.036-1.656 3.692-3.692 3.692h-25.52c-2.036 0-3.692-1.656-3.692-3.692v-21.65c0-9.072 7.38-16.452 16.452-16.452s16.452 7.38 16.452 16.452z"/><path d="m406.004 358.107c-17.343 0-31.453 14.109-31.453 31.452v21.65c0 10.307 8.385 18.692 18.692 18.692h25.52c10.307 0 18.692-8.385 18.692-18.692v-21.65c.001-17.343-14.108-31.452-31.451-31.452zm16.452 53.101c0 2.036-1.656 3.692-3.692 3.692h-25.52c-2.036 0-3.692-1.656-3.692-3.692v-21.65c0-9.072 7.381-16.452 16.452-16.452 9.072 0 16.452 7.38 16.452 16.452z"/><path d="m224.052 23.934c-1.599-7.729-8.554-13.338-16.539-13.338h-.59c-7.942 0-14.654 5.523-16.321 13.431-1.955 9.274-8.406 15.695-17.701 17.618-7.729 1.599-13.338 8.547-13.338 16.521v.495c0 7.908 5.622 14.819 13.37 16.431 9.274 1.93 15.714 8.346 17.668 17.604 1.67 7.913 8.43 13.439 16.437 13.439h.59c7.918 0 14.826-5.609 16.424-13.338 1.922-9.292 8.34-15.743 17.61-17.7 7.912-1.671 13.438-8.384 13.438-16.324v-.815c0-7.941-5.526-14.653-13.439-16.324-9.269-1.957-15.687-8.408-17.609-17.7zm16.049 34.838c0 .908-.797 1.49-1.536 1.647-15.147 3.197-26.063 14.165-29.202 29.338-.165.797-.895 1.376-1.734 1.376h-.59c-1.059 0-1.604-.794-1.76-1.537-3.193-15.126-14.143-26.039-29.29-29.191-.825-.172-1.425-.906-1.425-1.745v-.495c0-.911.566-1.664 1.376-1.831 15.179-3.14 26.147-14.061 29.341-29.214.155-.734.735-1.524 1.643-1.524h.59c.936 0 1.679.553 1.849 1.377 3.139 15.173 14.055 26.14 29.201 29.338h.001c.74.156 1.536.738 1.536 1.646z"/><path d="m504.917 329.779-37.566-28.222v-95.561c2.428-6.686 7.765-11.291 15.05-12.829 7.603-1.605 12.913-8.057 12.913-15.691v-.758c0-7.634-5.31-14.086-12.913-15.691-7.285-1.538-12.622-6.142-15.05-12.829v-35.223c.118-.014.235-.016.354-.033 4.409-.626 8.31-2.932 10.985-6.492l10.116-13.466c5.521-7.35 4.034-17.822-3.316-23.343l-73.887-55.508c-8.875-6.667-21.271-6.666-30.144 0l-73.886 55.508c-7.349 5.522-8.836 15.994-3.315 23.344l10.116 13.466c2.675 3.561 6.576 5.866 10.986 6.492.118.017.235.023.353.038v38.245l-48.591-36.505c-12.434-9.343-29.803-9.343-42.24 0l-53.535 40.219c-37.035-18.005-60.735-55.628-60.735-97.043 0-7.166.708-14.331 2.103-21.296 3.68-18.361-15.29-33.134-32.216-25.087-20.881 9.928-38.507 25.513-50.974 45.071-2.226 3.493-1.199 8.13 2.294 10.356 3.493 2.228 8.13 1.2 10.356-2.293 10.951-17.18 26.43-30.869 44.765-39.587 5.798-2.756 12.325 2.317 11.067 8.592-1.589 7.933-2.395 16.09-2.395 24.243 0 44.622 24.146 85.381 62.461 107.016l-49.361 37.083c-7.375 5.54-10.32 14.855-7.968 23.392-44.222-14.035-75.639-55.78-75.412-103.382.052-10.893 1.737-21.665 5.009-32.016 1.249-3.95-.94-8.164-4.89-9.412-3.95-1.249-8.164.941-9.412 4.891-3.728 11.792-5.649 24.061-5.707 36.466-.285 59.925 43.461 111.701 102.26 121.723l7.665 10.203c4.547 6.051 11.644 9.078 18.689 8.714v25.16l-26.629-20.005c-9.607-7.218-23.027-7.217-32.636 0l-82.598 62.051c-7.826 5.88-9.41 17.031-3.53 24.857l11.308 15.053c3.19 4.246 7.932 6.648 12.852 7.025v118.652c0 4.142 3.358 7.5 7.5 7.5h441.574c4.142 0 7.5-3.358 7.5-7.5v-118.653c4.921-.376 9.662-2.779 12.852-7.025l11.308-15.053c5.88-7.826 4.296-18.977-3.53-24.857zm-25.613-154.074c.486.103 1.01.464 1.01 1.014v.758c0 .55-.523.911-1.01 1.014-14.414 3.044-24.633 13.554-27.555 27.685-.087.419-.522.857-1.096.857h-.547c-.841 0-1.07-.773-1.12-1.01-3.013-14.273-13.345-24.571-27.638-27.545-.523-.109-.904-.574-.904-1.105v-.46c0-.603.345-1.08.859-1.186 14.322-2.962 24.672-13.267 27.686-27.566.101-.481.46-.998 1.01-.998h.549c.613 0 1.096.345 1.202.861 2.918 14.07 13.074 24.624 27.554 27.681zm-163.054-91.729c-.554-.737-.404-1.788.333-2.341l73.886-55.508c3.569-2.682 8.555-2.681 12.124 0l73.887 55.509c.737.553.886 1.604.332 2.34l-10.116 13.465c-.554.737-1.604.887-2.341.333l-63.32-47.569c-2.563-1.926-6.27-2.059-9.011 0l-63.319 47.569c-.736.555-1.787.405-2.34-.332zm24.462 78.519v-54.978l37.025-27.816 18.794-14.119 55.82 41.935v24.746c-.324-.036-1.189-.101-1.804-.101h-.549c-7.636 0-14.087 5.307-15.689 12.905-1.772 8.406-7.62 14.227-16.046 15.97-7.429 1.537-12.821 8.213-12.821 15.875v.46c0 4.751 2.111 9.127 5.512 12.119 5.838 5.135 10.161 2.469 16.859 8.261 3.254 2.819 5.507 6.692 6.494 11.369 1.605 7.602 8.101 12.912 15.797 12.912h.547.001c.573 0 1.334-.052 1.696-.09v68.344l-30.029-22.56c-9.607-7.217-23.026-7.217-32.636 0l-26.629 20.006v-25.157c7.295.382 14.337-2.918 18.688-8.717 16.808-22.432 16.133-21.34 17.129-22.977 5.699-9.364 3.647-21.955-5.582-28.889l-35.198-26.443zm-313.858 198.185-11.308-15.053c-.911-1.213-.666-2.942.548-3.854l82.595-62.051c4.303-3.232 10.314-3.233 14.616 0l38.634 29.025c15.924 11.963 34.56 25.964 43.96 33.026 1.171.88 1.489 2.601.547 3.854l-11.308 15.053c-.917 1.221-2.649 1.453-3.853.548-8.053-6.05-61.711-46.362-70.783-53.177-2.668-2.005-6.341-2.005-9.01 0l-70.783 53.176c-1.214.912-2.944.667-3.855-.547zm15.859 10.29 63.283-47.542 63.283 47.542v116.896h-126.566zm141.567 5.751c4.868-.374 9.695-2.855 12.824-6.998.009-.011.019-.021.027-.033l11.309-15.053c5.889-7.841 4.313-18.965-3.531-24.858l-40.965-30.775v-43.034l92.056-69.158 41.119 30.891c3.312 2.487 8.013 1.82 10.502-1.492.466-.621.822-1.291 1.07-1.986 1.075-3.011.129-6.494-2.562-8.516l-45.624-34.275c-2.658-1.997-6.33-2.013-9.01 0l-99.557 74.793c-3.051 2.292-7.398 1.675-9.69-1.376l-15.905-21.172c-2.291-3.049-1.692-7.384 1.376-9.69l59.051-44.363s.001-.001.002-.002l57.118-42.911c7.131-5.357 17.09-5.357 24.219 0l116.171 87.275c3.062 2.301 3.669 6.637 1.376 9.69l-15.906 21.172c-2.293 3.05-6.64 3.668-9.69 1.376l-30.188-22.679c-3.313-2.488-8.013-1.82-10.501 1.492s-1.82 8.013 1.491 10.502l27.193 20.429v43.034l-40.965 30.776c-.001.001-.031.026-.035.029-7.77 5.874-9.382 16.897-3.553 24.742.021.028.037.058.058.086 3.955 5.265 7.354 9.788 11.309 15.053 3.139 4.18 7.958 6.655 12.851 7.031v111.146h-34.633v-73.727c0-20.45-16.638-37.088-37.087-37.088-20.45 0-37.088 16.638-37.088 37.088v73.726h-34.632zm49.633 111.146v-73.727c0-12.179 9.908-22.088 22.088-22.088 12.179 0 22.087 9.908 22.087 22.088v73.726zm108.808 0 .001-116.896c12.108-9.097 51.142-38.421 63.282-47.542l63.283 47.542v116.896zm153.734-142.24-11.308 15.053c-.912 1.214-2.64 1.459-3.854.548l-70.783-53.176c-2.735-2.054-6.451-1.92-9.011 0-8.34 6.266-62.409 46.886-70.782 53.176-.026.019-.055.031-.081.049-1.209.844-2.88.591-3.773-.597-.396-.527-10.97-14.601-11.309-15.053-.001-.002-.002-.004-.003-.005-.923-1.231-.622-2.96.545-3.843.002-.002.004-.004.006-.005 3.114-2.34 80.487-60.468 82.595-62.051 4.318-3.242 10.329-3.22 14.615 0l82.595 62.05c1.214.912 1.459 2.641.548 3.854z"/></g></g></svg>