<svg id="Capa_1" enable-background="new 0 0 511.999 511.999" height="512" viewBox="0 0 511.999 511.999" width="512" xmlns="http://www.w3.org/2000/svg"><g><g><path d="m175.209 407.054h2.788c1.805 0 3.273 1.468 3.273 3.273 0 20.633 16.786 37.419 37.419 37.419h74.621c20.633 0 37.419-16.786 37.419-37.419 0-1.805 1.468-3.273 3.273-3.273h2.788c46.481 0 84.296-37.815 84.296-84.296 0-43.6-17.263-83.321-48.608-111.847-30.455-27.716-71.821-42.98-116.478-42.98-44.657 0-86.023 15.264-116.478 42.98-31.346 28.526-48.608 68.248-48.608 111.848 0 46.481 37.814 84.295 84.295 84.295zm-25.592-185.05c27.687-25.197 65.468-39.073 106.383-39.073s78.696 13.876 106.383 39.073c28.183 25.648 43.704 61.43 43.704 100.754 0 38.21-31.086 69.295-69.296 69.295h-2.788c-10.076 0-18.273 8.197-18.273 18.273 0 12.362-10.057 22.419-22.419 22.419h-6.863v-30.811c0-4.142-3.358-7.5-7.5-7.5s-7.5 3.358-7.5 7.5v30.811h-30.895v-30.811c0-4.142-3.358-7.5-7.5-7.5s-7.5 3.358-7.5 7.5v30.811h-6.863c-12.362 0-22.419-10.057-22.419-22.419 0-10.076-8.197-18.273-18.273-18.273h-2.788c-38.21 0-69.295-31.086-69.295-69.296-.001-39.323 15.519-75.105 43.702-100.753z"/><path d="m248.253 386.734h15.494c5.809 0 11.167-3.156 13.984-8.235 2.817-5.08 2.656-11.297-.421-16.224l-7.747-12.405c-2.94-4.709-8.011-7.52-13.562-7.52-5.552 0-10.622 2.811-13.562 7.52l-7.748 12.405c-3.077 4.927-3.238 11.144-.421 16.224 2.816 5.079 8.174 8.235 13.983 8.235zm-.84-16.514 7.747-12.405c.39-.627 1.289-.627 1.68 0l7.747 12.405c.42.675-.061 1.515-.84 1.515h-15.494c-.789-.001-1.254-.848-.84-1.515z"/><path d="m163.554 338.536 10.401 2.787c-.709 1.146-1.125 2.491-1.125 3.937v12.561c0 4.142 3.358 7.5 7.5 7.5s7.5-3.358 7.5-7.5v-12.561c0-.075-.009-.148-.011-.223l4.896 1.312c3.998 1.069 8.112-1.298 9.185-5.304 1.072-4.001-1.302-8.113-5.304-9.186l-29.16-7.813c-3.997-1.069-8.113 1.302-9.185 5.304-1.072 4.001 1.302 8.113 5.303 9.186z"/><path d="m319.285 346.349 4.896-1.312c-.002.075-.011.147-.011.223v12.561c0 4.142 3.358 7.5 7.5 7.5s7.5-3.358 7.5-7.5v-12.561c0-1.446-.416-2.792-1.125-3.937l10.401-2.787c4.001-1.072 6.375-5.185 5.304-9.185-1.072-4.001-5.186-6.374-9.185-5.304l-29.16 7.813c-4.001 1.072-6.375 5.185-5.304 9.186 1.071 4.002 5.183 6.373 9.184 5.303z"/><path d="m387.121 123.846c-6.205 6.996-15.089 12.142-26.406 15.294-6.586 1.833-13.409-1.01-16.6-6.915-8.974-16.605-21.796-51.687-6.843-100.086 5.483-17.752-9.697-34.966-27.979-31.749-68.634 12.084-103.446 57.681-120.563 93.804-3.427 7.232-10.173 8.886-15.348 8.024-11.88-1.982-11.993-13.432-12.061-13.559-1.944-18.827-23.572-28.462-39.026-17.446-20.572 14.666-38.019 33.758-51.858 56.745-2.137 3.548-.992 8.157 2.557 10.293 3.548 2.137 8.157.991 10.293-2.557 12.773-21.216 28.827-38.802 47.715-52.268 6.075-4.33 14.634-.629 15.398 6.77l.115 1.07c3.31 29.455 43.093 36.104 55.769 9.35 15.603-32.927 47.285-74.481 109.609-85.456 7.259-1.276 13.222 5.505 11.046 12.549-16.57 53.635-2.113 92.972 7.979 111.646 6.542 12.105 20.448 17.958 33.82 14.233 14.145-3.94 25.451-10.599 33.604-19.791 4.231-4.773 11.782-4.544 15.461.794 18.941 27.478 50.716 84.008 50.716 153.879 0 49.526-17.676 97.537-49.77 135.189-2.688 3.152-2.31 7.886.842 10.573 3.145 2.681 7.88 2.316 10.573-.843 34.406-40.364 53.355-91.831 53.355-144.92 0-73.934-33.435-133.479-53.365-162.392-9.154-13.28-28.285-14.351-39.033-2.231z"/><path d="m255.993 511.999h.024c54.789-.005 107.501-20.046 148.427-56.431 3.096-2.752 3.374-7.493.622-10.588-2.751-3.094-7.491-3.375-10.588-.622-38.178 33.941-87.352 52.636-138.463 52.641-.01 0-.012 0-.022 0-55.4-.002-107.613-21.915-147.009-61.704-19.525-19.72-34.803-42.7-45.407-68.303-10.962-26.466-16.374-54.473-16.086-83.242.465-46.414 7.887-87.076 22.06-120.854 1.603-3.82-.195-8.215-4.014-9.818-3.818-1.601-8.214.194-9.818 4.014-14.928 35.578-22.743 78.141-23.227 126.507-.309 30.801 5.488 60.789 17.227 89.133 11.352 27.409 27.706 52.008 48.606 73.117 42.237 42.658 98.23 66.15 157.668 66.15z"/></g></g></svg>