<svg id="Capa_1" enable-background="new 0 0 512 512" height="512" viewBox="0 0 512 512" width="512" xmlns="http://www.w3.org/2000/svg"><g><g><path d="m177.776 121.669c-4.142 0-7.5 3.358-7.5 7.5v17.137c0 4.142 3.358 7.5 7.5 7.5s7.5-3.358 7.5-7.5v-17.137c0-4.142-3.358-7.5-7.5-7.5z"/><path d="m356.138 121.669c-4.142 0-7.5 3.358-7.5 7.5v17.137c0 4.142 3.358 7.5 7.5 7.5s7.5-3.358 7.5-7.5v-17.137c0-4.142-3.358-7.5-7.5-7.5z"/><path d="m295.397 140.142c-3.123-2.721-7.86-2.396-10.582.727-4.507 5.172-11.017 8.139-17.858 8.139s-13.35-2.966-17.857-8.139c-2.723-3.123-7.459-3.447-10.582-.727-3.123 2.722-3.448 7.459-.727 10.582 7.357 8.441 17.988 13.283 29.166 13.283s21.809-4.842 29.167-13.283c2.72-3.123 2.395-7.861-.727-10.582z"/><path d="m375.8 279.766c28.985 13.535 62.531 20.595 93.533 11.253 17.094-5.151 24.345-25.399 14.413-40.313l-12.811-19.234c-5.814-8.728-16.111-13.274-26.231-11.582-5.743.961-12.982.241-21.215-2.068 3.24-7.83 5.834-15.968 7.743-24.389 0-.002.001-.005.001-.007 2.617-11.509 3.944-23.566 3.944-35.837-.001-92.396-74.716-157.589-168.17-157.589-.068 0-.141 0-.209 0-43.758.046-87.308 14.615-119.995 45.112-10.769-4.408-19.073-9.882-23.633-15.641-6.37-8.045-17.055-11.581-27.222-9.009l-22.404 5.668c-17.375 4.397-25.575 24.28-16.357 39.564 10.65 17.658 27.131 32.179 48.988 43.215-4.932 15.354-7.437 31.629-7.437 48.68 0 32.412 9.493 65.388 30.606 93.209l.003.003c15.062 19.865 34.656 35.604 57.287 46.553-62.695 31.808-58.311 29.584-61.331 31.116-15.716 7.973-22.608 26.55-16.399 42.667-2.626.997-5.629.674-7.989-1.014-8.189-5.858-19.194-5.857-27.385 0-2.958 2.116-6.938 2.124-9.903.019-8.237-5.849-19.252-5.856-27.41-.019-.705.76-12.465 6.668-12.465 21.017v56.172c0 18.199 14.806 33.005 33.005 33.005h60.931c18.199 0 33.005-14.806 33.005-33.005v-55.832c1.851-.566 3.679-1.288 5.463-2.192l37.551-19.053-.003 101.389c0 22.264 18.113 40.376 40.376 40.376 13.541 0 25.548-6.702 32.876-16.961 7.329 10.26 19.335 16.961 32.876 16.961 22.264 0 40.376-18.113 40.376-40.376l-.003-101.389 37.553 19.054c16.767 8.5 37.33 1.781 45.842-14.983 8.495-16.771 1.77-37.333-14.99-45.836-36.874-18.708-42.775-21.702-61.313-31.107 10.161-4.917 19.704-10.803 28.503-17.597zm71.377-45.081c4.304-.72 8.729 1.283 11.273 5.103l12.811 19.234c4.344 6.521 1.19 15.392-6.256 17.635-25.113 7.569-52.44 2.439-76.616-7.708 11.865-11.367 21.446-24.196 28.583-37.411 8.983 2.74 20.074 4.84 30.205 3.147zm-29.378-50.411h-301.68c-1.581-8.674-2.381-17.624-2.381-26.686 0-23.761 5.305-46.09 16.275-66.548h273.917c10.784 20.071 16.247 42.436 16.247 66.548-.001 9.094-.799 18.044-2.378 26.686zm-150.985-169.274h.194c49.476 0 98.125 20.287 127.541 61.041h-255.172c29.28-40.509 77.665-60.988 127.437-61.041zm-196.783 42.946c-4.015-6.656-.408-15.352 7.192-17.275l22.404-5.668c4.466-1.13 9.084.37 11.783 3.779 6.225 7.862 15.5 13.688 24.265 17.821-10.014 11.509-18.067 24.256-24.167 38.201-18.593-9.644-32.534-22.029-41.477-36.858zm344.164 141.328c-4.289 14.302-10.933 27.668-19.393 39.489h-255.697c-8.624-12.03-15.121-25.267-19.386-39.489zm-262.642 54.489h230.771c-29.823 31.024-71.477 46.403-115.324 46.403-.06 0-.125 0-.186 0-43.282-.046-85.47-15.259-115.261-46.403zm228.132 76.851-17.28 34.064-19.865-10.079 17.28-34.064zm-170.979 85.865h50.751v35.959h-50.752zm65.751 0h50.751l.001 35.959h-50.752zm50.749-50.959.001 35.959h-116.5l.001-35.959zm-153.937-.72-17.28-34.064 19.857-10.074 17.28 34.063zm-35.575 82.511c0 9.928-8.077 18.005-18.005 18.005h-60.932c-9.928 0-18.005-8.077-18.005-18.005v-56.172c0-2.747 1.334-5.341 3.567-6.939 1.873-1.111 3.701-3.451 7.557-3.451 1.766 0 3.543.542 5.067 1.624 8.18 5.807 19.157 5.787 27.315-.05 2.97-2.125 6.96-2.125 9.929 0 7.463 5.339 17.284 5.813 25.166 1.408.37.349.76.67 1.144 1 .082.07.161.144.243.213 4.818 4.08 10.664 6.744 16.953 7.667v54.7zm13.678-71.401c-9.422 4.775-20.952.926-25.677-8.381-4.76-9.398-.994-20.919 8.396-25.683l8.522-4.323 17.281 34.064zm84.709 121.09c-13.992 0-25.376-11.384-25.376-25.376v-4.187h50.752v4.186c0 13.993-11.384 25.377-25.376 25.377zm65.752 0c-13.992 0-25.376-11.384-25.376-25.376v-4.186h50.752v4.186c.001 13.992-11.383 25.376-25.376 25.376zm101.992-155.154c9.389 4.763 13.155 16.284 8.398 25.675-4.767 9.388-16.287 13.149-25.678 8.39l-8.763-4.446 17.281-34.064 8.762 4.445c-.001 0-.001 0 0 0zm-55.382-28.098-18.653 36.772h-121.977l-18.589-36.645 17.667-8.963c19.836 6.91 40.903 10.236 61.909 10.255h.2.002c20.569 0 41.75-3.174 62.044-10.245z"/></g></g></svg>