<svg id="Capa_1" enable-background="new 0 0 512 512" height="512" viewBox="0 0 512 512" width="512" xmlns="http://www.w3.org/2000/svg"><g><g><path d="m367.494 113.331c13.715-13.715 13.715-36.03 0-49.745-13.746-13.746-35.997-13.748-49.745 0-12.135 12.135-30.331 49.124-14.855 64.6 14.815 14.817 51.127-1.381 64.6-14.855zm-52.883-15.005c3.576-10.396 9.622-20.009 13.745-24.133 7.865-7.865 20.665-7.866 28.532 0 7.866 7.866 7.866 20.666 0 28.532-4.124 4.123-13.737 10.168-24.133 13.745-10.468 3.6-17.213 3.152-19.254 1.111-2.042-2.042-2.49-8.788 1.11-19.255z"/><path d="m209.108 128.187c15.476-15.476-2.721-52.465-14.855-64.6-13.746-13.746-35.997-13.748-49.745 0-13.715 13.714-13.715 36.03 0 49.745 12.709 12.708 49.379 30.077 64.6 14.855zm-29.86-11.718c-10.396-3.576-20.01-9.622-24.133-13.745-7.866-7.866-7.866-20.666 0-28.532 7.865-7.865 20.665-7.866 28.532 0 4.123 4.124 10.168 13.737 13.745 24.133 3.601 10.467 3.152 17.213 1.111 19.254-2.044 2.042-8.789 2.49-19.255-1.11z"/><path d="m256.001 91.358c21.886 0 35.175-39.022 35.175-56.184 0-19.395-15.779-35.174-35.175-35.174s-35.175 15.779-35.175 35.175c0 17.161 13.289 56.183 35.175 56.183zm0-76.358c11.125 0 20.175 9.05 20.175 20.175 0 5.832-2.523 16.904-7.346 26.784-4.855 9.947-9.942 14.4-12.829 14.4s-7.974-4.453-12.829-14.4c-4.822-9.88-7.346-20.953-7.346-26.784 0-11.125 9.05-20.175 20.175-20.175z"/><path d="m88.044 236.83c0 15.51 8.429 29.08 20.941 36.396l-13.586 55.609c-8.704 35.623 18.249 70.026 54.978 70.026h18.102v65.628c0 26.198 21.313 47.511 47.511 47.511 16.823 0 31.507-8.655 40.028-21.913 8.456 13.165 23.218 21.913 39.994 21.913 26.233 0 47.511-21.231 47.511-47.511 0-2.451 0 8.196 0-65.628h18.102c10.634 0 20.989-2.96 29.943-8.562 3.512-2.196 4.578-6.824 2.381-10.335-2.196-3.512-6.825-4.578-10.335-2.381-6.567 4.107-14.17 6.278-21.989 6.278-7.577 0-200.548 0-211.249 0-26.952 0-46.814-25.243-40.407-51.467l13.196-54.011c2.069.349 4.682.585 7.017.585h19.556v22.361c0 28.951 23.554 52.505 52.505 52.505h23.285c4.142 0 7.5-3.358 7.5-7.5s-3.358-7.5-7.5-7.5h-23.285c-20.68 0-37.505-16.825-37.505-37.505v-22.765c20.637-2.905 36.295-20.629 36.295-41.735 0-20.531-14.926-38.142-35.1-41.551 3.038-8.567 9.615-11.103 12.13-13.289 7.207-5.157 16.973-5.126 24.299.075 12.44 8.833 29.135 8.803 41.542-.075 7.236-5.176 16.959-5.176 24.194 0 12.407 8.877 29.102 8.908 41.542.075 7.327-5.201 17.091-5.232 24.299-.075 2.513 2.185 9.148 4.881 12.129 13.289-19.887 3.352-35.007 20.693-35.096 41.363 0 .063-.005.125-.005.188 0 .076.005.151.006.228.108 20.869 15.604 38.632 36.29 41.507v22.765c0 20.68-16.825 37.505-37.505 37.505h-54.231c-4.142 0-7.5 3.358-7.5 7.5s3.358 7.5 7.5 7.5h54.231c28.951 0 52.505-23.554 52.505-52.505v-22.361h19.556c2.415 0 5.042-.253 7.017-.585l13.196 54.012c2.149 8.798 1.424 17.819-2.098 26.086-1.624 3.811.15 8.216 3.96 9.839 3.811 1.624 8.216-.15 9.839-3.96 4.802-11.271 5.794-23.556 2.869-35.525l-13.586-55.609c12.511-7.315 20.94-20.886 20.94-36.396 0-23.235-18.903-42.138-42.138-42.138h-20.375c-3.658-16.937-16.865-23.061-18.777-24.901-12.408-8.877-29.169-8.86-41.711.043-7.227 5.13-16.924 5.112-24.132-.043-12.455-8.911-29.193-8.911-41.648 0-7.208 5.156-16.905 5.174-24.131.043-12.54-8.902-29.302-8.921-41.71-.043-1.922 1.85-15.113 7.932-18.777 24.901h-20.375c-23.235 0-42.138 18.903-42.138 42.138zm127.946 260.17c-17.926 0-32.511-14.584-32.511-32.511v-13.299h65.022v13.299c0 17.952-14.532 32.511-32.511 32.511zm112.533-32.511c0 17.952-14.532 32.511-32.511 32.511-17.927 0-32.511-14.584-32.511-32.511v-13.299h65.022zm0-28.299h-65.022v-37.329h65.022zm-80.022-37.329v37.329h-65.022v-37.329zm160.457-162.031c0 14.877-12.088 27.139-27.138 27.139-4.554 0-22.309 0-28.712 0-14.964 0-27.138-12.174-27.138-27.139 0-14.964 12.174-27.138 27.138-27.138h28.712c14.964 0 27.138 12.174 27.138 27.138zm-278.775 27.139c-14.986 0-27.139-12.216-27.139-27.139 0-14.964 12.174-27.138 27.139-27.138h28.712c14.964 0 27.139 12.174 27.139 27.138 0 14.962-12.172 27.139-27.139 27.139-3.364 0-21.56 0-28.712 0z"/></g></g></svg>