<svg id="Capa_1" enable-background="new 0 0 512 512" height="512" viewBox="0 0 512 512" width="512" xmlns="http://www.w3.org/2000/svg"><g><g><path d="m155.556 186.849c-4.143 0-7.5 3.358-7.5 7.5v19.301c0 4.142 3.357 7.5 7.5 7.5 4.142 0 7.5-3.358 7.5-7.5v-19.301c0-4.142-3.358-7.5-7.5-7.5z"/><path d="m356.444 221.149c4.143 0 7.5-3.358 7.5-7.5v-19.301c0-4.142-3.357-7.5-7.5-7.5-4.142 0-7.5 3.358-7.5 7.5v19.301c0 4.143 3.358 7.5 7.5 7.5z"/><path d="m282.892 208.45c-3.123-2.721-7.86-2.395-10.582.727-4.117 4.725-10.062 7.434-16.31 7.434s-12.193-2.709-16.31-7.434c-2.721-3.123-7.459-3.448-10.582-.727s-3.448 7.459-.727 10.582c6.967 7.994 17.033 12.579 27.619 12.579s20.652-4.585 27.619-12.579c2.721-3.123 2.395-7.861-.727-10.582z"/><path d="m427.604 269.954c-13.428 0-24.673 0-37.826 0 19.435-15.385 28.823-39.508 25.75-63.266l-3.825-29.622s0-.001 0-.002c-.765-5.912-2.208-11.649-4.276-17.168h11.231c17.483 0 31.708-14.224 31.708-31.708 0-17.478-14.224-31.697-31.708-31.697h-26.955c-19.534-56.094-72.741-96.491-135.703-96.491-23.754 0-47.299 5.928-68.09 17.142-3.646 1.967-5.007 6.516-3.041 10.162 1.967 3.646 6.516 5.006 10.162 3.041 18.61-10.039 39.692-15.345 60.969-15.345 54.853 0 100.952 34.097 119.705 81.491h-239.42c7.5-19.05 19.495-36.088 35.08-49.719 3.118-2.727 3.435-7.465.708-10.583-2.727-3.117-7.465-3.436-10.583-.708-18.878 16.512-33.033 37.516-41.188 61.01h-26.96c-17.483 0-31.707 14.219-31.707 31.697 0 17.483 14.224 31.708 31.707 31.708h11.231c-2.068 5.52-3.511 11.257-4.276 17.17l-3.824 29.62c-3.068 23.712 6.274 47.851 25.749 63.268h-18.083-19.744c-20.837 0-37.789 16.952-37.789 37.789s16.952 37.79 37.789 37.79h12.244v2.344c0 16.249 15.859 27.513 30.154 23.272l10.956-3.258-11.423 42.649c-6.788 17.309 6.004 36.001 24.558 36.001h41.465c15.541 0 28.39-11.71 30.208-26.77v84.729c0 4.142 3.358 7.5 7.5 7.5h51.885c4.142 0 7.5-3.358 7.5-7.5v-84.726c1.819 15.058 14.667 26.767 30.208 26.767h41.464c18.586 0 31.332-18.729 24.558-36.001l-11.422-42.65 10.956 3.258c14.127 4.208 30.155-6.853 30.155-23.272v-2.344h12.243c20.837 0 37.79-16.952 37.79-37.79 0-20.836-16.952-37.788-37.79-37.788zm-30.778-90.965 3.825 29.622c4.199 32.462-21.09 61.343-53.92 61.343h-24.357c9.559-34.875 10.41-75.426 3.662-110.058h65.109c2.911 6.017 4.818 12.421 5.681 19.093zm-191.588 90.965c-9.908-33.213-11.509-73.951-3.964-110.058h109.454c7.783 37.805 5.583 78.05-3.964 110.058-7.347 0-101.526 0-101.526 0zm-128.603-141.766c0-9.207 7.495-16.697 16.707-16.697h325.315c9.213 0 16.708 7.49 16.708 16.697 0 9.212-7.495 16.708-16.708 16.708-106.735 0-228.862 0-325.315 0-9.212 0-16.707-7.496-16.707-16.708zm34.714 80.421 3.824-29.62c.863-6.672 2.771-13.076 5.681-19.094h65.109c-6.745 34.671-5.891 75.203 3.663 110.058h-24.357c-32.733.001-58.132-28.784-53.92-61.344zm-26.954 121.923c-12.566 0-22.789-10.223-22.789-22.79 0-12.566 10.223-22.789 22.789-22.789h12.244v45.579zm123.391 85.572c0 8.512-6.925 15.437-15.437 15.437h-41.465c-8.079 0-13.641-8.199-10.505-15.743.36-.871-.645 2.57 15.328-56.978 1.515-5.658-3.769-10.797-9.382-9.129l-23.609 7.021c-5.663 1.292-11.076-3.007-11.076-8.836 0-.153 0-62.922 0-62.922h96.147v131.15zm66.657 80.896h-36.885v-83.357h36.885zm125.918-149.124c0 5.814-5.398 10.132-11.077 8.835l-23.609-7.02c-5.602-1.666-10.901 3.459-9.382 9.129 15.953 59.472 14.965 56.099 15.328 56.978 3.101 7.461-2.337 15.743-10.506 15.743h-41.464c-8.512 0-15.437-6.925-15.437-15.437 0-8.835 0-35.147 0-47.868 0-4.142-3.358-7.5-7.5-7.5s-7.5 3.358-7.5 7.5v30.406c-13.698 0-52.745 0-66.427 0v-113.688h66.427v53.283c0 4.142 3.358 7.5 7.5 7.5s7.5-3.358 7.5-7.5v-53.283h96.147v53.079zm27.243-17.344h-12.243v-45.579h12.243c12.566 0 22.79 10.223 22.79 22.789 0 12.567-10.224 22.79-22.79 22.79z"/></g></g></svg>