<svg id="Capa_1" enable-background="new 0 0 511.998 511.998" height="512" viewBox="0 0 511.998 511.998" width="512" xmlns="http://www.w3.org/2000/svg"><g><g><path d="m510.476 158.672c-24.733-32.587-50.427-57.507-76.367-74.065-3.491-2.228-8.128-1.205-10.357 2.286-2.229 3.492-1.205 8.129 2.286 10.357 22.742 14.517 45.441 36.063 67.546 64.099-24.655 15.738-44.694 25.257-62.59 29.75-1.475.37-2.922.697-4.353.996-53.913 7.992-84.295-23.871-170.355-27.09-.187-.007-.374-.007-.561 0-124.118 4.642-128.999 65.475-237.299-3.656 9.721-12.329 19.61-23.473 29.464-33.197 2.948-2.91 2.98-7.658.07-10.606-2.91-2.949-7.658-2.979-10.606-.07-12.036 11.878-24.088 25.738-35.82 41.196-1.826 2.413-1.52 5.154-1.508 5.054.058.833 1.577 20.671 15.721 45.337 12.671 22.098 38.426 52.685 89.244 73.796 2.283 3.304 4.715 6.575 7.3 9.799v125.547c0 18.973 15.436 34.409 34.409 34.409s34.409-15.436 34.409-34.409v-56.328c0-8.418 6.849-15.267 15.267-15.267s15.267 6.849 15.267 15.267v20.874c0 18.973 15.436 34.409 34.41 34.409s34.409-15.436 34.409-34.409v-75.015c27.383-1.142 52.777-4.225 75.784-9.227 8.432 11.791 26.082 13.708 36.627 2.165 5.253-5.75 9.941-11.734 14.144-17.816 50.877-21.135 76.637-51.768 89.303-73.901 14.13-24.69 15.606-44.418 15.662-45.246 0-.002 0-.004 0-.006.117-1.723-.403-3.577-1.506-5.033zm-170.284 35.863c13.893 31.643 12.864 56.835 11.755 89.56-31.074 6.648-64.296 9.153-95.942 9.153-31.73 0-64.798-2.497-95.943-9.16-.015-.43-.041-.861-.078-1.294-2.524-29.409-.032-61.238 11.833-88.259 29.023-8.699 53.47-13.354 84.187-14.529 30.586 1.169 54.963 5.769 84.188 14.529zm-224.599 77.171c-.001-.002-.002-.003-.003-.005-15.218-23.092-22.982-47.601-26.78-63.743 23.38 3.512 42.109-.967 64.761-7.831-13.75 40.329-8.199 82.332-8.547 85.785-.672 6.277-8.331 9.756-13.518 5.828-2.747-2.094-11.22-12.914-15.913-20.034zm-86.474-69.482c-4.988-8.588-8.237-16.513-10.343-22.977 16.722 10.14 35.174 19.737 53.899 25.145 2.844 14.289 8.339 34.535 18.796 55.511-34.027-18.256-52.526-40.763-62.352-57.679zm236.345 105.95v74.578c0 10.702-8.707 19.409-19.409 19.409s-19.41-8.707-19.41-19.409v-20.874c0-16.689-13.578-30.267-30.267-30.267s-30.267 13.578-30.267 30.267v56.328c0 10.702-8.707 19.409-19.409 19.409s-19.409-8.707-19.409-19.409v-111.685c10.51 4.544 22.389.489 28.468-8.01 25.742 5.648 59.875 9.737 100.245 9.737 3.083 0 7.678-.047 9.458-.074zm116.337-17.616c-4.813 5.271-12.565 2.526-14.414-2.795-1.158-3.843 5.385-45.531-8.948-87.636 22.518 6.846 41.361 11.347 64.761 7.832-7.037 29.905-20.593 59.821-41.399 82.599zm101.083-88.321c-15.892 27.349-40.074 45.666-62.328 57.632 10.445-20.964 15.936-41.195 18.779-55.477 16.038-4.631 33.464-12.765 53.629-24.984.091-.055.179-.107.27-.162-2.107 6.469-5.358 14.398-10.35 22.991z"/><path d="m270.935 88.638c-8.931 6.672-20.93 6.671-29.86 0-15.376-11.487-40.314-25.792-71.799-28.711-36.535-3.385-73.137 9.083-108.782 37.064-3.258 2.558-3.826 7.272-1.268 10.531 2.566 3.269 7.282 3.818 10.53 1.268 32.526-25.535 65.543-36.949 98.135-33.928 28.008 2.597 50.375 15.459 64.206 25.792 14.3 10.683 33.515 10.683 47.815 0 25.867-19.323 67.586-38.002 119.44-17.253 3.846 1.54 8.211-.331 9.749-4.177 1.539-3.846-.332-8.21-4.177-9.749-61.383-24.561-110.296 1.463-133.989 19.163z"/></g></g></svg>