<svg id="Capa_1" enable-background="new 0 0 512 512" height="512" viewBox="0 0 512 512" width="512" xmlns="http://www.w3.org/2000/svg"><g><g><path d="m192.403 263.02c-4.142 0-7.5 3.358-7.5 7.5v12.22c0 4.142 3.358 7.5 7.5 7.5s7.5-3.358 7.5-7.5v-12.22c0-4.143-3.358-7.5-7.5-7.5z"/><path d="m319.596 263.02c-4.142 0-7.5 3.358-7.5 7.5v12.22c0 4.142 3.358 7.5 7.5 7.5s7.5-3.358 7.5-7.5v-12.22c0-4.143-3.358-7.5-7.5-7.5z"/><path d="m277.694 276.722c-3.123-2.721-7.86-2.396-10.582.727-2.806 3.219-6.856 5.066-11.113 5.066-4.256 0-8.307-1.847-11.112-5.066-2.721-3.124-7.459-3.448-10.582-.727s-3.448 7.459-.727 10.582c5.655 6.49 13.827 10.211 22.421 10.211s16.767-3.722 22.421-10.211c2.722-3.123 2.397-7.861-.726-10.582z"/><path d="m466.889 457.859c2.117-7.366 3.187-15.016 3.187-22.835 0-34.24-20.483-63.818-50.345-73.609-3.898-16.108-10.635-31.421-19.865-45.191 30.362-18.251 46.971-41.701 46.971-66.66 0-38.655-37.942-65.341-73.727-79.907-.221-.458-66.015-137.05-66.369-137.785-9.332-19.361-29.248-31.872-50.741-31.872s-41.41 12.511-50.741 31.874c-.337.7-66.198 137.429-66.369 137.783-35.831 14.585-73.727 41.277-73.727 79.907 0 24.948 16.594 48.387 46.931 66.635-9.277 13.804-16.031 29.162-19.894 45.238-29.825 9.814-50.276 39.373-50.276 73.587 0 7.82 1.069 15.47 3.187 22.835-11.934 5.586-19.96 17.709-19.96 31.379 0 12.551 10.21 22.762 22.761 22.762h65.111c7.851 0 15.515-1.39 22.86-4.094 3.549 2.564 7.892 4.094 12.595 4.094h215.042c4.703 0 9.047-1.53 12.596-4.095 7.345 2.704 15.009 4.095 22.86 4.095h65.111c12.551 0 22.762-10.211 22.762-22.762 0-13.67-8.026-25.793-19.96-31.379zm-287.628-337.457c15.303-3.109 29.655-4.701 30.732-5.06 3.31-1.103 5.5-4.413 5.067-8.011-.496-4.112-4.23-7.046-8.343-6.549-5.796.698-13.037 1.738-19.364 2.823l31.419-65.221c6.846-14.205 21.459-23.384 37.228-23.384s30.381 9.179 37.227 23.383l31.416 65.214c-21.304-3.7-45.087-5.751-68.643-5.751-6.308 0-12.803.152-19.304.452-4.129.19-7.338 3.692-7.146 7.838.191 4.137 3.692 7.34 7.838 7.146 6.271-.29 12.533-.436 18.612-.436 27.033 0 52.794 2.669 76.728 7.535l20.288 42.125c-30.991-9.559-64.84-13.743-97.016-13.743-32.046 0-65.903 4.146-97.017 13.743zm-99.097 129.162c0-32.399 36.734-55.173 66.945-67.027 34.025-13.311 72.645-18.773 108.892-18.773 91.63 0 175.836 36.983 175.836 85.801 0 19.813-14.506 39.048-41.013 54.596-3.666-4.357-8.403-9.333-12.967-13.486-16.969-15.444-13.169-35.357-13.689-38.549 0-31.932-25.839-57.838-57.828-57.838-21.552 0-40.39 11.85-50.338 29.376-9.949-17.526-28.787-29.376-50.339-29.376-31.887 0-57.828 25.946-57.828 57.838-.225 5.225.835 11.491-2.038 20.406-4.751 14.746-12.315 17.017-24.625 31.624-26.504-15.548-41.008-34.782-41.008-54.592zm32.859 247.436h-65.111c-4.279 0-7.761-3.482-7.761-7.762 0-9.4 6.689-17.509 15.905-19.28 4.613-.886 7.289-5.758 5.557-10.128-3.111-7.851-4.688-16.197-4.688-24.807 0-24.577 12.802-46.134 32.25-56.128-4.554 42.099 10.935 79.448 38.183 104.908-1.043 7.589-.007 10.67.029 11.142-4.661 1.366-9.468 2.055-14.364 2.055zm28.88-6.575c0-18.751 15.302-33.798 33.798-33.798.583 0 1.161.015 1.737.044 17.735.902 32.062 15.604 32.062 33.754 0 3.392-2.406 6.257-6.427 6.568-.05.001-.098.007-.148.007h-54.446c-3.601 0-6.576-2.932-6.576-6.575zm81.576 6.575c.595-1.849 1.021-4.364 1.021-6.575 0-26.908-21.891-48.798-48.798-48.798-4.274 0-8.571.561-12.689 1.657-.275-2.926-.414-5.865-.414-8.797 0-51.507 41.9-93.411 93.401-93.411 21.422 0 42.353 7.44 58.938 20.951 3.211 2.615 7.936 2.133 10.552-1.078s2.133-7.936-1.078-10.552c-19.252-15.684-43.548-24.321-68.411-24.321-59.773 0-108.401 48.633-108.401 108.411 0 5.089.362 10.194 1.074 15.24-6.755 4.478-12.351 10.625-16.184 17.967-23.318-25.104-34.465-60.41-26.56-98.813.016-.075.019-.151.032-.226 9.112-43.869 36.973-64.94 42.471-71.128 17.765-19.993 13.882-41.897 14.401-45.401 0-23.621 19.212-42.838 42.828-42.838 23.622 0 42.839 19.217 42.839 42.838 0 4.142 3.358 7.5 7.5 7.5s7.5-3.358 7.5-7.5c0-23.621 19.217-42.838 42.838-42.838 23.651 0 42.828 19.147 42.828 42.838.529 3.038-3.918 29.156 18.594 49.643 46.283 42.119 57.655 117.861 11.102 164.799-3.683-6.554-9.035-12.408-15.546-16.754.72-5.073 1.085-10.208 1.085-15.327 0-21.559-6.318-42.391-18.272-60.244-2.305-3.442-6.963-4.363-10.405-2.059-3.442 2.305-4.364 6.963-2.059 10.405 10.295 15.375 15.736 33.321 15.736 51.898 0 2.935-.139 5.877-.414 8.805-3.802-1.023-8.335-1.665-12.688-1.665-26.908 0-48.798 21.891-48.798 48.798 0 2.032.362 4.498 1.021 6.575zm85.596 0c-3.425 0-6.575-2.806-6.575-6.575 0-18.603 15.127-33.798 33.798-33.798h.004c18.514.004 33.794 15.079 33.794 33.798 0 3.61-2.947 6.575-6.575 6.575zm155.012 0h-65.111c-4.896 0-9.703-.689-14.364-2.054.78-4.146.487-8.676-.233-12.851 30.661-28.423 42.678-64.581 38.433-103.206 19.456 9.991 32.263 31.551 32.263 56.134 0 8.609-1.578 16.956-4.688 24.807-1.731 4.368.942 9.241 5.558 10.128 9.216 1.771 15.905 9.879 15.905 19.28-.001 4.28-3.483 7.762-7.763 7.762z"/></g></g></svg>