<svg id="Capa_1" enable-background="new 0 0 512 512" height="512" viewBox="0 0 512 512" width="512" xmlns="http://www.w3.org/2000/svg"><g><g><path d="m364.672 150.83c-6.125-18.536-24.014-30.368-43.484-28.777-16.309 1.334-32.019 6.46-46.695 15.235-11.41 6.823-25.585 6.823-36.994 0-14.395-8.607-29.796-13.706-45.778-15.155-20.16-1.829-38.55 10.358-44.705 29.638-3.217 10.079-4.848 20.891-4.848 32.136 0 29.495 11.055 55.135 31.97 74.149 20.962 19.061 49.995 29.577 81.757 29.61h.123c26.762 0 51.419-7.33 71.303-21.199 3.398-2.369 4.231-7.045 1.861-10.442-2.369-3.398-7.046-4.231-10.442-1.861-17.354 12.104-39.043 18.502-62.722 18.502h-.115c-28.02-.029-53.474-9.159-71.674-25.708-17.703-16.095-27.06-37.897-27.06-63.051 0-9.695 1.392-18.973 4.138-27.575 4.001-12.529 15.951-20.443 29.059-19.261 13.721 1.245 26.989 5.649 39.435 13.091 16.158 9.663 36.233 9.662 52.391 0 12.687-7.586 26.219-12.014 40.219-13.159 12.356-1.012 24.136 6.784 28.018 18.533 2.916 8.827 4.395 18.375 4.395 28.381 0 19.684-5.566 37.032-16.543 51.561-2.497 3.305-1.842 8.009 1.463 10.505 3.304 2.497 8.009 1.842 10.505-1.463 12.807-16.95 19.576-37.906 19.576-60.603-.001-11.607-1.734-22.74-5.153-33.087z"/><path d="m204.645 188.587c3.571 0 6.736-2.561 7.378-6.2.719-4.079-2.005-7.97-6.084-8.689l-20.99-3.701c-4.075-.717-7.97 2.004-8.689 6.084-.719 4.079 2.005 7.97 6.084 8.689l20.99 3.701c.44.078.878.116 1.311.116z"/><path d="m327.042 169.998-20.99 3.701c-4.079.719-6.804 4.61-6.084 8.689.642 3.639 3.806 6.2 7.378 6.2.432 0 .871-.038 1.311-.115l20.99-3.701c4.079-.719 6.804-4.61 6.084-8.689-.719-4.08-4.606-6.804-8.689-6.085z"/><path d="m277.222 209.888c0 3.784-3.079 6.863-6.863 6.863s-6.863-3.079-6.863-6.863c0-4.142-3.358-7.5-7.5-7.5s-7.5 3.358-7.5 7.5c0 3.784-3.079 6.863-6.863 6.863s-6.863-3.079-6.863-6.863c0-4.142-3.358-7.5-7.5-7.5s-7.5 3.358-7.5 7.5c0 12.056 9.808 21.864 21.864 21.864 5.495 0 10.518-2.042 14.363-5.401 3.845 3.359 8.869 5.401 14.363 5.401 12.056 0 21.864-9.808 21.864-21.864 0-4.142-3.358-7.5-7.5-7.5-4.144-.001-7.502 3.357-7.502 7.5z"/><path d="m185.468 196.11v11.923c0 4.142 3.358 7.5 7.5 7.5s7.5-3.358 7.5-7.5v-11.923c0-4.142-3.358-7.5-7.5-7.5-4.141 0-7.5 3.358-7.5 7.5z"/><path d="m311.522 196.11v11.923c0 4.142 3.358 7.5 7.5 7.5s7.5-3.358 7.5-7.5v-11.923c0-4.142-3.358-7.5-7.5-7.5s-7.5 3.358-7.5 7.5z"/><path d="m410.411 204.696c46.985-69.871 32.619-126.159 12.166-161.166v-.001c0-.001-.001-.001-.001-.002-7.018-12.021-15.737-23.296-25.911-33.512-10.689-10.74-27.309-13.119-40.415-5.787-12.867 7.194-30.334 20.489-43.188 43.682-17.805-6.175-37.071-9.409-57.041-9.409-.057 0-.119 0-.176 0-19.923.019-39.146 3.254-56.911 9.415-12.855-23.196-30.323-36.493-43.19-43.687-13.108-7.333-29.728-4.953-40.414 5.784-10.177 10.217-18.896 21.493-25.914 33.513-.966 1.94-9.806 15.819-15.071 36.252-1.034 4.011 1.38 8.101 5.391 9.135 4.01 1.031 8.101-1.38 9.135-5.392 2.24-8.691 5.52-17.283 9.778-25.628 14.313 9.957 25.111 22.365 32.601 36.809-18.629 23.033-28.63 50.423-30.635 78.677-10.395-20.973-15.563-41.729-15.401-61.966.033-4.142-3.298-7.527-7.44-7.56-.021 0-.041 0-.062 0-4.114 0-7.466 3.319-7.498 7.44-.246 30.674 10.311 62.091 31.366 93.404 4.456 33.076 19.85 62.806 44.471 85.197 10.316 9.382 21.971 17.241 34.618 23.474 0 0-44.231 22.439-55.618 28.218-15.748 7.989-22.066 27.309-14.082 43.073 8.035 15.828 27.392 22.02 43.071 14.07.637-.323-.992.503 20.838-10.574l-.426 1.457c-3.528 12.06 2.805 24.107 13.383 28.739v55.819c0 20.859 16.971 37.83 37.83 37.83 12.401 0 23.426-5.998 30.33-15.245 6.903 9.247 17.929 15.245 30.33 15.245 20.859 0 37.829-16.971 37.829-37.83.001-48.231 0-7.679 0-55.819 10.575-4.631 16.914-16.67 13.382-28.739l-.426-1.457 2.444 1.24 18.397 9.336c15.837 8.029 35.118 1.589 43.072-14.078 7.981-15.758 1.663-35.078-14.084-43.066-10.562-5.36-55.611-28.215-55.611-28.215 12.599-6.211 24.215-14.038 34.505-23.379 24.685-22.407 40.117-52.173 44.578-85.297zm.965-31.314c-2.033-28.577-12.176-55.845-30.634-78.679 7.78-15.005 19.199-27.639 32.603-36.81 8.977 17.564 13.494 35.956 13.441 54.777-.056 19.834-5.226 40.168-15.41 60.712zm-47.805-156.062c7.263-4.063 16.498-2.714 22.462 3.278 7.382 7.412 14.12 15.712 19.749 24.298-14.504 9.723-26.908 22.941-35.706 38.054-12.701-12.522-27.306-22.266-42.97-29.416 11.062-19.121 25.648-30.166 36.465-36.214zm-237.612 3.276c5.964-5.991 15.2-7.338 22.462-3.275 10.817 6.048 25.404 17.095 36.467 36.218-15.755 7.19-30.329 16.95-42.974 29.412-8.776-15.08-21.205-28.334-35.706-38.055 5.63-8.586 12.368-16.886 19.751-24.3zm143.231 309.335v66.422c0 .353.008.705.023 1.056-9.255 0-17.129 0-26.435 0 .016-.351.023-.703.023-1.056v-66.425c8.789.651 17.864.628 26.389.003zm53.95 63.894c1.69 5.777-2.641 11.533-8.642 11.533h-21.304c-4.963 0-9.004-4.087-9.004-9.004v-68.147c6.319-1.002 12.52-2.342 18.578-4.01 5.831 19.925 14.269 48.767 20.372 69.628zm-13.986 54.313h-45.658l.001-35.729h11.864c4.448 4.975 10.841 7.949 17.833 7.949h15.96zm-120.304-54.313 5.293-18.091c0-.001.001-.002.001-.003l15.08-51.54c6.057 1.668 12.258 3.008 18.576 4.011v68.152c0 4.918-4.039 9.004-9.005 9.004h-21.303c-5.991-.001-10.334-5.749-8.642-11.533zm13.987 26.533h15.959c6.703 0 13.195-2.761 17.834-7.949h11.865v35.728h-45.658zm-9.05-96.824-13.128 44.869-8.322 4.222-15.416-30.389zm-46.531 61.818c-8.381 4.251-18.658.892-22.907-7.476-4.247-8.384-.887-18.663 7.49-22.912l11.705-5.94c5.12 10.093 12.749 25.132 15.416 30.389zm78.41 111.647c-12.588 0-22.829-10.241-22.829-22.829v-11.031h45.658v11.031c0 12.588-10.241 22.829-22.829 22.829zm83.488-22.829c0 12.588-10.241 22.829-22.829 22.829s-22.829-10.241-22.829-22.829v-11.031h45.658zm78.491-96.302c-4.252 8.375-14.531 11.731-22.907 7.484l-11.707-5.941c2.615-5.155 11.98-23.615 15.416-30.389l11.706 5.94c8.376 4.251 11.736 14.529 7.492 22.906zm-47.991-5.243-8.322-4.222c-2.883-9.855-10.402-35.552-13.128-44.869l36.865 18.702c-5.39 10.629-10.023 19.761-15.415 30.389zm16.097-93.738c-54.338 49.325-146.408 48.291-199.607-.09-22.792-20.727-36.729-48.55-40.107-79.485-6.438-59.717 25.312-112.696 82.049-135.08.07-.028.135-.064.205-.093 17.708-6.952 37.221-10.617 57.569-10.636h.161c20.382 0 39.931 3.66 57.67 10.623.074.032.144.07.219.1 57.014 22.496 88.445 75.754 82.043 135.106-3.387 30.97-17.357 58.816-40.202 79.555z"/></g></g></svg>